<?xml version="1.0" standalone="no"?><!DOCTYPE svg PUBLIC "-//W3C//DTD SVG 1.1//EN" "http://www.w3.org/Graphics/SVG/1.1/DTD/svg11.dtd"><svg t="1640788134631" class="icon" viewBox="0 0 1024 1024" version="1.1" xmlns="http://www.w3.org/2000/svg" p-id="5469" xmlns:xlink="http://www.w3.org/1999/xlink" width="22" height="22"><defs><style type="text/css"></style></defs><path d="M562.56 666.56H249.6a110.4 110.4 0 0 1-110.08-110.4V243.2A110.4 110.4 0 0 1 249.6 133.12h312.96A110.4 110.4 0 0 1 672 243.2v312.96a110.4 110.4 0 0 1-109.44 110.4zM249.6 197.12A46.08 46.08 0 0 0 203.52 243.2v312.96a46.08 46.08 0 0 0 46.08 46.4h312.96A46.08 46.08 0 0 0 608 556.16V243.2a46.08 46.08 0 0 0-46.08-46.08z" p-id="5470"></path><path d="M797.12 901.12h-312.96a110.4 110.4 0 0 1-110.08-110.08v-312.96a110.4 110.4 0 0 1 110.08-110.4h312.96a110.72 110.72 0 0 1 110.4 110.4v312.96a110.4 110.4 0 0 1-110.4 110.08z m-312.96-469.44a46.4 46.4 0 0 0-46.08 46.4v312.96a46.4 46.4 0 0 0 46.08 46.08h312.96a46.4 46.4 0 0 0 46.4-46.08v-312.96a46.4 46.4 0 0 0-46.4-46.4z" p-id="5471"></path></svg>