<?xml version="1.0" standalone="no"?><!DOCTYPE svg PUBLIC "-//W3C//DTD SVG 1.1//EN" "http://www.w3.org/Graphics/SVG/1.1/DTD/svg11.dtd"><svg t="1640773158625" class="icon" viewBox="0 0 1024 1024" version="1.1" xmlns="http://www.w3.org/2000/svg" p-id="3278" xmlns:xlink="http://www.w3.org/1999/xlink" width="22" height="22"><defs><style type="text/css"></style></defs><path d="M512 577.984l-107.008 152.96c0.64 41.408-11.328 77.056-36.032 107.072-24.64 29.952-57.28 48.64-97.984 56-40.64 5.952-77.44-1.344-110.528-22.016-32.96-20.672-55.808-50.688-68.48-90.048a157.44 157.44 0 0 1 7.488-112.512c16.32-35.648 43.136-62.144 80.512-79.488 38.016-16 75.648-18.176 112.96-6.464 37.376 11.648 67.008 34.816 88.96 69.504L472.96 522.88 196.928 128a28.864 28.864 0 0 1-5.504-23.488 32.768 32.768 0 0 1 13.504-20.48 28.736 28.736 0 0 1 23.488-5.504c8.32 1.664 15.168 6.144 20.48 13.44l393.024 561.024c22.72-34.624 52.48-57.792 89.536-69.504 36.992-11.648 74.496-9.472 112.512 6.528 37.312 17.28 64.192 43.84 80.512 79.488 16.32 35.648 18.816 73.152 7.488 112.512-12.672 39.296-35.52 69.312-68.48 89.984a160.512 160.512 0 0 1-208-33.984c-25.024-29.952-37.184-65.664-36.544-107.008L512 577.984z m54.016-188.992l208.96-296.96a32.64 32.64 0 0 1 20.48-13.568 28.8 28.8 0 0 1 23.552 5.504c7.296 5.376 11.84 12.16 13.44 20.48a28.672 28.672 0 0 1-5.44 23.552L606.016 444.992l-39.04-56h-0.96z m-376 425.984c14.72 10.048 30.336 15.872 46.976 17.536 16.64 1.664 33.024-1.216 49.024-8.512 16-7.36 28.8-18.048 38.464-32 9.664-14.016 15.36-29.696 17.024-47.04a91.136 91.136 0 0 0-8.512-48.96 95.488 95.488 0 0 0-33.024-38.016c-22.656-14.72-46.336-19.712-71.04-15.04a92.16 92.16 0 0 0-59.968 40c-15.36 22.016-20.992 45.376-16.96 70.016 4.032 24.704 16.64 45.376 38.016 62.08z m643.968 0a95.04 95.04 0 0 0 41.984-87.488 92.416 92.416 0 0 0-55.488-79.488 97.088 97.088 0 0 0-50.048-8.512 89.728 89.728 0 0 0-46.464 18.496c-21.312 16-33.984 36.48-38.016 61.44-4.032 25.024 1.664 48.384 16.96 70.08 15.36 21.632 35.392 34.816 60.032 39.488 24.64 4.608 48.32 0 71.04-14.08v0.064z" fill="#000000" p-id="3279"></path></svg>