<?xml version="1.0" standalone="no"?><!DOCTYPE svg PUBLIC "-//W3C//DTD SVG 1.1//EN" "http://www.w3.org/Graphics/SVG/1.1/DTD/svg11.dtd"><svg t="1640773616216" class="icon" viewBox="0 0 1024 1024" version="1.1" xmlns="http://www.w3.org/2000/svg" p-id="2000" xmlns:xlink="http://www.w3.org/1999/xlink" width="22" height="22"><defs><style type="text/css"></style></defs><path d="M597.333333 256H188.16L285.866667 158.293333A42.496 42.496 0 1 0 225.706667 98.133333l-170.666667 170.666667a42.496 42.496 0 0 0 0 60.16l170.666667 170.666667c8.533333 8.106667 19.2 12.373333 30.293333 12.373333s21.76-4.266667 30.293333-12.373333a42.496 42.496 0 0 0 0-60.16L188.16 341.333333H597.333333c141.226667 0 256 114.773333 256 256s-114.773333 256-256 256h-72.106666c-23.466667 0-42.666667 19.2-42.666667 42.666667s19.2 42.666667 42.666667 42.666667H597.333333c188.16 0 341.333333-153.173333 341.333334-341.333334s-153.173333-341.333333-341.333334-341.333333z" p-id="2001"></path></svg>