<svg width="101" height="32" viewBox="0 0 101 32" fill="none" xmlns="http://www.w3.org/2000/svg">
<g clip-path="url(#clip0_50994_7029)">
<path fill-rule="evenodd" clip-rule="evenodd" d="M22.19 11.5075C22.04 11.065 21.62 10.75 21.125 10.75H19.25V9.25H14.75V10.75H12.875C12.38 10.75 11.9675 11.065 11.81 11.5075L10.25 16V22C10.25 22.4125 10.5875 22.75 11 22.75H11.75C12.1625 22.75 12.5 22.4125 12.5 22V21.25H21.5V22C21.5 22.4125 21.8375 22.75 22.25 22.75H23C23.4125 22.75 23.75 22.4125 23.75 22V16L22.19 11.5075ZM13.1375 12.25H20.855L21.635 14.5H12.3575L13.1375 12.25ZM21.5 19.75H22.25V16.255L22.1675 16H11.84L11.75 16.255V19.75H12.5H21.5ZM13.625 19C14.2463 19 14.75 18.4963 14.75 17.875C14.75 17.2537 14.2463 16.75 13.625 16.75C13.0037 16.75 12.5 17.2537 12.5 17.875C12.5 18.4963 13.0037 19 13.625 19ZM21.5 17.875C21.5 18.4963 20.9963 19 20.375 19C19.7537 19 19.25 18.4963 19.25 17.875C19.25 17.2537 19.7537 16.75 20.375 16.75C20.9963 16.75 21.5 17.2537 21.5 17.875Z" fill="#6750A4"/>
<path d="M41.6295 19.6396V21H36.3453V19.6396H41.6295ZM36.8307 11.0469V21H35.1148V11.0469H36.8307ZM40.9391 15.2031V16.543H36.3453V15.2031H40.9391ZM41.5953 11.0469V12.4141H36.3453V11.0469H41.5953ZM44.6006 15.1826V21H42.9531V13.6035H44.5049L44.6006 15.1826ZM44.3066 17.0283L43.7734 17.0215C43.778 16.4974 43.8509 16.0166 43.9922 15.5791C44.138 15.1416 44.3385 14.7656 44.5938 14.4512C44.8535 14.1367 45.1634 13.8952 45.5234 13.7266C45.8835 13.5534 46.2845 13.4668 46.7266 13.4668C47.082 13.4668 47.4033 13.5169 47.6904 13.6172C47.9821 13.7129 48.2305 13.8701 48.4355 14.0889C48.6452 14.3076 48.8047 14.5924 48.9141 14.9434C49.0234 15.2897 49.0781 15.7158 49.0781 16.2217V21H47.4238V16.2148C47.4238 15.8594 47.3714 15.5791 47.2666 15.374C47.1663 15.1644 47.0182 15.0163 46.8223 14.9297C46.6309 14.8385 46.3916 14.793 46.1045 14.793C45.8219 14.793 45.569 14.8522 45.3457 14.9707C45.1224 15.0892 44.9333 15.251 44.7783 15.4561C44.6279 15.6611 44.5117 15.8981 44.4297 16.167C44.3477 16.4359 44.3066 16.723 44.3066 17.0283ZM55.0297 19.5166V15.9893C55.0297 15.7249 54.9818 15.4971 54.8861 15.3057C54.7904 15.1143 54.6446 14.9661 54.4486 14.8613C54.2572 14.7565 54.0157 14.7041 53.724 14.7041C53.4551 14.7041 53.2227 14.7497 53.0268 14.8408C52.8308 14.932 52.6781 15.055 52.5687 15.21C52.4594 15.3649 52.4047 15.5404 52.4047 15.7363H50.7641C50.7641 15.4447 50.8347 15.1621 50.976 14.8887C51.1173 14.6152 51.3223 14.3714 51.5912 14.1572C51.8601 13.943 52.1814 13.7744 52.5551 13.6514C52.9288 13.5283 53.348 13.4668 53.8129 13.4668C54.3689 13.4668 54.8611 13.5602 55.2895 13.7471C55.7224 13.9339 56.0619 14.2165 56.308 14.5947C56.5587 14.9684 56.684 15.4378 56.684 16.0029V19.291C56.684 19.6283 56.7068 19.9313 56.7523 20.2002C56.8025 20.4645 56.8731 20.6947 56.9643 20.8906V21H55.2758C55.1983 20.8223 55.1368 20.5967 55.0912 20.3232C55.0502 20.0452 55.0297 19.7764 55.0297 19.5166ZM55.2689 16.502L55.2826 17.5205H54.1C53.7947 17.5205 53.5258 17.5501 53.2934 17.6094C53.0609 17.6641 52.8673 17.7461 52.7123 17.8555C52.5574 17.9648 52.4411 18.097 52.3637 18.252C52.2862 18.4069 52.2475 18.5824 52.2475 18.7783C52.2475 18.9743 52.293 19.1543 52.3842 19.3184C52.4753 19.4779 52.6075 19.6032 52.7807 19.6943C52.9584 19.7855 53.1726 19.8311 53.4232 19.8311C53.7605 19.8311 54.0544 19.7627 54.3051 19.626C54.5603 19.4847 54.7608 19.3138 54.9066 19.1133C55.0525 18.9082 55.1299 18.7145 55.1391 18.5322L55.6723 19.2637C55.6176 19.4505 55.5242 19.651 55.392 19.8652C55.2598 20.0794 55.0867 20.2845 54.8725 20.4805C54.6628 20.6719 54.4099 20.8291 54.1137 20.9521C53.822 21.0752 53.4848 21.1367 53.102 21.1367C52.6189 21.1367 52.1882 21.041 51.81 20.8496C51.4317 20.6536 51.1355 20.3916 50.9213 20.0635C50.7071 19.7308 50.6 19.3548 50.6 18.9355C50.6 18.5436 50.6729 18.1973 50.8187 17.8965C50.9691 17.5911 51.1879 17.3359 51.475 17.1309C51.7667 16.9258 52.1221 16.7708 52.5414 16.666C52.9607 16.5566 53.4392 16.502 53.977 16.502H55.2689ZM58.5135 10.5H60.1609V19.4209L60.0037 21H58.5135V10.5ZM64.9871 17.2334V17.377C64.9871 17.9238 64.9256 18.4274 64.8025 18.8877C64.684 19.3434 64.5018 19.7399 64.2557 20.0771C64.0141 20.4144 63.7133 20.6764 63.3533 20.8633C62.9979 21.0456 62.5854 21.1367 62.116 21.1367C61.6557 21.1367 61.2547 21.0501 60.9129 20.877C60.5711 20.7038 60.284 20.4577 60.0516 20.1387C59.8237 19.8197 59.6391 19.4391 59.4979 18.9971C59.3566 18.555 59.2563 18.0674 59.1971 17.5342V17.0762C59.2563 16.5384 59.3566 16.0508 59.4979 15.6133C59.6391 15.1712 59.8237 14.7907 60.0516 14.4717C60.284 14.1481 60.5688 13.8997 60.9061 13.7266C61.2479 13.5534 61.6466 13.4668 62.1023 13.4668C62.5763 13.4668 62.9933 13.5579 63.3533 13.7402C63.7179 13.9225 64.021 14.1823 64.2625 14.5195C64.504 14.8522 64.684 15.2487 64.8025 15.709C64.9256 16.1693 64.9871 16.6774 64.9871 17.2334ZM63.3396 17.377V17.2334C63.3396 16.9007 63.3123 16.5885 63.2576 16.2969C63.2029 16.0007 63.1118 15.7409 62.9842 15.5176C62.8611 15.2943 62.6925 15.1188 62.4783 14.9912C62.2687 14.859 62.0066 14.793 61.6922 14.793C61.4005 14.793 61.1499 14.8431 60.9402 14.9434C60.7306 15.0436 60.5551 15.1803 60.4139 15.3535C60.2726 15.5267 60.1609 15.7272 60.0789 15.9551C60.0014 16.1829 59.949 16.429 59.9217 16.6934V17.9307C59.9627 18.2725 60.0493 18.5869 60.1814 18.874C60.3182 19.1566 60.5096 19.3844 60.7557 19.5576C61.0018 19.7262 61.3185 19.8105 61.7059 19.8105C62.0112 19.8105 62.2687 19.749 62.4783 19.626C62.688 19.5029 62.8543 19.332 62.9773 19.1133C63.1049 18.89 63.1961 18.6302 63.2508 18.334C63.31 18.0378 63.3396 17.7188 63.3396 17.377ZM68.2453 10.5V21H66.591V10.5H68.2453ZM73.4107 21.1367C72.8639 21.1367 72.3694 21.0479 71.9273 20.8701C71.4898 20.6878 71.1161 20.4349 70.8063 20.1113C70.5009 19.7878 70.2662 19.4072 70.1021 18.9697C69.9381 18.5322 69.8561 18.0605 69.8561 17.5547V17.2812C69.8561 16.7025 69.9404 16.1784 70.109 15.709C70.2776 15.2396 70.5123 14.8385 70.8131 14.5059C71.1139 14.1686 71.4693 13.9111 71.8795 13.7334C72.2896 13.5557 72.734 13.4668 73.2125 13.4668C73.7411 13.4668 74.2037 13.5557 74.6002 13.7334C74.9967 13.9111 75.3248 14.1618 75.5846 14.4854C75.8489 14.8044 76.0449 15.1849 76.1725 15.627C76.3046 16.069 76.3707 16.5566 76.3707 17.0898V17.7939H70.6559V16.6113H74.7438V16.4814C74.7346 16.1852 74.6754 15.9072 74.566 15.6475C74.4612 15.3877 74.2994 15.1781 74.0807 15.0186C73.8619 14.859 73.5702 14.7793 73.2057 14.7793C72.9322 14.7793 72.6884 14.8385 72.4742 14.957C72.2646 15.071 72.0891 15.2373 71.9479 15.4561C71.8066 15.6748 71.6972 15.9391 71.6197 16.249C71.5468 16.5544 71.5104 16.8984 71.5104 17.2812V17.5547C71.5104 17.8783 71.5536 18.179 71.6402 18.457C71.7314 18.7305 71.8635 18.9697 72.0367 19.1748C72.2099 19.3799 72.4195 19.5417 72.6656 19.6602C72.9117 19.7741 73.192 19.8311 73.5064 19.8311C73.9029 19.8311 74.2561 19.7513 74.566 19.5918C74.8759 19.4323 75.1448 19.2067 75.3727 18.915L76.2408 19.7559C76.0813 19.9883 75.874 20.2116 75.6188 20.4258C75.3635 20.6354 75.0514 20.8063 74.6822 20.9385C74.3176 21.0706 73.8938 21.1367 73.4107 21.1367ZM82.2676 19.4688V10.5H83.9219V21H82.4248L82.2676 19.4688ZM77.4551 17.3838V17.2402C77.4551 16.6797 77.5212 16.1693 77.6533 15.709C77.7855 15.2441 77.9769 14.8454 78.2275 14.5127C78.4782 14.1755 78.7835 13.918 79.1436 13.7402C79.5036 13.5579 79.9092 13.4668 80.3604 13.4668C80.807 13.4668 81.1989 13.5534 81.5361 13.7266C81.8734 13.8997 82.1605 14.1481 82.3975 14.4717C82.6344 14.7907 82.8236 15.1735 82.9648 15.6201C83.1061 16.0622 83.2064 16.5544 83.2656 17.0967V17.5547C83.2064 18.0833 83.1061 18.5664 82.9648 19.0039C82.8236 19.4414 82.6344 19.8197 82.3975 20.1387C82.1605 20.4577 81.8711 20.7038 81.5293 20.877C81.1921 21.0501 80.7979 21.1367 80.3467 21.1367C79.9001 21.1367 79.4967 21.0433 79.1367 20.8564C78.7812 20.6696 78.4782 20.4076 78.2275 20.0703C77.9769 19.7331 77.7855 19.3366 77.6533 18.8809C77.5212 18.4206 77.4551 17.9215 77.4551 17.3838ZM79.1025 17.2402V17.3838C79.1025 17.721 79.1322 18.0355 79.1914 18.3271C79.2552 18.6188 79.3532 18.8763 79.4854 19.0996C79.6175 19.3184 79.7884 19.4915 79.998 19.6191C80.2122 19.7422 80.4674 19.8037 80.7637 19.8037C81.1374 19.8037 81.445 19.7217 81.6865 19.5576C81.9281 19.3936 82.1172 19.1725 82.2539 18.8945C82.3952 18.612 82.4909 18.2975 82.541 17.9512V16.7139C82.5137 16.445 82.4567 16.1943 82.3701 15.9619C82.2881 15.7295 82.1764 15.5267 82.0352 15.3535C81.8939 15.1758 81.7184 15.0391 81.5088 14.9434C81.3037 14.8431 81.0599 14.793 80.7773 14.793C80.4766 14.793 80.2214 14.8568 80.0117 14.9844C79.8021 15.112 79.6289 15.2874 79.4922 15.5107C79.36 15.734 79.262 15.9938 79.1982 16.29C79.1344 16.5863 79.1025 16.903 79.1025 17.2402Z" fill="#1C1B1F"/>
</g>
<rect x="0.5" y="0.5" width="100" height="31" rx="7.5" stroke="#79747E"/>
<defs>
<clipPath id="clip0_50994_7029">
<rect width="101" height="32" rx="8" fill="white"/>
</clipPath>
</defs>
</svg>
