<svg width="412" height="80" viewBox="0 0 412 80" fill="none" xmlns="http://www.w3.org/2000/svg">
<rect width="412" height="80" fill="#FFFBFE"/>
<rect width="412" height="80" fill="#6750A4" fill-opacity="0.08"/>
<g clip-path="url(#clip0_51159_5121)">
<path fill-rule="evenodd" clip-rule="evenodd" d="M28 46C31.3137 46 34 43.3137 34 40C34 36.6863 31.3137 34 28 34C24.6863 34 22 36.6863 22 40C22 43.3137 24.6863 46 28 46Z" fill="#49454F"/>
</g>
<g clip-path="url(#clip1_51159_5121)">
<path fill-rule="evenodd" clip-rule="evenodd" d="M84 34L91 46H77L84 34Z" fill="#49454F"/>
</g>
<g clip-path="url(#clip2_51159_5121)">
<rect x="134" y="34" width="12" height="12" fill="#49454F"/>
</g>
<g clip-path="url(#clip3_51159_5121)">
<path d="M196 33L202.657 37.8369L200.114 45.6631H191.886L189.343 37.8369L196 33Z" fill="#49454F"/>
</g>
<g clip-path="url(#clip4_51159_5121)">
<g filter="url(#filter0_dd_51159_5121)">
<g clip-path="url(#clip5_51159_5121)">
<rect x="340" y="12" width="56" height="56" rx="16" fill="#E8DEF8"/>
<path d="M376 41H369V48H367V41H360V39H367V32H369V39H376V41Z" fill="#1D192B"/>
</g>
</g>
</g>
<defs>
<filter id="filter0_dd_51159_5121" x="329" y="5" width="78" height="78" filterUnits="userSpaceOnUse" color-interpolation-filters="sRGB">
<feFlood flood-opacity="0" result="BackgroundImageFix"/>
<feColorMatrix in="SourceAlpha" type="matrix" values="0 0 0 0 0 0 0 0 0 0 0 0 0 0 0 0 0 0 127 0" result="hardAlpha"/>
<feOffset dy="1"/>
<feGaussianBlur stdDeviation="1.5"/>
<feColorMatrix type="matrix" values="0 0 0 0 0 0 0 0 0 0 0 0 0 0 0 0 0 0 0.3 0"/>
<feBlend mode="normal" in2="BackgroundImageFix" result="effect1_dropShadow_51159_5121"/>
<feColorMatrix in="SourceAlpha" type="matrix" values="0 0 0 0 0 0 0 0 0 0 0 0 0 0 0 0 0 0 127 0" result="hardAlpha"/>
<feMorphology radius="3" operator="dilate" in="SourceAlpha" result="effect2_dropShadow_51159_5121"/>
<feOffset dy="4"/>
<feGaussianBlur stdDeviation="4"/>
<feColorMatrix type="matrix" values="0 0 0 0 0 0 0 0 0 0 0 0 0 0 0 0 0 0 0.15 0"/>
<feBlend mode="normal" in2="effect1_dropShadow_51159_5121" result="effect2_dropShadow_51159_5121"/>
<feBlend mode="normal" in="SourceGraphic" in2="effect2_dropShadow_51159_5121" result="shape"/>
</filter>
<clipPath id="clip0_51159_5121">
<rect x="8" y="20" width="40" height="40" rx="20" fill="white"/>
</clipPath>
<clipPath id="clip1_51159_5121">
<rect x="64" y="20" width="40" height="40" rx="20" fill="white"/>
</clipPath>
<clipPath id="clip2_51159_5121">
<rect x="120" y="20" width="40" height="40" rx="20" fill="white"/>
</clipPath>
<clipPath id="clip3_51159_5121">
<rect x="176" y="20" width="40" height="40" rx="20" fill="white"/>
</clipPath>
<clipPath id="clip4_51159_5121">
<rect x="340" y="12" width="56" height="56" rx="16" fill="white"/>
</clipPath>
<clipPath id="clip5_51159_5121">
<rect x="340" y="12" width="56" height="56" rx="16" fill="white"/>
</clipPath>
</defs>
</svg>
