<svg width="412" height="64" viewBox="0 0 412 64" fill="none" xmlns="http://www.w3.org/2000/svg">
<rect width="412" height="64" fill="#FFFBFE"/>
<g clip-path="url(#clip0_50717_9087)">
<path fill-rule="evenodd" clip-rule="evenodd" d="M19 28V26H37V28H19ZM19 33H37V31H19V33ZM19 38H37V36H19V38Z" fill="#49454F"/>
</g>
<path d="M175.116 31.8662H170.938V30.1797H175.116C175.925 30.1797 176.581 30.0508 177.082 29.793C177.583 29.5352 177.949 29.1771 178.178 28.7188C178.414 28.2604 178.532 27.7376 178.532 27.1504C178.532 26.6133 178.414 26.1084 178.178 25.6357C177.949 25.1631 177.583 24.7835 177.082 24.4971C176.581 24.2035 175.925 24.0566 175.116 24.0566H171.421V38H169.348V22.3594H175.116C176.298 22.3594 177.297 22.5635 178.113 22.9717C178.93 23.3799 179.549 23.9456 179.972 24.6689C180.394 25.3851 180.605 26.2051 180.605 27.1289C180.605 28.1315 180.394 28.9873 179.972 29.6963C179.549 30.4053 178.93 30.946 178.113 31.3184C177.297 31.6836 176.298 31.8662 175.116 31.8662ZM184.913 28.2031V38H182.926V26.377H184.859L184.913 28.2031ZM188.544 26.3125L188.533 28.1602C188.368 28.1243 188.211 28.1029 188.061 28.0957C187.917 28.0814 187.753 28.0742 187.566 28.0742C187.108 28.0742 186.703 28.1458 186.353 28.2891C186.002 28.4323 185.704 28.6328 185.461 28.8906C185.217 29.1484 185.024 29.4564 184.881 29.8145C184.745 30.1654 184.655 30.5521 184.612 30.9746L184.054 31.2969C184.054 30.5951 184.122 29.9362 184.258 29.3203C184.401 28.7044 184.619 28.1602 184.913 27.6875C185.207 27.2077 185.579 26.8353 186.03 26.5703C186.489 26.2982 187.033 26.1621 187.663 26.1621C187.806 26.1621 187.971 26.18 188.157 26.2158C188.343 26.2445 188.472 26.2767 188.544 26.3125ZM189.64 32.3174V32.0703C189.64 31.2324 189.761 30.4554 190.005 29.7393C190.248 29.016 190.599 28.3893 191.058 27.8594C191.516 27.3223 192.071 26.9069 192.723 26.6133C193.374 26.3125 194.105 26.1621 194.914 26.1621C195.73 26.1621 196.465 26.3125 197.116 26.6133C197.775 26.9069 198.334 27.3223 198.792 27.8594C199.257 28.3893 199.612 29.016 199.855 29.7393C200.099 30.4554 200.221 31.2324 200.221 32.0703V32.3174C200.221 33.1553 200.099 33.9323 199.855 34.6484C199.612 35.3646 199.257 35.9912 198.792 36.5283C198.334 37.0583 197.779 37.4736 197.127 37.7744C196.482 38.068 195.752 38.2148 194.936 38.2148C194.119 38.2148 193.385 38.068 192.733 37.7744C192.082 37.4736 191.523 37.0583 191.058 36.5283C190.599 35.9912 190.248 35.3646 190.005 34.6484C189.761 33.9323 189.64 33.1553 189.64 32.3174ZM191.627 32.0703V32.3174C191.627 32.8975 191.695 33.4453 191.831 33.9609C191.967 34.4694 192.171 34.9206 192.443 35.3145C192.723 35.7083 193.07 36.0199 193.485 36.249C193.901 36.471 194.384 36.582 194.936 36.582C195.48 36.582 195.956 36.471 196.364 36.249C196.78 36.0199 197.123 35.7083 197.396 35.3145C197.668 34.9206 197.872 34.4694 198.008 33.9609C198.151 33.4453 198.223 32.8975 198.223 32.3174V32.0703C198.223 31.4974 198.151 30.9567 198.008 30.4482C197.872 29.9326 197.664 29.4779 197.385 29.084C197.113 28.6829 196.769 28.3678 196.354 28.1387C195.945 27.9095 195.465 27.7949 194.914 27.7949C194.37 27.7949 193.89 27.9095 193.475 28.1387C193.066 28.3678 192.723 28.6829 192.443 29.084C192.171 29.4779 191.967 29.9326 191.831 30.4482C191.695 30.9567 191.627 31.4974 191.627 32.0703ZM210.039 35.7441V21.5H212.037V38H210.211L210.039 35.7441ZM202.219 32.3174V32.0918C202.219 31.2038 202.326 30.3981 202.541 29.6748C202.763 28.9443 203.075 28.3177 203.476 27.7949C203.884 27.2721 204.367 26.8711 204.926 26.5918C205.492 26.3053 206.122 26.1621 206.816 26.1621C207.547 26.1621 208.184 26.291 208.729 26.5488C209.28 26.7995 209.745 27.1683 210.125 27.6553C210.512 28.1351 210.816 28.7152 211.038 29.3955C211.26 30.0758 211.414 30.8457 211.5 31.7051V32.6934C211.421 33.5456 211.267 34.3118 211.038 34.9922C210.816 35.6725 210.512 36.2526 210.125 36.7324C209.745 37.2122 209.28 37.5811 208.729 37.8389C208.177 38.0895 207.533 38.2148 206.795 38.2148C206.115 38.2148 205.492 38.068 204.926 37.7744C204.367 37.4808 203.884 37.069 203.476 36.5391C203.075 36.0091 202.763 35.3861 202.541 34.6699C202.326 33.9466 202.219 33.1624 202.219 32.3174ZM204.217 32.0918V32.3174C204.217 32.8975 204.274 33.4417 204.389 33.9502C204.51 34.4587 204.697 34.9062 204.947 35.293C205.198 35.6797 205.517 35.984 205.903 36.2061C206.29 36.4209 206.752 36.5283 207.289 36.5283C207.948 36.5283 208.489 36.3887 208.911 36.1094C209.341 35.8301 209.685 35.4613 209.942 35.0029C210.2 34.5446 210.401 34.0469 210.544 33.5098V30.9209C210.458 30.527 210.333 30.1475 210.168 29.7822C210.01 29.4098 209.803 29.0804 209.545 28.7939C209.294 28.5003 208.983 28.2676 208.61 28.0957C208.245 27.9238 207.812 27.8379 207.311 27.8379C206.766 27.8379 206.297 27.9525 205.903 28.1816C205.517 28.4036 205.198 28.7116 204.947 29.1055C204.697 29.4922 204.51 29.9434 204.389 30.459C204.274 30.9674 204.217 31.5117 204.217 32.0918ZM222.242 35.3145V26.377H224.24V38H222.339L222.242 35.3145ZM222.618 32.8652L223.445 32.8438C223.445 33.6172 223.363 34.3333 223.198 34.9922C223.041 35.6439 222.783 36.2096 222.425 36.6895C222.067 37.1693 221.598 37.5452 221.018 37.8174C220.438 38.0824 219.732 38.2148 218.901 38.2148C218.336 38.2148 217.816 38.1325 217.344 37.9678C216.878 37.8031 216.477 37.5488 216.141 37.2051C215.804 36.8613 215.543 36.4137 215.356 35.8623C215.177 35.3109 215.088 34.6484 215.088 33.875V26.377H217.075V33.8965C217.075 34.4193 217.132 34.8525 217.247 35.1963C217.369 35.5329 217.53 35.8014 217.73 36.002C217.938 36.1953 218.167 36.3314 218.418 36.4102C218.676 36.4889 218.941 36.5283 219.213 36.5283C220.058 36.5283 220.728 36.3672 221.222 36.0449C221.716 35.7155 222.07 35.2751 222.285 34.7236C222.507 34.165 222.618 33.5456 222.618 32.8652ZM231.921 36.582C232.394 36.582 232.83 36.4854 233.231 36.292C233.632 36.0986 233.962 35.8337 234.22 35.4971C234.478 35.1533 234.624 34.763 234.66 34.3262H236.551C236.515 35.0137 236.282 35.6546 235.853 36.249C235.43 36.8363 234.875 37.3125 234.188 37.6777C233.5 38.0358 232.744 38.2148 231.921 38.2148C231.047 38.2148 230.285 38.0609 229.633 37.7529C228.988 37.445 228.451 37.0225 228.021 36.4854C227.599 35.9482 227.28 35.3324 227.065 34.6377C226.858 33.9359 226.754 33.1947 226.754 32.4141V31.9629C226.754 31.1823 226.858 30.4447 227.065 29.75C227.28 29.0482 227.599 28.4287 228.021 27.8916C228.451 27.3545 228.988 26.932 229.633 26.624C230.285 26.3161 231.047 26.1621 231.921 26.1621C232.83 26.1621 233.625 26.3483 234.306 26.7207C234.986 27.0859 235.52 27.5872 235.906 28.2246C236.3 28.8548 236.515 29.571 236.551 30.373H234.66C234.624 29.8932 234.488 29.46 234.252 29.0732C234.023 28.6865 233.708 28.3786 233.307 28.1494C232.913 27.9131 232.451 27.7949 231.921 27.7949C231.312 27.7949 230.8 27.9167 230.385 28.1602C229.977 28.3965 229.651 28.7188 229.407 29.127C229.171 29.528 228.999 29.9756 228.892 30.4697C228.791 30.9567 228.741 31.4544 228.741 31.9629V32.4141C228.741 32.9225 228.791 33.4238 228.892 33.918C228.992 34.4121 229.16 34.8597 229.396 35.2607C229.64 35.6618 229.966 35.984 230.374 36.2275C230.789 36.4639 231.305 36.582 231.921 36.582ZM243.651 26.377V27.9023H237.367V26.377H243.651ZM239.494 23.5518H241.481V35.1211C241.481 35.515 241.542 35.8122 241.664 36.0127C241.786 36.2132 241.943 36.3457 242.137 36.4102C242.33 36.4746 242.538 36.5068 242.76 36.5068C242.924 36.5068 243.096 36.4925 243.275 36.4639C243.462 36.4281 243.601 36.3994 243.694 36.3779L243.705 38C243.548 38.0501 243.34 38.0967 243.082 38.1396C242.831 38.1898 242.527 38.2148 242.169 38.2148C241.682 38.2148 241.234 38.1182 240.826 37.9248C240.418 37.7314 240.092 37.4092 239.849 36.958C239.612 36.4997 239.494 35.8838 239.494 35.1104V23.5518Z" fill="#1C1B1F"/>
<g clip-path="url(#clip1_50717_9087)">
<path fill-rule="evenodd" clip-rule="evenodd" d="M384 22C378.48 22 374 26.48 374 32C374 37.52 378.48 42 384 42C389.52 42 394 37.52 394 32C394 26.48 389.52 22 384 22ZM390.36 36.83C388.93 35.09 385.46 34.5 384 34.5C382.54 34.5 379.07 35.09 377.64 36.83C376.62 35.49 376 33.82 376 32C376 27.59 379.59 24 384 24C388.41 24 392 27.59 392 32C392 33.82 391.38 35.49 390.36 36.83ZM380.5 29.5C380.5 27.56 382.06 26 384 26C385.94 26 387.5 27.56 387.5 29.5C387.5 31.44 385.94 33 384 33C382.06 33 380.5 31.44 380.5 29.5Z" fill="#49454F"/>
</g>
<defs>
<clipPath id="clip0_50717_9087">
<rect x="8" y="12" width="40" height="40" rx="20" fill="white"/>
</clipPath>
<clipPath id="clip1_50717_9087">
<rect x="364" y="12" width="40" height="40" rx="20" fill="white"/>
</clipPath>
</defs>
</svg>
