<?xml version="1.0" standalone="no"?><!DOCTYPE svg PUBLIC "-//W3C//DTD SVG 1.1//EN" "http://www.w3.org/Graphics/SVG/1.1/DTD/svg11.dtd"><svg t="1640773163333" class="icon" viewBox="0 0 1024 1024" version="1.1" xmlns="http://www.w3.org/2000/svg" p-id="3416" xmlns:xlink="http://www.w3.org/1999/xlink" width="22" height="22"><defs><style type="text/css"></style></defs><path d="M768 832c-0.64 36.032-13.184 66.176-37.504 90.496-24.32 24.32-54.528 36.8-90.496 37.504H192c-36.032-0.64-66.176-13.184-90.496-37.504-24.32-24.32-36.8-54.528-37.504-90.496V384c0.64-36.032 13.184-66.176 37.504-90.496 24.32-24.32 54.528-36.8 90.496-37.504v64a64.768 64.768 0 0 0-64 64v448a64.832 64.832 0 0 0 64 64h448a64.832 64.832 0 0 0 64-64h64zM384 128a64.768 64.768 0 0 0-64 64v448a64.832 64.832 0 0 0 64 64h448a64.832 64.832 0 0 0 64-64V192a64.768 64.768 0 0 0-64-64H384z m0-64h448c36.032 0.64 66.176 13.184 90.496 37.504 24.32 24.32 36.8 54.528 37.504 90.496v448c-0.64 36.032-13.184 66.176-37.504 90.496-24.32 24.32-54.528 36.8-90.496 37.504H384c-36.032-0.64-66.176-13.184-90.496-37.504-24.32-24.32-36.8-54.528-37.504-90.496V192c0.64-36.032 13.184-66.176 37.504-90.496 24.32-24.32 54.528-36.8 90.496-37.504z" fill="#000000" p-id="3417"></path></svg>