<svg width="125" height="48" viewBox="0 0 125 48" fill="none" xmlns="http://www.w3.org/2000/svg">
<g filter="url(#filter0_dd_50716_11486)">
<g clip-path="url(#clip0_50716_11486)">
<rect x="4" y="3" width="117" height="40" rx="20" fill="#FFFBFE"/>
<rect x="4" y="3" width="117" height="40" rx="20" fill="#6750A4" fill-opacity="0.05"/>
<path d="M35 23.75H29.75V29H28.25V23.75H23V22.25H28.25V17H29.75V22.25H35V23.75Z" fill="#6750A4"/>
<path d="M52.9412 23.5566H48.8533V26.6191H53.6316V28H47.1238V18.0469H53.5838V19.4414H48.8533V22.1895H52.9412V23.5566ZM56.5207 20.6035L56.5686 21.458C57.1154 20.7972 57.8332 20.4668 58.7219 20.4668C60.2622 20.4668 61.0461 21.3486 61.0734 23.1123V28H59.4123V23.208C59.4123 22.7386 59.3098 22.3923 59.1047 22.1689C58.9042 21.9411 58.5738 21.8271 58.1135 21.8271C57.4436 21.8271 56.9445 22.1302 56.6164 22.7363V28H54.9553V20.6035H56.5207ZM67.2916 28C67.2187 27.8587 67.1549 27.6286 67.1002 27.3096C66.5716 27.861 65.9244 28.1367 65.1588 28.1367C64.416 28.1367 63.8098 27.9248 63.3404 27.501C62.871 27.0771 62.6363 26.5531 62.6363 25.9287C62.6363 25.1403 62.928 24.5365 63.5113 24.1172C64.0992 23.6934 64.9378 23.4814 66.027 23.4814H67.0455V22.9961C67.0455 22.6133 66.9384 22.3079 66.7242 22.0801C66.51 21.8477 66.1842 21.7314 65.7467 21.7314C65.3684 21.7314 65.0585 21.8271 64.817 22.0186C64.5755 22.2054 64.4547 22.4447 64.4547 22.7363H62.7936C62.7936 22.3307 62.928 21.9525 63.1969 21.6016C63.4658 21.2461 63.8303 20.9681 64.2906 20.7676C64.7555 20.5671 65.2727 20.4668 65.8424 20.4668C66.7083 20.4668 67.3987 20.6855 67.9137 21.123C68.4286 21.556 68.693 22.1667 68.7066 22.9551V26.291C68.7066 26.9564 68.8001 27.4873 68.9869 27.8838V28H67.2916ZM65.4664 26.8037C65.7945 26.8037 66.1021 26.724 66.3893 26.5645C66.6809 26.4049 66.8997 26.1908 67.0455 25.9219V24.5273H66.15C65.5348 24.5273 65.0722 24.6344 64.7623 24.8486C64.4524 25.0628 64.2975 25.3659 64.2975 25.7578C64.2975 26.0768 64.4023 26.332 64.6119 26.5234C64.8261 26.7103 65.1109 26.8037 65.4664 26.8037ZM77.0371 24.377C77.0371 25.5254 76.7796 26.4391 76.2646 27.1182C75.7542 27.7972 75.0501 28.1367 74.1523 28.1367C73.2865 28.1367 72.612 27.8245 72.1289 27.2002L72.0469 28H70.543V17.5H72.2041V21.3145C72.6826 20.7493 73.3275 20.4668 74.1387 20.4668C75.041 20.4668 75.7497 20.8018 76.2646 21.4717C76.7796 22.1416 77.0371 23.0781 77.0371 24.2812V24.377ZM75.376 24.2334C75.376 23.4313 75.2347 22.8298 74.9521 22.4287C74.6696 22.0277 74.2594 21.8271 73.7217 21.8271C73.0016 21.8271 72.4958 22.1416 72.2041 22.7705V25.8193C72.5003 26.4619 73.0107 26.7832 73.7354 26.7832C74.2549 26.7832 74.6559 26.5895 74.9385 26.2021C75.221 25.8148 75.3669 25.2292 75.376 24.4453V24.2334ZM80.3021 28H78.641V17.5H80.3021V28ZM85.4744 28.1367C84.4217 28.1367 83.5672 27.8063 82.9109 27.1455C82.2592 26.4801 81.9334 25.596 81.9334 24.4932V24.2881C81.9334 23.5498 82.0747 22.8913 82.3572 22.3125C82.6443 21.7292 83.0454 21.2757 83.5604 20.9521C84.0753 20.6286 84.6495 20.4668 85.283 20.4668C86.2902 20.4668 87.0672 20.7881 87.6141 21.4307C88.1655 22.0732 88.4412 22.9824 88.4412 24.1582V24.8281H83.6082C83.6583 25.4388 83.8611 25.9219 84.2166 26.2773C84.5766 26.6328 85.0278 26.8105 85.5701 26.8105C86.3312 26.8105 86.951 26.5029 87.4295 25.8877L88.325 26.7422C88.0288 27.1842 87.6323 27.5283 87.1355 27.7744C86.6434 28.016 86.0896 28.1367 85.4744 28.1367ZM85.2762 21.7998C84.8204 21.7998 84.4513 21.9593 84.1688 22.2783C83.8908 22.5973 83.713 23.0417 83.6355 23.6113H86.8006V23.4883C86.7641 22.9323 86.616 22.513 86.3563 22.2305C86.0965 21.9434 85.7365 21.7998 85.2762 21.7998ZM89.5256 24.2471C89.5256 23.1077 89.7899 22.194 90.3186 21.5059C90.8472 20.8132 91.5559 20.4668 92.4445 20.4668C93.2284 20.4668 93.8618 20.7402 94.3449 21.2871V17.5H96.0061V28H94.5021L94.4201 27.2344C93.9234 27.8359 93.2603 28.1367 92.4309 28.1367C91.565 28.1367 90.8632 27.7881 90.3254 27.0908C89.7922 26.3936 89.5256 25.4456 89.5256 24.2471ZM91.1867 24.3906C91.1867 25.1426 91.3303 25.7305 91.6174 26.1543C91.909 26.5736 92.3215 26.7832 92.8547 26.7832C93.5337 26.7832 94.0305 26.4801 94.3449 25.874V22.7158C94.0396 22.1234 93.5474 21.8271 92.8684 21.8271C92.3306 21.8271 91.9159 22.0413 91.6242 22.4697C91.3326 22.8936 91.1867 23.5339 91.1867 24.3906Z" fill="#6750A4"/>
</g>
</g>
<defs>
<filter id="filter0_dd_50716_11486" x="0" y="0" width="125" height="48" filterUnits="userSpaceOnUse" color-interpolation-filters="sRGB">
<feFlood flood-opacity="0" result="BackgroundImageFix"/>
<feColorMatrix in="SourceAlpha" type="matrix" values="0 0 0 0 0 0 0 0 0 0 0 0 0 0 0 0 0 0 127 0" result="hardAlpha"/>
<feMorphology radius="1" operator="dilate" in="SourceAlpha" result="effect1_dropShadow_50716_11486"/>
<feOffset dy="1"/>
<feGaussianBlur stdDeviation="1.5"/>
<feColorMatrix type="matrix" values="0 0 0 0 0 0 0 0 0 0 0 0 0 0 0 0 0 0 0.15 0"/>
<feBlend mode="normal" in2="BackgroundImageFix" result="effect1_dropShadow_50716_11486"/>
<feColorMatrix in="SourceAlpha" type="matrix" values="0 0 0 0 0 0 0 0 0 0 0 0 0 0 0 0 0 0 127 0" result="hardAlpha"/>
<feOffset dy="1"/>
<feGaussianBlur stdDeviation="1"/>
<feColorMatrix type="matrix" values="0 0 0 0 0 0 0 0 0 0 0 0 0 0 0 0 0 0 0.3 0"/>
<feBlend mode="normal" in2="effect1_dropShadow_50716_11486" result="effect2_dropShadow_50716_11486"/>
<feBlend mode="normal" in="SourceGraphic" in2="effect2_dropShadow_50716_11486" result="shape"/>
</filter>
<clipPath id="clip0_50716_11486">
<rect x="4" y="3" width="117" height="40" rx="20" fill="white"/>
</clipPath>
</defs>
</svg>
