<svg width="145" height="78" viewBox="0 0 145 78" fill="none" xmlns="http://www.w3.org/2000/svg">
<g filter="url(#filter0_dd_51655_4933)">
<g clip-path="url(#clip0_51655_4933)">
<rect x="11" y="7" width="123" height="56" rx="16" fill="#FFFBFE"/>
<rect x="11" y="7" width="123" height="56" rx="16" fill="#6750A4" fill-opacity="0.11"/>
<path fill-rule="evenodd" clip-rule="evenodd" d="M46.06 26.5899L47.41 27.9399C48.2 28.7199 48.2 29.9899 47.41 30.7699L34.18 43.9999H30V39.8199L40.4 29.4099L43.23 26.5899C44.01 25.8099 45.28 25.8099 46.06 26.5899ZM32 41.9999L33.41 42.0599L43.23 32.2299L41.82 30.8199L32 40.6399V41.9999Z" fill="#6750A4"/>
<path d="M70.6795 38.6396V40H65.3953V38.6396H70.6795ZM65.8807 30.0469V40H64.1648V30.0469H65.8807ZM69.9891 34.2031V35.543H65.3953V34.2031H69.9891ZM70.6453 30.0469V31.4141H65.3953V30.0469H70.6453ZM73.6506 34.1826V40H72.0031V32.6035H73.5549L73.6506 34.1826ZM73.3566 36.0283L72.8234 36.0215C72.828 35.4974 72.9009 35.0166 73.0422 34.5791C73.188 34.1416 73.3885 33.7656 73.6438 33.4512C73.9035 33.1367 74.2134 32.8952 74.5734 32.7266C74.9335 32.5534 75.3345 32.4668 75.7766 32.4668C76.132 32.4668 76.4533 32.5169 76.7404 32.6172C77.0321 32.7129 77.2805 32.8701 77.4855 33.0889C77.6952 33.3076 77.8547 33.5924 77.9641 33.9434C78.0734 34.2897 78.1281 34.7158 78.1281 35.2217V40H76.4738V35.2148C76.4738 34.8594 76.4214 34.5791 76.3166 34.374C76.2163 34.1644 76.0682 34.0163 75.8723 33.9297C75.6809 33.8385 75.4416 33.793 75.1545 33.793C74.8719 33.793 74.619 33.8522 74.3957 33.9707C74.1724 34.0892 73.9833 34.251 73.8283 34.4561C73.6779 34.6611 73.5617 34.8981 73.4797 35.167C73.3977 35.4359 73.3566 35.723 73.3566 36.0283ZM84.0797 38.5166V34.9893C84.0797 34.7249 84.0318 34.4971 83.9361 34.3057C83.8404 34.1143 83.6946 33.9661 83.4986 33.8613C83.3072 33.7565 83.0657 33.7041 82.774 33.7041C82.5051 33.7041 82.2727 33.7497 82.0768 33.8408C81.8808 33.932 81.7281 34.055 81.6188 34.21C81.5094 34.3649 81.4547 34.5404 81.4547 34.7363H79.8141C79.8141 34.4447 79.8847 34.1621 80.026 33.8887C80.1673 33.6152 80.3723 33.3714 80.6412 33.1572C80.9101 32.943 81.2314 32.7744 81.6051 32.6514C81.9788 32.5283 82.398 32.4668 82.8629 32.4668C83.4189 32.4668 83.9111 32.5602 84.3395 32.7471C84.7724 32.9339 85.1119 33.2165 85.358 33.5947C85.6087 33.9684 85.734 34.4378 85.734 35.0029V38.291C85.734 38.6283 85.7568 38.9313 85.8023 39.2002C85.8525 39.4645 85.9231 39.6947 86.0143 39.8906V40H84.3258C84.2483 39.8223 84.1868 39.5967 84.1412 39.3232C84.1002 39.0452 84.0797 38.7764 84.0797 38.5166ZM84.3189 35.502L84.3326 36.5205H83.15C82.8447 36.5205 82.5758 36.5501 82.3434 36.6094C82.1109 36.6641 81.9173 36.7461 81.7623 36.8555C81.6074 36.9648 81.4911 37.097 81.4137 37.252C81.3362 37.4069 81.2975 37.5824 81.2975 37.7783C81.2975 37.9743 81.343 38.1543 81.4342 38.3184C81.5253 38.4779 81.6575 38.6032 81.8307 38.6943C82.0084 38.7855 82.2226 38.8311 82.4732 38.8311C82.8105 38.8311 83.1044 38.7627 83.3551 38.626C83.6103 38.4847 83.8108 38.3138 83.9566 38.1133C84.1025 37.9082 84.1799 37.7145 84.1891 37.5322L84.7223 38.2637C84.6676 38.4505 84.5742 38.651 84.442 38.8652C84.3098 39.0794 84.1367 39.2845 83.9225 39.4805C83.7128 39.6719 83.4599 39.8291 83.1637 39.9521C82.872 40.0752 82.5348 40.1367 82.152 40.1367C81.6689 40.1367 81.2382 40.041 80.86 39.8496C80.4817 39.6536 80.1855 39.3916 79.9713 39.0635C79.7571 38.7308 79.65 38.3548 79.65 37.9355C79.65 37.5436 79.7229 37.1973 79.8688 36.8965C80.0191 36.5911 80.2379 36.3359 80.525 36.1309C80.8167 35.9258 81.1721 35.7708 81.5914 35.666C82.0107 35.5566 82.4892 35.502 83.027 35.502H84.3189ZM87.5635 29.5H89.2109V38.4209L89.0537 40H87.5635V29.5ZM94.0371 36.2334V36.377C94.0371 36.9238 93.9756 37.4274 93.8525 37.8877C93.734 38.3434 93.5518 38.7399 93.3057 39.0771C93.0641 39.4144 92.7633 39.6764 92.4033 39.8633C92.0479 40.0456 91.6354 40.1367 91.166 40.1367C90.7057 40.1367 90.3047 40.0501 89.9629 39.877C89.6211 39.7038 89.334 39.4577 89.1016 39.1387C88.8737 38.8197 88.6891 38.4391 88.5479 37.9971C88.4066 37.555 88.3063 37.0674 88.2471 36.5342V36.0762C88.3063 35.5384 88.4066 35.0508 88.5479 34.6133C88.6891 34.1712 88.8737 33.7907 89.1016 33.4717C89.334 33.1481 89.6188 32.8997 89.9561 32.7266C90.2979 32.5534 90.6966 32.4668 91.1523 32.4668C91.6263 32.4668 92.0433 32.5579 92.4033 32.7402C92.7679 32.9225 93.071 33.1823 93.3125 33.5195C93.554 33.8522 93.734 34.2487 93.8525 34.709C93.9756 35.1693 94.0371 35.6774 94.0371 36.2334ZM92.3896 36.377V36.2334C92.3896 35.9007 92.3623 35.5885 92.3076 35.2969C92.2529 35.0007 92.1618 34.7409 92.0342 34.5176C91.9111 34.2943 91.7425 34.1188 91.5283 33.9912C91.3187 33.859 91.0566 33.793 90.7422 33.793C90.4505 33.793 90.1999 33.8431 89.9902 33.9434C89.7806 34.0436 89.6051 34.1803 89.4639 34.3535C89.3226 34.5267 89.2109 34.7272 89.1289 34.9551C89.0514 35.1829 88.999 35.429 88.9717 35.6934V36.9307C89.0127 37.2725 89.0993 37.5869 89.2314 37.874C89.3682 38.1566 89.5596 38.3844 89.8057 38.5576C90.0518 38.7262 90.3685 38.8105 90.7559 38.8105C91.0612 38.8105 91.3187 38.749 91.5283 38.626C91.738 38.5029 91.9043 38.332 92.0273 38.1133C92.1549 37.89 92.2461 37.6302 92.3008 37.334C92.36 37.0378 92.3896 36.7188 92.3896 36.377ZM97.2953 29.5V40H95.641V29.5H97.2953ZM102.461 40.1367C101.914 40.1367 101.419 40.0479 100.977 39.8701C100.54 39.6878 100.166 39.4349 99.8563 39.1113C99.5509 38.7878 99.3162 38.4072 99.1521 37.9697C98.9881 37.5322 98.9061 37.0605 98.9061 36.5547V36.2812C98.9061 35.7025 98.9904 35.1784 99.159 34.709C99.3276 34.2396 99.5623 33.8385 99.8631 33.5059C100.164 33.1686 100.519 32.9111 100.929 32.7334C101.34 32.5557 101.784 32.4668 102.263 32.4668C102.791 32.4668 103.254 32.5557 103.65 32.7334C104.047 32.9111 104.375 33.1618 104.635 33.4854C104.899 33.8044 105.095 34.1849 105.222 34.627C105.355 35.069 105.421 35.5566 105.421 36.0898V36.7939H99.7059V35.6113H103.794V35.4814C103.785 35.1852 103.725 34.9072 103.616 34.6475C103.511 34.3877 103.349 34.1781 103.131 34.0186C102.912 33.859 102.62 33.7793 102.256 33.7793C101.982 33.7793 101.738 33.8385 101.524 33.957C101.315 34.071 101.139 34.2373 100.998 34.4561C100.857 34.6748 100.747 34.9391 100.67 35.249C100.597 35.5544 100.56 35.8984 100.56 36.2812V36.5547C100.56 36.8783 100.604 37.179 100.69 37.457C100.781 37.7305 100.914 37.9697 101.087 38.1748C101.26 38.3799 101.47 38.5417 101.716 38.6602C101.962 38.7741 102.242 38.8311 102.556 38.8311C102.953 38.8311 103.306 38.7513 103.616 38.5918C103.926 38.4323 104.195 38.2067 104.423 37.915L105.291 38.7559C105.131 38.9883 104.924 39.2116 104.669 39.4258C104.414 39.6354 104.101 39.8063 103.732 39.9385C103.368 40.0706 102.944 40.1367 102.461 40.1367ZM111.318 38.4688V29.5H112.972V40H111.475L111.318 38.4688ZM106.505 36.3838V36.2402C106.505 35.6797 106.571 35.1693 106.703 34.709C106.835 34.2441 107.027 33.8454 107.278 33.5127C107.528 33.1755 107.834 32.918 108.194 32.7402C108.554 32.5579 108.959 32.4668 109.41 32.4668C109.857 32.4668 110.249 32.5534 110.586 32.7266C110.923 32.8997 111.21 33.1481 111.447 33.4717C111.684 33.7907 111.874 34.1735 112.015 34.6201C112.156 35.0622 112.256 35.5544 112.316 36.0967V36.5547C112.256 37.0833 112.156 37.5664 112.015 38.0039C111.874 38.4414 111.684 38.8197 111.447 39.1387C111.21 39.4577 110.921 39.7038 110.579 39.877C110.242 40.0501 109.848 40.1367 109.397 40.1367C108.95 40.1367 108.547 40.0433 108.187 39.8564C107.831 39.6696 107.528 39.4076 107.278 39.0703C107.027 38.7331 106.835 38.3366 106.703 37.8809C106.571 37.4206 106.505 36.9215 106.505 36.3838ZM108.153 36.2402V36.3838C108.153 36.721 108.182 37.0355 108.241 37.3271C108.305 37.6188 108.403 37.8763 108.535 38.0996C108.668 38.3184 108.838 38.4915 109.048 38.6191C109.262 38.7422 109.517 38.8037 109.814 38.8037C110.187 38.8037 110.495 38.7217 110.737 38.5576C110.978 38.3936 111.167 38.1725 111.304 37.8945C111.445 37.612 111.541 37.2975 111.591 36.9512V35.7139C111.564 35.445 111.507 35.1943 111.42 34.9619C111.338 34.7295 111.226 34.5267 111.085 34.3535C110.944 34.1758 110.768 34.0391 110.559 33.9434C110.354 33.8431 110.11 33.793 109.827 33.793C109.527 33.793 109.271 33.8568 109.062 33.9844C108.852 34.112 108.679 34.2874 108.542 34.5107C108.41 34.734 108.312 34.9938 108.248 35.29C108.184 35.5863 108.153 35.903 108.153 36.2402Z" fill="#6750A4"/>
</g>
</g>
<defs>
<filter id="filter0_dd_51655_4933" x="0" y="0" width="145" height="78" filterUnits="userSpaceOnUse" color-interpolation-filters="sRGB">
<feFlood flood-opacity="0" result="BackgroundImageFix"/>
<feColorMatrix in="SourceAlpha" type="matrix" values="0 0 0 0 0 0 0 0 0 0 0 0 0 0 0 0 0 0 127 0" result="hardAlpha"/>
<feOffset dy="1"/>
<feGaussianBlur stdDeviation="1.5"/>
<feColorMatrix type="matrix" values="0 0 0 0 0 0 0 0 0 0 0 0 0 0 0 0 0 0 0.3 0"/>
<feBlend mode="normal" in2="BackgroundImageFix" result="effect1_dropShadow_51655_4933"/>
<feColorMatrix in="SourceAlpha" type="matrix" values="0 0 0 0 0 0 0 0 0 0 0 0 0 0 0 0 0 0 127 0" result="hardAlpha"/>
<feMorphology radius="3" operator="dilate" in="SourceAlpha" result="effect2_dropShadow_51655_4933"/>
<feOffset dy="4"/>
<feGaussianBlur stdDeviation="4"/>
<feColorMatrix type="matrix" values="0 0 0 0 0 0 0 0 0 0 0 0 0 0 0 0 0 0 0.15 0"/>
<feBlend mode="normal" in2="effect1_dropShadow_51655_4933" result="effect2_dropShadow_51655_4933"/>
<feBlend mode="normal" in="SourceGraphic" in2="effect2_dropShadow_51655_4933" result="shape"/>
</filter>
<clipPath id="clip0_51655_4933">
<rect x="11" y="7" width="123" height="56" rx="16" fill="white"/>
</clipPath>
</defs>
</svg>
