<svg width="99" height="40" viewBox="0 0 99 40" fill="none" xmlns="http://www.w3.org/2000/svg">
<g clip-path="url(#clip0_50716_11407)">
<rect width="99" height="40" rx="20" fill="#6750A4"/>
<path d="M31.6795 23.6396V25H26.3953V23.6396H31.6795ZM26.8807 15.0469V25H25.1648V15.0469H26.8807ZM30.9891 19.2031V20.543H26.3953V19.2031H30.9891ZM31.6453 15.0469V16.4141H26.3953V15.0469H31.6453ZM34.6506 19.1826V25H33.0031V17.6035H34.5549L34.6506 19.1826ZM34.3566 21.0283L33.8234 21.0215C33.828 20.4974 33.9009 20.0166 34.0422 19.5791C34.188 19.1416 34.3885 18.7656 34.6438 18.4512C34.9035 18.1367 35.2134 17.8952 35.5734 17.7266C35.9335 17.5534 36.3345 17.4668 36.7766 17.4668C37.132 17.4668 37.4533 17.5169 37.7404 17.6172C38.0321 17.7129 38.2805 17.8701 38.4855 18.0889C38.6952 18.3076 38.8547 18.5924 38.9641 18.9434C39.0734 19.2897 39.1281 19.7158 39.1281 20.2217V25H37.4738V20.2148C37.4738 19.8594 37.4214 19.5791 37.3166 19.374C37.2163 19.1644 37.0682 19.0163 36.8723 18.9297C36.6809 18.8385 36.4416 18.793 36.1545 18.793C35.8719 18.793 35.619 18.8522 35.3957 18.9707C35.1724 19.0892 34.9833 19.251 34.8283 19.4561C34.6779 19.6611 34.5617 19.8981 34.4797 20.167C34.3977 20.4359 34.3566 20.723 34.3566 21.0283ZM45.0797 23.5166V19.9893C45.0797 19.7249 45.0318 19.4971 44.9361 19.3057C44.8404 19.1143 44.6946 18.9661 44.4986 18.8613C44.3072 18.7565 44.0657 18.7041 43.774 18.7041C43.5051 18.7041 43.2727 18.7497 43.0768 18.8408C42.8808 18.932 42.7281 19.055 42.6188 19.21C42.5094 19.3649 42.4547 19.5404 42.4547 19.7363H40.8141C40.8141 19.4447 40.8847 19.1621 41.026 18.8887C41.1673 18.6152 41.3723 18.3714 41.6412 18.1572C41.9101 17.943 42.2314 17.7744 42.6051 17.6514C42.9788 17.5283 43.398 17.4668 43.8629 17.4668C44.4189 17.4668 44.9111 17.5602 45.3395 17.7471C45.7724 17.9339 46.1119 18.2165 46.358 18.5947C46.6087 18.9684 46.734 19.4378 46.734 20.0029V23.291C46.734 23.6283 46.7568 23.9313 46.8023 24.2002C46.8525 24.4645 46.9231 24.6947 47.0143 24.8906V25H45.3258C45.2483 24.8223 45.1868 24.5967 45.1412 24.3232C45.1002 24.0452 45.0797 23.7764 45.0797 23.5166ZM45.3189 20.502L45.3326 21.5205H44.15C43.8447 21.5205 43.5758 21.5501 43.3434 21.6094C43.1109 21.6641 42.9173 21.7461 42.7623 21.8555C42.6074 21.9648 42.4911 22.097 42.4137 22.252C42.3362 22.4069 42.2975 22.5824 42.2975 22.7783C42.2975 22.9743 42.343 23.1543 42.4342 23.3184C42.5253 23.4779 42.6575 23.6032 42.8307 23.6943C43.0084 23.7855 43.2226 23.8311 43.4732 23.8311C43.8105 23.8311 44.1044 23.7627 44.3551 23.626C44.6103 23.4847 44.8108 23.3138 44.9566 23.1133C45.1025 22.9082 45.1799 22.7145 45.1891 22.5322L45.7223 23.2637C45.6676 23.4505 45.5742 23.651 45.442 23.8652C45.3098 24.0794 45.1367 24.2845 44.9225 24.4805C44.7128 24.6719 44.4599 24.8291 44.1637 24.9521C43.872 25.0752 43.5348 25.1367 43.152 25.1367C42.6689 25.1367 42.2382 25.041 41.86 24.8496C41.4817 24.6536 41.1855 24.3916 40.9713 24.0635C40.7571 23.7308 40.65 23.3548 40.65 22.9355C40.65 22.5436 40.7229 22.1973 40.8688 21.8965C41.0191 21.5911 41.2379 21.3359 41.525 21.1309C41.8167 20.9258 42.1721 20.7708 42.5914 20.666C43.0107 20.5566 43.4892 20.502 44.027 20.502H45.3189ZM48.5635 14.5H50.2109V23.4209L50.0537 25H48.5635V14.5ZM55.0371 21.2334V21.377C55.0371 21.9238 54.9756 22.4274 54.8525 22.8877C54.734 23.3434 54.5518 23.7399 54.3057 24.0771C54.0641 24.4144 53.7633 24.6764 53.4033 24.8633C53.0479 25.0456 52.6354 25.1367 52.166 25.1367C51.7057 25.1367 51.3047 25.0501 50.9629 24.877C50.6211 24.7038 50.334 24.4577 50.1016 24.1387C49.8737 23.8197 49.6891 23.4391 49.5479 22.9971C49.4066 22.555 49.3063 22.0674 49.2471 21.5342V21.0762C49.3063 20.5384 49.4066 20.0508 49.5479 19.6133C49.6891 19.1712 49.8737 18.7907 50.1016 18.4717C50.334 18.1481 50.6188 17.8997 50.9561 17.7266C51.2979 17.5534 51.6966 17.4668 52.1523 17.4668C52.6263 17.4668 53.0433 17.5579 53.4033 17.7402C53.7679 17.9225 54.071 18.1823 54.3125 18.5195C54.554 18.8522 54.734 19.2487 54.8525 19.709C54.9756 20.1693 55.0371 20.6774 55.0371 21.2334ZM53.3896 21.377V21.2334C53.3896 20.9007 53.3623 20.5885 53.3076 20.2969C53.2529 20.0007 53.1618 19.7409 53.0342 19.5176C52.9111 19.2943 52.7425 19.1188 52.5283 18.9912C52.3187 18.859 52.0566 18.793 51.7422 18.793C51.4505 18.793 51.1999 18.8431 50.9902 18.9434C50.7806 19.0436 50.6051 19.1803 50.4639 19.3535C50.3226 19.5267 50.2109 19.7272 50.1289 19.9551C50.0514 20.1829 49.999 20.429 49.9717 20.6934V21.9307C50.0127 22.2725 50.0993 22.5869 50.2314 22.874C50.3682 23.1566 50.5596 23.3844 50.8057 23.5576C51.0518 23.7262 51.3685 23.8105 51.7559 23.8105C52.0612 23.8105 52.3187 23.749 52.5283 23.626C52.738 23.5029 52.9043 23.332 53.0273 23.1133C53.1549 22.89 53.2461 22.6302 53.3008 22.334C53.36 22.0378 53.3896 21.7188 53.3896 21.377ZM58.2953 14.5V25H56.641V14.5H58.2953ZM63.4607 25.1367C62.9139 25.1367 62.4194 25.0479 61.9773 24.8701C61.5398 24.6878 61.1661 24.4349 60.8563 24.1113C60.5509 23.7878 60.3162 23.4072 60.1521 22.9697C59.9881 22.5322 59.9061 22.0605 59.9061 21.5547V21.2812C59.9061 20.7025 59.9904 20.1784 60.159 19.709C60.3276 19.2396 60.5623 18.8385 60.8631 18.5059C61.1639 18.1686 61.5193 17.9111 61.9295 17.7334C62.3396 17.5557 62.784 17.4668 63.2625 17.4668C63.7911 17.4668 64.2537 17.5557 64.6502 17.7334C65.0467 17.9111 65.3748 18.1618 65.6346 18.4854C65.8989 18.8044 66.0949 19.1849 66.2225 19.627C66.3546 20.069 66.4207 20.5566 66.4207 21.0898V21.7939H60.7059V20.6113H64.7938V20.4814C64.7846 20.1852 64.7254 19.9072 64.616 19.6475C64.5112 19.3877 64.3494 19.1781 64.1307 19.0186C63.9119 18.859 63.6202 18.7793 63.2557 18.7793C62.9822 18.7793 62.7384 18.8385 62.5242 18.957C62.3146 19.071 62.1391 19.2373 61.9979 19.4561C61.8566 19.6748 61.7472 19.9391 61.6697 20.249C61.5968 20.5544 61.5604 20.8984 61.5604 21.2812V21.5547C61.5604 21.8783 61.6036 22.179 61.6902 22.457C61.7814 22.7305 61.9135 22.9697 62.0867 23.1748C62.2599 23.3799 62.4695 23.5417 62.7156 23.6602C62.9617 23.7741 63.242 23.8311 63.5564 23.8311C63.9529 23.8311 64.3061 23.7513 64.616 23.5918C64.9259 23.4323 65.1948 23.2067 65.4227 22.915L66.2908 23.7559C66.1313 23.9883 65.924 24.2116 65.6688 24.4258C65.4135 24.6354 65.1014 24.8063 64.7322 24.9385C64.3676 25.0706 63.9438 25.1367 63.4607 25.1367ZM72.3176 23.4688V14.5H73.9719V25H72.4748L72.3176 23.4688ZM67.5051 21.3838V21.2402C67.5051 20.6797 67.5712 20.1693 67.7033 19.709C67.8355 19.2441 68.0269 18.8454 68.2775 18.5127C68.5282 18.1755 68.8335 17.918 69.1936 17.7402C69.5536 17.5579 69.9592 17.4668 70.4104 17.4668C70.857 17.4668 71.2489 17.5534 71.5861 17.7266C71.9234 17.8997 72.2105 18.1481 72.4475 18.4717C72.6844 18.7907 72.8736 19.1735 73.0148 19.6201C73.1561 20.0622 73.2564 20.5544 73.3156 21.0967V21.5547C73.2564 22.0833 73.1561 22.5664 73.0148 23.0039C72.8736 23.4414 72.6844 23.8197 72.4475 24.1387C72.2105 24.4577 71.9211 24.7038 71.5793 24.877C71.2421 25.0501 70.8479 25.1367 70.3967 25.1367C69.9501 25.1367 69.5467 25.0433 69.1867 24.8564C68.8312 24.6696 68.5282 24.4076 68.2775 24.0703C68.0269 23.7331 67.8355 23.3366 67.7033 22.8809C67.5712 22.4206 67.5051 21.9215 67.5051 21.3838ZM69.1525 21.2402V21.3838C69.1525 21.721 69.1822 22.0355 69.2414 22.3271C69.3052 22.6188 69.4032 22.8763 69.5354 23.0996C69.6675 23.3184 69.8384 23.4915 70.048 23.6191C70.2622 23.7422 70.5174 23.8037 70.8137 23.8037C71.1874 23.8037 71.495 23.7217 71.7365 23.5576C71.9781 23.3936 72.1672 23.1725 72.3039 22.8945C72.4452 22.612 72.5409 22.2975 72.591 21.9512V20.7139C72.5637 20.445 72.5067 20.1943 72.4201 19.9619C72.3381 19.7295 72.2264 19.5267 72.0852 19.3535C71.9439 19.1758 71.7684 19.0391 71.5588 18.9434C71.3537 18.8431 71.1099 18.793 70.8273 18.793C70.5266 18.793 70.2714 18.8568 70.0617 18.9844C69.8521 19.112 69.6789 19.2874 69.5422 19.5107C69.41 19.734 69.312 19.9938 69.2482 20.29C69.1844 20.5863 69.1525 20.903 69.1525 21.2402Z" fill="white"/>
</g>
<defs>
<clipPath id="clip0_50716_11407">
<rect width="99" height="40" rx="20" fill="white"/>
</clipPath>
</defs>
</svg>
