<svg width="210" height="56" viewBox="0 0 210 56" fill="none" xmlns="http://www.w3.org/2000/svg">
<path d="M0 4C0 1.79086 1.79086 0 4 0H206C208.209 0 210 1.79086 210 4V56H0V4Z" fill="#E7E0EC"/>
<path d="M22.1641 19.0801V20H17.8984V19.0801H22.1641ZM18.1211 11.4688V20H16.9902V11.4688H18.1211ZM27.4332 18.916V15.6523C27.4332 15.4023 27.3824 15.1855 27.2809 15.002C27.1832 14.8145 27.0348 14.6699 26.8355 14.5684C26.6363 14.4668 26.3902 14.416 26.0973 14.416C25.8238 14.416 25.5836 14.4629 25.3766 14.5566C25.1734 14.6504 25.0133 14.7734 24.8961 14.9258C24.7828 15.0781 24.7262 15.2422 24.7262 15.418H23.6422C23.6422 15.1914 23.7008 14.9668 23.818 14.7441C23.9352 14.5215 24.1031 14.3203 24.3219 14.1406C24.5445 13.957 24.8102 13.8125 25.1188 13.707C25.4313 13.5977 25.7789 13.543 26.1617 13.543C26.6227 13.543 27.0289 13.6211 27.3805 13.7773C27.7359 13.9336 28.0133 14.1699 28.2125 14.4863C28.4156 14.7988 28.5172 15.1914 28.5172 15.6641V18.6172C28.5172 18.8281 28.5348 19.0527 28.5699 19.291C28.609 19.5293 28.6656 19.7344 28.7398 19.9062V20H27.609C27.5543 19.875 27.5113 19.709 27.4801 19.502C27.4488 19.291 27.4332 19.0957 27.4332 18.916ZM27.6207 16.1562L27.6324 16.918H26.5367C26.2281 16.918 25.9527 16.9434 25.7105 16.9941C25.4684 17.041 25.2652 17.1133 25.1012 17.2109C24.9371 17.3086 24.8121 17.4316 24.7262 17.5801C24.6402 17.7246 24.5973 17.8945 24.5973 18.0898C24.5973 18.2891 24.6422 18.4707 24.732 18.6348C24.8219 18.7988 24.9566 18.9297 25.1363 19.0273C25.3199 19.1211 25.5445 19.168 25.8102 19.168C26.1422 19.168 26.4352 19.0977 26.6891 18.957C26.943 18.8164 27.1441 18.6445 27.2926 18.4414C27.4449 18.2383 27.527 18.041 27.5387 17.8496L28.0016 18.3711C27.9742 18.5352 27.9 18.7168 27.7789 18.916C27.6578 19.1152 27.4957 19.3066 27.2926 19.4902C27.0934 19.6699 26.8551 19.8203 26.5777 19.9414C26.3043 20.0586 25.9957 20.1172 25.652 20.1172C25.2223 20.1172 24.8453 20.0332 24.5211 19.8652C24.2008 19.6973 23.9508 19.4727 23.7711 19.1914C23.5953 18.9062 23.5074 18.5879 23.5074 18.2363C23.5074 17.8965 23.5738 17.5977 23.7066 17.3398C23.8395 17.0781 24.0309 16.8613 24.2809 16.6895C24.5309 16.5137 24.8316 16.3809 25.1832 16.291C25.5348 16.2012 25.9273 16.1562 26.3609 16.1562H27.6207ZM30.6164 11H31.7063V18.7695L31.6125 20H30.6164V11ZM35.9895 16.7773V16.9004C35.9895 17.3613 35.9348 17.7891 35.8254 18.1836C35.716 18.5742 35.5559 18.9141 35.3449 19.2031C35.134 19.4922 34.8762 19.7168 34.5715 19.877C34.2668 20.0371 33.9172 20.1172 33.5227 20.1172C33.1203 20.1172 32.7668 20.0488 32.4621 19.9121C32.1613 19.7715 31.9074 19.5703 31.7004 19.3086C31.4934 19.0469 31.3273 18.7305 31.2023 18.3594C31.0813 17.9883 30.9973 17.5703 30.9504 17.1055V16.5664C30.9973 16.0977 31.0813 15.6777 31.2023 15.3066C31.3273 14.9355 31.4934 14.6191 31.7004 14.3574C31.9074 14.0918 32.1613 13.8906 32.4621 13.7539C32.7629 13.6133 33.1125 13.543 33.5109 13.543C33.9094 13.543 34.2629 13.6211 34.5715 13.7773C34.8801 13.9297 35.1379 14.1484 35.3449 14.4336C35.5559 14.7188 35.716 15.0605 35.8254 15.459C35.9348 15.8535 35.9895 16.293 35.9895 16.7773ZM34.8996 16.9004V16.7773C34.8996 16.4609 34.8703 16.1641 34.8117 15.8867C34.7531 15.6055 34.6594 15.3594 34.5305 15.1484C34.4016 14.9336 34.2316 14.7656 34.0207 14.6445C33.8098 14.5195 33.55 14.457 33.2414 14.457C32.968 14.457 32.7297 14.5039 32.5266 14.5977C32.3273 14.6914 32.1574 14.8184 32.0168 14.9785C31.8762 15.1348 31.7609 15.3145 31.6711 15.5176C31.5852 15.7168 31.5207 15.9238 31.4777 16.1387V17.5508C31.5402 17.8242 31.6418 18.0879 31.7824 18.3418C31.927 18.5918 32.1184 18.7969 32.3566 18.957C32.5988 19.1172 32.8977 19.1973 33.2531 19.1973C33.5461 19.1973 33.7961 19.1387 34.0031 19.0215C34.2141 18.9004 34.384 18.7344 34.5129 18.5234C34.6457 18.3125 34.7434 18.0684 34.8059 17.791C34.8684 17.5137 34.8996 17.2168 34.8996 16.9004ZM40.3914 20.1172C39.95 20.1172 39.5496 20.043 39.1902 19.8945C38.8348 19.7422 38.5281 19.5293 38.2703 19.2559C38.0164 18.9824 37.8211 18.6582 37.6844 18.2832C37.5477 17.9082 37.4793 17.498 37.4793 17.0527V16.8066C37.4793 16.291 37.5555 15.832 37.7078 15.4297C37.8602 15.0234 38.0672 14.6797 38.3289 14.3984C38.5906 14.1172 38.8875 13.9043 39.2195 13.7598C39.5516 13.6152 39.8953 13.543 40.2508 13.543C40.7039 13.543 41.0945 13.6211 41.4227 13.7773C41.7547 13.9336 42.0262 14.1523 42.2371 14.4336C42.448 14.7109 42.6043 15.0391 42.7059 15.418C42.8074 15.793 42.8582 16.2031 42.8582 16.6484V17.1348H38.1238V16.25H41.7742V16.168C41.7586 15.8867 41.7 15.6133 41.5984 15.3477C41.5008 15.082 41.3445 14.8633 41.1297 14.6914C40.9148 14.5195 40.6219 14.4336 40.2508 14.4336C40.0047 14.4336 39.7781 14.4863 39.5711 14.5918C39.3641 14.6934 39.1863 14.8457 39.0379 15.0488C38.8895 15.252 38.7742 15.5 38.6922 15.793C38.6102 16.0859 38.5691 16.4238 38.5691 16.8066V17.0527C38.5691 17.3535 38.6102 17.6367 38.6922 17.9023C38.7781 18.1641 38.9012 18.3945 39.0613 18.5938C39.2254 18.793 39.4227 18.9492 39.6531 19.0625C39.8875 19.1758 40.1531 19.2324 40.45 19.2324C40.8328 19.2324 41.157 19.1543 41.4227 18.998C41.6883 18.8418 41.9207 18.6328 42.1199 18.3711L42.7762 18.8926C42.6395 19.0996 42.4656 19.2969 42.2547 19.4844C42.0438 19.6719 41.784 19.8242 41.4754 19.9414C41.1707 20.0586 40.8094 20.1172 40.3914 20.1172ZM45.7016 11V20H44.6117V11H45.7016Z" fill="#49454F"/>
<path d="M18.9375 29.625V41H17.4297V29.625H18.9375ZM23.4062 34.3516V41H21.9609V32.5469H23.3281L23.4062 34.3516ZM23.0625 36.4531L22.4609 36.4297C22.4661 35.8516 22.5521 35.3177 22.7188 34.8281C22.8854 34.3333 23.1198 33.9036 23.4219 33.5391C23.724 33.1745 24.0833 32.8932 24.5 32.6953C24.9219 32.4922 25.388 32.3906 25.8984 32.3906C26.3151 32.3906 26.6901 32.4479 27.0234 32.5625C27.3568 32.6719 27.6406 32.849 27.875 33.0938C28.1146 33.3385 28.2969 33.6562 28.4219 34.0469C28.5469 34.4323 28.6094 34.9036 28.6094 35.4609V41H27.1562V35.4453C27.1562 35.0026 27.0911 34.6484 26.9609 34.3828C26.8307 34.112 26.6406 33.9167 26.3906 33.7969C26.1406 33.6719 25.8333 33.6094 25.4688 33.6094C25.1094 33.6094 24.7812 33.6849 24.4844 33.8359C24.1927 33.987 23.9401 34.1953 23.7266 34.4609C23.5182 34.7266 23.3542 35.0312 23.2344 35.375C23.1198 35.7135 23.0625 36.0729 23.0625 36.4531ZM32.75 34.1719V44.25H31.2969V32.5469H32.625L32.75 34.1719ZM38.4453 36.7031V36.8672C38.4453 37.4818 38.3724 38.0521 38.2266 38.5781C38.0807 39.099 37.8672 39.5521 37.5859 39.9375C37.3099 40.3229 36.9688 40.6224 36.5625 40.8359C36.1562 41.0495 35.6901 41.1562 35.1641 41.1562C34.6276 41.1562 34.1536 41.0677 33.7422 40.8906C33.3307 40.7135 32.9818 40.4557 32.6953 40.1172C32.4089 39.7786 32.1797 39.3724 32.0078 38.8984C31.8411 38.4245 31.7266 37.8906 31.6641 37.2969V36.4219C31.7266 35.7969 31.8438 35.237 32.0156 34.7422C32.1875 34.2474 32.4141 33.8255 32.6953 33.4766C32.9818 33.1224 33.3281 32.8542 33.7344 32.6719C34.1406 32.4844 34.6094 32.3906 35.1406 32.3906C35.6719 32.3906 36.1432 32.4948 36.5547 32.7031C36.9661 32.9062 37.3125 33.1979 37.5938 33.5781C37.875 33.9583 38.0859 34.4141 38.2266 34.9453C38.3724 35.4714 38.4453 36.0573 38.4453 36.7031ZM36.9922 36.8672V36.7031C36.9922 36.2812 36.9479 35.8854 36.8594 35.5156C36.7708 35.1406 36.6328 34.8125 36.4453 34.5312C36.263 34.2448 36.0286 34.0208 35.7422 33.8594C35.4557 33.6927 35.1146 33.6094 34.7188 33.6094C34.3542 33.6094 34.0365 33.6719 33.7656 33.7969C33.5 33.9219 33.2734 34.0911 33.0859 34.3047C32.8984 34.513 32.7448 34.7526 32.625 35.0234C32.5104 35.2891 32.4245 35.5651 32.3672 35.8516V37.875C32.4714 38.2396 32.6172 38.5833 32.8047 38.9062C32.9922 39.224 33.2422 39.4818 33.5547 39.6797C33.8672 39.8724 34.2604 39.9688 34.7344 39.9688C35.125 39.9688 35.4609 39.888 35.7422 39.7266C36.0286 39.5599 36.263 39.3333 36.4453 39.0469C36.6328 38.7604 36.7708 38.4323 36.8594 38.0625C36.9479 37.6875 36.9922 37.2891 36.9922 36.8672ZM45.9609 39.0469V32.5469H47.4141V41H46.0312L45.9609 39.0469ZM46.2344 37.2656L46.8359 37.25C46.8359 37.8125 46.776 38.3333 46.6562 38.8125C46.5417 39.2865 46.3542 39.6979 46.0938 40.0469C45.8333 40.3958 45.4922 40.6693 45.0703 40.8672C44.6484 41.0599 44.1354 41.1562 43.5312 41.1562C43.1198 41.1562 42.7422 41.0964 42.3984 40.9766C42.0599 40.8568 41.7682 40.6719 41.5234 40.4219C41.2786 40.1719 41.0885 39.8464 40.9531 39.4453C40.8229 39.0443 40.7578 38.5625 40.7578 38V32.5469H42.2031V38.0156C42.2031 38.3958 42.2448 38.7109 42.3281 38.9609C42.4167 39.2057 42.5339 39.401 42.6797 39.5469C42.8307 39.6875 42.9974 39.7865 43.1797 39.8438C43.3672 39.901 43.5599 39.9297 43.7578 39.9297C44.3724 39.9297 44.8594 39.8125 45.2188 39.5781C45.5781 39.3385 45.8359 39.0182 45.9922 38.6172C46.1536 38.2109 46.2344 37.7604 46.2344 37.2656ZM53.6562 32.5469V33.6562H49.0859V32.5469H53.6562ZM50.6328 30.4922H52.0781V38.9062C52.0781 39.1927 52.1224 39.4089 52.2109 39.5547C52.2995 39.7005 52.4141 39.7969 52.5547 39.8438C52.6953 39.8906 52.8464 39.9141 53.0078 39.9141C53.1276 39.9141 53.2526 39.9036 53.3828 39.8828C53.5182 39.8568 53.6198 39.8359 53.6875 39.8203L53.6953 41C53.5807 41.0365 53.4297 41.0703 53.2422 41.1016C53.0599 41.138 52.8385 41.1562 52.5781 41.1562C52.224 41.1562 51.8984 41.0859 51.6016 40.9453C51.3047 40.8047 51.0677 40.5703 50.8906 40.2422C50.7188 39.9089 50.6328 39.4609 50.6328 38.8984V30.4922Z" fill="#1C1B1F"/>
<line y1="55.5" x2="210" y2="55.5" stroke="#49454F"/>
</svg>
