<svg width="101" height="32" viewBox="0 0 101 32" fill="none" xmlns="http://www.w3.org/2000/svg">
<g clip-path="url(#clip0_50994_7242)">
<rect width="101" height="32" rx="8" fill="#E8DEF8"/>
<path d="M14.75 19.1274L11.6225 15.9999L10.5575 17.0574L14.75 21.2499L23.75 12.2499L22.6925 11.1924L14.75 19.1274Z" fill="#1D192B"/>
<path d="M41.6795 19.6396V21H36.3953V19.6396H41.6795ZM36.8807 11.0469V21H35.1648V11.0469H36.8807ZM40.9891 15.2031V16.543H36.3953V15.2031H40.9891ZM41.6453 11.0469V12.4141H36.3953V11.0469H41.6453ZM44.6506 15.1826V21H43.0031V13.6035H44.5549L44.6506 15.1826ZM44.3566 17.0283L43.8234 17.0215C43.828 16.4974 43.9009 16.0166 44.0422 15.5791C44.188 15.1416 44.3885 14.7656 44.6438 14.4512C44.9035 14.1367 45.2134 13.8952 45.5734 13.7266C45.9335 13.5534 46.3345 13.4668 46.7766 13.4668C47.132 13.4668 47.4533 13.5169 47.7404 13.6172C48.0321 13.7129 48.2805 13.8701 48.4855 14.0889C48.6952 14.3076 48.8547 14.5924 48.9641 14.9434C49.0734 15.2897 49.1281 15.7158 49.1281 16.2217V21H47.4738V16.2148C47.4738 15.8594 47.4214 15.5791 47.3166 15.374C47.2163 15.1644 47.0682 15.0163 46.8723 14.9297C46.6809 14.8385 46.4416 14.793 46.1545 14.793C45.8719 14.793 45.619 14.8522 45.3957 14.9707C45.1724 15.0892 44.9833 15.251 44.8283 15.4561C44.6779 15.6611 44.5617 15.8981 44.4797 16.167C44.3977 16.4359 44.3566 16.723 44.3566 17.0283ZM55.0797 19.5166V15.9893C55.0797 15.7249 55.0318 15.4971 54.9361 15.3057C54.8404 15.1143 54.6946 14.9661 54.4986 14.8613C54.3072 14.7565 54.0657 14.7041 53.774 14.7041C53.5051 14.7041 53.2727 14.7497 53.0768 14.8408C52.8808 14.932 52.7281 15.055 52.6188 15.21C52.5094 15.3649 52.4547 15.5404 52.4547 15.7363H50.8141C50.8141 15.4447 50.8847 15.1621 51.026 14.8887C51.1673 14.6152 51.3723 14.3714 51.6412 14.1572C51.9101 13.943 52.2314 13.7744 52.6051 13.6514C52.9788 13.5283 53.398 13.4668 53.8629 13.4668C54.4189 13.4668 54.9111 13.5602 55.3395 13.7471C55.7724 13.9339 56.1119 14.2165 56.358 14.5947C56.6087 14.9684 56.734 15.4378 56.734 16.0029V19.291C56.734 19.6283 56.7568 19.9313 56.8023 20.2002C56.8525 20.4645 56.9231 20.6947 57.0143 20.8906V21H55.3258C55.2483 20.8223 55.1868 20.5967 55.1412 20.3232C55.1002 20.0452 55.0797 19.7764 55.0797 19.5166ZM55.3189 16.502L55.3326 17.5205H54.15C53.8447 17.5205 53.5758 17.5501 53.3434 17.6094C53.1109 17.6641 52.9173 17.7461 52.7623 17.8555C52.6074 17.9648 52.4911 18.097 52.4137 18.252C52.3362 18.4069 52.2975 18.5824 52.2975 18.7783C52.2975 18.9743 52.343 19.1543 52.4342 19.3184C52.5253 19.4779 52.6575 19.6032 52.8307 19.6943C53.0084 19.7855 53.2226 19.8311 53.4732 19.8311C53.8105 19.8311 54.1044 19.7627 54.3551 19.626C54.6103 19.4847 54.8108 19.3138 54.9566 19.1133C55.1025 18.9082 55.1799 18.7145 55.1891 18.5322L55.7223 19.2637C55.6676 19.4505 55.5742 19.651 55.442 19.8652C55.3098 20.0794 55.1367 20.2845 54.9225 20.4805C54.7128 20.6719 54.4599 20.8291 54.1637 20.9521C53.872 21.0752 53.5348 21.1367 53.152 21.1367C52.6689 21.1367 52.2382 21.041 51.86 20.8496C51.4817 20.6536 51.1855 20.3916 50.9713 20.0635C50.7571 19.7308 50.65 19.3548 50.65 18.9355C50.65 18.5436 50.7229 18.1973 50.8688 17.8965C51.0191 17.5911 51.2379 17.3359 51.525 17.1309C51.8167 16.9258 52.1721 16.7708 52.5914 16.666C53.0107 16.5566 53.4892 16.502 54.027 16.502H55.3189ZM58.5635 10.5H60.2109V19.4209L60.0537 21H58.5635V10.5ZM65.0371 17.2334V17.377C65.0371 17.9238 64.9756 18.4274 64.8525 18.8877C64.734 19.3434 64.5518 19.7399 64.3057 20.0771C64.0641 20.4144 63.7633 20.6764 63.4033 20.8633C63.0479 21.0456 62.6354 21.1367 62.166 21.1367C61.7057 21.1367 61.3047 21.0501 60.9629 20.877C60.6211 20.7038 60.334 20.4577 60.1016 20.1387C59.8737 19.8197 59.6891 19.4391 59.5479 18.9971C59.4066 18.555 59.3063 18.0674 59.2471 17.5342V17.0762C59.3063 16.5384 59.4066 16.0508 59.5479 15.6133C59.6891 15.1712 59.8737 14.7907 60.1016 14.4717C60.334 14.1481 60.6188 13.8997 60.9561 13.7266C61.2979 13.5534 61.6966 13.4668 62.1523 13.4668C62.6263 13.4668 63.0433 13.5579 63.4033 13.7402C63.7679 13.9225 64.071 14.1823 64.3125 14.5195C64.554 14.8522 64.734 15.2487 64.8525 15.709C64.9756 16.1693 65.0371 16.6774 65.0371 17.2334ZM63.3896 17.377V17.2334C63.3896 16.9007 63.3623 16.5885 63.3076 16.2969C63.2529 16.0007 63.1618 15.7409 63.0342 15.5176C62.9111 15.2943 62.7425 15.1188 62.5283 14.9912C62.3187 14.859 62.0566 14.793 61.7422 14.793C61.4505 14.793 61.1999 14.8431 60.9902 14.9434C60.7806 15.0436 60.6051 15.1803 60.4639 15.3535C60.3226 15.5267 60.2109 15.7272 60.1289 15.9551C60.0514 16.1829 59.999 16.429 59.9717 16.6934V17.9307C60.0127 18.2725 60.0993 18.5869 60.2314 18.874C60.3682 19.1566 60.5596 19.3844 60.8057 19.5576C61.0518 19.7262 61.3685 19.8105 61.7559 19.8105C62.0612 19.8105 62.3187 19.749 62.5283 19.626C62.738 19.5029 62.9043 19.332 63.0273 19.1133C63.1549 18.89 63.2461 18.6302 63.3008 18.334C63.36 18.0378 63.3896 17.7188 63.3896 17.377ZM68.2953 10.5V21H66.641V10.5H68.2953ZM73.4607 21.1367C72.9139 21.1367 72.4194 21.0479 71.9773 20.8701C71.5398 20.6878 71.1661 20.4349 70.8563 20.1113C70.5509 19.7878 70.3162 19.4072 70.1521 18.9697C69.9881 18.5322 69.9061 18.0605 69.9061 17.5547V17.2812C69.9061 16.7025 69.9904 16.1784 70.159 15.709C70.3276 15.2396 70.5623 14.8385 70.8631 14.5059C71.1639 14.1686 71.5193 13.9111 71.9295 13.7334C72.3396 13.5557 72.784 13.4668 73.2625 13.4668C73.7911 13.4668 74.2537 13.5557 74.6502 13.7334C75.0467 13.9111 75.3748 14.1618 75.6346 14.4854C75.8989 14.8044 76.0949 15.1849 76.2225 15.627C76.3546 16.069 76.4207 16.5566 76.4207 17.0898V17.7939H70.7059V16.6113H74.7938V16.4814C74.7846 16.1852 74.7254 15.9072 74.616 15.6475C74.5112 15.3877 74.3494 15.1781 74.1307 15.0186C73.9119 14.859 73.6202 14.7793 73.2557 14.7793C72.9822 14.7793 72.7384 14.8385 72.5242 14.957C72.3146 15.071 72.1391 15.2373 71.9979 15.4561C71.8566 15.6748 71.7472 15.9391 71.6697 16.249C71.5968 16.5544 71.5604 16.8984 71.5604 17.2812V17.5547C71.5604 17.8783 71.6036 18.179 71.6902 18.457C71.7814 18.7305 71.9135 18.9697 72.0867 19.1748C72.2599 19.3799 72.4695 19.5417 72.7156 19.6602C72.9617 19.7741 73.242 19.8311 73.5564 19.8311C73.9529 19.8311 74.3061 19.7513 74.616 19.5918C74.9259 19.4323 75.1948 19.2067 75.4227 18.915L76.2908 19.7559C76.1313 19.9883 75.924 20.2116 75.6688 20.4258C75.4135 20.6354 75.1014 20.8063 74.7322 20.9385C74.3676 21.0706 73.9438 21.1367 73.4607 21.1367ZM82.3176 19.4688V10.5H83.9719V21H82.4748L82.3176 19.4688ZM77.5051 17.3838V17.2402C77.5051 16.6797 77.5712 16.1693 77.7033 15.709C77.8355 15.2441 78.0269 14.8454 78.2775 14.5127C78.5282 14.1755 78.8335 13.918 79.1936 13.7402C79.5536 13.5579 79.9592 13.4668 80.4104 13.4668C80.857 13.4668 81.2489 13.5534 81.5861 13.7266C81.9234 13.8997 82.2105 14.1481 82.4475 14.4717C82.6844 14.7907 82.8736 15.1735 83.0148 15.6201C83.1561 16.0622 83.2564 16.5544 83.3156 17.0967V17.5547C83.2564 18.0833 83.1561 18.5664 83.0148 19.0039C82.8736 19.4414 82.6844 19.8197 82.4475 20.1387C82.2105 20.4577 81.9211 20.7038 81.5793 20.877C81.2421 21.0501 80.8479 21.1367 80.3967 21.1367C79.9501 21.1367 79.5467 21.0433 79.1867 20.8564C78.8312 20.6696 78.5282 20.4076 78.2775 20.0703C78.0269 19.7331 77.8355 19.3366 77.7033 18.8809C77.5712 18.4206 77.5051 17.9215 77.5051 17.3838ZM79.1525 17.2402V17.3838C79.1525 17.721 79.1822 18.0355 79.2414 18.3271C79.3052 18.6188 79.4032 18.8763 79.5354 19.0996C79.6675 19.3184 79.8384 19.4915 80.048 19.6191C80.2622 19.7422 80.5174 19.8037 80.8137 19.8037C81.1874 19.8037 81.495 19.7217 81.7365 19.5576C81.9781 19.3936 82.1672 19.1725 82.3039 18.8945C82.4452 18.612 82.5409 18.2975 82.591 17.9512V16.7139C82.5637 16.445 82.5067 16.1943 82.4201 15.9619C82.3381 15.7295 82.2264 15.5267 82.0852 15.3535C81.9439 15.1758 81.7684 15.0391 81.5588 14.9434C81.3537 14.8431 81.1099 14.793 80.8273 14.793C80.5266 14.793 80.2714 14.8568 80.0617 14.9844C79.8521 15.112 79.6789 15.2874 79.5422 15.5107C79.41 15.734 79.312 15.9938 79.2482 16.29C79.1844 16.5863 79.1525 16.903 79.1525 17.2402Z" fill="#1D192B"/>
</g>
<defs>
<clipPath id="clip0_50994_7242">
<rect width="101" height="32" rx="8" fill="white"/>
</clipPath>
</defs>
</svg>
