<svg width="97" height="32" viewBox="0 0 97 32" fill="none" xmlns="http://www.w3.org/2000/svg">
<g clip-path="url(#clip0_50994_6785)">
<path d="M19.6795 19.6396V21H14.3953V19.6396H19.6795ZM14.8807 11.0469V21H13.1648V11.0469H14.8807ZM18.9891 15.2031V16.543H14.3953V15.2031H18.9891ZM19.6453 11.0469V12.4141H14.3953V11.0469H19.6453ZM22.6506 15.1826V21H21.0031V13.6035H22.5549L22.6506 15.1826ZM22.3566 17.0283L21.8234 17.0215C21.828 16.4974 21.9009 16.0166 22.0422 15.5791C22.188 15.1416 22.3885 14.7656 22.6438 14.4512C22.9035 14.1367 23.2134 13.8952 23.5734 13.7266C23.9335 13.5534 24.3345 13.4668 24.7766 13.4668C25.132 13.4668 25.4533 13.5169 25.7404 13.6172C26.0321 13.7129 26.2805 13.8701 26.4855 14.0889C26.6952 14.3076 26.8547 14.5924 26.9641 14.9434C27.0734 15.2897 27.1281 15.7158 27.1281 16.2217V21H25.4738V16.2148C25.4738 15.8594 25.4214 15.5791 25.3166 15.374C25.2163 15.1644 25.0682 15.0163 24.8723 14.9297C24.6809 14.8385 24.4416 14.793 24.1545 14.793C23.8719 14.793 23.619 14.8522 23.3957 14.9707C23.1724 15.0892 22.9833 15.251 22.8283 15.4561C22.6779 15.6611 22.5617 15.8981 22.4797 16.167C22.3977 16.4359 22.3566 16.723 22.3566 17.0283ZM33.0797 19.5166V15.9893C33.0797 15.7249 33.0318 15.4971 32.9361 15.3057C32.8404 15.1143 32.6946 14.9661 32.4986 14.8613C32.3072 14.7565 32.0657 14.7041 31.774 14.7041C31.5051 14.7041 31.2727 14.7497 31.0768 14.8408C30.8808 14.932 30.7281 15.055 30.6188 15.21C30.5094 15.3649 30.4547 15.5404 30.4547 15.7363H28.8141C28.8141 15.4447 28.8847 15.1621 29.026 14.8887C29.1673 14.6152 29.3723 14.3714 29.6412 14.1572C29.9101 13.943 30.2314 13.7744 30.6051 13.6514C30.9788 13.5283 31.398 13.4668 31.8629 13.4668C32.4189 13.4668 32.9111 13.5602 33.3395 13.7471C33.7724 13.9339 34.1119 14.2165 34.358 14.5947C34.6087 14.9684 34.734 15.4378 34.734 16.0029V19.291C34.734 19.6283 34.7568 19.9313 34.8023 20.2002C34.8525 20.4645 34.9231 20.6947 35.0143 20.8906V21H33.3258C33.2483 20.8223 33.1868 20.5967 33.1412 20.3232C33.1002 20.0452 33.0797 19.7764 33.0797 19.5166ZM33.3189 16.502L33.3326 17.5205H32.15C31.8447 17.5205 31.5758 17.5501 31.3434 17.6094C31.1109 17.6641 30.9173 17.7461 30.7623 17.8555C30.6074 17.9648 30.4911 18.097 30.4137 18.252C30.3362 18.4069 30.2975 18.5824 30.2975 18.7783C30.2975 18.9743 30.343 19.1543 30.4342 19.3184C30.5253 19.4779 30.6575 19.6032 30.8307 19.6943C31.0084 19.7855 31.2226 19.8311 31.4732 19.8311C31.8105 19.8311 32.1044 19.7627 32.3551 19.626C32.6103 19.4847 32.8108 19.3138 32.9566 19.1133C33.1025 18.9082 33.1799 18.7145 33.1891 18.5322L33.7223 19.2637C33.6676 19.4505 33.5742 19.651 33.442 19.8652C33.3098 20.0794 33.1367 20.2845 32.9225 20.4805C32.7128 20.6719 32.4599 20.8291 32.1637 20.9521C31.872 21.0752 31.5348 21.1367 31.152 21.1367C30.6689 21.1367 30.2382 21.041 29.86 20.8496C29.4817 20.6536 29.1855 20.3916 28.9713 20.0635C28.7571 19.7308 28.65 19.3548 28.65 18.9355C28.65 18.5436 28.7229 18.1973 28.8688 17.8965C29.0191 17.5911 29.2379 17.3359 29.525 17.1309C29.8167 16.9258 30.1721 16.7708 30.5914 16.666C31.0107 16.5566 31.4892 16.502 32.027 16.502H33.3189ZM36.5635 10.5H38.2109V19.4209L38.0537 21H36.5635V10.5ZM43.0371 17.2334V17.377C43.0371 17.9238 42.9756 18.4274 42.8525 18.8877C42.734 19.3434 42.5518 19.7399 42.3057 20.0771C42.0641 20.4144 41.7633 20.6764 41.4033 20.8633C41.0479 21.0456 40.6354 21.1367 40.166 21.1367C39.7057 21.1367 39.3047 21.0501 38.9629 20.877C38.6211 20.7038 38.334 20.4577 38.1016 20.1387C37.8737 19.8197 37.6891 19.4391 37.5479 18.9971C37.4066 18.555 37.3063 18.0674 37.2471 17.5342V17.0762C37.3063 16.5384 37.4066 16.0508 37.5479 15.6133C37.6891 15.1712 37.8737 14.7907 38.1016 14.4717C38.334 14.1481 38.6188 13.8997 38.9561 13.7266C39.2979 13.5534 39.6966 13.4668 40.1523 13.4668C40.6263 13.4668 41.0433 13.5579 41.4033 13.7402C41.7679 13.9225 42.071 14.1823 42.3125 14.5195C42.554 14.8522 42.734 15.2487 42.8525 15.709C42.9756 16.1693 43.0371 16.6774 43.0371 17.2334ZM41.3896 17.377V17.2334C41.3896 16.9007 41.3623 16.5885 41.3076 16.2969C41.2529 16.0007 41.1618 15.7409 41.0342 15.5176C40.9111 15.2943 40.7425 15.1188 40.5283 14.9912C40.3187 14.859 40.0566 14.793 39.7422 14.793C39.4505 14.793 39.1999 14.8431 38.9902 14.9434C38.7806 15.0436 38.6051 15.1803 38.4639 15.3535C38.3226 15.5267 38.2109 15.7272 38.1289 15.9551C38.0514 16.1829 37.999 16.429 37.9717 16.6934V17.9307C38.0127 18.2725 38.0993 18.5869 38.2314 18.874C38.3682 19.1566 38.5596 19.3844 38.8057 19.5576C39.0518 19.7262 39.3685 19.8105 39.7559 19.8105C40.0612 19.8105 40.3187 19.749 40.5283 19.626C40.738 19.5029 40.9043 19.332 41.0273 19.1133C41.1549 18.89 41.2461 18.6302 41.3008 18.334C41.36 18.0378 41.3896 17.7188 41.3896 17.377ZM46.2953 10.5V21H44.641V10.5H46.2953ZM51.4607 21.1367C50.9139 21.1367 50.4194 21.0479 49.9773 20.8701C49.5398 20.6878 49.1661 20.4349 48.8563 20.1113C48.5509 19.7878 48.3162 19.4072 48.1521 18.9697C47.9881 18.5322 47.9061 18.0605 47.9061 17.5547V17.2812C47.9061 16.7025 47.9904 16.1784 48.159 15.709C48.3276 15.2396 48.5623 14.8385 48.8631 14.5059C49.1639 14.1686 49.5193 13.9111 49.9295 13.7334C50.3396 13.5557 50.784 13.4668 51.2625 13.4668C51.7911 13.4668 52.2537 13.5557 52.6502 13.7334C53.0467 13.9111 53.3748 14.1618 53.6346 14.4854C53.8989 14.8044 54.0949 15.1849 54.2225 15.627C54.3546 16.069 54.4207 16.5566 54.4207 17.0898V17.7939H48.7059V16.6113H52.7938V16.4814C52.7846 16.1852 52.7254 15.9072 52.616 15.6475C52.5112 15.3877 52.3494 15.1781 52.1307 15.0186C51.9119 14.859 51.6202 14.7793 51.2557 14.7793C50.9822 14.7793 50.7384 14.8385 50.5242 14.957C50.3146 15.071 50.1391 15.2373 49.9979 15.4561C49.8566 15.6748 49.7472 15.9391 49.6697 16.249C49.5968 16.5544 49.5604 16.8984 49.5604 17.2812V17.5547C49.5604 17.8783 49.6036 18.179 49.6902 18.457C49.7814 18.7305 49.9135 18.9697 50.0867 19.1748C50.2599 19.3799 50.4695 19.5417 50.7156 19.6602C50.9617 19.7741 51.242 19.8311 51.5564 19.8311C51.9529 19.8311 52.3061 19.7513 52.616 19.5918C52.9259 19.4323 53.1948 19.2067 53.4227 18.915L54.2908 19.7559C54.1313 19.9883 53.924 20.2116 53.6688 20.4258C53.4135 20.6354 53.1014 20.8063 52.7322 20.9385C52.3676 21.0706 51.9438 21.1367 51.4607 21.1367ZM60.3176 19.4688V10.5H61.9719V21H60.4748L60.3176 19.4688ZM55.5051 17.3838V17.2402C55.5051 16.6797 55.5712 16.1693 55.7033 15.709C55.8355 15.2441 56.0269 14.8454 56.2775 14.5127C56.5282 14.1755 56.8335 13.918 57.1936 13.7402C57.5536 13.5579 57.9592 13.4668 58.4104 13.4668C58.857 13.4668 59.2489 13.5534 59.5861 13.7266C59.9234 13.8997 60.2105 14.1481 60.4475 14.4717C60.6844 14.7907 60.8736 15.1735 61.0148 15.6201C61.1561 16.0622 61.2564 16.5544 61.3156 17.0967V17.5547C61.2564 18.0833 61.1561 18.5664 61.0148 19.0039C60.8736 19.4414 60.6844 19.8197 60.4475 20.1387C60.2105 20.4577 59.9211 20.7038 59.5793 20.877C59.2421 21.0501 58.8479 21.1367 58.3967 21.1367C57.9501 21.1367 57.5467 21.0433 57.1867 20.8564C56.8312 20.6696 56.5282 20.4076 56.2775 20.0703C56.0269 19.7331 55.8355 19.3366 55.7033 18.8809C55.5712 18.4206 55.5051 17.9215 55.5051 17.3838ZM57.1525 17.2402V17.3838C57.1525 17.721 57.1822 18.0355 57.2414 18.3271C57.3052 18.6188 57.4032 18.8763 57.5354 19.0996C57.6675 19.3184 57.8384 19.4915 58.048 19.6191C58.2622 19.7422 58.5174 19.8037 58.8137 19.8037C59.1874 19.8037 59.495 19.7217 59.7365 19.5576C59.9781 19.3936 60.1672 19.1725 60.3039 18.8945C60.4452 18.612 60.5409 18.2975 60.591 17.9512V16.7139C60.5637 16.445 60.5067 16.1943 60.4201 15.9619C60.3381 15.7295 60.2264 15.5267 60.0852 15.3535C59.9439 15.1758 59.7684 15.0391 59.5588 14.9434C59.3537 14.8431 59.1099 14.793 58.8273 14.793C58.5266 14.793 58.2714 14.8568 58.0617 14.9844C57.8521 15.112 57.6789 15.2874 57.5422 15.5107C57.41 15.734 57.312 15.9938 57.2482 16.29C57.1844 16.5863 57.1525 16.903 57.1525 17.2402Z" fill="#49454F"/>
<path d="M85.25 11.8075L84.1925 10.75L80 14.9425L75.8075 10.75L74.75 11.8075L78.9425 16L74.75 20.1925L75.8075 21.25L80 17.0575L84.1925 21.25L85.25 20.1925L81.0575 16L85.25 11.8075Z" fill="#49454F"/>
</g>
<rect x="0.5" y="0.5" width="96" height="31" rx="7.5" stroke="#79747E"/>
<defs>
<clipPath id="clip0_50994_6785">
<rect width="97" height="32" rx="8" fill="white"/>
</clipPath>
</defs>
</svg>
