<svg width="412" height="152" viewBox="0 0 412 152" fill="none" xmlns="http://www.w3.org/2000/svg">
<rect width="412" height="152" fill="#FFFBFE"/>
<g clip-path="url(#clip0_50717_9066)">
<path d="M36 31H23.83L29.42 25.41L28 24L20 32L28 40L29.41 38.59L23.83 33H36V31Z" fill="#49454F"/>
</g>
<g clip-path="url(#clip1_50717_9066)">
<path d="M291.5 26V36.5C291.5 38.71 289.71 40.5 287.5 40.5C285.29 40.5 283.5 38.71 283.5 36.5V26C283.5 24.62 284.62 23.5 286 23.5C287.38 23.5 288.5 24.62 288.5 26V35.5C288.5 36.05 288.05 36.5 287.5 36.5C286.95 36.5 286.5 36.05 286.5 35.5V26H285V35.5C285 36.88 286.12 38 287.5 38C288.88 38 290 36.88 290 35.5V26C290 23.79 288.21 22 286 22C283.79 22 282 23.79 282 26V36.5C282 39.54 284.46 42 287.5 42C290.54 42 293 39.54 293 36.5V26H291.5Z" fill="#49454F"/>
</g>
<g clip-path="url(#clip2_50717_9066)">
<path fill-rule="evenodd" clip-rule="evenodd" d="M343 24H342V22H340V24H332V22H330V24H329C327.89 24 327 24.9 327 26V40C327 41.1 327.89 42 329 42H343C344.1 42 345 41.1 345 40V26C345 24.9 344.1 24 343 24ZM343 40H329V29H343V40ZM330.5 33C330.5 31.62 331.62 30.5 333 30.5C334.38 30.5 335.5 31.62 335.5 33C335.5 34.38 334.38 35.5 333 35.5C331.62 35.5 330.5 34.38 330.5 33Z" fill="#49454F"/>
</g>
<g clip-path="url(#clip3_50717_9066)">
<path fill-rule="evenodd" clip-rule="evenodd" d="M384 28C385.1 28 386 27.1 386 26C386 24.9 385.1 24 384 24C382.9 24 382 24.9 382 26C382 27.1 382.9 28 384 28ZM384 30C382.9 30 382 30.9 382 32C382 33.1 382.9 34 384 34C385.1 34 386 33.1 386 32C386 30.9 385.1 30 384 30ZM382 38C382 36.9 382.9 36 384 36C385.1 36 386 36.9 386 38C386 39.1 385.1 40 384 40C382.9 40 382 39.1 382 38Z" fill="#49454F"/>
</g>
<path d="M25.666 102.094V122H23.0684V102.094H25.666ZM32.0645 102.094V104.254H16.6836V102.094H32.0645ZM37.3828 107.207V122H34.8398V107.207H37.3828ZM34.6484 103.283C34.6484 102.873 34.7715 102.527 35.0176 102.244C35.2728 101.962 35.6465 101.82 36.1387 101.82C36.6217 101.82 36.9909 101.962 37.2461 102.244C37.5104 102.527 37.6426 102.873 37.6426 103.283C37.6426 103.675 37.5104 104.012 37.2461 104.295C36.9909 104.568 36.6217 104.705 36.1387 104.705C35.6465 104.705 35.2728 104.568 35.0176 104.295C34.7715 104.012 34.6484 103.675 34.6484 103.283ZM47.6367 107.207V109.148H39.6387V107.207H47.6367ZM42.3457 103.611H44.875V118.336C44.875 118.837 44.9525 119.215 45.1074 119.471C45.2624 119.726 45.4629 119.895 45.709 119.977C45.9551 120.059 46.2194 120.1 46.502 120.1C46.7116 120.1 46.9303 120.081 47.1582 120.045C47.3952 119.999 47.5729 119.963 47.6914 119.936L47.7051 122C47.5046 122.064 47.2402 122.123 46.9121 122.178C46.5931 122.242 46.2057 122.273 45.75 122.273C45.1302 122.273 44.5605 122.15 44.041 121.904C43.5215 121.658 43.1068 121.248 42.7969 120.674C42.4961 120.09 42.3457 119.307 42.3457 118.322V103.611ZM53.3516 101V122H50.8086V101H53.3516ZM63.5508 122.273C62.5208 122.273 61.5866 122.1 60.748 121.754C59.9186 121.398 59.2031 120.902 58.6016 120.264C58.0091 119.626 57.5534 118.869 57.2344 117.994C56.9154 117.119 56.7559 116.162 56.7559 115.123V114.549C56.7559 113.346 56.9336 112.275 57.2891 111.336C57.6445 110.388 58.1276 109.586 58.7383 108.93C59.349 108.273 60.0417 107.777 60.8164 107.439C61.5911 107.102 62.3932 106.934 63.2227 106.934C64.2799 106.934 65.1914 107.116 65.957 107.48C66.7318 107.845 67.3652 108.355 67.8574 109.012C68.3496 109.659 68.7142 110.424 68.9512 111.309C69.1882 112.184 69.3066 113.141 69.3066 114.18V115.314H58.2598V113.25H66.7773V113.059C66.7409 112.402 66.6042 111.764 66.3672 111.145C66.1393 110.525 65.7747 110.014 65.2734 109.613C64.7721 109.212 64.0885 109.012 63.2227 109.012C62.6484 109.012 62.1198 109.135 61.6367 109.381C61.1536 109.618 60.7389 109.973 60.3926 110.447C60.0462 110.921 59.7773 111.5 59.5859 112.184C59.3945 112.867 59.2988 113.656 59.2988 114.549V115.123C59.2988 115.825 59.3945 116.486 59.5859 117.105C59.7865 117.716 60.0736 118.254 60.4473 118.719C60.8301 119.184 61.2904 119.548 61.8281 119.812C62.375 120.077 62.9948 120.209 63.6875 120.209C64.5807 120.209 65.3372 120.027 65.957 119.662C66.5768 119.298 67.1191 118.81 67.584 118.199L69.1152 119.416C68.7962 119.899 68.3906 120.359 67.8984 120.797C67.4062 121.234 66.8001 121.59 66.0801 121.863C65.3691 122.137 64.526 122.273 63.5508 122.273Z" fill="#1C1B1F"/>
<defs>
<clipPath id="clip0_50717_9066">
<rect x="8" y="12" width="40" height="40" rx="20" fill="white"/>
</clipPath>
<clipPath id="clip1_50717_9066">
<rect x="268" y="12" width="40" height="40" rx="20" fill="white"/>
</clipPath>
<clipPath id="clip2_50717_9066">
<rect x="316" y="12" width="40" height="40" rx="20" fill="white"/>
</clipPath>
<clipPath id="clip3_50717_9066">
<rect x="364" y="12" width="40" height="40" rx="20" fill="white"/>
</clipPath>
</defs>
</svg>
