<svg width="360" height="168" viewBox="0 0 360 168" fill="none" xmlns="http://www.w3.org/2000/svg">
<rect width="360" height="168" fill="#FFFBFE"/>
<g clip-path="url(#clip0_51964_62995)">
<g clip-path="url(#clip1_51964_62995)">
<rect x="16" y="8" width="40" height="40" rx="20" fill="#EADDFF"/>
<path d="M36.2063 23.1406L32.8078 33H30.7531L35.0344 21.625H36.3469L36.2063 23.1406ZM39.05 33L35.6438 23.1406L35.4953 21.625H36.8156L41.1125 33H39.05ZM38.8859 28.7812V30.3359H32.6984V28.7812H38.8859Z" fill="#21005D"/>
</g>
</g>
<path d="M80.2188 31.7734V33H74.5312V31.7734H80.2188ZM74.8281 21.625V33H73.3203V21.625H74.8281ZM83.7969 24.5469V33H82.3438V24.5469H83.7969ZM82.2344 22.3047C82.2344 22.0703 82.3047 21.8724 82.4453 21.7109C82.5911 21.5495 82.8047 21.4688 83.0859 21.4688C83.362 21.4688 83.5729 21.5495 83.7188 21.7109C83.8698 21.8724 83.9453 22.0703 83.9453 22.3047C83.9453 22.5286 83.8698 22.7214 83.7188 22.8828C83.5729 23.0391 83.362 23.1172 83.0859 23.1172C82.8047 23.1172 82.5911 23.0391 82.4453 22.8828C82.3047 22.7214 82.2344 22.5286 82.2344 22.3047ZM91.5391 30.7578C91.5391 30.5495 91.4922 30.3568 91.3984 30.1797C91.3099 29.9974 91.125 29.8333 90.8438 29.6875C90.5677 29.5365 90.151 29.4062 89.5938 29.2969C89.125 29.1979 88.7005 29.0807 88.3203 28.9453C87.9453 28.8099 87.625 28.6458 87.3594 28.4531C87.099 28.2604 86.8984 28.0339 86.7578 27.7734C86.6172 27.513 86.5469 27.2083 86.5469 26.8594C86.5469 26.526 86.6198 26.2109 86.7656 25.9141C86.9167 25.6172 87.1276 25.3542 87.3984 25.125C87.6745 24.8958 88.0052 24.7161 88.3906 24.5859C88.776 24.4557 89.2057 24.3906 89.6797 24.3906C90.3568 24.3906 90.9349 24.5104 91.4141 24.75C91.8932 24.9896 92.2604 25.3099 92.5156 25.7109C92.7708 26.1068 92.8984 26.5469 92.8984 27.0312H91.4531C91.4531 26.7969 91.3828 26.5703 91.2422 26.3516C91.1068 26.1276 90.9062 25.9427 90.6406 25.7969C90.3802 25.651 90.0599 25.5781 89.6797 25.5781C89.2786 25.5781 88.9531 25.6406 88.7031 25.7656C88.4583 25.8854 88.2786 26.0391 88.1641 26.2266C88.0547 26.4141 88 26.612 88 26.8203C88 26.9766 88.026 27.1172 88.0781 27.2422C88.1354 27.362 88.2344 27.474 88.375 27.5781C88.5156 27.6771 88.7135 27.7708 88.9688 27.8594C89.224 27.9479 89.5495 28.0365 89.9453 28.125C90.638 28.2812 91.2083 28.4688 91.6562 28.6875C92.1042 28.9062 92.4375 29.1745 92.6562 29.4922C92.875 29.8099 92.9844 30.1953 92.9844 30.6484C92.9844 31.0182 92.9062 31.3568 92.75 31.6641C92.599 31.9714 92.3776 32.237 92.0859 32.4609C91.7995 32.6797 91.4557 32.8516 91.0547 32.9766C90.6589 33.0964 90.2135 33.1562 89.7188 33.1562C88.974 33.1562 88.3438 33.0234 87.8281 32.7578C87.3125 32.4922 86.9219 32.1484 86.6562 31.7266C86.3906 31.3047 86.2578 30.8594 86.2578 30.3906H87.7109C87.7318 30.7865 87.8464 31.1016 88.0547 31.3359C88.263 31.5651 88.5182 31.7292 88.8203 31.8281C89.1224 31.9219 89.4219 31.9688 89.7188 31.9688C90.1146 31.9688 90.4453 31.9167 90.7109 31.8125C90.9818 31.7083 91.1875 31.5651 91.3281 31.3828C91.4688 31.2005 91.5391 30.9922 91.5391 30.7578ZM98.9219 24.5469V25.6562H94.3516V24.5469H98.9219ZM95.8984 22.4922H97.3438V30.9062C97.3438 31.1927 97.388 31.4089 97.4766 31.5547C97.5651 31.7005 97.6797 31.7969 97.8203 31.8438C97.9609 31.8906 98.112 31.9141 98.2734 31.9141C98.3932 31.9141 98.5182 31.9036 98.6484 31.8828C98.7839 31.8568 98.8854 31.8359 98.9531 31.8203L98.9609 33C98.8464 33.0365 98.6953 33.0703 98.5078 33.1016C98.3255 33.138 98.1042 33.1562 97.8438 33.1562C97.4896 33.1562 97.1641 33.0859 96.8672 32.9453C96.5703 32.8047 96.3333 32.5703 96.1562 32.2422C95.9844 31.9089 95.8984 31.4609 95.8984 30.8984V22.4922ZM107.156 24.5469V33H105.703V24.5469H107.156ZM105.594 22.3047C105.594 22.0703 105.664 21.8724 105.805 21.7109C105.951 21.5495 106.164 21.4688 106.445 21.4688C106.721 21.4688 106.932 21.5495 107.078 21.7109C107.229 21.8724 107.305 22.0703 107.305 22.3047C107.305 22.5286 107.229 22.7214 107.078 22.8828C106.932 23.0391 106.721 23.1172 106.445 23.1172C106.164 23.1172 105.951 23.0391 105.805 22.8828C105.664 22.7214 105.594 22.5286 105.594 22.3047ZM113.516 24.5469V25.6562H108.945V24.5469H113.516ZM110.492 22.4922H111.938V30.9062C111.938 31.1927 111.982 31.4089 112.07 31.5547C112.159 31.7005 112.273 31.7969 112.414 31.8438C112.555 31.8906 112.706 31.9141 112.867 31.9141C112.987 31.9141 113.112 31.9036 113.242 31.8828C113.378 31.8568 113.479 31.8359 113.547 31.8203L113.555 33C113.44 33.0365 113.289 33.0703 113.102 33.1016C112.919 33.138 112.698 33.1562 112.438 33.1562C112.083 33.1562 111.758 33.0859 111.461 32.9453C111.164 32.8047 110.927 32.5703 110.75 32.2422C110.578 31.9089 110.492 31.4609 110.492 30.8984V22.4922ZM119.219 33.1562C118.63 33.1562 118.096 33.0573 117.617 32.8594C117.143 32.6562 116.734 32.3724 116.391 32.0078C116.052 31.6432 115.792 31.2109 115.609 30.7109C115.427 30.2109 115.336 29.6641 115.336 29.0703V28.7422C115.336 28.0547 115.438 27.4427 115.641 26.9062C115.844 26.3646 116.12 25.9062 116.469 25.5312C116.818 25.1562 117.214 24.8724 117.656 24.6797C118.099 24.487 118.557 24.3906 119.031 24.3906C119.635 24.3906 120.156 24.4948 120.594 24.7031C121.036 24.9115 121.398 25.2031 121.68 25.5781C121.961 25.9479 122.169 26.3854 122.305 26.8906C122.44 27.3906 122.508 27.9375 122.508 28.5312V29.1797H116.195V28H121.062V27.8906C121.042 27.5156 120.964 27.151 120.828 26.7969C120.698 26.4427 120.49 26.151 120.203 25.9219C119.917 25.6927 119.526 25.5781 119.031 25.5781C118.703 25.5781 118.401 25.6484 118.125 25.7891C117.849 25.9245 117.612 26.1276 117.414 26.3984C117.216 26.6693 117.062 27 116.953 27.3906C116.844 27.7812 116.789 28.2318 116.789 28.7422V29.0703C116.789 29.4714 116.844 29.849 116.953 30.2031C117.068 30.5521 117.232 30.8594 117.445 31.125C117.664 31.3906 117.927 31.599 118.234 31.75C118.547 31.901 118.901 31.9766 119.297 31.9766C119.807 31.9766 120.24 31.8724 120.594 31.6641C120.948 31.4557 121.258 31.1771 121.523 30.8281L122.398 31.5234C122.216 31.7995 121.984 32.0625 121.703 32.3125C121.422 32.5625 121.076 32.7656 120.664 32.9219C120.258 33.0781 119.776 33.1562 119.219 33.1562ZM126.133 26.2266V33H124.68V24.5469H126.055L126.133 26.2266ZM125.836 28.4531L125.164 28.4297C125.169 27.8516 125.245 27.3177 125.391 26.8281C125.536 26.3333 125.753 25.9036 126.039 25.5391C126.326 25.1745 126.682 24.8932 127.109 24.6953C127.536 24.4922 128.031 24.3906 128.594 24.3906C128.99 24.3906 129.354 24.4479 129.688 24.5625C130.021 24.6719 130.31 24.8464 130.555 25.0859C130.799 25.3255 130.99 25.6328 131.125 26.0078C131.26 26.3828 131.328 26.8359 131.328 27.3672V33H129.883V27.4375C129.883 26.9948 129.807 26.6406 129.656 26.375C129.51 26.1094 129.302 25.9167 129.031 25.7969C128.76 25.6719 128.443 25.6094 128.078 25.6094C127.651 25.6094 127.294 25.6849 127.008 25.8359C126.721 25.987 126.492 26.1953 126.32 26.4609C126.148 26.7266 126.023 27.0312 125.945 27.375C125.872 27.7135 125.836 28.0729 125.836 28.4531ZM131.312 27.6562L130.344 27.9531C130.349 27.4896 130.424 27.0443 130.57 26.6172C130.721 26.1901 130.938 25.8099 131.219 25.4766C131.505 25.1432 131.857 24.8802 132.273 24.6875C132.69 24.4896 133.167 24.3906 133.703 24.3906C134.156 24.3906 134.557 24.4505 134.906 24.5703C135.26 24.6901 135.557 24.875 135.797 25.125C136.042 25.3698 136.227 25.6849 136.352 26.0703C136.477 26.4557 136.539 26.9141 136.539 27.4453V33H135.086V27.4297C135.086 26.9557 135.01 26.5885 134.859 26.3281C134.714 26.0625 134.505 25.8776 134.234 25.7734C133.969 25.6641 133.651 25.6094 133.281 25.6094C132.964 25.6094 132.682 25.6641 132.438 25.7734C132.193 25.8828 131.987 26.0339 131.82 26.2266C131.654 26.4141 131.526 26.6302 131.438 26.875C131.354 27.1198 131.312 27.3802 131.312 27.6562Z" fill="#1C1B1F"/>
<rect x="315" y="19" width="18" height="18" rx="2" fill="#6750A4"/>
<path d="M322 32.4L318 28.4L319.4 27L322 29.6L328.6 23L330 24.4L322 32.4Z" fill="white"/>
<g clip-path="url(#clip2_51964_62995)">
<g clip-path="url(#clip3_51964_62995)">
<rect x="16" y="64" width="40" height="40" rx="20" fill="#EADDFF"/>
<path d="M36.2063 79.1406L32.8078 89H30.7531L35.0344 77.625H36.3469L36.2063 79.1406ZM39.05 89L35.6438 79.1406L35.4953 77.625H36.8156L41.1125 89H39.05ZM38.8859 84.7812V86.3359H32.6984V84.7812H38.8859Z" fill="#21005D"/>
</g>
</g>
<path d="M80.2188 87.7734V89H74.5312V87.7734H80.2188ZM74.8281 77.625V89H73.3203V77.625H74.8281ZM83.7969 80.5469V89H82.3438V80.5469H83.7969ZM82.2344 78.3047C82.2344 78.0703 82.3047 77.8724 82.4453 77.7109C82.5911 77.5495 82.8047 77.4688 83.0859 77.4688C83.362 77.4688 83.5729 77.5495 83.7188 77.7109C83.8698 77.8724 83.9453 78.0703 83.9453 78.3047C83.9453 78.5286 83.8698 78.7214 83.7188 78.8828C83.5729 79.0391 83.362 79.1172 83.0859 79.1172C82.8047 79.1172 82.5911 79.0391 82.4453 78.8828C82.3047 78.7214 82.2344 78.5286 82.2344 78.3047ZM91.5391 86.7578C91.5391 86.5495 91.4922 86.3568 91.3984 86.1797C91.3099 85.9974 91.125 85.8333 90.8438 85.6875C90.5677 85.5365 90.151 85.4062 89.5938 85.2969C89.125 85.1979 88.7005 85.0807 88.3203 84.9453C87.9453 84.8099 87.625 84.6458 87.3594 84.4531C87.099 84.2604 86.8984 84.0339 86.7578 83.7734C86.6172 83.513 86.5469 83.2083 86.5469 82.8594C86.5469 82.526 86.6198 82.2109 86.7656 81.9141C86.9167 81.6172 87.1276 81.3542 87.3984 81.125C87.6745 80.8958 88.0052 80.7161 88.3906 80.5859C88.776 80.4557 89.2057 80.3906 89.6797 80.3906C90.3568 80.3906 90.9349 80.5104 91.4141 80.75C91.8932 80.9896 92.2604 81.3099 92.5156 81.7109C92.7708 82.1068 92.8984 82.5469 92.8984 83.0312H91.4531C91.4531 82.7969 91.3828 82.5703 91.2422 82.3516C91.1068 82.1276 90.9062 81.9427 90.6406 81.7969C90.3802 81.651 90.0599 81.5781 89.6797 81.5781C89.2786 81.5781 88.9531 81.6406 88.7031 81.7656C88.4583 81.8854 88.2786 82.0391 88.1641 82.2266C88.0547 82.4141 88 82.612 88 82.8203C88 82.9766 88.026 83.1172 88.0781 83.2422C88.1354 83.362 88.2344 83.474 88.375 83.5781C88.5156 83.6771 88.7135 83.7708 88.9688 83.8594C89.224 83.9479 89.5495 84.0365 89.9453 84.125C90.638 84.2812 91.2083 84.4688 91.6562 84.6875C92.1042 84.9062 92.4375 85.1745 92.6562 85.4922C92.875 85.8099 92.9844 86.1953 92.9844 86.6484C92.9844 87.0182 92.9062 87.3568 92.75 87.6641C92.599 87.9714 92.3776 88.237 92.0859 88.4609C91.7995 88.6797 91.4557 88.8516 91.0547 88.9766C90.6589 89.0964 90.2135 89.1562 89.7188 89.1562C88.974 89.1562 88.3438 89.0234 87.8281 88.7578C87.3125 88.4922 86.9219 88.1484 86.6562 87.7266C86.3906 87.3047 86.2578 86.8594 86.2578 86.3906H87.7109C87.7318 86.7865 87.8464 87.1016 88.0547 87.3359C88.263 87.5651 88.5182 87.7292 88.8203 87.8281C89.1224 87.9219 89.4219 87.9688 89.7188 87.9688C90.1146 87.9688 90.4453 87.9167 90.7109 87.8125C90.9818 87.7083 91.1875 87.5651 91.3281 87.3828C91.4688 87.2005 91.5391 86.9922 91.5391 86.7578ZM98.9219 80.5469V81.6562H94.3516V80.5469H98.9219ZM95.8984 78.4922H97.3438V86.9062C97.3438 87.1927 97.388 87.4089 97.4766 87.5547C97.5651 87.7005 97.6797 87.7969 97.8203 87.8438C97.9609 87.8906 98.112 87.9141 98.2734 87.9141C98.3932 87.9141 98.5182 87.9036 98.6484 87.8828C98.7839 87.8568 98.8854 87.8359 98.9531 87.8203L98.9609 89C98.8464 89.0365 98.6953 89.0703 98.5078 89.1016C98.3255 89.138 98.1042 89.1562 97.8438 89.1562C97.4896 89.1562 97.1641 89.0859 96.8672 88.9453C96.5703 88.8047 96.3333 88.5703 96.1562 88.2422C95.9844 87.9089 95.8984 87.4609 95.8984 86.8984V78.4922ZM107.156 80.5469V89H105.703V80.5469H107.156ZM105.594 78.3047C105.594 78.0703 105.664 77.8724 105.805 77.7109C105.951 77.5495 106.164 77.4688 106.445 77.4688C106.721 77.4688 106.932 77.5495 107.078 77.7109C107.229 77.8724 107.305 78.0703 107.305 78.3047C107.305 78.5286 107.229 78.7214 107.078 78.8828C106.932 79.0391 106.721 79.1172 106.445 79.1172C106.164 79.1172 105.951 79.0391 105.805 78.8828C105.664 78.7214 105.594 78.5286 105.594 78.3047ZM113.516 80.5469V81.6562H108.945V80.5469H113.516ZM110.492 78.4922H111.938V86.9062C111.938 87.1927 111.982 87.4089 112.07 87.5547C112.159 87.7005 112.273 87.7969 112.414 87.8438C112.555 87.8906 112.706 87.9141 112.867 87.9141C112.987 87.9141 113.112 87.9036 113.242 87.8828C113.378 87.8568 113.479 87.8359 113.547 87.8203L113.555 89C113.44 89.0365 113.289 89.0703 113.102 89.1016C112.919 89.138 112.698 89.1562 112.438 89.1562C112.083 89.1562 111.758 89.0859 111.461 88.9453C111.164 88.8047 110.927 88.5703 110.75 88.2422C110.578 87.9089 110.492 87.4609 110.492 86.8984V78.4922ZM119.219 89.1562C118.63 89.1562 118.096 89.0573 117.617 88.8594C117.143 88.6562 116.734 88.3724 116.391 88.0078C116.052 87.6432 115.792 87.2109 115.609 86.7109C115.427 86.2109 115.336 85.6641 115.336 85.0703V84.7422C115.336 84.0547 115.438 83.4427 115.641 82.9062C115.844 82.3646 116.12 81.9062 116.469 81.5312C116.818 81.1562 117.214 80.8724 117.656 80.6797C118.099 80.487 118.557 80.3906 119.031 80.3906C119.635 80.3906 120.156 80.4948 120.594 80.7031C121.036 80.9115 121.398 81.2031 121.68 81.5781C121.961 81.9479 122.169 82.3854 122.305 82.8906C122.44 83.3906 122.508 83.9375 122.508 84.5312V85.1797H116.195V84H121.062V83.8906C121.042 83.5156 120.964 83.151 120.828 82.7969C120.698 82.4427 120.49 82.151 120.203 81.9219C119.917 81.6927 119.526 81.5781 119.031 81.5781C118.703 81.5781 118.401 81.6484 118.125 81.7891C117.849 81.9245 117.612 82.1276 117.414 82.3984C117.216 82.6693 117.062 83 116.953 83.3906C116.844 83.7812 116.789 84.2318 116.789 84.7422V85.0703C116.789 85.4714 116.844 85.849 116.953 86.2031C117.068 86.5521 117.232 86.8594 117.445 87.125C117.664 87.3906 117.927 87.599 118.234 87.75C118.547 87.901 118.901 87.9766 119.297 87.9766C119.807 87.9766 120.24 87.8724 120.594 87.6641C120.948 87.4557 121.258 87.1771 121.523 86.8281L122.398 87.5234C122.216 87.7995 121.984 88.0625 121.703 88.3125C121.422 88.5625 121.076 88.7656 120.664 88.9219C120.258 89.0781 119.776 89.1562 119.219 89.1562ZM126.133 82.2266V89H124.68V80.5469H126.055L126.133 82.2266ZM125.836 84.4531L125.164 84.4297C125.169 83.8516 125.245 83.3177 125.391 82.8281C125.536 82.3333 125.753 81.9036 126.039 81.5391C126.326 81.1745 126.682 80.8932 127.109 80.6953C127.536 80.4922 128.031 80.3906 128.594 80.3906C128.99 80.3906 129.354 80.4479 129.688 80.5625C130.021 80.6719 130.31 80.8464 130.555 81.0859C130.799 81.3255 130.99 81.6328 131.125 82.0078C131.26 82.3828 131.328 82.8359 131.328 83.3672V89H129.883V83.4375C129.883 82.9948 129.807 82.6406 129.656 82.375C129.51 82.1094 129.302 81.9167 129.031 81.7969C128.76 81.6719 128.443 81.6094 128.078 81.6094C127.651 81.6094 127.294 81.6849 127.008 81.8359C126.721 81.987 126.492 82.1953 126.32 82.4609C126.148 82.7266 126.023 83.0312 125.945 83.375C125.872 83.7135 125.836 84.0729 125.836 84.4531ZM131.312 83.6562L130.344 83.9531C130.349 83.4896 130.424 83.0443 130.57 82.6172C130.721 82.1901 130.938 81.8099 131.219 81.4766C131.505 81.1432 131.857 80.8802 132.273 80.6875C132.69 80.4896 133.167 80.3906 133.703 80.3906C134.156 80.3906 134.557 80.4505 134.906 80.5703C135.26 80.6901 135.557 80.875 135.797 81.125C136.042 81.3698 136.227 81.6849 136.352 82.0703C136.477 82.4557 136.539 82.9141 136.539 83.4453V89H135.086V83.4297C135.086 82.9557 135.01 82.5885 134.859 82.3281C134.714 82.0625 134.505 81.8776 134.234 81.7734C133.969 81.6641 133.651 81.6094 133.281 81.6094C132.964 81.6094 132.682 81.6641 132.438 81.7734C132.193 81.8828 131.987 82.0339 131.82 82.2266C131.654 82.4141 131.526 82.6302 131.438 82.875C131.354 83.1198 131.312 83.3802 131.312 83.6562Z" fill="#1C1B1F"/>
<rect x="315" y="75" width="18" height="18" rx="2" fill="#6750A4"/>
<path d="M322 88.4L318 84.4L319.4 83L322 85.6L328.6 79L330 80.4L322 88.4Z" fill="white"/>
<g clip-path="url(#clip4_51964_62995)">
<g clip-path="url(#clip5_51964_62995)">
<rect x="16" y="120" width="40" height="40" rx="20" fill="#EADDFF"/>
<path d="M36.2063 135.141L32.8078 145H30.7531L35.0344 133.625H36.3469L36.2063 135.141ZM39.05 145L35.6438 135.141L35.4953 133.625H36.8156L41.1125 145H39.05ZM38.8859 140.781V142.336H32.6984V140.781H38.8859Z" fill="#21005D"/>
</g>
</g>
<path d="M80.2188 143.773V145H74.5312V143.773H80.2188ZM74.8281 133.625V145H73.3203V133.625H74.8281ZM83.7969 136.547V145H82.3438V136.547H83.7969ZM82.2344 134.305C82.2344 134.07 82.3047 133.872 82.4453 133.711C82.5911 133.549 82.8047 133.469 83.0859 133.469C83.362 133.469 83.5729 133.549 83.7188 133.711C83.8698 133.872 83.9453 134.07 83.9453 134.305C83.9453 134.529 83.8698 134.721 83.7188 134.883C83.5729 135.039 83.362 135.117 83.0859 135.117C82.8047 135.117 82.5911 135.039 82.4453 134.883C82.3047 134.721 82.2344 134.529 82.2344 134.305ZM91.5391 142.758C91.5391 142.549 91.4922 142.357 91.3984 142.18C91.3099 141.997 91.125 141.833 90.8438 141.688C90.5677 141.536 90.151 141.406 89.5938 141.297C89.125 141.198 88.7005 141.081 88.3203 140.945C87.9453 140.81 87.625 140.646 87.3594 140.453C87.099 140.26 86.8984 140.034 86.7578 139.773C86.6172 139.513 86.5469 139.208 86.5469 138.859C86.5469 138.526 86.6198 138.211 86.7656 137.914C86.9167 137.617 87.1276 137.354 87.3984 137.125C87.6745 136.896 88.0052 136.716 88.3906 136.586C88.776 136.456 89.2057 136.391 89.6797 136.391C90.3568 136.391 90.9349 136.51 91.4141 136.75C91.8932 136.99 92.2604 137.31 92.5156 137.711C92.7708 138.107 92.8984 138.547 92.8984 139.031H91.4531C91.4531 138.797 91.3828 138.57 91.2422 138.352C91.1068 138.128 90.9062 137.943 90.6406 137.797C90.3802 137.651 90.0599 137.578 89.6797 137.578C89.2786 137.578 88.9531 137.641 88.7031 137.766C88.4583 137.885 88.2786 138.039 88.1641 138.227C88.0547 138.414 88 138.612 88 138.82C88 138.977 88.026 139.117 88.0781 139.242C88.1354 139.362 88.2344 139.474 88.375 139.578C88.5156 139.677 88.7135 139.771 88.9688 139.859C89.224 139.948 89.5495 140.036 89.9453 140.125C90.638 140.281 91.2083 140.469 91.6562 140.688C92.1042 140.906 92.4375 141.174 92.6562 141.492C92.875 141.81 92.9844 142.195 92.9844 142.648C92.9844 143.018 92.9062 143.357 92.75 143.664C92.599 143.971 92.3776 144.237 92.0859 144.461C91.7995 144.68 91.4557 144.852 91.0547 144.977C90.6589 145.096 90.2135 145.156 89.7188 145.156C88.974 145.156 88.3438 145.023 87.8281 144.758C87.3125 144.492 86.9219 144.148 86.6562 143.727C86.3906 143.305 86.2578 142.859 86.2578 142.391H87.7109C87.7318 142.786 87.8464 143.102 88.0547 143.336C88.263 143.565 88.5182 143.729 88.8203 143.828C89.1224 143.922 89.4219 143.969 89.7188 143.969C90.1146 143.969 90.4453 143.917 90.7109 143.812C90.9818 143.708 91.1875 143.565 91.3281 143.383C91.4688 143.201 91.5391 142.992 91.5391 142.758ZM98.9219 136.547V137.656H94.3516V136.547H98.9219ZM95.8984 134.492H97.3438V142.906C97.3438 143.193 97.388 143.409 97.4766 143.555C97.5651 143.701 97.6797 143.797 97.8203 143.844C97.9609 143.891 98.112 143.914 98.2734 143.914C98.3932 143.914 98.5182 143.904 98.6484 143.883C98.7839 143.857 98.8854 143.836 98.9531 143.82L98.9609 145C98.8464 145.036 98.6953 145.07 98.5078 145.102C98.3255 145.138 98.1042 145.156 97.8438 145.156C97.4896 145.156 97.1641 145.086 96.8672 144.945C96.5703 144.805 96.3333 144.57 96.1562 144.242C95.9844 143.909 95.8984 143.461 95.8984 142.898V134.492ZM107.156 136.547V145H105.703V136.547H107.156ZM105.594 134.305C105.594 134.07 105.664 133.872 105.805 133.711C105.951 133.549 106.164 133.469 106.445 133.469C106.721 133.469 106.932 133.549 107.078 133.711C107.229 133.872 107.305 134.07 107.305 134.305C107.305 134.529 107.229 134.721 107.078 134.883C106.932 135.039 106.721 135.117 106.445 135.117C106.164 135.117 105.951 135.039 105.805 134.883C105.664 134.721 105.594 134.529 105.594 134.305ZM113.516 136.547V137.656H108.945V136.547H113.516ZM110.492 134.492H111.938V142.906C111.938 143.193 111.982 143.409 112.07 143.555C112.159 143.701 112.273 143.797 112.414 143.844C112.555 143.891 112.706 143.914 112.867 143.914C112.987 143.914 113.112 143.904 113.242 143.883C113.378 143.857 113.479 143.836 113.547 143.82L113.555 145C113.44 145.036 113.289 145.07 113.102 145.102C112.919 145.138 112.698 145.156 112.438 145.156C112.083 145.156 111.758 145.086 111.461 144.945C111.164 144.805 110.927 144.57 110.75 144.242C110.578 143.909 110.492 143.461 110.492 142.898V134.492ZM119.219 145.156C118.63 145.156 118.096 145.057 117.617 144.859C117.143 144.656 116.734 144.372 116.391 144.008C116.052 143.643 115.792 143.211 115.609 142.711C115.427 142.211 115.336 141.664 115.336 141.07V140.742C115.336 140.055 115.438 139.443 115.641 138.906C115.844 138.365 116.12 137.906 116.469 137.531C116.818 137.156 117.214 136.872 117.656 136.68C118.099 136.487 118.557 136.391 119.031 136.391C119.635 136.391 120.156 136.495 120.594 136.703C121.036 136.911 121.398 137.203 121.68 137.578C121.961 137.948 122.169 138.385 122.305 138.891C122.44 139.391 122.508 139.938 122.508 140.531V141.18H116.195V140H121.062V139.891C121.042 139.516 120.964 139.151 120.828 138.797C120.698 138.443 120.49 138.151 120.203 137.922C119.917 137.693 119.526 137.578 119.031 137.578C118.703 137.578 118.401 137.648 118.125 137.789C117.849 137.924 117.612 138.128 117.414 138.398C117.216 138.669 117.062 139 116.953 139.391C116.844 139.781 116.789 140.232 116.789 140.742V141.07C116.789 141.471 116.844 141.849 116.953 142.203C117.068 142.552 117.232 142.859 117.445 143.125C117.664 143.391 117.927 143.599 118.234 143.75C118.547 143.901 118.901 143.977 119.297 143.977C119.807 143.977 120.24 143.872 120.594 143.664C120.948 143.456 121.258 143.177 121.523 142.828L122.398 143.523C122.216 143.799 121.984 144.062 121.703 144.312C121.422 144.562 121.076 144.766 120.664 144.922C120.258 145.078 119.776 145.156 119.219 145.156ZM126.133 138.227V145H124.68V136.547H126.055L126.133 138.227ZM125.836 140.453L125.164 140.43C125.169 139.852 125.245 139.318 125.391 138.828C125.536 138.333 125.753 137.904 126.039 137.539C126.326 137.174 126.682 136.893 127.109 136.695C127.536 136.492 128.031 136.391 128.594 136.391C128.99 136.391 129.354 136.448 129.688 136.562C130.021 136.672 130.31 136.846 130.555 137.086C130.799 137.326 130.99 137.633 131.125 138.008C131.26 138.383 131.328 138.836 131.328 139.367V145H129.883V139.438C129.883 138.995 129.807 138.641 129.656 138.375C129.51 138.109 129.302 137.917 129.031 137.797C128.76 137.672 128.443 137.609 128.078 137.609C127.651 137.609 127.294 137.685 127.008 137.836C126.721 137.987 126.492 138.195 126.32 138.461C126.148 138.727 126.023 139.031 125.945 139.375C125.872 139.714 125.836 140.073 125.836 140.453ZM131.312 139.656L130.344 139.953C130.349 139.49 130.424 139.044 130.57 138.617C130.721 138.19 130.938 137.81 131.219 137.477C131.505 137.143 131.857 136.88 132.273 136.688C132.69 136.49 133.167 136.391 133.703 136.391C134.156 136.391 134.557 136.451 134.906 136.57C135.26 136.69 135.557 136.875 135.797 137.125C136.042 137.37 136.227 137.685 136.352 138.07C136.477 138.456 136.539 138.914 136.539 139.445V145H135.086V139.43C135.086 138.956 135.01 138.589 134.859 138.328C134.714 138.062 134.505 137.878 134.234 137.773C133.969 137.664 133.651 137.609 133.281 137.609C132.964 137.609 132.682 137.664 132.438 137.773C132.193 137.883 131.987 138.034 131.82 138.227C131.654 138.414 131.526 138.63 131.438 138.875C131.354 139.12 131.312 139.38 131.312 139.656Z" fill="#1C1B1F"/>
<rect x="315" y="131" width="18" height="18" rx="2" fill="#6750A4"/>
<path d="M322 144.4L318 140.4L319.4 139L322 141.6L328.6 135L330 136.4L322 144.4Z" fill="white"/>
<defs>
<clipPath id="clip0_51964_62995">
<rect width="40" height="40" fill="white" transform="translate(16 8)"/>
</clipPath>
<clipPath id="clip1_51964_62995">
<rect x="16" y="8" width="40" height="40" rx="20" fill="white"/>
</clipPath>
<clipPath id="clip2_51964_62995">
<rect width="40" height="40" fill="white" transform="translate(16 64)"/>
</clipPath>
<clipPath id="clip3_51964_62995">
<rect x="16" y="64" width="40" height="40" rx="20" fill="white"/>
</clipPath>
<clipPath id="clip4_51964_62995">
<rect width="40" height="40" fill="white" transform="translate(16 120)"/>
</clipPath>
<clipPath id="clip5_51964_62995">
<rect x="16" y="120" width="40" height="40" rx="20" fill="white"/>
</clipPath>
</defs>
</svg>
