<svg width="412" height="112" viewBox="0 0 412 112" fill="none" xmlns="http://www.w3.org/2000/svg">
<rect width="412" height="112" fill="#FFFBFE"/>
<g clip-path="url(#clip0_50717_9073)">
<path d="M36 31H23.83L29.42 25.41L28 24L20 32L28 40L29.41 38.59L23.83 33H36V31Z" fill="#49454F"/>
</g>
<g clip-path="url(#clip1_50717_9073)">
<path d="M291.5 26V36.5C291.5 38.71 289.71 40.5 287.5 40.5C285.29 40.5 283.5 38.71 283.5 36.5V26C283.5 24.62 284.62 23.5 286 23.5C287.38 23.5 288.5 24.62 288.5 26V35.5C288.5 36.05 288.05 36.5 287.5 36.5C286.95 36.5 286.5 36.05 286.5 35.5V26H285V35.5C285 36.88 286.12 38 287.5 38C288.88 38 290 36.88 290 35.5V26C290 23.79 288.21 22 286 22C283.79 22 282 23.79 282 26V36.5C282 39.54 284.46 42 287.5 42C290.54 42 293 39.54 293 36.5V26H291.5Z" fill="#49454F"/>
</g>
<g clip-path="url(#clip2_50717_9073)">
<path fill-rule="evenodd" clip-rule="evenodd" d="M343 24H342V22H340V24H332V22H330V24H329C327.89 24 327 24.9 327 26V40C327 41.1 327.89 42 329 42H343C344.1 42 345 41.1 345 40V26C345 24.9 344.1 24 343 24ZM343 40H329V29H343V40ZM330.5 33C330.5 31.62 331.62 30.5 333 30.5C334.38 30.5 335.5 31.62 335.5 33C335.5 34.38 334.38 35.5 333 35.5C331.62 35.5 330.5 34.38 330.5 33Z" fill="#49454F"/>
</g>
<g clip-path="url(#clip3_50717_9073)">
<path fill-rule="evenodd" clip-rule="evenodd" d="M384 28C385.1 28 386 27.1 386 26C386 24.9 385.1 24 384 24C382.9 24 382 24.9 382 26C382 27.1 382.9 28 384 28ZM384 30C382.9 30 382 30.9 382 32C382 33.1 382.9 34 384 34C385.1 34 386 33.1 386 32C386 30.9 385.1 30 384 30ZM382 38C382 36.9 382.9 36 384 36C385.1 36 386 36.9 386 38C386 39.1 385.1 40 384 40C382.9 40 382 39.1 382 38Z" fill="#49454F"/>
</g>
<path d="M24.2852 64.9375V82H22.0586V64.9375H24.2852ZM29.7695 64.9375V66.7891H16.5859V64.9375H29.7695ZM34.3281 69.3203V82H32.1484V69.3203H34.3281ZM31.9844 65.957C31.9844 65.6055 32.0898 65.3086 32.3008 65.0664C32.5195 64.8242 32.8398 64.7031 33.2617 64.7031C33.6758 64.7031 33.9922 64.8242 34.2109 65.0664C34.4375 65.3086 34.5508 65.6055 34.5508 65.957C34.5508 66.293 34.4375 66.582 34.2109 66.8242C33.9922 67.0586 33.6758 67.1758 33.2617 67.1758C32.8398 67.1758 32.5195 67.0586 32.3008 66.8242C32.0898 66.582 31.9844 66.293 31.9844 65.957ZM43.1172 69.3203V70.9844H36.2617V69.3203H43.1172ZM38.582 66.2383H40.75V78.8594C40.75 79.2891 40.8164 79.6133 40.9492 79.832C41.082 80.0508 41.2539 80.1953 41.4648 80.2656C41.6758 80.3359 41.9023 80.3711 42.1445 80.3711C42.3242 80.3711 42.5117 80.3555 42.707 80.3242C42.9102 80.2852 43.0625 80.2539 43.1641 80.2305L43.1758 82C43.0039 82.0547 42.7773 82.1055 42.4961 82.1523C42.2227 82.207 41.8906 82.2344 41.5 82.2344C40.9688 82.2344 40.4805 82.1289 40.0352 81.918C39.5898 81.707 39.2344 81.3555 38.9688 80.8633C38.7109 80.3633 38.582 79.6914 38.582 78.8477V66.2383ZM48.0156 64V82H45.8359V64H48.0156ZM56.7578 82.2344C55.875 82.2344 55.0742 82.0859 54.3555 81.7891C53.6445 81.4844 53.0312 81.0586 52.5156 80.5117C52.0078 79.9648 51.6172 79.3164 51.3438 78.5664C51.0703 77.8164 50.9336 76.9961 50.9336 76.1055V75.6133C50.9336 74.582 51.0859 73.6641 51.3906 72.8594C51.6953 72.0469 52.1094 71.3594 52.6328 70.7969C53.1562 70.2344 53.75 69.8086 54.4141 69.5195C55.0781 69.2305 55.7656 69.0859 56.4766 69.0859C57.3828 69.0859 58.1641 69.2422 58.8203 69.5547C59.4844 69.8672 60.0273 70.3047 60.4492 70.8672C60.8711 71.4219 61.1836 72.0781 61.3867 72.8359C61.5898 73.5859 61.6914 74.4062 61.6914 75.2969V76.2695H52.2227V74.5H59.5234V74.3359C59.4922 73.7734 59.375 73.2266 59.1719 72.6953C58.9766 72.1641 58.6641 71.7266 58.2344 71.3828C57.8047 71.0391 57.2188 70.8672 56.4766 70.8672C55.9844 70.8672 55.5312 70.9727 55.1172 71.1836C54.7031 71.3867 54.3477 71.6914 54.0508 72.0977C53.7539 72.5039 53.5234 73 53.3594 73.5859C53.1953 74.1719 53.1133 74.8477 53.1133 75.6133V76.1055C53.1133 76.707 53.1953 77.2734 53.3594 77.8047C53.5312 78.3281 53.7773 78.7891 54.0977 79.1875C54.4258 79.5859 54.8203 79.8984 55.2812 80.125C55.75 80.3516 56.2812 80.4648 56.875 80.4648C57.6406 80.4648 58.2891 80.3086 58.8203 79.9961C59.3516 79.6836 59.8164 79.2656 60.2148 78.7422L61.5273 79.7852C61.2539 80.1992 60.9062 80.5938 60.4844 80.9688C60.0625 81.3438 59.543 81.6484 58.9258 81.8828C58.3164 82.1172 57.5938 82.2344 56.7578 82.2344Z" fill="#1C1B1F"/>
<defs>
<clipPath id="clip0_50717_9073">
<rect x="8" y="12" width="40" height="40" rx="20" fill="white"/>
</clipPath>
<clipPath id="clip1_50717_9073">
<rect x="268" y="12" width="40" height="40" rx="20" fill="white"/>
</clipPath>
<clipPath id="clip2_50717_9073">
<rect x="316" y="12" width="40" height="40" rx="20" fill="white"/>
</clipPath>
<clipPath id="clip3_50717_9073">
<rect x="364" y="12" width="40" height="40" rx="20" fill="white"/>
</clipPath>
</defs>
</svg>
