<svg width="216" height="256" viewBox="0 0 216 256" fill="none" xmlns="http://www.w3.org/2000/svg">
<g filter="url(#filter0_dd_51977_35629)">
<rect x="8" y="6" width="200" height="240" rx="4" fill="#FFFBFE"/>
<rect x="8" y="6" width="200" height="240" rx="4" fill="#6750A4" fill-opacity="0.08"/>
<path d="M32.2188 45.7734V47H26.5312V45.7734H32.2188ZM26.8281 35.625V47H25.3203V35.625H26.8281ZM35.7969 38.5469V47H34.3438V38.5469H35.7969ZM34.2344 36.3047C34.2344 36.0703 34.3047 35.8724 34.4453 35.7109C34.5911 35.5495 34.8047 35.4688 35.0859 35.4688C35.362 35.4688 35.5729 35.5495 35.7188 35.7109C35.8698 35.8724 35.9453 36.0703 35.9453 36.3047C35.9453 36.5286 35.8698 36.7214 35.7188 36.8828C35.5729 37.0391 35.362 37.1172 35.0859 37.1172C34.8047 37.1172 34.5911 37.0391 34.4453 36.8828C34.3047 36.7214 34.2344 36.5286 34.2344 36.3047ZM43.5391 44.7578C43.5391 44.5495 43.4922 44.3568 43.3984 44.1797C43.3099 43.9974 43.125 43.8333 42.8438 43.6875C42.5677 43.5365 42.151 43.4062 41.5938 43.2969C41.125 43.1979 40.7005 43.0807 40.3203 42.9453C39.9453 42.8099 39.625 42.6458 39.3594 42.4531C39.099 42.2604 38.8984 42.0339 38.7578 41.7734C38.6172 41.513 38.5469 41.2083 38.5469 40.8594C38.5469 40.526 38.6198 40.2109 38.7656 39.9141C38.9167 39.6172 39.1276 39.3542 39.3984 39.125C39.6745 38.8958 40.0052 38.7161 40.3906 38.5859C40.776 38.4557 41.2057 38.3906 41.6797 38.3906C42.3568 38.3906 42.9349 38.5104 43.4141 38.75C43.8932 38.9896 44.2604 39.3099 44.5156 39.7109C44.7708 40.1068 44.8984 40.5469 44.8984 41.0312H43.4531C43.4531 40.7969 43.3828 40.5703 43.2422 40.3516C43.1068 40.1276 42.9062 39.9427 42.6406 39.7969C42.3802 39.651 42.0599 39.5781 41.6797 39.5781C41.2786 39.5781 40.9531 39.6406 40.7031 39.7656C40.4583 39.8854 40.2786 40.0391 40.1641 40.2266C40.0547 40.4141 40 40.612 40 40.8203C40 40.9766 40.026 41.1172 40.0781 41.2422C40.1354 41.362 40.2344 41.474 40.375 41.5781C40.5156 41.6771 40.7135 41.7708 40.9688 41.8594C41.224 41.9479 41.5495 42.0365 41.9453 42.125C42.638 42.2812 43.2083 42.4688 43.6562 42.6875C44.1042 42.9062 44.4375 43.1745 44.6562 43.4922C44.875 43.8099 44.9844 44.1953 44.9844 44.6484C44.9844 45.0182 44.9062 45.3568 44.75 45.6641C44.599 45.9714 44.3776 46.237 44.0859 46.4609C43.7995 46.6797 43.4557 46.8516 43.0547 46.9766C42.6589 47.0964 42.2135 47.1562 41.7188 47.1562C40.974 47.1562 40.3438 47.0234 39.8281 46.7578C39.3125 46.4922 38.9219 46.1484 38.6562 45.7266C38.3906 45.3047 38.2578 44.8594 38.2578 44.3906H39.7109C39.7318 44.7865 39.8464 45.1016 40.0547 45.3359C40.263 45.5651 40.5182 45.7292 40.8203 45.8281C41.1224 45.9219 41.4219 45.9688 41.7188 45.9688C42.1146 45.9688 42.4453 45.9167 42.7109 45.8125C42.9818 45.7083 43.1875 45.5651 43.3281 45.3828C43.4688 45.2005 43.5391 44.9922 43.5391 44.7578ZM50.9219 38.5469V39.6562H46.3516V38.5469H50.9219ZM47.8984 36.4922H49.3438V44.9062C49.3438 45.1927 49.388 45.4089 49.4766 45.5547C49.5651 45.7005 49.6797 45.7969 49.8203 45.8438C49.9609 45.8906 50.112 45.9141 50.2734 45.9141C50.3932 45.9141 50.5182 45.9036 50.6484 45.8828C50.7839 45.8568 50.8854 45.8359 50.9531 45.8203L50.9609 47C50.8464 47.0365 50.6953 47.0703 50.5078 47.1016C50.3255 47.138 50.1042 47.1562 49.8438 47.1562C49.4896 47.1562 49.1641 47.0859 48.8672 46.9453C48.5703 46.8047 48.3333 46.5703 48.1562 46.2422C47.9844 45.9089 47.8984 45.4609 47.8984 44.8984V36.4922ZM59.1562 38.5469V47H57.7031V38.5469H59.1562ZM57.5938 36.3047C57.5938 36.0703 57.6641 35.8724 57.8047 35.7109C57.9505 35.5495 58.1641 35.4688 58.4453 35.4688C58.7214 35.4688 58.9323 35.5495 59.0781 35.7109C59.2292 35.8724 59.3047 36.0703 59.3047 36.3047C59.3047 36.5286 59.2292 36.7214 59.0781 36.8828C58.9323 37.0391 58.7214 37.1172 58.4453 37.1172C58.1641 37.1172 57.9505 37.0391 57.8047 36.8828C57.6641 36.7214 57.5938 36.5286 57.5938 36.3047ZM65.5156 38.5469V39.6562H60.9453V38.5469H65.5156ZM62.4922 36.4922H63.9375V44.9062C63.9375 45.1927 63.9818 45.4089 64.0703 45.5547C64.1589 45.7005 64.2734 45.7969 64.4141 45.8438C64.5547 45.8906 64.7057 45.9141 64.8672 45.9141C64.987 45.9141 65.112 45.9036 65.2422 45.8828C65.3776 45.8568 65.4792 45.8359 65.5469 45.8203L65.5547 47C65.4401 47.0365 65.2891 47.0703 65.1016 47.1016C64.9193 47.138 64.6979 47.1562 64.4375 47.1562C64.0833 47.1562 63.7578 47.0859 63.4609 46.9453C63.1641 46.8047 62.9271 46.5703 62.75 46.2422C62.5781 45.9089 62.4922 45.4609 62.4922 44.8984V36.4922ZM71.2188 47.1562C70.6302 47.1562 70.0964 47.0573 69.6172 46.8594C69.1432 46.6562 68.7344 46.3724 68.3906 46.0078C68.0521 45.6432 67.7917 45.2109 67.6094 44.7109C67.4271 44.2109 67.3359 43.6641 67.3359 43.0703V42.7422C67.3359 42.0547 67.4375 41.4427 67.6406 40.9062C67.8438 40.3646 68.1198 39.9062 68.4688 39.5312C68.8177 39.1562 69.2135 38.8724 69.6562 38.6797C70.099 38.487 70.5573 38.3906 71.0312 38.3906C71.6354 38.3906 72.1562 38.4948 72.5938 38.7031C73.0365 38.9115 73.3984 39.2031 73.6797 39.5781C73.9609 39.9479 74.1693 40.3854 74.3047 40.8906C74.4401 41.3906 74.5078 41.9375 74.5078 42.5312V43.1797H68.1953V42H73.0625V41.8906C73.0417 41.5156 72.9635 41.151 72.8281 40.7969C72.6979 40.4427 72.4896 40.151 72.2031 39.9219C71.9167 39.6927 71.526 39.5781 71.0312 39.5781C70.7031 39.5781 70.401 39.6484 70.125 39.7891C69.849 39.9245 69.612 40.1276 69.4141 40.3984C69.2161 40.6693 69.0625 41 68.9531 41.3906C68.8438 41.7812 68.7891 42.2318 68.7891 42.7422V43.0703C68.7891 43.4714 68.8438 43.849 68.9531 44.2031C69.0677 44.5521 69.2318 44.8594 69.4453 45.125C69.6641 45.3906 69.9271 45.599 70.2344 45.75C70.5469 45.901 70.901 45.9766 71.2969 45.9766C71.8073 45.9766 72.2396 45.8724 72.5938 45.6641C72.9479 45.4557 73.2578 45.1771 73.5234 44.8281L74.3984 45.5234C74.2161 45.7995 73.9844 46.0625 73.7031 46.3125C73.4219 46.5625 73.0755 46.7656 72.6641 46.9219C72.2578 47.0781 71.776 47.1562 71.2188 47.1562ZM78.1328 40.2266V47H76.6797V38.5469H78.0547L78.1328 40.2266ZM77.8359 42.4531L77.1641 42.4297C77.1693 41.8516 77.2448 41.3177 77.3906 40.8281C77.5365 40.3333 77.7526 39.9036 78.0391 39.5391C78.3255 39.1745 78.6823 38.8932 79.1094 38.6953C79.5365 38.4922 80.0312 38.3906 80.5938 38.3906C80.9896 38.3906 81.3542 38.4479 81.6875 38.5625C82.0208 38.6719 82.3099 38.8464 82.5547 39.0859C82.7995 39.3255 82.9896 39.6328 83.125 40.0078C83.2604 40.3828 83.3281 40.8359 83.3281 41.3672V47H81.8828V41.4375C81.8828 40.9948 81.8073 40.6406 81.6562 40.375C81.5104 40.1094 81.3021 39.9167 81.0312 39.7969C80.7604 39.6719 80.4427 39.6094 80.0781 39.6094C79.651 39.6094 79.2943 39.6849 79.0078 39.8359C78.7214 39.987 78.4922 40.1953 78.3203 40.4609C78.1484 40.7266 78.0234 41.0312 77.9453 41.375C77.8724 41.7135 77.8359 42.0729 77.8359 42.4531ZM83.3125 41.6562L82.3438 41.9531C82.349 41.4896 82.4245 41.0443 82.5703 40.6172C82.7214 40.1901 82.9375 39.8099 83.2188 39.4766C83.5052 39.1432 83.8568 38.8802 84.2734 38.6875C84.6901 38.4896 85.1667 38.3906 85.7031 38.3906C86.1562 38.3906 86.5573 38.4505 86.9062 38.5703C87.2604 38.6901 87.5573 38.875 87.7969 39.125C88.0417 39.3698 88.2266 39.6849 88.3516 40.0703C88.4766 40.4557 88.5391 40.9141 88.5391 41.4453V47H87.0859V41.4297C87.0859 40.9557 87.0104 40.5885 86.8594 40.3281C86.7135 40.0625 86.5052 39.8776 86.2344 39.7734C85.9688 39.6641 85.651 39.6094 85.2812 39.6094C84.9635 39.6094 84.6823 39.6641 84.4375 39.7734C84.1927 39.8828 83.987 40.0339 83.8203 40.2266C83.6536 40.4141 83.526 40.6302 83.4375 40.875C83.3542 41.1198 83.3125 41.3802 83.3125 41.6562Z" fill="#1C1B1F"/>
<path d="M32.2188 101.773V103H26.5312V101.773H32.2188ZM26.8281 91.625V103H25.3203V91.625H26.8281ZM35.7969 94.5469V103H34.3438V94.5469H35.7969ZM34.2344 92.3047C34.2344 92.0703 34.3047 91.8724 34.4453 91.7109C34.5911 91.5495 34.8047 91.4688 35.0859 91.4688C35.362 91.4688 35.5729 91.5495 35.7188 91.7109C35.8698 91.8724 35.9453 92.0703 35.9453 92.3047C35.9453 92.5286 35.8698 92.7214 35.7188 92.8828C35.5729 93.0391 35.362 93.1172 35.0859 93.1172C34.8047 93.1172 34.5911 93.0391 34.4453 92.8828C34.3047 92.7214 34.2344 92.5286 34.2344 92.3047ZM43.5391 100.758C43.5391 100.549 43.4922 100.357 43.3984 100.18C43.3099 99.9974 43.125 99.8333 42.8438 99.6875C42.5677 99.5365 42.151 99.4062 41.5938 99.2969C41.125 99.1979 40.7005 99.0807 40.3203 98.9453C39.9453 98.8099 39.625 98.6458 39.3594 98.4531C39.099 98.2604 38.8984 98.0339 38.7578 97.7734C38.6172 97.513 38.5469 97.2083 38.5469 96.8594C38.5469 96.526 38.6198 96.2109 38.7656 95.9141C38.9167 95.6172 39.1276 95.3542 39.3984 95.125C39.6745 94.8958 40.0052 94.7161 40.3906 94.5859C40.776 94.4557 41.2057 94.3906 41.6797 94.3906C42.3568 94.3906 42.9349 94.5104 43.4141 94.75C43.8932 94.9896 44.2604 95.3099 44.5156 95.7109C44.7708 96.1068 44.8984 96.5469 44.8984 97.0312H43.4531C43.4531 96.7969 43.3828 96.5703 43.2422 96.3516C43.1068 96.1276 42.9062 95.9427 42.6406 95.7969C42.3802 95.651 42.0599 95.5781 41.6797 95.5781C41.2786 95.5781 40.9531 95.6406 40.7031 95.7656C40.4583 95.8854 40.2786 96.0391 40.1641 96.2266C40.0547 96.4141 40 96.612 40 96.8203C40 96.9766 40.026 97.1172 40.0781 97.2422C40.1354 97.362 40.2344 97.474 40.375 97.5781C40.5156 97.6771 40.7135 97.7708 40.9688 97.8594C41.224 97.9479 41.5495 98.0365 41.9453 98.125C42.638 98.2812 43.2083 98.4688 43.6562 98.6875C44.1042 98.9062 44.4375 99.1745 44.6562 99.4922C44.875 99.8099 44.9844 100.195 44.9844 100.648C44.9844 101.018 44.9062 101.357 44.75 101.664C44.599 101.971 44.3776 102.237 44.0859 102.461C43.7995 102.68 43.4557 102.852 43.0547 102.977C42.6589 103.096 42.2135 103.156 41.7188 103.156C40.974 103.156 40.3438 103.023 39.8281 102.758C39.3125 102.492 38.9219 102.148 38.6562 101.727C38.3906 101.305 38.2578 100.859 38.2578 100.391H39.7109C39.7318 100.786 39.8464 101.102 40.0547 101.336C40.263 101.565 40.5182 101.729 40.8203 101.828C41.1224 101.922 41.4219 101.969 41.7188 101.969C42.1146 101.969 42.4453 101.917 42.7109 101.812C42.9818 101.708 43.1875 101.565 43.3281 101.383C43.4688 101.201 43.5391 100.992 43.5391 100.758ZM50.9219 94.5469V95.6562H46.3516V94.5469H50.9219ZM47.8984 92.4922H49.3438V100.906C49.3438 101.193 49.388 101.409 49.4766 101.555C49.5651 101.701 49.6797 101.797 49.8203 101.844C49.9609 101.891 50.112 101.914 50.2734 101.914C50.3932 101.914 50.5182 101.904 50.6484 101.883C50.7839 101.857 50.8854 101.836 50.9531 101.82L50.9609 103C50.8464 103.036 50.6953 103.07 50.5078 103.102C50.3255 103.138 50.1042 103.156 49.8438 103.156C49.4896 103.156 49.1641 103.086 48.8672 102.945C48.5703 102.805 48.3333 102.57 48.1562 102.242C47.9844 101.909 47.8984 101.461 47.8984 100.898V92.4922ZM59.1562 94.5469V103H57.7031V94.5469H59.1562ZM57.5938 92.3047C57.5938 92.0703 57.6641 91.8724 57.8047 91.7109C57.9505 91.5495 58.1641 91.4688 58.4453 91.4688C58.7214 91.4688 58.9323 91.5495 59.0781 91.7109C59.2292 91.8724 59.3047 92.0703 59.3047 92.3047C59.3047 92.5286 59.2292 92.7214 59.0781 92.8828C58.9323 93.0391 58.7214 93.1172 58.4453 93.1172C58.1641 93.1172 57.9505 93.0391 57.8047 92.8828C57.6641 92.7214 57.5938 92.5286 57.5938 92.3047ZM65.5156 94.5469V95.6562H60.9453V94.5469H65.5156ZM62.4922 92.4922H63.9375V100.906C63.9375 101.193 63.9818 101.409 64.0703 101.555C64.1589 101.701 64.2734 101.797 64.4141 101.844C64.5547 101.891 64.7057 101.914 64.8672 101.914C64.987 101.914 65.112 101.904 65.2422 101.883C65.3776 101.857 65.4792 101.836 65.5469 101.82L65.5547 103C65.4401 103.036 65.2891 103.07 65.1016 103.102C64.9193 103.138 64.6979 103.156 64.4375 103.156C64.0833 103.156 63.7578 103.086 63.4609 102.945C63.1641 102.805 62.9271 102.57 62.75 102.242C62.5781 101.909 62.4922 101.461 62.4922 100.898V92.4922ZM71.2188 103.156C70.6302 103.156 70.0964 103.057 69.6172 102.859C69.1432 102.656 68.7344 102.372 68.3906 102.008C68.0521 101.643 67.7917 101.211 67.6094 100.711C67.4271 100.211 67.3359 99.6641 67.3359 99.0703V98.7422C67.3359 98.0547 67.4375 97.4427 67.6406 96.9062C67.8438 96.3646 68.1198 95.9062 68.4688 95.5312C68.8177 95.1562 69.2135 94.8724 69.6562 94.6797C70.099 94.487 70.5573 94.3906 71.0312 94.3906C71.6354 94.3906 72.1562 94.4948 72.5938 94.7031C73.0365 94.9115 73.3984 95.2031 73.6797 95.5781C73.9609 95.9479 74.1693 96.3854 74.3047 96.8906C74.4401 97.3906 74.5078 97.9375 74.5078 98.5312V99.1797H68.1953V98H73.0625V97.8906C73.0417 97.5156 72.9635 97.151 72.8281 96.7969C72.6979 96.4427 72.4896 96.151 72.2031 95.9219C71.9167 95.6927 71.526 95.5781 71.0312 95.5781C70.7031 95.5781 70.401 95.6484 70.125 95.7891C69.849 95.9245 69.612 96.1276 69.4141 96.3984C69.2161 96.6693 69.0625 97 68.9531 97.3906C68.8438 97.7812 68.7891 98.2318 68.7891 98.7422V99.0703C68.7891 99.4714 68.8438 99.849 68.9531 100.203C69.0677 100.552 69.2318 100.859 69.4453 101.125C69.6641 101.391 69.9271 101.599 70.2344 101.75C70.5469 101.901 70.901 101.977 71.2969 101.977C71.8073 101.977 72.2396 101.872 72.5938 101.664C72.9479 101.456 73.2578 101.177 73.5234 100.828L74.3984 101.523C74.2161 101.799 73.9844 102.062 73.7031 102.312C73.4219 102.562 73.0755 102.766 72.6641 102.922C72.2578 103.078 71.776 103.156 71.2188 103.156ZM78.1328 96.2266V103H76.6797V94.5469H78.0547L78.1328 96.2266ZM77.8359 98.4531L77.1641 98.4297C77.1693 97.8516 77.2448 97.3177 77.3906 96.8281C77.5365 96.3333 77.7526 95.9036 78.0391 95.5391C78.3255 95.1745 78.6823 94.8932 79.1094 94.6953C79.5365 94.4922 80.0312 94.3906 80.5938 94.3906C80.9896 94.3906 81.3542 94.4479 81.6875 94.5625C82.0208 94.6719 82.3099 94.8464 82.5547 95.0859C82.7995 95.3255 82.9896 95.6328 83.125 96.0078C83.2604 96.3828 83.3281 96.8359 83.3281 97.3672V103H81.8828V97.4375C81.8828 96.9948 81.8073 96.6406 81.6562 96.375C81.5104 96.1094 81.3021 95.9167 81.0312 95.7969C80.7604 95.6719 80.4427 95.6094 80.0781 95.6094C79.651 95.6094 79.2943 95.6849 79.0078 95.8359C78.7214 95.987 78.4922 96.1953 78.3203 96.4609C78.1484 96.7266 78.0234 97.0312 77.9453 97.375C77.8724 97.7135 77.8359 98.0729 77.8359 98.4531ZM83.3125 97.6562L82.3438 97.9531C82.349 97.4896 82.4245 97.0443 82.5703 96.6172C82.7214 96.1901 82.9375 95.8099 83.2188 95.4766C83.5052 95.1432 83.8568 94.8802 84.2734 94.6875C84.6901 94.4896 85.1667 94.3906 85.7031 94.3906C86.1562 94.3906 86.5573 94.4505 86.9062 94.5703C87.2604 94.6901 87.5573 94.875 87.7969 95.125C88.0417 95.3698 88.2266 95.6849 88.3516 96.0703C88.4766 96.4557 88.5391 96.9141 88.5391 97.4453V103H87.0859V97.4297C87.0859 96.9557 87.0104 96.5885 86.8594 96.3281C86.7135 96.0625 86.5052 95.8776 86.2344 95.7734C85.9688 95.6641 85.651 95.6094 85.2812 95.6094C84.9635 95.6094 84.6823 95.6641 84.4375 95.7734C84.1927 95.8828 83.987 96.0339 83.8203 96.2266C83.6536 96.4141 83.526 96.6302 83.4375 96.875C83.3542 97.1198 83.3125 97.3802 83.3125 97.6562Z" fill="#1C1B1F"/>
<path d="M32.2188 157.773V159H26.5312V157.773H32.2188ZM26.8281 147.625V159H25.3203V147.625H26.8281ZM35.7969 150.547V159H34.3438V150.547H35.7969ZM34.2344 148.305C34.2344 148.07 34.3047 147.872 34.4453 147.711C34.5911 147.549 34.8047 147.469 35.0859 147.469C35.362 147.469 35.5729 147.549 35.7188 147.711C35.8698 147.872 35.9453 148.07 35.9453 148.305C35.9453 148.529 35.8698 148.721 35.7188 148.883C35.5729 149.039 35.362 149.117 35.0859 149.117C34.8047 149.117 34.5911 149.039 34.4453 148.883C34.3047 148.721 34.2344 148.529 34.2344 148.305ZM43.5391 156.758C43.5391 156.549 43.4922 156.357 43.3984 156.18C43.3099 155.997 43.125 155.833 42.8438 155.688C42.5677 155.536 42.151 155.406 41.5938 155.297C41.125 155.198 40.7005 155.081 40.3203 154.945C39.9453 154.81 39.625 154.646 39.3594 154.453C39.099 154.26 38.8984 154.034 38.7578 153.773C38.6172 153.513 38.5469 153.208 38.5469 152.859C38.5469 152.526 38.6198 152.211 38.7656 151.914C38.9167 151.617 39.1276 151.354 39.3984 151.125C39.6745 150.896 40.0052 150.716 40.3906 150.586C40.776 150.456 41.2057 150.391 41.6797 150.391C42.3568 150.391 42.9349 150.51 43.4141 150.75C43.8932 150.99 44.2604 151.31 44.5156 151.711C44.7708 152.107 44.8984 152.547 44.8984 153.031H43.4531C43.4531 152.797 43.3828 152.57 43.2422 152.352C43.1068 152.128 42.9062 151.943 42.6406 151.797C42.3802 151.651 42.0599 151.578 41.6797 151.578C41.2786 151.578 40.9531 151.641 40.7031 151.766C40.4583 151.885 40.2786 152.039 40.1641 152.227C40.0547 152.414 40 152.612 40 152.82C40 152.977 40.026 153.117 40.0781 153.242C40.1354 153.362 40.2344 153.474 40.375 153.578C40.5156 153.677 40.7135 153.771 40.9688 153.859C41.224 153.948 41.5495 154.036 41.9453 154.125C42.638 154.281 43.2083 154.469 43.6562 154.688C44.1042 154.906 44.4375 155.174 44.6562 155.492C44.875 155.81 44.9844 156.195 44.9844 156.648C44.9844 157.018 44.9062 157.357 44.75 157.664C44.599 157.971 44.3776 158.237 44.0859 158.461C43.7995 158.68 43.4557 158.852 43.0547 158.977C42.6589 159.096 42.2135 159.156 41.7188 159.156C40.974 159.156 40.3438 159.023 39.8281 158.758C39.3125 158.492 38.9219 158.148 38.6562 157.727C38.3906 157.305 38.2578 156.859 38.2578 156.391H39.7109C39.7318 156.786 39.8464 157.102 40.0547 157.336C40.263 157.565 40.5182 157.729 40.8203 157.828C41.1224 157.922 41.4219 157.969 41.7188 157.969C42.1146 157.969 42.4453 157.917 42.7109 157.812C42.9818 157.708 43.1875 157.565 43.3281 157.383C43.4688 157.201 43.5391 156.992 43.5391 156.758ZM50.9219 150.547V151.656H46.3516V150.547H50.9219ZM47.8984 148.492H49.3438V156.906C49.3438 157.193 49.388 157.409 49.4766 157.555C49.5651 157.701 49.6797 157.797 49.8203 157.844C49.9609 157.891 50.112 157.914 50.2734 157.914C50.3932 157.914 50.5182 157.904 50.6484 157.883C50.7839 157.857 50.8854 157.836 50.9531 157.82L50.9609 159C50.8464 159.036 50.6953 159.07 50.5078 159.102C50.3255 159.138 50.1042 159.156 49.8438 159.156C49.4896 159.156 49.1641 159.086 48.8672 158.945C48.5703 158.805 48.3333 158.57 48.1562 158.242C47.9844 157.909 47.8984 157.461 47.8984 156.898V148.492ZM59.1562 150.547V159H57.7031V150.547H59.1562ZM57.5938 148.305C57.5938 148.07 57.6641 147.872 57.8047 147.711C57.9505 147.549 58.1641 147.469 58.4453 147.469C58.7214 147.469 58.9323 147.549 59.0781 147.711C59.2292 147.872 59.3047 148.07 59.3047 148.305C59.3047 148.529 59.2292 148.721 59.0781 148.883C58.9323 149.039 58.7214 149.117 58.4453 149.117C58.1641 149.117 57.9505 149.039 57.8047 148.883C57.6641 148.721 57.5938 148.529 57.5938 148.305ZM65.5156 150.547V151.656H60.9453V150.547H65.5156ZM62.4922 148.492H63.9375V156.906C63.9375 157.193 63.9818 157.409 64.0703 157.555C64.1589 157.701 64.2734 157.797 64.4141 157.844C64.5547 157.891 64.7057 157.914 64.8672 157.914C64.987 157.914 65.112 157.904 65.2422 157.883C65.3776 157.857 65.4792 157.836 65.5469 157.82L65.5547 159C65.4401 159.036 65.2891 159.07 65.1016 159.102C64.9193 159.138 64.6979 159.156 64.4375 159.156C64.0833 159.156 63.7578 159.086 63.4609 158.945C63.1641 158.805 62.9271 158.57 62.75 158.242C62.5781 157.909 62.4922 157.461 62.4922 156.898V148.492ZM71.2188 159.156C70.6302 159.156 70.0964 159.057 69.6172 158.859C69.1432 158.656 68.7344 158.372 68.3906 158.008C68.0521 157.643 67.7917 157.211 67.6094 156.711C67.4271 156.211 67.3359 155.664 67.3359 155.07V154.742C67.3359 154.055 67.4375 153.443 67.6406 152.906C67.8438 152.365 68.1198 151.906 68.4688 151.531C68.8177 151.156 69.2135 150.872 69.6562 150.68C70.099 150.487 70.5573 150.391 71.0312 150.391C71.6354 150.391 72.1562 150.495 72.5938 150.703C73.0365 150.911 73.3984 151.203 73.6797 151.578C73.9609 151.948 74.1693 152.385 74.3047 152.891C74.4401 153.391 74.5078 153.938 74.5078 154.531V155.18H68.1953V154H73.0625V153.891C73.0417 153.516 72.9635 153.151 72.8281 152.797C72.6979 152.443 72.4896 152.151 72.2031 151.922C71.9167 151.693 71.526 151.578 71.0312 151.578C70.7031 151.578 70.401 151.648 70.125 151.789C69.849 151.924 69.612 152.128 69.4141 152.398C69.2161 152.669 69.0625 153 68.9531 153.391C68.8438 153.781 68.7891 154.232 68.7891 154.742V155.07C68.7891 155.471 68.8438 155.849 68.9531 156.203C69.0677 156.552 69.2318 156.859 69.4453 157.125C69.6641 157.391 69.9271 157.599 70.2344 157.75C70.5469 157.901 70.901 157.977 71.2969 157.977C71.8073 157.977 72.2396 157.872 72.5938 157.664C72.9479 157.456 73.2578 157.177 73.5234 156.828L74.3984 157.523C74.2161 157.799 73.9844 158.062 73.7031 158.312C73.4219 158.562 73.0755 158.766 72.6641 158.922C72.2578 159.078 71.776 159.156 71.2188 159.156ZM78.1328 152.227V159H76.6797V150.547H78.0547L78.1328 152.227ZM77.8359 154.453L77.1641 154.43C77.1693 153.852 77.2448 153.318 77.3906 152.828C77.5365 152.333 77.7526 151.904 78.0391 151.539C78.3255 151.174 78.6823 150.893 79.1094 150.695C79.5365 150.492 80.0312 150.391 80.5938 150.391C80.9896 150.391 81.3542 150.448 81.6875 150.562C82.0208 150.672 82.3099 150.846 82.5547 151.086C82.7995 151.326 82.9896 151.633 83.125 152.008C83.2604 152.383 83.3281 152.836 83.3281 153.367V159H81.8828V153.438C81.8828 152.995 81.8073 152.641 81.6562 152.375C81.5104 152.109 81.3021 151.917 81.0312 151.797C80.7604 151.672 80.4427 151.609 80.0781 151.609C79.651 151.609 79.2943 151.685 79.0078 151.836C78.7214 151.987 78.4922 152.195 78.3203 152.461C78.1484 152.727 78.0234 153.031 77.9453 153.375C77.8724 153.714 77.8359 154.073 77.8359 154.453ZM83.3125 153.656L82.3438 153.953C82.349 153.49 82.4245 153.044 82.5703 152.617C82.7214 152.19 82.9375 151.81 83.2188 151.477C83.5052 151.143 83.8568 150.88 84.2734 150.688C84.6901 150.49 85.1667 150.391 85.7031 150.391C86.1562 150.391 86.5573 150.451 86.9062 150.57C87.2604 150.69 87.5573 150.875 87.7969 151.125C88.0417 151.37 88.2266 151.685 88.3516 152.07C88.4766 152.456 88.5391 152.914 88.5391 153.445V159H87.0859V153.43C87.0859 152.956 87.0104 152.589 86.8594 152.328C86.7135 152.062 86.5052 151.878 86.2344 151.773C85.9688 151.664 85.651 151.609 85.2812 151.609C84.9635 151.609 84.6823 151.664 84.4375 151.773C84.1927 151.883 83.987 152.034 83.8203 152.227C83.6536 152.414 83.526 152.63 83.4375 152.875C83.3542 153.12 83.3125 153.38 83.3125 153.656Z" fill="#1C1B1F"/>
<path d="M32.2188 213.773V215H26.5312V213.773H32.2188ZM26.8281 203.625V215H25.3203V203.625H26.8281ZM35.7969 206.547V215H34.3438V206.547H35.7969ZM34.2344 204.305C34.2344 204.07 34.3047 203.872 34.4453 203.711C34.5911 203.549 34.8047 203.469 35.0859 203.469C35.362 203.469 35.5729 203.549 35.7188 203.711C35.8698 203.872 35.9453 204.07 35.9453 204.305C35.9453 204.529 35.8698 204.721 35.7188 204.883C35.5729 205.039 35.362 205.117 35.0859 205.117C34.8047 205.117 34.5911 205.039 34.4453 204.883C34.3047 204.721 34.2344 204.529 34.2344 204.305ZM43.5391 212.758C43.5391 212.549 43.4922 212.357 43.3984 212.18C43.3099 211.997 43.125 211.833 42.8438 211.688C42.5677 211.536 42.151 211.406 41.5938 211.297C41.125 211.198 40.7005 211.081 40.3203 210.945C39.9453 210.81 39.625 210.646 39.3594 210.453C39.099 210.26 38.8984 210.034 38.7578 209.773C38.6172 209.513 38.5469 209.208 38.5469 208.859C38.5469 208.526 38.6198 208.211 38.7656 207.914C38.9167 207.617 39.1276 207.354 39.3984 207.125C39.6745 206.896 40.0052 206.716 40.3906 206.586C40.776 206.456 41.2057 206.391 41.6797 206.391C42.3568 206.391 42.9349 206.51 43.4141 206.75C43.8932 206.99 44.2604 207.31 44.5156 207.711C44.7708 208.107 44.8984 208.547 44.8984 209.031H43.4531C43.4531 208.797 43.3828 208.57 43.2422 208.352C43.1068 208.128 42.9062 207.943 42.6406 207.797C42.3802 207.651 42.0599 207.578 41.6797 207.578C41.2786 207.578 40.9531 207.641 40.7031 207.766C40.4583 207.885 40.2786 208.039 40.1641 208.227C40.0547 208.414 40 208.612 40 208.82C40 208.977 40.026 209.117 40.0781 209.242C40.1354 209.362 40.2344 209.474 40.375 209.578C40.5156 209.677 40.7135 209.771 40.9688 209.859C41.224 209.948 41.5495 210.036 41.9453 210.125C42.638 210.281 43.2083 210.469 43.6562 210.688C44.1042 210.906 44.4375 211.174 44.6562 211.492C44.875 211.81 44.9844 212.195 44.9844 212.648C44.9844 213.018 44.9062 213.357 44.75 213.664C44.599 213.971 44.3776 214.237 44.0859 214.461C43.7995 214.68 43.4557 214.852 43.0547 214.977C42.6589 215.096 42.2135 215.156 41.7188 215.156C40.974 215.156 40.3438 215.023 39.8281 214.758C39.3125 214.492 38.9219 214.148 38.6562 213.727C38.3906 213.305 38.2578 212.859 38.2578 212.391H39.7109C39.7318 212.786 39.8464 213.102 40.0547 213.336C40.263 213.565 40.5182 213.729 40.8203 213.828C41.1224 213.922 41.4219 213.969 41.7188 213.969C42.1146 213.969 42.4453 213.917 42.7109 213.812C42.9818 213.708 43.1875 213.565 43.3281 213.383C43.4688 213.201 43.5391 212.992 43.5391 212.758ZM50.9219 206.547V207.656H46.3516V206.547H50.9219ZM47.8984 204.492H49.3438V212.906C49.3438 213.193 49.388 213.409 49.4766 213.555C49.5651 213.701 49.6797 213.797 49.8203 213.844C49.9609 213.891 50.112 213.914 50.2734 213.914C50.3932 213.914 50.5182 213.904 50.6484 213.883C50.7839 213.857 50.8854 213.836 50.9531 213.82L50.9609 215C50.8464 215.036 50.6953 215.07 50.5078 215.102C50.3255 215.138 50.1042 215.156 49.8438 215.156C49.4896 215.156 49.1641 215.086 48.8672 214.945C48.5703 214.805 48.3333 214.57 48.1562 214.242C47.9844 213.909 47.8984 213.461 47.8984 212.898V204.492ZM59.1562 206.547V215H57.7031V206.547H59.1562ZM57.5938 204.305C57.5938 204.07 57.6641 203.872 57.8047 203.711C57.9505 203.549 58.1641 203.469 58.4453 203.469C58.7214 203.469 58.9323 203.549 59.0781 203.711C59.2292 203.872 59.3047 204.07 59.3047 204.305C59.3047 204.529 59.2292 204.721 59.0781 204.883C58.9323 205.039 58.7214 205.117 58.4453 205.117C58.1641 205.117 57.9505 205.039 57.8047 204.883C57.6641 204.721 57.5938 204.529 57.5938 204.305ZM65.5156 206.547V207.656H60.9453V206.547H65.5156ZM62.4922 204.492H63.9375V212.906C63.9375 213.193 63.9818 213.409 64.0703 213.555C64.1589 213.701 64.2734 213.797 64.4141 213.844C64.5547 213.891 64.7057 213.914 64.8672 213.914C64.987 213.914 65.112 213.904 65.2422 213.883C65.3776 213.857 65.4792 213.836 65.5469 213.82L65.5547 215C65.4401 215.036 65.2891 215.07 65.1016 215.102C64.9193 215.138 64.6979 215.156 64.4375 215.156C64.0833 215.156 63.7578 215.086 63.4609 214.945C63.1641 214.805 62.9271 214.57 62.75 214.242C62.5781 213.909 62.4922 213.461 62.4922 212.898V204.492ZM71.2188 215.156C70.6302 215.156 70.0964 215.057 69.6172 214.859C69.1432 214.656 68.7344 214.372 68.3906 214.008C68.0521 213.643 67.7917 213.211 67.6094 212.711C67.4271 212.211 67.3359 211.664 67.3359 211.07V210.742C67.3359 210.055 67.4375 209.443 67.6406 208.906C67.8438 208.365 68.1198 207.906 68.4688 207.531C68.8177 207.156 69.2135 206.872 69.6562 206.68C70.099 206.487 70.5573 206.391 71.0312 206.391C71.6354 206.391 72.1562 206.495 72.5938 206.703C73.0365 206.911 73.3984 207.203 73.6797 207.578C73.9609 207.948 74.1693 208.385 74.3047 208.891C74.4401 209.391 74.5078 209.938 74.5078 210.531V211.18H68.1953V210H73.0625V209.891C73.0417 209.516 72.9635 209.151 72.8281 208.797C72.6979 208.443 72.4896 208.151 72.2031 207.922C71.9167 207.693 71.526 207.578 71.0312 207.578C70.7031 207.578 70.401 207.648 70.125 207.789C69.849 207.924 69.612 208.128 69.4141 208.398C69.2161 208.669 69.0625 209 68.9531 209.391C68.8438 209.781 68.7891 210.232 68.7891 210.742V211.07C68.7891 211.471 68.8438 211.849 68.9531 212.203C69.0677 212.552 69.2318 212.859 69.4453 213.125C69.6641 213.391 69.9271 213.599 70.2344 213.75C70.5469 213.901 70.901 213.977 71.2969 213.977C71.8073 213.977 72.2396 213.872 72.5938 213.664C72.9479 213.456 73.2578 213.177 73.5234 212.828L74.3984 213.523C74.2161 213.799 73.9844 214.062 73.7031 214.312C73.4219 214.562 73.0755 214.766 72.6641 214.922C72.2578 215.078 71.776 215.156 71.2188 215.156ZM78.1328 208.227V215H76.6797V206.547H78.0547L78.1328 208.227ZM77.8359 210.453L77.1641 210.43C77.1693 209.852 77.2448 209.318 77.3906 208.828C77.5365 208.333 77.7526 207.904 78.0391 207.539C78.3255 207.174 78.6823 206.893 79.1094 206.695C79.5365 206.492 80.0312 206.391 80.5938 206.391C80.9896 206.391 81.3542 206.448 81.6875 206.562C82.0208 206.672 82.3099 206.846 82.5547 207.086C82.7995 207.326 82.9896 207.633 83.125 208.008C83.2604 208.383 83.3281 208.836 83.3281 209.367V215H81.8828V209.438C81.8828 208.995 81.8073 208.641 81.6562 208.375C81.5104 208.109 81.3021 207.917 81.0312 207.797C80.7604 207.672 80.4427 207.609 80.0781 207.609C79.651 207.609 79.2943 207.685 79.0078 207.836C78.7214 207.987 78.4922 208.195 78.3203 208.461C78.1484 208.727 78.0234 209.031 77.9453 209.375C77.8724 209.714 77.8359 210.073 77.8359 210.453ZM83.3125 209.656L82.3438 209.953C82.349 209.49 82.4245 209.044 82.5703 208.617C82.7214 208.19 82.9375 207.81 83.2188 207.477C83.5052 207.143 83.8568 206.88 84.2734 206.688C84.6901 206.49 85.1667 206.391 85.7031 206.391C86.1562 206.391 86.5573 206.451 86.9062 206.57C87.2604 206.69 87.5573 206.875 87.7969 207.125C88.0417 207.37 88.2266 207.685 88.3516 208.07C88.4766 208.456 88.5391 208.914 88.5391 209.445V215H87.0859V209.43C87.0859 208.956 87.0104 208.589 86.8594 208.328C86.7135 208.062 86.5052 207.878 86.2344 207.773C85.9688 207.664 85.651 207.609 85.2812 207.609C84.9635 207.609 84.6823 207.664 84.4375 207.773C84.1927 207.883 83.987 208.034 83.8203 208.227C83.6536 208.414 83.526 208.63 83.4375 208.875C83.3542 209.12 83.3125 209.38 83.3125 209.656Z" fill="#1C1B1F"/>
</g>
<defs>
<filter id="filter0_dd_51977_35629" x="0" y="0" width="216" height="256" filterUnits="userSpaceOnUse" color-interpolation-filters="sRGB">
<feFlood flood-opacity="0" result="BackgroundImageFix"/>
<feColorMatrix in="SourceAlpha" type="matrix" values="0 0 0 0 0 0 0 0 0 0 0 0 0 0 0 0 0 0 127 0" result="hardAlpha"/>
<feMorphology radius="2" operator="dilate" in="SourceAlpha" result="effect1_dropShadow_51977_35629"/>
<feOffset dy="2"/>
<feGaussianBlur stdDeviation="3"/>
<feColorMatrix type="matrix" values="0 0 0 0 0 0 0 0 0 0 0 0 0 0 0 0 0 0 0.15 0"/>
<feBlend mode="normal" in2="BackgroundImageFix" result="effect1_dropShadow_51977_35629"/>
<feColorMatrix in="SourceAlpha" type="matrix" values="0 0 0 0 0 0 0 0 0 0 0 0 0 0 0 0 0 0 127 0" result="hardAlpha"/>
<feOffset dy="1"/>
<feGaussianBlur stdDeviation="1"/>
<feColorMatrix type="matrix" values="0 0 0 0 0 0 0 0 0 0 0 0 0 0 0 0 0 0 0.3 0"/>
<feBlend mode="normal" in2="effect1_dropShadow_51977_35629" result="effect2_dropShadow_51977_35629"/>
<feBlend mode="normal" in="SourceGraphic" in2="effect2_dropShadow_51977_35629" result="shape"/>
</filter>
</defs>
</svg>
