<svg width="412" height="80" viewBox="0 0 412 80" fill="none" xmlns="http://www.w3.org/2000/svg">
<rect width="412" height="80" fill="#FFFBFE"/>
<rect width="412" height="80" fill="#6750A4" fill-opacity="0.08"/>
<g clip-path="url(#clip0_50721_10387)">
<rect x="22.5" y="12" width="64" height="32" rx="16" fill="#E8DEF8"/>
<path fill-rule="evenodd" clip-rule="evenodd" d="M54.5 34C57.8137 34 60.5 31.3137 60.5 28C60.5 24.6863 57.8137 22 54.5 22C51.1863 22 48.5 24.6863 48.5 28C48.5 31.3137 51.1863 34 54.5 34Z" fill="#1D192B"/>
</g>
<path d="M45.1152 58.834V60H40.832V58.834H45.1152ZM41.2422 51.4688V60H39.7715V51.4688H41.2422ZM50.1855 58.7285V55.7051C50.1855 55.4785 50.1445 55.2832 50.0625 55.1191C49.9805 54.9551 49.8555 54.8281 49.6875 54.7383C49.5234 54.6484 49.3164 54.6035 49.0664 54.6035C48.8359 54.6035 48.6367 54.6426 48.4688 54.7207C48.3008 54.7988 48.1699 54.9043 48.0762 55.0371C47.9824 55.1699 47.9355 55.3203 47.9355 55.4883H46.5293C46.5293 55.2383 46.5898 54.9961 46.7109 54.7617C46.832 54.5273 47.0078 54.3184 47.2383 54.1348C47.4688 53.9512 47.7441 53.8066 48.0645 53.7012C48.3848 53.5957 48.7441 53.543 49.1426 53.543C49.6191 53.543 50.041 53.623 50.4082 53.7832C50.7793 53.9434 51.0703 54.1855 51.2812 54.5098C51.4961 54.8301 51.6035 55.2324 51.6035 55.7168V58.5352C51.6035 58.8242 51.623 59.084 51.6621 59.3145C51.7051 59.541 51.7656 59.7383 51.8438 59.9062V60H50.3965C50.3301 59.8477 50.2773 59.6543 50.2383 59.4199C50.2031 59.1816 50.1855 58.9512 50.1855 58.7285ZM50.3906 56.1445L50.4023 57.0176H49.3887C49.127 57.0176 48.8965 57.043 48.6973 57.0938C48.498 57.1406 48.332 57.2109 48.1992 57.3047C48.0664 57.3984 47.9668 57.5117 47.9004 57.6445C47.834 57.7773 47.8008 57.9277 47.8008 58.0957C47.8008 58.2637 47.8398 58.418 47.918 58.5586C47.9961 58.6953 48.1094 58.8027 48.2578 58.8809C48.4102 58.959 48.5938 58.998 48.8086 58.998C49.0977 58.998 49.3496 58.9395 49.5645 58.8223C49.7832 58.7012 49.9551 58.5547 50.0801 58.3828C50.2051 58.207 50.2715 58.041 50.2793 57.8848L50.7363 58.5117C50.6895 58.6719 50.6094 58.8438 50.4961 59.0273C50.3828 59.2109 50.2344 59.3867 50.0508 59.5547C49.8711 59.7188 49.6543 59.8535 49.4004 59.959C49.1504 60.0645 48.8613 60.1172 48.5332 60.1172C48.1191 60.1172 47.75 60.0352 47.4258 59.8711C47.1016 59.7031 46.8477 59.4785 46.6641 59.1973C46.4805 58.9121 46.3887 58.5898 46.3887 58.2305C46.3887 57.8945 46.4512 57.5977 46.5762 57.3398C46.7051 57.0781 46.8926 56.8594 47.1387 56.6836C47.3887 56.5078 47.6934 56.375 48.0527 56.2852C48.4121 56.1914 48.8223 56.1445 49.2832 56.1445H50.3906ZM53.5859 51H54.998V58.6465L54.8633 60H53.5859V51ZM59.1348 56.7715V56.8945C59.1348 57.3633 59.082 57.7949 58.9766 58.1895C58.875 58.5801 58.7188 58.9199 58.5078 59.209C58.3008 59.498 58.043 59.7227 57.7344 59.8828C57.4297 60.0391 57.0762 60.1172 56.6738 60.1172C56.2793 60.1172 55.9355 60.043 55.6426 59.8945C55.3496 59.7461 55.1035 59.5352 54.9043 59.2617C54.709 58.9883 54.5508 58.6621 54.4297 58.2832C54.3086 57.9043 54.2227 57.4863 54.1719 57.0293V56.6367C54.2227 56.1758 54.3086 55.7578 54.4297 55.3828C54.5508 55.0039 54.709 54.6777 54.9043 54.4043C55.1035 54.127 55.3477 53.9141 55.6367 53.7656C55.9297 53.6172 56.2715 53.543 56.6621 53.543C57.0684 53.543 57.4258 53.6211 57.7344 53.7773C58.0469 53.9336 58.3066 54.1562 58.5137 54.4453C58.7207 54.7305 58.875 55.0703 58.9766 55.4648C59.082 55.8594 59.1348 56.2949 59.1348 56.7715ZM57.7227 56.8945V56.7715C57.7227 56.4863 57.6992 56.2188 57.6523 55.9688C57.6055 55.7148 57.5273 55.4922 57.418 55.3008C57.3125 55.1094 57.168 54.959 56.9844 54.8496C56.8047 54.7363 56.5801 54.6797 56.3105 54.6797C56.0605 54.6797 55.8457 54.7227 55.666 54.8086C55.4863 54.8945 55.3359 55.0117 55.2148 55.1602C55.0938 55.3086 54.998 55.4805 54.9277 55.6758C54.8613 55.8711 54.8164 56.082 54.793 56.3086V57.3691C54.8281 57.6621 54.9023 57.9316 55.0156 58.1777C55.1328 58.4199 55.2969 58.6152 55.5078 58.7637C55.7188 58.9082 55.9902 58.9805 56.3223 58.9805C56.584 58.9805 56.8047 58.9277 56.9844 58.8223C57.1641 58.7168 57.3066 58.5703 57.4121 58.3828C57.5215 58.1914 57.5996 57.9688 57.6465 57.7148C57.6973 57.4609 57.7227 57.1875 57.7227 56.8945ZM63.625 60.1172C63.1562 60.1172 62.7324 60.041 62.3535 59.8887C61.9785 59.7324 61.6582 59.5156 61.3926 59.2383C61.1309 58.9609 60.9297 58.6348 60.7891 58.2598C60.6484 57.8848 60.5781 57.4805 60.5781 57.0469V56.8125C60.5781 56.3164 60.6504 55.8672 60.7949 55.4648C60.9395 55.0625 61.1406 54.7188 61.3984 54.4336C61.6562 54.1445 61.9609 53.9238 62.3125 53.7715C62.6641 53.6191 63.0449 53.543 63.4551 53.543C63.9082 53.543 64.3047 53.6191 64.6445 53.7715C64.9844 53.9238 65.2656 54.1387 65.4883 54.416C65.7148 54.6895 65.8828 55.0156 65.9922 55.3945C66.1055 55.7734 66.1621 56.1914 66.1621 56.6484V57.252H61.2637V56.2383H64.7676V56.127C64.7598 55.873 64.709 55.6348 64.6152 55.4121C64.5254 55.1895 64.3867 55.0098 64.1992 54.873C64.0117 54.7363 63.7617 54.668 63.4492 54.668C63.2148 54.668 63.0059 54.7188 62.8223 54.8203C62.6426 54.918 62.4922 55.0605 62.3711 55.248C62.25 55.4355 62.1562 55.6621 62.0898 55.9277C62.0273 56.1895 61.9961 56.4844 61.9961 56.8125V57.0469C61.9961 57.3242 62.0332 57.582 62.1074 57.8203C62.1855 58.0547 62.2988 58.2598 62.4473 58.4355C62.5957 58.6113 62.7754 58.75 62.9863 58.8516C63.1973 58.9492 63.4375 58.998 63.707 58.998C64.0469 58.998 64.3496 58.9297 64.6152 58.793C64.8809 58.6562 65.1113 58.4629 65.3066 58.2129L66.0508 58.9336C65.9141 59.1328 65.7363 59.3242 65.5176 59.5078C65.2988 59.6875 65.0312 59.834 64.7148 59.9473C64.4023 60.0605 64.0391 60.1172 63.625 60.1172ZM69.2754 51V60H67.8574V51H69.2754Z" fill="#1C1B1F"/>
<path fill-rule="evenodd" clip-rule="evenodd" d="M155.5 22L148.5 34H162.5L155.5 22ZM155.5 25.9693L151.982 32H159.018L155.5 25.9693Z" fill="#49454F"/>
<path d="M146.115 58.834V60H141.832V58.834H146.115ZM142.242 51.4688V60H140.771V51.4688H142.242ZM151.186 58.7285V55.7051C151.186 55.4785 151.145 55.2832 151.062 55.1191C150.98 54.9551 150.855 54.8281 150.688 54.7383C150.523 54.6484 150.316 54.6035 150.066 54.6035C149.836 54.6035 149.637 54.6426 149.469 54.7207C149.301 54.7988 149.17 54.9043 149.076 55.0371C148.982 55.1699 148.936 55.3203 148.936 55.4883H147.529C147.529 55.2383 147.59 54.9961 147.711 54.7617C147.832 54.5273 148.008 54.3184 148.238 54.1348C148.469 53.9512 148.744 53.8066 149.064 53.7012C149.385 53.5957 149.744 53.543 150.143 53.543C150.619 53.543 151.041 53.623 151.408 53.7832C151.779 53.9434 152.07 54.1855 152.281 54.5098C152.496 54.8301 152.604 55.2324 152.604 55.7168V58.5352C152.604 58.8242 152.623 59.084 152.662 59.3145C152.705 59.541 152.766 59.7383 152.844 59.9062V60H151.396C151.33 59.8477 151.277 59.6543 151.238 59.4199C151.203 59.1816 151.186 58.9512 151.186 58.7285ZM151.391 56.1445L151.402 57.0176H150.389C150.127 57.0176 149.896 57.043 149.697 57.0938C149.498 57.1406 149.332 57.2109 149.199 57.3047C149.066 57.3984 148.967 57.5117 148.9 57.6445C148.834 57.7773 148.801 57.9277 148.801 58.0957C148.801 58.2637 148.84 58.418 148.918 58.5586C148.996 58.6953 149.109 58.8027 149.258 58.8809C149.41 58.959 149.594 58.998 149.809 58.998C150.098 58.998 150.35 58.9395 150.564 58.8223C150.783 58.7012 150.955 58.5547 151.08 58.3828C151.205 58.207 151.271 58.041 151.279 57.8848L151.736 58.5117C151.689 58.6719 151.609 58.8438 151.496 59.0273C151.383 59.2109 151.234 59.3867 151.051 59.5547C150.871 59.7188 150.654 59.8535 150.4 59.959C150.15 60.0645 149.861 60.1172 149.533 60.1172C149.119 60.1172 148.75 60.0352 148.426 59.8711C148.102 59.7031 147.848 59.4785 147.664 59.1973C147.48 58.9121 147.389 58.5898 147.389 58.2305C147.389 57.8945 147.451 57.5977 147.576 57.3398C147.705 57.0781 147.893 56.8594 148.139 56.6836C148.389 56.5078 148.693 56.375 149.053 56.2852C149.412 56.1914 149.822 56.1445 150.283 56.1445H151.391ZM154.586 51H155.998V58.6465L155.863 60H154.586V51ZM160.135 56.7715V56.8945C160.135 57.3633 160.082 57.7949 159.977 58.1895C159.875 58.5801 159.719 58.9199 159.508 59.209C159.301 59.498 159.043 59.7227 158.734 59.8828C158.43 60.0391 158.076 60.1172 157.674 60.1172C157.279 60.1172 156.936 60.043 156.643 59.8945C156.35 59.7461 156.104 59.5352 155.904 59.2617C155.709 58.9883 155.551 58.6621 155.43 58.2832C155.309 57.9043 155.223 57.4863 155.172 57.0293V56.6367C155.223 56.1758 155.309 55.7578 155.43 55.3828C155.551 55.0039 155.709 54.6777 155.904 54.4043C156.104 54.127 156.348 53.9141 156.637 53.7656C156.93 53.6172 157.271 53.543 157.662 53.543C158.068 53.543 158.426 53.6211 158.734 53.7773C159.047 53.9336 159.307 54.1562 159.514 54.4453C159.721 54.7305 159.875 55.0703 159.977 55.4648C160.082 55.8594 160.135 56.2949 160.135 56.7715ZM158.723 56.8945V56.7715C158.723 56.4863 158.699 56.2188 158.652 55.9688C158.605 55.7148 158.527 55.4922 158.418 55.3008C158.312 55.1094 158.168 54.959 157.984 54.8496C157.805 54.7363 157.58 54.6797 157.311 54.6797C157.061 54.6797 156.846 54.7227 156.666 54.8086C156.486 54.8945 156.336 55.0117 156.215 55.1602C156.094 55.3086 155.998 55.4805 155.928 55.6758C155.861 55.8711 155.816 56.082 155.793 56.3086V57.3691C155.828 57.6621 155.902 57.9316 156.016 58.1777C156.133 58.4199 156.297 58.6152 156.508 58.7637C156.719 58.9082 156.99 58.9805 157.322 58.9805C157.584 58.9805 157.805 58.9277 157.984 58.8223C158.164 58.7168 158.307 58.5703 158.412 58.3828C158.521 58.1914 158.6 57.9688 158.646 57.7148C158.697 57.4609 158.723 57.1875 158.723 56.8945ZM164.625 60.1172C164.156 60.1172 163.732 60.041 163.354 59.8887C162.979 59.7324 162.658 59.5156 162.393 59.2383C162.131 58.9609 161.93 58.6348 161.789 58.2598C161.648 57.8848 161.578 57.4805 161.578 57.0469V56.8125C161.578 56.3164 161.65 55.8672 161.795 55.4648C161.939 55.0625 162.141 54.7188 162.398 54.4336C162.656 54.1445 162.961 53.9238 163.312 53.7715C163.664 53.6191 164.045 53.543 164.455 53.543C164.908 53.543 165.305 53.6191 165.645 53.7715C165.984 53.9238 166.266 54.1387 166.488 54.416C166.715 54.6895 166.883 55.0156 166.992 55.3945C167.105 55.7734 167.162 56.1914 167.162 56.6484V57.252H162.264V56.2383H165.768V56.127C165.76 55.873 165.709 55.6348 165.615 55.4121C165.525 55.1895 165.387 55.0098 165.199 54.873C165.012 54.7363 164.762 54.668 164.449 54.668C164.215 54.668 164.006 54.7188 163.822 54.8203C163.643 54.918 163.492 55.0605 163.371 55.248C163.25 55.4355 163.156 55.6621 163.09 55.9277C163.027 56.1895 162.996 56.4844 162.996 56.8125V57.0469C162.996 57.3242 163.033 57.582 163.107 57.8203C163.186 58.0547 163.299 58.2598 163.447 58.4355C163.596 58.6113 163.775 58.75 163.986 58.8516C164.197 58.9492 164.438 58.998 164.707 58.998C165.047 58.998 165.35 58.9297 165.615 58.793C165.881 58.6562 166.111 58.4629 166.307 58.2129L167.051 58.9336C166.914 59.1328 166.736 59.3242 166.518 59.5078C166.299 59.6875 166.031 59.834 165.715 59.9473C165.402 60.0605 165.039 60.1172 164.625 60.1172ZM170.275 51V60H168.857V51H170.275Z" fill="#49454F"/>
<path fill-rule="evenodd" clip-rule="evenodd" d="M256.5 22L249.5 34H263.5L256.5 22ZM256.5 25.9693L252.982 32H260.018L256.5 25.9693Z" fill="#49454F"/>
<path d="M247.115 58.834V60H242.832V58.834H247.115ZM243.242 51.4688V60H241.771V51.4688H243.242ZM252.186 58.7285V55.7051C252.186 55.4785 252.145 55.2832 252.062 55.1191C251.98 54.9551 251.855 54.8281 251.688 54.7383C251.523 54.6484 251.316 54.6035 251.066 54.6035C250.836 54.6035 250.637 54.6426 250.469 54.7207C250.301 54.7988 250.17 54.9043 250.076 55.0371C249.982 55.1699 249.936 55.3203 249.936 55.4883H248.529C248.529 55.2383 248.59 54.9961 248.711 54.7617C248.832 54.5273 249.008 54.3184 249.238 54.1348C249.469 53.9512 249.744 53.8066 250.064 53.7012C250.385 53.5957 250.744 53.543 251.143 53.543C251.619 53.543 252.041 53.623 252.408 53.7832C252.779 53.9434 253.07 54.1855 253.281 54.5098C253.496 54.8301 253.604 55.2324 253.604 55.7168V58.5352C253.604 58.8242 253.623 59.084 253.662 59.3145C253.705 59.541 253.766 59.7383 253.844 59.9062V60H252.396C252.33 59.8477 252.277 59.6543 252.238 59.4199C252.203 59.1816 252.186 58.9512 252.186 58.7285ZM252.391 56.1445L252.402 57.0176H251.389C251.127 57.0176 250.896 57.043 250.697 57.0938C250.498 57.1406 250.332 57.2109 250.199 57.3047C250.066 57.3984 249.967 57.5117 249.9 57.6445C249.834 57.7773 249.801 57.9277 249.801 58.0957C249.801 58.2637 249.84 58.418 249.918 58.5586C249.996 58.6953 250.109 58.8027 250.258 58.8809C250.41 58.959 250.594 58.998 250.809 58.998C251.098 58.998 251.35 58.9395 251.564 58.8223C251.783 58.7012 251.955 58.5547 252.08 58.3828C252.205 58.207 252.271 58.041 252.279 57.8848L252.736 58.5117C252.689 58.6719 252.609 58.8438 252.496 59.0273C252.383 59.2109 252.234 59.3867 252.051 59.5547C251.871 59.7188 251.654 59.8535 251.4 59.959C251.15 60.0645 250.861 60.1172 250.533 60.1172C250.119 60.1172 249.75 60.0352 249.426 59.8711C249.102 59.7031 248.848 59.4785 248.664 59.1973C248.48 58.9121 248.389 58.5898 248.389 58.2305C248.389 57.8945 248.451 57.5977 248.576 57.3398C248.705 57.0781 248.893 56.8594 249.139 56.6836C249.389 56.5078 249.693 56.375 250.053 56.2852C250.412 56.1914 250.822 56.1445 251.283 56.1445H252.391ZM255.586 51H256.998V58.6465L256.863 60H255.586V51ZM261.135 56.7715V56.8945C261.135 57.3633 261.082 57.7949 260.977 58.1895C260.875 58.5801 260.719 58.9199 260.508 59.209C260.301 59.498 260.043 59.7227 259.734 59.8828C259.43 60.0391 259.076 60.1172 258.674 60.1172C258.279 60.1172 257.936 60.043 257.643 59.8945C257.35 59.7461 257.104 59.5352 256.904 59.2617C256.709 58.9883 256.551 58.6621 256.43 58.2832C256.309 57.9043 256.223 57.4863 256.172 57.0293V56.6367C256.223 56.1758 256.309 55.7578 256.43 55.3828C256.551 55.0039 256.709 54.6777 256.904 54.4043C257.104 54.127 257.348 53.9141 257.637 53.7656C257.93 53.6172 258.271 53.543 258.662 53.543C259.068 53.543 259.426 53.6211 259.734 53.7773C260.047 53.9336 260.307 54.1562 260.514 54.4453C260.721 54.7305 260.875 55.0703 260.977 55.4648C261.082 55.8594 261.135 56.2949 261.135 56.7715ZM259.723 56.8945V56.7715C259.723 56.4863 259.699 56.2188 259.652 55.9688C259.605 55.7148 259.527 55.4922 259.418 55.3008C259.312 55.1094 259.168 54.959 258.984 54.8496C258.805 54.7363 258.58 54.6797 258.311 54.6797C258.061 54.6797 257.846 54.7227 257.666 54.8086C257.486 54.8945 257.336 55.0117 257.215 55.1602C257.094 55.3086 256.998 55.4805 256.928 55.6758C256.861 55.8711 256.816 56.082 256.793 56.3086V57.3691C256.828 57.6621 256.902 57.9316 257.016 58.1777C257.133 58.4199 257.297 58.6152 257.508 58.7637C257.719 58.9082 257.99 58.9805 258.322 58.9805C258.584 58.9805 258.805 58.9277 258.984 58.8223C259.164 58.7168 259.307 58.5703 259.412 58.3828C259.521 58.1914 259.6 57.9688 259.646 57.7148C259.697 57.4609 259.723 57.1875 259.723 56.8945ZM265.625 60.1172C265.156 60.1172 264.732 60.041 264.354 59.8887C263.979 59.7324 263.658 59.5156 263.393 59.2383C263.131 58.9609 262.93 58.6348 262.789 58.2598C262.648 57.8848 262.578 57.4805 262.578 57.0469V56.8125C262.578 56.3164 262.65 55.8672 262.795 55.4648C262.939 55.0625 263.141 54.7188 263.398 54.4336C263.656 54.1445 263.961 53.9238 264.312 53.7715C264.664 53.6191 265.045 53.543 265.455 53.543C265.908 53.543 266.305 53.6191 266.645 53.7715C266.984 53.9238 267.266 54.1387 267.488 54.416C267.715 54.6895 267.883 55.0156 267.992 55.3945C268.105 55.7734 268.162 56.1914 268.162 56.6484V57.252H263.264V56.2383H266.768V56.127C266.76 55.873 266.709 55.6348 266.615 55.4121C266.525 55.1895 266.387 55.0098 266.199 54.873C266.012 54.7363 265.762 54.668 265.449 54.668C265.215 54.668 265.006 54.7188 264.822 54.8203C264.643 54.918 264.492 55.0605 264.371 55.248C264.25 55.4355 264.156 55.6621 264.09 55.9277C264.027 56.1895 263.996 56.4844 263.996 56.8125V57.0469C263.996 57.3242 264.033 57.582 264.107 57.8203C264.186 58.0547 264.299 58.2598 264.447 58.4355C264.596 58.6113 264.775 58.75 264.986 58.8516C265.197 58.9492 265.438 58.998 265.707 58.998C266.047 58.998 266.35 58.9297 266.615 58.793C266.881 58.6562 267.111 58.4629 267.307 58.2129L268.051 58.9336C267.914 59.1328 267.736 59.3242 267.518 59.5078C267.299 59.6875 267.031 59.834 266.715 59.9473C266.402 60.0605 266.039 60.1172 265.625 60.1172ZM271.275 51V60H269.857V51H271.275Z" fill="#49454F"/>
<path fill-rule="evenodd" clip-rule="evenodd" d="M357.5 22L350.5 34H364.5L357.5 22ZM357.5 25.9693L353.982 32H361.018L357.5 25.9693Z" fill="#49454F"/>
<rect x="357.5" y="14" width="16" height="16" rx="8" fill="#B3261E"/>
<path d="M364.485 21.5044H365.258C365.559 21.5044 365.808 21.4525 366.005 21.3486C366.205 21.2448 366.354 21.1016 366.451 20.9189C366.547 20.7363 366.596 20.5269 366.596 20.2905C366.596 20.0435 366.551 19.8322 366.461 19.6567C366.375 19.4777 366.243 19.3398 366.064 19.2432C365.889 19.1465 365.665 19.0981 365.393 19.0981C365.163 19.0981 364.956 19.1447 364.77 19.2378C364.587 19.3273 364.442 19.4562 364.334 19.6245C364.227 19.7892 364.173 19.9862 364.173 20.2153H362.874C362.874 19.8 362.983 19.4312 363.201 19.1089C363.42 18.7866 363.717 18.5342 364.093 18.3516C364.472 18.1654 364.898 18.0723 365.371 18.0723C365.876 18.0723 366.316 18.1564 366.692 18.3247C367.072 18.4894 367.367 18.7365 367.579 19.0659C367.79 19.3953 367.896 19.8035 367.896 20.2905C367.896 20.5125 367.844 20.7381 367.74 20.9673C367.636 21.1965 367.482 21.4059 367.278 21.5957C367.074 21.7819 366.819 21.9341 366.515 22.0522C366.211 22.1668 365.858 22.2241 365.457 22.2241H364.485V21.5044ZM364.485 22.5142V21.8052H365.457C365.915 21.8052 366.306 21.8589 366.628 21.9663C366.954 22.0737 367.219 22.2223 367.423 22.4121C367.627 22.5983 367.776 22.8114 367.869 23.0513C367.965 23.2912 368.014 23.5454 368.014 23.814C368.014 24.1792 367.947 24.505 367.815 24.7915C367.686 25.0744 367.502 25.3143 367.262 25.5112C367.022 25.7082 366.741 25.8568 366.418 25.957C366.1 26.0573 365.752 26.1074 365.376 26.1074C365.04 26.1074 364.718 26.0609 364.41 25.9678C364.102 25.8747 363.826 25.7368 363.583 25.5542C363.339 25.368 363.146 25.137 363.002 24.8613C362.863 24.582 362.793 24.2598 362.793 23.8945H364.087C364.087 24.1273 364.141 24.3332 364.249 24.5122C364.36 24.6877 364.514 24.8255 364.71 24.9258C364.911 25.026 365.14 25.0762 365.398 25.0762C365.67 25.0762 365.905 25.0278 366.102 24.9312C366.299 24.8345 366.449 24.6912 366.553 24.5015C366.66 24.3117 366.714 24.0825 366.714 23.814C366.714 23.5096 366.655 23.2625 366.537 23.0728C366.418 22.883 366.25 22.7433 366.032 22.6538C365.813 22.5607 365.556 22.5142 365.258 22.5142H364.485Z" fill="white"/>
<path d="M348.115 58.834V60H343.832V58.834H348.115ZM344.242 51.4688V60H342.771V51.4688H344.242ZM353.186 58.7285V55.7051C353.186 55.4785 353.145 55.2832 353.062 55.1191C352.98 54.9551 352.855 54.8281 352.688 54.7383C352.523 54.6484 352.316 54.6035 352.066 54.6035C351.836 54.6035 351.637 54.6426 351.469 54.7207C351.301 54.7988 351.17 54.9043 351.076 55.0371C350.982 55.1699 350.936 55.3203 350.936 55.4883H349.529C349.529 55.2383 349.59 54.9961 349.711 54.7617C349.832 54.5273 350.008 54.3184 350.238 54.1348C350.469 53.9512 350.744 53.8066 351.064 53.7012C351.385 53.5957 351.744 53.543 352.143 53.543C352.619 53.543 353.041 53.623 353.408 53.7832C353.779 53.9434 354.07 54.1855 354.281 54.5098C354.496 54.8301 354.604 55.2324 354.604 55.7168V58.5352C354.604 58.8242 354.623 59.084 354.662 59.3145C354.705 59.541 354.766 59.7383 354.844 59.9062V60H353.396C353.33 59.8477 353.277 59.6543 353.238 59.4199C353.203 59.1816 353.186 58.9512 353.186 58.7285ZM353.391 56.1445L353.402 57.0176H352.389C352.127 57.0176 351.896 57.043 351.697 57.0938C351.498 57.1406 351.332 57.2109 351.199 57.3047C351.066 57.3984 350.967 57.5117 350.9 57.6445C350.834 57.7773 350.801 57.9277 350.801 58.0957C350.801 58.2637 350.84 58.418 350.918 58.5586C350.996 58.6953 351.109 58.8027 351.258 58.8809C351.41 58.959 351.594 58.998 351.809 58.998C352.098 58.998 352.35 58.9395 352.564 58.8223C352.783 58.7012 352.955 58.5547 353.08 58.3828C353.205 58.207 353.271 58.041 353.279 57.8848L353.736 58.5117C353.689 58.6719 353.609 58.8438 353.496 59.0273C353.383 59.2109 353.234 59.3867 353.051 59.5547C352.871 59.7188 352.654 59.8535 352.4 59.959C352.15 60.0645 351.861 60.1172 351.533 60.1172C351.119 60.1172 350.75 60.0352 350.426 59.8711C350.102 59.7031 349.848 59.4785 349.664 59.1973C349.48 58.9121 349.389 58.5898 349.389 58.2305C349.389 57.8945 349.451 57.5977 349.576 57.3398C349.705 57.0781 349.893 56.8594 350.139 56.6836C350.389 56.5078 350.693 56.375 351.053 56.2852C351.412 56.1914 351.822 56.1445 352.283 56.1445H353.391ZM356.586 51H357.998V58.6465L357.863 60H356.586V51ZM362.135 56.7715V56.8945C362.135 57.3633 362.082 57.7949 361.977 58.1895C361.875 58.5801 361.719 58.9199 361.508 59.209C361.301 59.498 361.043 59.7227 360.734 59.8828C360.43 60.0391 360.076 60.1172 359.674 60.1172C359.279 60.1172 358.936 60.043 358.643 59.8945C358.35 59.7461 358.104 59.5352 357.904 59.2617C357.709 58.9883 357.551 58.6621 357.43 58.2832C357.309 57.9043 357.223 57.4863 357.172 57.0293V56.6367C357.223 56.1758 357.309 55.7578 357.43 55.3828C357.551 55.0039 357.709 54.6777 357.904 54.4043C358.104 54.127 358.348 53.9141 358.637 53.7656C358.93 53.6172 359.271 53.543 359.662 53.543C360.068 53.543 360.426 53.6211 360.734 53.7773C361.047 53.9336 361.307 54.1562 361.514 54.4453C361.721 54.7305 361.875 55.0703 361.977 55.4648C362.082 55.8594 362.135 56.2949 362.135 56.7715ZM360.723 56.8945V56.7715C360.723 56.4863 360.699 56.2188 360.652 55.9688C360.605 55.7148 360.527 55.4922 360.418 55.3008C360.312 55.1094 360.168 54.959 359.984 54.8496C359.805 54.7363 359.58 54.6797 359.311 54.6797C359.061 54.6797 358.846 54.7227 358.666 54.8086C358.486 54.8945 358.336 55.0117 358.215 55.1602C358.094 55.3086 357.998 55.4805 357.928 55.6758C357.861 55.8711 357.816 56.082 357.793 56.3086V57.3691C357.828 57.6621 357.902 57.9316 358.016 58.1777C358.133 58.4199 358.297 58.6152 358.508 58.7637C358.719 58.9082 358.99 58.9805 359.322 58.9805C359.584 58.9805 359.805 58.9277 359.984 58.8223C360.164 58.7168 360.307 58.5703 360.412 58.3828C360.521 58.1914 360.6 57.9688 360.646 57.7148C360.697 57.4609 360.723 57.1875 360.723 56.8945ZM366.625 60.1172C366.156 60.1172 365.732 60.041 365.354 59.8887C364.979 59.7324 364.658 59.5156 364.393 59.2383C364.131 58.9609 363.93 58.6348 363.789 58.2598C363.648 57.8848 363.578 57.4805 363.578 57.0469V56.8125C363.578 56.3164 363.65 55.8672 363.795 55.4648C363.939 55.0625 364.141 54.7188 364.398 54.4336C364.656 54.1445 364.961 53.9238 365.312 53.7715C365.664 53.6191 366.045 53.543 366.455 53.543C366.908 53.543 367.305 53.6191 367.645 53.7715C367.984 53.9238 368.266 54.1387 368.488 54.416C368.715 54.6895 368.883 55.0156 368.992 55.3945C369.105 55.7734 369.162 56.1914 369.162 56.6484V57.252H364.264V56.2383H367.768V56.127C367.76 55.873 367.709 55.6348 367.615 55.4121C367.525 55.1895 367.387 55.0098 367.199 54.873C367.012 54.7363 366.762 54.668 366.449 54.668C366.215 54.668 366.006 54.7188 365.822 54.8203C365.643 54.918 365.492 55.0605 365.371 55.248C365.25 55.4355 365.156 55.6621 365.09 55.9277C365.027 56.1895 364.996 56.4844 364.996 56.8125V57.0469C364.996 57.3242 365.033 57.582 365.107 57.8203C365.186 58.0547 365.299 58.2598 365.447 58.4355C365.596 58.6113 365.775 58.75 365.986 58.8516C366.197 58.9492 366.438 58.998 366.707 58.998C367.047 58.998 367.35 58.9297 367.615 58.793C367.881 58.6562 368.111 58.4629 368.307 58.2129L369.051 58.9336C368.914 59.1328 368.736 59.3242 368.518 59.5078C368.299 59.6875 368.031 59.834 367.715 59.9473C367.402 60.0605 367.039 60.1172 366.625 60.1172ZM372.275 51V60H370.857V51H372.275Z" fill="#49454F"/>
<defs>
<clipPath id="clip0_50721_10387">
<rect x="22.5" y="12" width="64" height="32" rx="16" fill="white"/>
</clipPath>
</defs>
</svg>
