<svg width="120" height="473" viewBox="0 0 120 473" fill="none" xmlns="http://www.w3.org/2000/svg">
<g clip-path="url(#clip0_50731_12310)">
<rect width="120" height="473" rx="16" fill="#FFFBFE"/>
<g clip-path="url(#clip1_50731_12310)">
<path fill-rule="evenodd" clip-rule="evenodd" d="M69 92L69 94L51 94L51 92L69 92ZM69 87L51 87L51 89L69 89L69 87ZM69 82L51 82L51 84L69 84L69 82Z" fill="#49454F"/>
</g>
<g clip-path="url(#clip2_50731_12310)">
<g filter="url(#filter0_dd_50731_12310)">
<g clip-path="url(#clip3_50731_12310)">
<rect x="32" y="116" width="56" height="56" rx="16" fill="#FFD8E4"/>
<path fill-rule="evenodd" clip-rule="evenodd" d="M67.06 135.59L68.41 136.94C69.2 137.72 69.2 138.99 68.41 139.77L55.18 153H51V148.82L61.4 138.41L64.23 135.59C65.01 134.81 66.28 134.81 67.06 135.59ZM53 151L54.41 151.06L64.23 141.23L62.82 139.82L53 149.64V151Z" fill="#31111D"/>
</g>
</g>
</g>
<g clip-path="url(#clip4_50731_12310)">
<rect x="32" y="217" width="56" height="32" rx="16" fill="#E8DEF8"/>
<path fill-rule="evenodd" clip-rule="evenodd" d="M60 239C63.3137 239 66 236.314 66 233C66 229.686 63.3137 227 60 227C56.6863 227 54 229.686 54 233C54 236.314 56.6863 239 60 239Z" fill="#1D192B"/>
</g>
<path d="M50.6152 263.834V265H46.332V263.834H50.6152ZM46.7422 256.469V265H45.2715V256.469H46.7422ZM55.6855 263.729V260.705C55.6855 260.479 55.6445 260.283 55.5625 260.119C55.4805 259.955 55.3555 259.828 55.1875 259.738C55.0234 259.648 54.8164 259.604 54.5664 259.604C54.3359 259.604 54.1367 259.643 53.9688 259.721C53.8008 259.799 53.6699 259.904 53.5762 260.037C53.4824 260.17 53.4355 260.32 53.4355 260.488H52.0293C52.0293 260.238 52.0898 259.996 52.2109 259.762C52.332 259.527 52.5078 259.318 52.7383 259.135C52.9688 258.951 53.2441 258.807 53.5645 258.701C53.8848 258.596 54.2441 258.543 54.6426 258.543C55.1191 258.543 55.541 258.623 55.9082 258.783C56.2793 258.943 56.5703 259.186 56.7812 259.51C56.9961 259.83 57.1035 260.232 57.1035 260.717V263.535C57.1035 263.824 57.123 264.084 57.1621 264.314C57.2051 264.541 57.2656 264.738 57.3438 264.906V265H55.8965C55.8301 264.848 55.7773 264.654 55.7383 264.42C55.7031 264.182 55.6855 263.951 55.6855 263.729ZM55.8906 261.145L55.9023 262.018H54.8887C54.627 262.018 54.3965 262.043 54.1973 262.094C53.998 262.141 53.832 262.211 53.6992 262.305C53.5664 262.398 53.4668 262.512 53.4004 262.645C53.334 262.777 53.3008 262.928 53.3008 263.096C53.3008 263.264 53.3398 263.418 53.418 263.559C53.4961 263.695 53.6094 263.803 53.7578 263.881C53.9102 263.959 54.0938 263.998 54.3086 263.998C54.5977 263.998 54.8496 263.939 55.0645 263.822C55.2832 263.701 55.4551 263.555 55.5801 263.383C55.7051 263.207 55.7715 263.041 55.7793 262.885L56.2363 263.512C56.1895 263.672 56.1094 263.844 55.9961 264.027C55.8828 264.211 55.7344 264.387 55.5508 264.555C55.3711 264.719 55.1543 264.854 54.9004 264.959C54.6504 265.064 54.3613 265.117 54.0332 265.117C53.6191 265.117 53.25 265.035 52.9258 264.871C52.6016 264.703 52.3477 264.479 52.1641 264.197C51.9805 263.912 51.8887 263.59 51.8887 263.23C51.8887 262.895 51.9512 262.598 52.0762 262.34C52.2051 262.078 52.3926 261.859 52.6387 261.684C52.8887 261.508 53.1934 261.375 53.5527 261.285C53.9121 261.191 54.3223 261.145 54.7832 261.145H55.8906ZM59.0859 256H60.498V263.646L60.3633 265H59.0859V256ZM64.6348 261.771V261.895C64.6348 262.363 64.582 262.795 64.4766 263.189C64.375 263.58 64.2188 263.92 64.0078 264.209C63.8008 264.498 63.543 264.723 63.2344 264.883C62.9297 265.039 62.5762 265.117 62.1738 265.117C61.7793 265.117 61.4355 265.043 61.1426 264.895C60.8496 264.746 60.6035 264.535 60.4043 264.262C60.209 263.988 60.0508 263.662 59.9297 263.283C59.8086 262.904 59.7227 262.486 59.6719 262.029V261.637C59.7227 261.176 59.8086 260.758 59.9297 260.383C60.0508 260.004 60.209 259.678 60.4043 259.404C60.6035 259.127 60.8477 258.914 61.1367 258.766C61.4297 258.617 61.7715 258.543 62.1621 258.543C62.5684 258.543 62.9258 258.621 63.2344 258.777C63.5469 258.934 63.8066 259.156 64.0137 259.445C64.2207 259.73 64.375 260.07 64.4766 260.465C64.582 260.859 64.6348 261.295 64.6348 261.771ZM63.2227 261.895V261.771C63.2227 261.486 63.1992 261.219 63.1523 260.969C63.1055 260.715 63.0273 260.492 62.918 260.301C62.8125 260.109 62.668 259.959 62.4844 259.85C62.3047 259.736 62.0801 259.68 61.8105 259.68C61.5605 259.68 61.3457 259.723 61.166 259.809C60.9863 259.895 60.8359 260.012 60.7148 260.16C60.5938 260.309 60.498 260.48 60.4277 260.676C60.3613 260.871 60.3164 261.082 60.293 261.309V262.369C60.3281 262.662 60.4023 262.932 60.5156 263.178C60.6328 263.42 60.7969 263.615 61.0078 263.764C61.2188 263.908 61.4902 263.98 61.8223 263.98C62.084 263.98 62.3047 263.928 62.4844 263.822C62.6641 263.717 62.8066 263.57 62.9121 263.383C63.0215 263.191 63.0996 262.969 63.1465 262.715C63.1973 262.461 63.2227 262.188 63.2227 261.895ZM69.125 265.117C68.6562 265.117 68.2324 265.041 67.8535 264.889C67.4785 264.732 67.1582 264.516 66.8926 264.238C66.6309 263.961 66.4297 263.635 66.2891 263.26C66.1484 262.885 66.0781 262.48 66.0781 262.047V261.812C66.0781 261.316 66.1504 260.867 66.2949 260.465C66.4395 260.062 66.6406 259.719 66.8984 259.434C67.1562 259.145 67.4609 258.924 67.8125 258.771C68.1641 258.619 68.5449 258.543 68.9551 258.543C69.4082 258.543 69.8047 258.619 70.1445 258.771C70.4844 258.924 70.7656 259.139 70.9883 259.416C71.2148 259.689 71.3828 260.016 71.4922 260.395C71.6055 260.773 71.6621 261.191 71.6621 261.648V262.252H66.7637V261.238H70.2676V261.127C70.2598 260.873 70.209 260.635 70.1152 260.412C70.0254 260.189 69.8867 260.01 69.6992 259.873C69.5117 259.736 69.2617 259.668 68.9492 259.668C68.7148 259.668 68.5059 259.719 68.3223 259.82C68.1426 259.918 67.9922 260.061 67.8711 260.248C67.75 260.436 67.6562 260.662 67.5898 260.928C67.5273 261.189 67.4961 261.484 67.4961 261.812V262.047C67.4961 262.324 67.5332 262.582 67.6074 262.82C67.6855 263.055 67.7988 263.26 67.9473 263.436C68.0957 263.611 68.2754 263.75 68.4863 263.852C68.6973 263.949 68.9375 263.998 69.207 263.998C69.5469 263.998 69.8496 263.93 70.1152 263.793C70.3809 263.656 70.6113 263.463 70.8066 263.213L71.5508 263.934C71.4141 264.133 71.2363 264.324 71.0176 264.508C70.7988 264.688 70.5312 264.834 70.2148 264.947C69.9023 265.061 69.5391 265.117 69.125 265.117ZM74.7754 256V265H73.3574V256H74.7754Z" fill="#1C1B1F"/>
<g clip-path="url(#clip5_50731_12310)">
<path fill-rule="evenodd" clip-rule="evenodd" d="M60 299L53 311H67L60 299ZM60 302.969L56.4821 309H63.5179L60 302.969Z" fill="#49454F"/>
</g>
<g clip-path="url(#clip6_50731_12310)">
<path fill-rule="evenodd" clip-rule="evenodd" d="M64 361H56V369H64V361ZM54 359V371H66V359H54Z" fill="#49454F"/>
</g>
<g clip-path="url(#clip7_50731_12310)">
<path fill-rule="evenodd" clip-rule="evenodd" d="M59.9992 420.472L55.6929 423.601L57.3378 428.663H62.6606L64.3054 423.601L59.9992 420.472ZM66.6566 422.837L59.9992 418L53.3418 422.837L55.8847 430.663H64.1137L66.6566 422.837Z" fill="#49454F"/>
</g>
</g>
<defs>
<filter id="filter0_dd_50731_12310" x="21" y="109" width="78" height="78" filterUnits="userSpaceOnUse" color-interpolation-filters="sRGB">
<feFlood flood-opacity="0" result="BackgroundImageFix"/>
<feColorMatrix in="SourceAlpha" type="matrix" values="0 0 0 0 0 0 0 0 0 0 0 0 0 0 0 0 0 0 127 0" result="hardAlpha"/>
<feOffset dy="1"/>
<feGaussianBlur stdDeviation="1.5"/>
<feColorMatrix type="matrix" values="0 0 0 0 0 0 0 0 0 0 0 0 0 0 0 0 0 0 0.3 0"/>
<feBlend mode="normal" in2="BackgroundImageFix" result="effect1_dropShadow_50731_12310"/>
<feColorMatrix in="SourceAlpha" type="matrix" values="0 0 0 0 0 0 0 0 0 0 0 0 0 0 0 0 0 0 127 0" result="hardAlpha"/>
<feMorphology radius="3" operator="dilate" in="SourceAlpha" result="effect2_dropShadow_50731_12310"/>
<feOffset dy="4"/>
<feGaussianBlur stdDeviation="4"/>
<feColorMatrix type="matrix" values="0 0 0 0 0 0 0 0 0 0 0 0 0 0 0 0 0 0 0.15 0"/>
<feBlend mode="normal" in2="effect1_dropShadow_50731_12310" result="effect2_dropShadow_50731_12310"/>
<feBlend mode="normal" in="SourceGraphic" in2="effect2_dropShadow_50731_12310" result="shape"/>
</filter>
<clipPath id="clip0_50731_12310">
<rect width="120" height="473" rx="16" fill="white"/>
</clipPath>
<clipPath id="clip1_50731_12310">
<rect x="80" y="108" width="40" height="40" rx="20" transform="rotate(-180 80 108)" fill="white"/>
</clipPath>
<clipPath id="clip2_50731_12310">
<rect x="32" y="116" width="56" height="56" rx="16" fill="white"/>
</clipPath>
<clipPath id="clip3_50731_12310">
<rect x="32" y="116" width="56" height="56" rx="16" fill="white"/>
</clipPath>
<clipPath id="clip4_50731_12310">
<rect x="32" y="217" width="56" height="32" rx="16" fill="white"/>
</clipPath>
<clipPath id="clip5_50731_12310">
<rect x="32" y="277" width="56" height="56" rx="28" fill="white"/>
</clipPath>
<clipPath id="clip6_50731_12310">
<rect x="32" y="337" width="56" height="56" rx="28" fill="white"/>
</clipPath>
<clipPath id="clip7_50731_12310">
<rect x="32" y="397" width="56" height="56" rx="28" fill="white"/>
</clipPath>
</defs>
</svg>
