<svg width="99" height="40" viewBox="0 0 99 40" fill="none" xmlns="http://www.w3.org/2000/svg">
<g clip-path="url(#clip0_50716_11394)">
<path d="M30.9412 20.5566H26.8533V23.6191H31.6316V25H25.1238V15.0469H31.5838V16.4414H26.8533V19.1895H30.9412V20.5566ZM34.5207 17.6035L34.5686 18.458C35.1154 17.7972 35.8332 17.4668 36.7219 17.4668C38.2622 17.4668 39.0461 18.3486 39.0734 20.1123V25H37.4123V20.208C37.4123 19.7386 37.3098 19.3923 37.1047 19.1689C36.9042 18.9411 36.5738 18.8271 36.1135 18.8271C35.4436 18.8271 34.9445 19.1302 34.6164 19.7363V25H32.9553V17.6035H34.5207ZM45.2916 25C45.2187 24.8587 45.1549 24.6286 45.1002 24.3096C44.5716 24.861 43.9244 25.1367 43.1588 25.1367C42.416 25.1367 41.8098 24.9248 41.3404 24.501C40.871 24.0771 40.6363 23.5531 40.6363 22.9287C40.6363 22.1403 40.928 21.5365 41.5113 21.1172C42.0992 20.6934 42.9378 20.4814 44.027 20.4814H45.0455V19.9961C45.0455 19.6133 44.9384 19.3079 44.7242 19.0801C44.51 18.8477 44.1842 18.7314 43.7467 18.7314C43.3684 18.7314 43.0585 18.8271 42.817 19.0186C42.5755 19.2054 42.4547 19.4447 42.4547 19.7363H40.7936C40.7936 19.3307 40.928 18.9525 41.1969 18.6016C41.4658 18.2461 41.8303 17.9681 42.2906 17.7676C42.7555 17.5671 43.2727 17.4668 43.8424 17.4668C44.7083 17.4668 45.3987 17.6855 45.9137 18.123C46.4286 18.556 46.693 19.1667 46.7066 19.9551V23.291C46.7066 23.9564 46.8001 24.4873 46.9869 24.8838V25H45.2916ZM43.4664 23.8037C43.7945 23.8037 44.1021 23.724 44.3893 23.5645C44.6809 23.4049 44.8997 23.1908 45.0455 22.9219V21.5273H44.15C43.5348 21.5273 43.0722 21.6344 42.7623 21.8486C42.4524 22.0628 42.2975 22.3659 42.2975 22.7578C42.2975 23.0768 42.4023 23.332 42.6119 23.5234C42.8261 23.7103 43.1109 23.8037 43.4664 23.8037ZM55.0371 21.377C55.0371 22.5254 54.7796 23.4391 54.2646 24.1182C53.7542 24.7972 53.0501 25.1367 52.1523 25.1367C51.2865 25.1367 50.612 24.8245 50.1289 24.2002L50.0469 25H48.543V14.5H50.2041V18.3145C50.6826 17.7493 51.3275 17.4668 52.1387 17.4668C53.041 17.4668 53.7497 17.8018 54.2646 18.4717C54.7796 19.1416 55.0371 20.0781 55.0371 21.2812V21.377ZM53.376 21.2334C53.376 20.4313 53.2347 19.8298 52.9521 19.4287C52.6696 19.0277 52.2594 18.8271 51.7217 18.8271C51.0016 18.8271 50.4958 19.1416 50.2041 19.7705V22.8193C50.5003 23.4619 51.0107 23.7832 51.7354 23.7832C52.2549 23.7832 52.6559 23.5895 52.9385 23.2021C53.221 22.8148 53.3669 22.2292 53.376 21.4453V21.2334ZM58.3021 25H56.641V14.5H58.3021V25ZM63.4744 25.1367C62.4217 25.1367 61.5672 24.8063 60.9109 24.1455C60.2592 23.4801 59.9334 22.596 59.9334 21.4932V21.2881C59.9334 20.5498 60.0747 19.8913 60.3572 19.3125C60.6443 18.7292 61.0454 18.2757 61.5604 17.9521C62.0753 17.6286 62.6495 17.4668 63.283 17.4668C64.2902 17.4668 65.0672 17.7881 65.6141 18.4307C66.1655 19.0732 66.4412 19.9824 66.4412 21.1582V21.8281H61.6082C61.6583 22.4388 61.8611 22.9219 62.2166 23.2773C62.5766 23.6328 63.0278 23.8105 63.5701 23.8105C64.3312 23.8105 64.951 23.5029 65.4295 22.8877L66.325 23.7422C66.0288 24.1842 65.6323 24.5283 65.1355 24.7744C64.6434 25.016 64.0896 25.1367 63.4744 25.1367ZM63.2762 18.7998C62.8204 18.7998 62.4513 18.9593 62.1688 19.2783C61.8908 19.5973 61.713 20.0417 61.6355 20.6113H64.8006V20.4883C64.7641 19.9323 64.616 19.513 64.3563 19.2305C64.0965 18.9434 63.7365 18.7998 63.2762 18.7998ZM67.5256 21.2471C67.5256 20.1077 67.7899 19.194 68.3186 18.5059C68.8472 17.8132 69.5559 17.4668 70.4445 17.4668C71.2284 17.4668 71.8618 17.7402 72.3449 18.2871V14.5H74.0061V25H72.5021L72.4201 24.2344C71.9234 24.8359 71.2603 25.1367 70.4309 25.1367C69.565 25.1367 68.8632 24.7881 68.3254 24.0908C67.7922 23.3936 67.5256 22.4456 67.5256 21.2471ZM69.1867 21.3906C69.1867 22.1426 69.3303 22.7305 69.6174 23.1543C69.909 23.5736 70.3215 23.7832 70.8547 23.7832C71.5337 23.7832 72.0305 23.4801 72.3449 22.874V19.7158C72.0396 19.1234 71.5474 18.8271 70.8684 18.8271C70.3306 18.8271 69.9159 19.0413 69.6242 19.4697C69.3326 19.8936 69.1867 20.5339 69.1867 21.3906Z" fill="#6750A4"/>
</g>
<rect x="0.5" y="0.5" width="98" height="39" rx="19.5" stroke="#79747E"/>
<defs>
<clipPath id="clip0_50716_11394">
<rect width="99" height="40" rx="20" fill="white"/>
</clipPath>
</defs>
</svg>
