<svg width="360" height="65" viewBox="0 0 360 65" fill="none" xmlns="http://www.w3.org/2000/svg">
<rect width="360" height="65" fill="#FFFBFE"/>
<g clip-path="url(#clip0_51754_5008)">
<rect width="120" height="64" fill="#FFFBFE"/>
<path fill-rule="evenodd" clip-rule="evenodd" d="M60 28C63.3137 28 66 25.3137 66 22C66 18.6863 63.3137 16 60 16C56.6863 16 54 18.6863 54 22C54 25.3137 56.6863 28 60 28Z" fill="#6750A4"/>
<path d="M53.4379 39.0469V49H51.7357V39.0469H53.4379ZM56.5619 39.0469V40.4141H48.6391V39.0469H56.5619ZM61.0643 47.5166V43.9893C61.0643 43.7249 61.0164 43.4971 60.9207 43.3057C60.825 43.1143 60.6792 42.9661 60.4832 42.8613C60.2918 42.7565 60.0503 42.7041 59.7586 42.7041C59.4897 42.7041 59.2573 42.7497 59.0613 42.8408C58.8654 42.932 58.7127 43.055 58.6033 43.21C58.4939 43.3649 58.4393 43.5404 58.4393 43.7363H56.7986C56.7986 43.4447 56.8693 43.1621 57.0105 42.8887C57.1518 42.6152 57.3569 42.3714 57.6258 42.1572C57.8947 41.943 58.216 41.7744 58.5896 41.6514C58.9633 41.5283 59.3826 41.4668 59.8475 41.4668C60.4035 41.4668 60.8956 41.5602 61.324 41.7471C61.757 41.9339 62.0965 42.2165 62.3426 42.5947C62.5932 42.9684 62.7186 43.4378 62.7186 44.0029V47.291C62.7186 47.6283 62.7413 47.9313 62.7869 48.2002C62.837 48.4645 62.9077 48.6947 62.9988 48.8906V49H61.3104C61.2329 48.8223 61.1714 48.5967 61.1258 48.3232C61.0848 48.0452 61.0643 47.7764 61.0643 47.5166ZM61.3035 44.502L61.3172 45.5205H60.1346C59.8292 45.5205 59.5604 45.5501 59.3279 45.6094C59.0955 45.6641 58.9018 45.7461 58.7469 45.8555C58.5919 45.9648 58.4757 46.097 58.3982 46.252C58.3208 46.4069 58.282 46.5824 58.282 46.7783C58.282 46.9743 58.3276 47.1543 58.4188 47.3184C58.5099 47.4779 58.6421 47.6032 58.8152 47.6943C58.993 47.7855 59.2072 47.8311 59.4578 47.8311C59.7951 47.8311 60.089 47.7627 60.3396 47.626C60.5949 47.4847 60.7954 47.3138 60.9412 47.1133C61.087 46.9082 61.1645 46.7145 61.1736 46.5322L61.7068 47.2637C61.6521 47.4505 61.5587 47.651 61.4266 47.8652C61.2944 48.0794 61.1212 48.2845 60.907 48.4805C60.6974 48.6719 60.4445 48.8291 60.1482 48.9521C59.8566 49.0752 59.5193 49.1367 59.1365 49.1367C58.6535 49.1367 58.2228 49.041 57.8445 48.8496C57.4663 48.6536 57.1701 48.3916 56.9559 48.0635C56.7417 47.7308 56.6346 47.3548 56.6346 46.9355C56.6346 46.5436 56.7075 46.1973 56.8533 45.8965C57.0037 45.5911 57.2225 45.3359 57.5096 45.1309C57.8012 44.9258 58.1567 44.7708 58.576 44.666C58.9952 44.5566 59.4738 44.502 60.0115 44.502H61.3035ZM64.548 38.5H66.1955V47.4209L66.0383 49H64.548V38.5ZM71.0217 45.2334V45.377C71.0217 45.9238 70.9602 46.4274 70.8371 46.8877C70.7186 47.3434 70.5363 47.7399 70.2902 48.0771C70.0487 48.4144 69.7479 48.6764 69.3879 48.8633C69.0324 49.0456 68.62 49.1367 68.1506 49.1367C67.6903 49.1367 67.2893 49.0501 66.9475 48.877C66.6057 48.7038 66.3186 48.4577 66.0861 48.1387C65.8583 47.8197 65.6737 47.4391 65.5324 46.9971C65.3911 46.555 65.2909 46.0674 65.2316 45.5342V45.0762C65.2909 44.5384 65.3911 44.0508 65.5324 43.6133C65.6737 43.1712 65.8583 42.7907 66.0861 42.4717C66.3186 42.1481 66.6034 41.8997 66.9406 41.7266C67.2824 41.5534 67.6812 41.4668 68.1369 41.4668C68.6109 41.4668 69.0279 41.5579 69.3879 41.7402C69.7525 41.9225 70.0555 42.1823 70.2971 42.5195C70.5386 42.8522 70.7186 43.2487 70.8371 43.709C70.9602 44.1693 71.0217 44.6774 71.0217 45.2334ZM69.3742 45.377V45.2334C69.3742 44.9007 69.3469 44.5885 69.2922 44.2969C69.2375 44.0007 69.1464 43.7409 69.0188 43.5176C68.8957 43.2943 68.7271 43.1188 68.5129 42.9912C68.3033 42.859 68.0412 42.793 67.7268 42.793C67.4351 42.793 67.1844 42.8431 66.9748 42.9434C66.7652 43.0436 66.5897 43.1803 66.4484 43.3535C66.3072 43.5267 66.1955 43.7272 66.1135 43.9551C66.036 44.1829 65.9836 44.429 65.9563 44.6934V45.9307C65.9973 46.2725 66.0839 46.5869 66.216 46.874C66.3527 47.1566 66.5441 47.3844 66.7902 47.5576C67.0363 47.7262 67.3531 47.8105 67.7404 47.8105C68.0458 47.8105 68.3033 47.749 68.5129 47.626C68.7225 47.5029 68.8889 47.332 69.0119 47.1133C69.1395 46.89 69.2307 46.6302 69.2854 46.334C69.3446 46.0378 69.3742 45.7188 69.3742 45.377Z" fill="#6750A4"/>
<path d="M50 64C50 62.3431 51.3431 61 53 61H67C68.6569 61 70 62.3431 70 64H50Z" fill="#6750A4"/>
</g>
<g clip-path="url(#clip1_51754_5008)">
<rect width="120" height="64" transform="translate(120)" fill="#FFFBFE"/>
<path fill-rule="evenodd" clip-rule="evenodd" d="M180 28C183.314 28 186 25.3137 186 22C186 18.6863 183.314 16 180 16C176.686 16 174 18.6863 174 22C174 25.3137 176.686 28 180 28Z" fill="#49454F"/>
<path d="M173.438 39.0469V49H171.736V39.0469H173.438ZM176.562 39.0469V40.4141H168.639V39.0469H176.562ZM181.064 47.5166V43.9893C181.064 43.7249 181.016 43.4971 180.921 43.3057C180.825 43.1143 180.679 42.9661 180.483 42.8613C180.292 42.7565 180.05 42.7041 179.759 42.7041C179.49 42.7041 179.257 42.7497 179.061 42.8408C178.865 42.932 178.713 43.055 178.603 43.21C178.494 43.3649 178.439 43.5404 178.439 43.7363H176.799C176.799 43.4447 176.869 43.1621 177.011 42.8887C177.152 42.6152 177.357 42.3714 177.626 42.1572C177.895 41.943 178.216 41.7744 178.59 41.6514C178.963 41.5283 179.383 41.4668 179.847 41.4668C180.403 41.4668 180.896 41.5602 181.324 41.7471C181.757 41.9339 182.096 42.2165 182.343 42.5947C182.593 42.9684 182.719 43.4378 182.719 44.0029V47.291C182.719 47.6283 182.741 47.9313 182.787 48.2002C182.837 48.4645 182.908 48.6947 182.999 48.8906V49H181.31C181.233 48.8223 181.171 48.5967 181.126 48.3232C181.085 48.0452 181.064 47.7764 181.064 47.5166ZM181.304 44.502L181.317 45.5205H180.135C179.829 45.5205 179.56 45.5501 179.328 45.6094C179.096 45.6641 178.902 45.7461 178.747 45.8555C178.592 45.9648 178.476 46.097 178.398 46.252C178.321 46.4069 178.282 46.5824 178.282 46.7783C178.282 46.9743 178.328 47.1543 178.419 47.3184C178.51 47.4779 178.642 47.6032 178.815 47.6943C178.993 47.7855 179.207 47.8311 179.458 47.8311C179.795 47.8311 180.089 47.7627 180.34 47.626C180.595 47.4847 180.795 47.3138 180.941 47.1133C181.087 46.9082 181.165 46.7145 181.174 46.5322L181.707 47.2637C181.652 47.4505 181.559 47.651 181.427 47.8652C181.294 48.0794 181.121 48.2845 180.907 48.4805C180.697 48.6719 180.444 48.8291 180.148 48.9521C179.857 49.0752 179.519 49.1367 179.137 49.1367C178.653 49.1367 178.223 49.041 177.845 48.8496C177.466 48.6536 177.17 48.3916 176.956 48.0635C176.742 47.7308 176.635 47.3548 176.635 46.9355C176.635 46.5436 176.707 46.1973 176.853 45.8965C177.004 45.5911 177.222 45.3359 177.51 45.1309C177.801 44.9258 178.157 44.7708 178.576 44.666C178.995 44.5566 179.474 44.502 180.012 44.502H181.304ZM184.548 38.5H186.196V47.4209L186.038 49H184.548V38.5ZM191.022 45.2334V45.377C191.022 45.9238 190.96 46.4274 190.837 46.8877C190.719 47.3434 190.536 47.7399 190.29 48.0771C190.049 48.4144 189.748 48.6764 189.388 48.8633C189.032 49.0456 188.62 49.1367 188.151 49.1367C187.69 49.1367 187.289 49.0501 186.947 48.877C186.606 48.7038 186.319 48.4577 186.086 48.1387C185.858 47.8197 185.674 47.4391 185.532 46.9971C185.391 46.555 185.291 46.0674 185.232 45.5342V45.0762C185.291 44.5384 185.391 44.0508 185.532 43.6133C185.674 43.1712 185.858 42.7907 186.086 42.4717C186.319 42.1481 186.603 41.8997 186.941 41.7266C187.282 41.5534 187.681 41.4668 188.137 41.4668C188.611 41.4668 189.028 41.5579 189.388 41.7402C189.752 41.9225 190.056 42.1823 190.297 42.5195C190.539 42.8522 190.719 43.2487 190.837 43.709C190.96 44.1693 191.022 44.6774 191.022 45.2334ZM189.374 45.377V45.2334C189.374 44.9007 189.347 44.5885 189.292 44.2969C189.238 44.0007 189.146 43.7409 189.019 43.5176C188.896 43.2943 188.727 43.1188 188.513 42.9912C188.303 42.859 188.041 42.793 187.727 42.793C187.435 42.793 187.184 42.8431 186.975 42.9434C186.765 43.0436 186.59 43.1803 186.448 43.3535C186.307 43.5267 186.196 43.7272 186.113 43.9551C186.036 44.1829 185.984 44.429 185.956 44.6934V45.9307C185.997 46.2725 186.084 46.5869 186.216 46.874C186.353 47.1566 186.544 47.3844 186.79 47.5576C187.036 47.7262 187.353 47.8105 187.74 47.8105C188.046 47.8105 188.303 47.749 188.513 47.626C188.723 47.5029 188.889 47.332 189.012 47.1133C189.14 46.89 189.231 46.6302 189.285 46.334C189.345 46.0378 189.374 45.7188 189.374 45.377Z" fill="#49454F"/>
</g>
<g clip-path="url(#clip2_51754_5008)">
<rect width="120" height="64" transform="translate(240)" fill="#FFFBFE"/>
<path fill-rule="evenodd" clip-rule="evenodd" d="M300 28C303.314 28 306 25.3137 306 22C306 18.6863 303.314 16 300 16C296.686 16 294 18.6863 294 22C294 25.3137 296.686 28 300 28Z" fill="#49454F"/>
<path d="M293.438 39.0469V49H291.736V39.0469H293.438ZM296.562 39.0469V40.4141H288.639V39.0469H296.562ZM301.064 47.5166V43.9893C301.064 43.7249 301.016 43.4971 300.921 43.3057C300.825 43.1143 300.679 42.9661 300.483 42.8613C300.292 42.7565 300.05 42.7041 299.759 42.7041C299.49 42.7041 299.257 42.7497 299.061 42.8408C298.865 42.932 298.713 43.055 298.603 43.21C298.494 43.3649 298.439 43.5404 298.439 43.7363H296.799C296.799 43.4447 296.869 43.1621 297.011 42.8887C297.152 42.6152 297.357 42.3714 297.626 42.1572C297.895 41.943 298.216 41.7744 298.59 41.6514C298.963 41.5283 299.383 41.4668 299.847 41.4668C300.403 41.4668 300.896 41.5602 301.324 41.7471C301.757 41.9339 302.096 42.2165 302.343 42.5947C302.593 42.9684 302.719 43.4378 302.719 44.0029V47.291C302.719 47.6283 302.741 47.9313 302.787 48.2002C302.837 48.4645 302.908 48.6947 302.999 48.8906V49H301.31C301.233 48.8223 301.171 48.5967 301.126 48.3232C301.085 48.0452 301.064 47.7764 301.064 47.5166ZM301.304 44.502L301.317 45.5205H300.135C299.829 45.5205 299.56 45.5501 299.328 45.6094C299.096 45.6641 298.902 45.7461 298.747 45.8555C298.592 45.9648 298.476 46.097 298.398 46.252C298.321 46.4069 298.282 46.5824 298.282 46.7783C298.282 46.9743 298.328 47.1543 298.419 47.3184C298.51 47.4779 298.642 47.6032 298.815 47.6943C298.993 47.7855 299.207 47.8311 299.458 47.8311C299.795 47.8311 300.089 47.7627 300.34 47.626C300.595 47.4847 300.795 47.3138 300.941 47.1133C301.087 46.9082 301.165 46.7145 301.174 46.5322L301.707 47.2637C301.652 47.4505 301.559 47.651 301.427 47.8652C301.294 48.0794 301.121 48.2845 300.907 48.4805C300.697 48.6719 300.444 48.8291 300.148 48.9521C299.857 49.0752 299.519 49.1367 299.137 49.1367C298.653 49.1367 298.223 49.041 297.845 48.8496C297.466 48.6536 297.17 48.3916 296.956 48.0635C296.742 47.7308 296.635 47.3548 296.635 46.9355C296.635 46.5436 296.707 46.1973 296.853 45.8965C297.004 45.5911 297.222 45.3359 297.51 45.1309C297.801 44.9258 298.157 44.7708 298.576 44.666C298.995 44.5566 299.474 44.502 300.012 44.502H301.304ZM304.548 38.5H306.196V47.4209L306.038 49H304.548V38.5ZM311.022 45.2334V45.377C311.022 45.9238 310.96 46.4274 310.837 46.8877C310.719 47.3434 310.536 47.7399 310.29 48.0771C310.049 48.4144 309.748 48.6764 309.388 48.8633C309.032 49.0456 308.62 49.1367 308.151 49.1367C307.69 49.1367 307.289 49.0501 306.947 48.877C306.606 48.7038 306.319 48.4577 306.086 48.1387C305.858 47.8197 305.674 47.4391 305.532 46.9971C305.391 46.555 305.291 46.0674 305.232 45.5342V45.0762C305.291 44.5384 305.391 44.0508 305.532 43.6133C305.674 43.1712 305.858 42.7907 306.086 42.4717C306.319 42.1481 306.603 41.8997 306.941 41.7266C307.282 41.5534 307.681 41.4668 308.137 41.4668C308.611 41.4668 309.028 41.5579 309.388 41.7402C309.752 41.9225 310.056 42.1823 310.297 42.5195C310.539 42.8522 310.719 43.2487 310.837 43.709C310.96 44.1693 311.022 44.6774 311.022 45.2334ZM309.374 45.377V45.2334C309.374 44.9007 309.347 44.5885 309.292 44.2969C309.238 44.0007 309.146 43.7409 309.019 43.5176C308.896 43.2943 308.727 43.1188 308.513 42.9912C308.303 42.859 308.041 42.793 307.727 42.793C307.435 42.793 307.184 42.8431 306.975 42.9434C306.765 43.0436 306.59 43.1803 306.448 43.3535C306.307 43.5267 306.196 43.7272 306.113 43.9551C306.036 44.1829 305.984 44.429 305.956 44.6934V45.9307C305.997 46.2725 306.084 46.5869 306.216 46.874C306.353 47.1566 306.544 47.3844 306.79 47.5576C307.036 47.7262 307.353 47.8105 307.74 47.8105C308.046 47.8105 308.303 47.749 308.513 47.626C308.723 47.5029 308.889 47.332 309.012 47.1133C309.14 46.89 309.231 46.6302 309.285 46.334C309.345 46.0378 309.374 45.7188 309.374 45.377Z" fill="#49454F"/>
</g>
<line x1="-4.37114e-08" y1="64.5" x2="360" y2="64.5" stroke="#E7E0EC"/>
<defs>
<clipPath id="clip0_51754_5008">
<rect width="120" height="64" fill="white"/>
</clipPath>
<clipPath id="clip1_51754_5008">
<rect width="120" height="64" fill="white" transform="translate(120)"/>
</clipPath>
<clipPath id="clip2_51754_5008">
<rect width="120" height="64" fill="white" transform="translate(240)"/>
</clipPath>
</defs>
</svg>
