<svg width="328" height="129" viewBox="0 0 328 129" fill="none" xmlns="http://www.w3.org/2000/svg">
<rect width="328" height="129" rx="28" fill="#FFFBFE"/>
<rect width="328" height="129" rx="28" fill="#6750A4" fill-opacity="0.11"/>
<path d="M0 28C0 12.536 12.536 0 28 0H300C315.464 0 328 12.536 328 28V56H0V28Z" fill="#FFFBFE"/>
<path d="M0 28C0 12.536 12.536 0 28 0H300C315.464 0 328 12.536 328 28V56H0V28Z" fill="#6750A4" fill-opacity="0.11"/>
<g clip-path="url(#clip0_52977_33986)">
<path d="M36 27H23.83L29.42 21.41L28 20L20 28L28 36L29.41 34.59L23.83 29H36V27Z" fill="#49454F"/>
</g>
<path d="M58.9375 21.625V33H57.4297V21.625H58.9375ZM63.4062 26.3516V33H61.9609V24.5469H63.3281L63.4062 26.3516ZM63.0625 28.4531L62.4609 28.4297C62.4661 27.8516 62.5521 27.3177 62.7188 26.8281C62.8854 26.3333 63.1198 25.9036 63.4219 25.5391C63.724 25.1745 64.0833 24.8932 64.5 24.6953C64.9219 24.4922 65.388 24.3906 65.8984 24.3906C66.3151 24.3906 66.6901 24.4479 67.0234 24.5625C67.3568 24.6719 67.6406 24.849 67.875 25.0938C68.1146 25.3385 68.2969 25.6562 68.4219 26.0469C68.5469 26.4323 68.6094 26.9036 68.6094 27.4609V33H67.1562V27.4453C67.1562 27.0026 67.0911 26.6484 66.9609 26.3828C66.8307 26.112 66.6406 25.9167 66.3906 25.7969C66.1406 25.6719 65.8333 25.6094 65.4688 25.6094C65.1094 25.6094 64.7812 25.6849 64.4844 25.8359C64.1927 25.987 63.9401 26.1953 63.7266 26.4609C63.5182 26.7266 63.3542 27.0312 63.2344 27.375C63.1198 27.7135 63.0625 28.0729 63.0625 28.4531ZM72.75 26.1719V36.25H71.2969V24.5469H72.625L72.75 26.1719ZM78.4453 28.7031V28.8672C78.4453 29.4818 78.3724 30.0521 78.2266 30.5781C78.0807 31.099 77.8672 31.5521 77.5859 31.9375C77.3099 32.3229 76.9688 32.6224 76.5625 32.8359C76.1562 33.0495 75.6901 33.1562 75.1641 33.1562C74.6276 33.1562 74.1536 33.0677 73.7422 32.8906C73.3307 32.7135 72.9818 32.4557 72.6953 32.1172C72.4089 31.7786 72.1797 31.3724 72.0078 30.8984C71.8411 30.4245 71.7266 29.8906 71.6641 29.2969V28.4219C71.7266 27.7969 71.8438 27.237 72.0156 26.7422C72.1875 26.2474 72.4141 25.8255 72.6953 25.4766C72.9818 25.1224 73.3281 24.8542 73.7344 24.6719C74.1406 24.4844 74.6094 24.3906 75.1406 24.3906C75.6719 24.3906 76.1432 24.4948 76.5547 24.7031C76.9661 24.9062 77.3125 25.1979 77.5938 25.5781C77.875 25.9583 78.0859 26.4141 78.2266 26.9453C78.3724 27.4714 78.4453 28.0573 78.4453 28.7031ZM76.9922 28.8672V28.7031C76.9922 28.2812 76.9479 27.8854 76.8594 27.5156C76.7708 27.1406 76.6328 26.8125 76.4453 26.5312C76.263 26.2448 76.0286 26.0208 75.7422 25.8594C75.4557 25.6927 75.1146 25.6094 74.7188 25.6094C74.3542 25.6094 74.0365 25.6719 73.7656 25.7969C73.5 25.9219 73.2734 26.0911 73.0859 26.3047C72.8984 26.513 72.7448 26.7526 72.625 27.0234C72.5104 27.2891 72.4245 27.5651 72.3672 27.8516V29.875C72.4714 30.2396 72.6172 30.5833 72.8047 30.9062C72.9922 31.224 73.2422 31.4818 73.5547 31.6797C73.8672 31.8724 74.2604 31.9688 74.7344 31.9688C75.125 31.9688 75.4609 31.888 75.7422 31.7266C76.0286 31.5599 76.263 31.3333 76.4453 31.0469C76.6328 30.7604 76.7708 30.4323 76.8594 30.0625C76.9479 29.6875 76.9922 29.2891 76.9922 28.8672ZM85.9609 31.0469V24.5469H87.4141V33H86.0312L85.9609 31.0469ZM86.2344 29.2656L86.8359 29.25C86.8359 29.8125 86.776 30.3333 86.6562 30.8125C86.5417 31.2865 86.3542 31.6979 86.0938 32.0469C85.8333 32.3958 85.4922 32.6693 85.0703 32.8672C84.6484 33.0599 84.1354 33.1562 83.5312 33.1562C83.1198 33.1562 82.7422 33.0964 82.3984 32.9766C82.0599 32.8568 81.7682 32.6719 81.5234 32.4219C81.2786 32.1719 81.0885 31.8464 80.9531 31.4453C80.8229 31.0443 80.7578 30.5625 80.7578 30V24.5469H82.2031V30.0156C82.2031 30.3958 82.2448 30.7109 82.3281 30.9609C82.4167 31.2057 82.5339 31.401 82.6797 31.5469C82.8307 31.6875 82.9974 31.7865 83.1797 31.8438C83.3672 31.901 83.5599 31.9297 83.7578 31.9297C84.3724 31.9297 84.8594 31.8125 85.2188 31.5781C85.5781 31.3385 85.8359 31.0182 85.9922 30.6172C86.1536 30.2109 86.2344 29.7604 86.2344 29.2656ZM93.6562 24.5469V25.6562H89.0859V24.5469H93.6562ZM90.6328 22.4922H92.0781V30.9062C92.0781 31.1927 92.1224 31.4089 92.2109 31.5547C92.2995 31.7005 92.4141 31.7969 92.5547 31.8438C92.6953 31.8906 92.8464 31.9141 93.0078 31.9141C93.1276 31.9141 93.2526 31.9036 93.3828 31.8828C93.5182 31.8568 93.6198 31.8359 93.6875 31.8203L93.6953 33C93.5807 33.0365 93.4297 33.0703 93.2422 33.1016C93.0599 33.138 92.8385 33.1562 92.5781 33.1562C92.224 33.1562 91.8984 33.0859 91.6016 32.9453C91.3047 32.8047 91.0677 32.5703 90.8906 32.2422C90.7188 31.9089 90.6328 31.4609 90.6328 30.8984V22.4922ZM103.859 24.5469V25.6562H99.2891V24.5469H103.859ZM100.836 22.4922H102.281V30.9062C102.281 31.1927 102.326 31.4089 102.414 31.5547C102.503 31.7005 102.617 31.7969 102.758 31.8438C102.898 31.8906 103.049 31.9141 103.211 31.9141C103.331 31.9141 103.456 31.9036 103.586 31.8828C103.721 31.8568 103.823 31.8359 103.891 31.8203L103.898 33C103.784 33.0365 103.633 33.0703 103.445 33.1016C103.263 33.138 103.042 33.1562 102.781 33.1562C102.427 33.1562 102.102 33.0859 101.805 32.9453C101.508 32.8047 101.271 32.5703 101.094 32.2422C100.922 31.9089 100.836 31.4609 100.836 30.8984V22.4922ZM109.562 33.1562C108.974 33.1562 108.44 33.0573 107.961 32.8594C107.487 32.6562 107.078 32.3724 106.734 32.0078C106.396 31.6432 106.135 31.2109 105.953 30.7109C105.771 30.2109 105.68 29.6641 105.68 29.0703V28.7422C105.68 28.0547 105.781 27.4427 105.984 26.9062C106.188 26.3646 106.464 25.9062 106.812 25.5312C107.161 25.1562 107.557 24.8724 108 24.6797C108.443 24.487 108.901 24.3906 109.375 24.3906C109.979 24.3906 110.5 24.4948 110.938 24.7031C111.38 24.9115 111.742 25.2031 112.023 25.5781C112.305 25.9479 112.513 26.3854 112.648 26.8906C112.784 27.3906 112.852 27.9375 112.852 28.5312V29.1797H106.539V28H111.406V27.8906C111.385 27.5156 111.307 27.151 111.172 26.7969C111.042 26.4427 110.833 26.151 110.547 25.9219C110.26 25.6927 109.87 25.5781 109.375 25.5781C109.047 25.5781 108.745 25.6484 108.469 25.7891C108.193 25.9245 107.956 26.1276 107.758 26.3984C107.56 26.6693 107.406 27 107.297 27.3906C107.188 27.7812 107.133 28.2318 107.133 28.7422V29.0703C107.133 29.4714 107.188 29.849 107.297 30.2031C107.411 30.5521 107.576 30.8594 107.789 31.125C108.008 31.3906 108.271 31.599 108.578 31.75C108.891 31.901 109.245 31.9766 109.641 31.9766C110.151 31.9766 110.583 31.8724 110.938 31.6641C111.292 31.4557 111.602 31.1771 111.867 30.8281L112.742 31.5234C112.56 31.7995 112.328 32.0625 112.047 32.3125C111.766 32.5625 111.419 32.7656 111.008 32.9219C110.602 33.0781 110.12 33.1562 109.562 33.1562ZM116.016 24.5469L117.867 27.625L119.742 24.5469H121.438L118.672 28.7188L121.523 33H119.852L117.898 29.8281L115.945 33H114.266L117.109 28.7188L114.352 24.5469H116.016ZM127.016 24.5469V25.6562H122.445V24.5469H127.016ZM123.992 22.4922H125.438V30.9062C125.438 31.1927 125.482 31.4089 125.57 31.5547C125.659 31.7005 125.773 31.7969 125.914 31.8438C126.055 31.8906 126.206 31.9141 126.367 31.9141C126.487 31.9141 126.612 31.9036 126.742 31.8828C126.878 31.8568 126.979 31.8359 127.047 31.8203L127.055 33C126.94 33.0365 126.789 33.0703 126.602 33.1016C126.419 33.138 126.198 33.1562 125.938 33.1562C125.583 33.1562 125.258 33.0859 124.961 32.9453C124.664 32.8047 124.427 32.5703 124.25 32.2422C124.078 31.9089 123.992 31.4609 123.992 30.8984V22.4922Z" fill="#1C1B1F"/>
<path d="M130 20V36" stroke="#6750A4" stroke-linecap="square"/>
<g clip-path="url(#clip1_52977_33986)">
<path d="M307 22.41L305.59 21L300 26.59L294.41 21L293 22.41L298.59 28L293 33.59L294.41 35L300 29.41L305.59 35L307 33.59L301.41 28L307 22.41Z" fill="#49454F"/>
</g>
<line y1="56.5" x2="328" y2="56.5" stroke="#79747E"/>
<g clip-path="url(#clip2_52977_33986)">
<g clip-path="url(#clip3_52977_33986)">
<g clip-path="url(#clip4_52977_33986)">
<rect x="16" y="73" width="40" height="40" rx="20" fill="#EADDFF"/>
<path d="M36.2063 88.1406L32.8078 98H30.7531L35.0344 86.625H36.3469L36.2063 88.1406ZM39.05 98L35.6438 88.1406L35.4953 86.625H36.8156L41.1125 98H39.05ZM38.8859 93.7812V95.3359H32.6984V93.7812H38.8859Z" fill="#21005D"/>
</g>
</g>
<path d="M80.2188 86.7734V88H74.5312V86.7734H80.2188ZM74.8281 76.625V88H73.3203V76.625H74.8281ZM83.7969 79.5469V88H82.3438V79.5469H83.7969ZM82.2344 77.3047C82.2344 77.0703 82.3047 76.8724 82.4453 76.7109C82.5911 76.5495 82.8047 76.4688 83.0859 76.4688C83.362 76.4688 83.5729 76.5495 83.7188 76.7109C83.8698 76.8724 83.9453 77.0703 83.9453 77.3047C83.9453 77.5286 83.8698 77.7214 83.7188 77.8828C83.5729 78.0391 83.362 78.1172 83.0859 78.1172C82.8047 78.1172 82.5911 78.0391 82.4453 77.8828C82.3047 77.7214 82.2344 77.5286 82.2344 77.3047ZM91.5391 85.7578C91.5391 85.5495 91.4922 85.3568 91.3984 85.1797C91.3099 84.9974 91.125 84.8333 90.8438 84.6875C90.5677 84.5365 90.151 84.4062 89.5938 84.2969C89.125 84.1979 88.7005 84.0807 88.3203 83.9453C87.9453 83.8099 87.625 83.6458 87.3594 83.4531C87.099 83.2604 86.8984 83.0339 86.7578 82.7734C86.6172 82.513 86.5469 82.2083 86.5469 81.8594C86.5469 81.526 86.6198 81.2109 86.7656 80.9141C86.9167 80.6172 87.1276 80.3542 87.3984 80.125C87.6745 79.8958 88.0052 79.7161 88.3906 79.5859C88.776 79.4557 89.2057 79.3906 89.6797 79.3906C90.3568 79.3906 90.9349 79.5104 91.4141 79.75C91.8932 79.9896 92.2604 80.3099 92.5156 80.7109C92.7708 81.1068 92.8984 81.5469 92.8984 82.0312H91.4531C91.4531 81.7969 91.3828 81.5703 91.2422 81.3516C91.1068 81.1276 90.9062 80.9427 90.6406 80.7969C90.3802 80.651 90.0599 80.5781 89.6797 80.5781C89.2786 80.5781 88.9531 80.6406 88.7031 80.7656C88.4583 80.8854 88.2786 81.0391 88.1641 81.2266C88.0547 81.4141 88 81.612 88 81.8203C88 81.9766 88.026 82.1172 88.0781 82.2422C88.1354 82.362 88.2344 82.474 88.375 82.5781C88.5156 82.6771 88.7135 82.7708 88.9688 82.8594C89.224 82.9479 89.5495 83.0365 89.9453 83.125C90.638 83.2812 91.2083 83.4688 91.6562 83.6875C92.1042 83.9062 92.4375 84.1745 92.6562 84.4922C92.875 84.8099 92.9844 85.1953 92.9844 85.6484C92.9844 86.0182 92.9062 86.3568 92.75 86.6641C92.599 86.9714 92.3776 87.237 92.0859 87.4609C91.7995 87.6797 91.4557 87.8516 91.0547 87.9766C90.6589 88.0964 90.2135 88.1562 89.7188 88.1562C88.974 88.1562 88.3438 88.0234 87.8281 87.7578C87.3125 87.4922 86.9219 87.1484 86.6562 86.7266C86.3906 86.3047 86.2578 85.8594 86.2578 85.3906H87.7109C87.7318 85.7865 87.8464 86.1016 88.0547 86.3359C88.263 86.5651 88.5182 86.7292 88.8203 86.8281C89.1224 86.9219 89.4219 86.9688 89.7188 86.9688C90.1146 86.9688 90.4453 86.9167 90.7109 86.8125C90.9818 86.7083 91.1875 86.5651 91.3281 86.3828C91.4688 86.2005 91.5391 85.9922 91.5391 85.7578ZM98.9219 79.5469V80.6562H94.3516V79.5469H98.9219ZM95.8984 77.4922H97.3438V85.9062C97.3438 86.1927 97.388 86.4089 97.4766 86.5547C97.5651 86.7005 97.6797 86.7969 97.8203 86.8438C97.9609 86.8906 98.112 86.9141 98.2734 86.9141C98.3932 86.9141 98.5182 86.9036 98.6484 86.8828C98.7839 86.8568 98.8854 86.8359 98.9531 86.8203L98.9609 88C98.8464 88.0365 98.6953 88.0703 98.5078 88.1016C98.3255 88.138 98.1042 88.1562 97.8438 88.1562C97.4896 88.1562 97.1641 88.0859 96.8672 87.9453C96.5703 87.8047 96.3333 87.5703 96.1562 87.2422C95.9844 86.9089 95.8984 86.4609 95.8984 85.8984V77.4922ZM107.156 79.5469V88H105.703V79.5469H107.156ZM105.594 77.3047C105.594 77.0703 105.664 76.8724 105.805 76.7109C105.951 76.5495 106.164 76.4688 106.445 76.4688C106.721 76.4688 106.932 76.5495 107.078 76.7109C107.229 76.8724 107.305 77.0703 107.305 77.3047C107.305 77.5286 107.229 77.7214 107.078 77.8828C106.932 78.0391 106.721 78.1172 106.445 78.1172C106.164 78.1172 105.951 78.0391 105.805 77.8828C105.664 77.7214 105.594 77.5286 105.594 77.3047ZM113.516 79.5469V80.6562H108.945V79.5469H113.516ZM110.492 77.4922H111.938V85.9062C111.938 86.1927 111.982 86.4089 112.07 86.5547C112.159 86.7005 112.273 86.7969 112.414 86.8438C112.555 86.8906 112.706 86.9141 112.867 86.9141C112.987 86.9141 113.112 86.9036 113.242 86.8828C113.378 86.8568 113.479 86.8359 113.547 86.8203L113.555 88C113.44 88.0365 113.289 88.0703 113.102 88.1016C112.919 88.138 112.698 88.1562 112.438 88.1562C112.083 88.1562 111.758 88.0859 111.461 87.9453C111.164 87.8047 110.927 87.5703 110.75 87.2422C110.578 86.9089 110.492 86.4609 110.492 85.8984V77.4922ZM119.219 88.1562C118.63 88.1562 118.096 88.0573 117.617 87.8594C117.143 87.6562 116.734 87.3724 116.391 87.0078C116.052 86.6432 115.792 86.2109 115.609 85.7109C115.427 85.2109 115.336 84.6641 115.336 84.0703V83.7422C115.336 83.0547 115.438 82.4427 115.641 81.9062C115.844 81.3646 116.12 80.9062 116.469 80.5312C116.818 80.1562 117.214 79.8724 117.656 79.6797C118.099 79.487 118.557 79.3906 119.031 79.3906C119.635 79.3906 120.156 79.4948 120.594 79.7031C121.036 79.9115 121.398 80.2031 121.68 80.5781C121.961 80.9479 122.169 81.3854 122.305 81.8906C122.44 82.3906 122.508 82.9375 122.508 83.5312V84.1797H116.195V83H121.062V82.8906C121.042 82.5156 120.964 82.151 120.828 81.7969C120.698 81.4427 120.49 81.151 120.203 80.9219C119.917 80.6927 119.526 80.5781 119.031 80.5781C118.703 80.5781 118.401 80.6484 118.125 80.7891C117.849 80.9245 117.612 81.1276 117.414 81.3984C117.216 81.6693 117.062 82 116.953 82.3906C116.844 82.7812 116.789 83.2318 116.789 83.7422V84.0703C116.789 84.4714 116.844 84.849 116.953 85.2031C117.068 85.5521 117.232 85.8594 117.445 86.125C117.664 86.3906 117.927 86.599 118.234 86.75C118.547 86.901 118.901 86.9766 119.297 86.9766C119.807 86.9766 120.24 86.8724 120.594 86.6641C120.948 86.4557 121.258 86.1771 121.523 85.8281L122.398 86.5234C122.216 86.7995 121.984 87.0625 121.703 87.3125C121.422 87.5625 121.076 87.7656 120.664 87.9219C120.258 88.0781 119.776 88.1562 119.219 88.1562ZM126.133 81.2266V88H124.68V79.5469H126.055L126.133 81.2266ZM125.836 83.4531L125.164 83.4297C125.169 82.8516 125.245 82.3177 125.391 81.8281C125.536 81.3333 125.753 80.9036 126.039 80.5391C126.326 80.1745 126.682 79.8932 127.109 79.6953C127.536 79.4922 128.031 79.3906 128.594 79.3906C128.99 79.3906 129.354 79.4479 129.688 79.5625C130.021 79.6719 130.31 79.8464 130.555 80.0859C130.799 80.3255 130.99 80.6328 131.125 81.0078C131.26 81.3828 131.328 81.8359 131.328 82.3672V88H129.883V82.4375C129.883 81.9948 129.807 81.6406 129.656 81.375C129.51 81.1094 129.302 80.9167 129.031 80.7969C128.76 80.6719 128.443 80.6094 128.078 80.6094C127.651 80.6094 127.294 80.6849 127.008 80.8359C126.721 80.987 126.492 81.1953 126.32 81.4609C126.148 81.7266 126.023 82.0312 125.945 82.375C125.872 82.7135 125.836 83.0729 125.836 83.4531ZM131.312 82.6562L130.344 82.9531C130.349 82.4896 130.424 82.0443 130.57 81.6172C130.721 81.1901 130.938 80.8099 131.219 80.4766C131.505 80.1432 131.857 79.8802 132.273 79.6875C132.69 79.4896 133.167 79.3906 133.703 79.3906C134.156 79.3906 134.557 79.4505 134.906 79.5703C135.26 79.6901 135.557 79.875 135.797 80.125C136.042 80.3698 136.227 80.6849 136.352 81.0703C136.477 81.4557 136.539 81.9141 136.539 82.4453V88H135.086V82.4297C135.086 81.9557 135.01 81.5885 134.859 81.3281C134.714 81.0625 134.505 80.8776 134.234 80.7734C133.969 80.6641 133.651 80.6094 133.281 80.6094C132.964 80.6094 132.682 80.6641 132.438 80.7734C132.193 80.8828 131.987 81.0339 131.82 81.2266C131.654 81.4141 131.526 81.6302 131.438 81.875C131.354 82.1198 131.312 82.3802 131.312 82.6562Z" fill="#1C1B1F"/>
<path d="M78.46 105.484C78.46 105.252 78.4235 105.047 78.3506 104.869C78.2822 104.687 78.1592 104.523 77.9814 104.377C77.8083 104.231 77.5667 104.092 77.2568 103.96C76.9515 103.828 76.5641 103.693 76.0947 103.557C75.6025 103.411 75.1582 103.249 74.7617 103.071C74.3652 102.889 74.0257 102.682 73.7432 102.449C73.4606 102.217 73.2441 101.95 73.0938 101.649C72.9434 101.349 72.8682 101.005 72.8682 100.617C72.8682 100.23 72.9479 99.8721 73.1074 99.5439C73.2669 99.2158 73.4948 98.931 73.791 98.6895C74.0918 98.4434 74.4495 98.252 74.8643 98.1152C75.279 97.9785 75.7415 97.9102 76.252 97.9102C76.9993 97.9102 77.6328 98.0537 78.1523 98.3408C78.6764 98.6234 79.0752 98.9948 79.3486 99.4551C79.6221 99.9108 79.7588 100.398 79.7588 100.918H78.4463C78.4463 100.544 78.3665 100.214 78.207 99.9268C78.0475 99.6351 77.806 99.4072 77.4824 99.2432C77.1589 99.0745 76.7487 98.9902 76.252 98.9902C75.7826 98.9902 75.3952 99.0609 75.0898 99.2021C74.7845 99.3434 74.5566 99.5348 74.4062 99.7764C74.2604 100.018 74.1875 100.294 74.1875 100.604C74.1875 100.813 74.2308 101.005 74.3174 101.178C74.4085 101.346 74.5475 101.504 74.7344 101.649C74.9258 101.795 75.1673 101.93 75.459 102.053C75.7552 102.176 76.1084 102.294 76.5186 102.408C77.0837 102.568 77.5713 102.745 77.9814 102.941C78.3916 103.137 78.7288 103.358 78.9932 103.604C79.262 103.846 79.4603 104.122 79.5879 104.432C79.7201 104.737 79.7861 105.083 79.7861 105.471C79.7861 105.876 79.7041 106.243 79.54 106.571C79.376 106.899 79.1413 107.18 78.8359 107.412C78.5306 107.645 78.1637 107.825 77.7354 107.952C77.3115 108.075 76.8376 108.137 76.3135 108.137C75.8532 108.137 75.3997 108.073 74.9531 107.945C74.5111 107.818 74.1077 107.626 73.7432 107.371C73.3831 107.116 73.0938 106.801 72.875 106.428C72.6608 106.049 72.5537 105.612 72.5537 105.115H73.8662C73.8662 105.457 73.9323 105.751 74.0645 105.997C74.1966 106.239 74.3766 106.439 74.6045 106.599C74.8369 106.758 75.099 106.877 75.3906 106.954C75.6868 107.027 75.9945 107.063 76.3135 107.063C76.7738 107.063 77.1634 107 77.4824 106.872C77.8014 106.744 78.043 106.562 78.207 106.325C78.3757 106.088 78.46 105.808 78.46 105.484ZM86.0518 106.291V100.604H87.3232V108H86.1133L86.0518 106.291ZM86.291 104.732L86.8174 104.719C86.8174 105.211 86.765 105.667 86.6602 106.086C86.5599 106.501 86.3958 106.861 86.168 107.166C85.9401 107.471 85.6416 107.711 85.2725 107.884C84.9033 108.052 84.4544 108.137 83.9258 108.137C83.5658 108.137 83.2354 108.084 82.9346 107.979C82.6383 107.875 82.3831 107.713 82.1689 107.494C81.9548 107.275 81.7884 106.991 81.6699 106.64C81.556 106.289 81.499 105.867 81.499 105.375V100.604H82.7637V105.389C82.7637 105.721 82.8001 105.997 82.873 106.216C82.9505 106.43 83.0531 106.601 83.1807 106.729C83.3128 106.852 83.4587 106.938 83.6182 106.988C83.7822 107.038 83.9508 107.063 84.124 107.063C84.6618 107.063 85.0879 106.961 85.4023 106.756C85.7168 106.546 85.9424 106.266 86.0791 105.915C86.2204 105.56 86.291 105.165 86.291 104.732ZM90.7656 102.025V110.844H89.4941V100.604H90.6562L90.7656 102.025ZM95.749 104.24V104.384C95.749 104.922 95.6852 105.421 95.5576 105.881C95.43 106.337 95.2432 106.733 94.9971 107.07C94.7555 107.408 94.457 107.67 94.1016 107.856C93.7461 108.043 93.3382 108.137 92.8779 108.137C92.4085 108.137 91.9938 108.059 91.6338 107.904C91.2738 107.749 90.9684 107.524 90.7178 107.228C90.4671 106.931 90.2666 106.576 90.1162 106.161C89.9704 105.746 89.8701 105.279 89.8154 104.76V103.994C89.8701 103.447 89.9727 102.957 90.123 102.524C90.2734 102.091 90.4717 101.722 90.7178 101.417C90.9684 101.107 91.2715 100.872 91.627 100.713C91.9824 100.549 92.3926 100.467 92.8574 100.467C93.3223 100.467 93.7347 100.558 94.0947 100.74C94.4548 100.918 94.7578 101.173 95.0039 101.506C95.25 101.839 95.4346 102.237 95.5576 102.702C95.6852 103.162 95.749 103.675 95.749 104.24ZM94.4775 104.384V104.24C94.4775 103.871 94.4388 103.525 94.3613 103.201C94.2839 102.873 94.1631 102.586 93.999 102.34C93.8395 102.089 93.6344 101.893 93.3838 101.752C93.1331 101.606 92.8346 101.533 92.4883 101.533C92.1693 101.533 91.8913 101.588 91.6543 101.697C91.4219 101.807 91.2236 101.955 91.0596 102.142C90.8955 102.324 90.7611 102.534 90.6562 102.771C90.556 103.003 90.4808 103.244 90.4307 103.495V105.266C90.5218 105.585 90.6494 105.885 90.8135 106.168C90.9775 106.446 91.1963 106.672 91.4697 106.845C91.7432 107.013 92.0872 107.098 92.502 107.098C92.8438 107.098 93.1377 107.027 93.3838 106.886C93.6344 106.74 93.8395 106.542 93.999 106.291C94.1631 106.04 94.2839 105.753 94.3613 105.43C94.4388 105.102 94.4775 104.753 94.4775 104.384ZM98.877 102.025V110.844H97.6055V100.604H98.7676L98.877 102.025ZM103.86 104.24V104.384C103.86 104.922 103.797 105.421 103.669 105.881C103.541 106.337 103.354 106.733 103.108 107.07C102.867 107.408 102.568 107.67 102.213 107.856C101.857 108.043 101.45 108.137 100.989 108.137C100.52 108.137 100.105 108.059 99.7451 107.904C99.3851 107.749 99.0798 107.524 98.8291 107.228C98.5785 106.931 98.3779 106.576 98.2275 106.161C98.0817 105.746 97.9814 105.279 97.9268 104.76V103.994C97.9814 103.447 98.084 102.957 98.2344 102.524C98.3848 102.091 98.583 101.722 98.8291 101.417C99.0798 101.107 99.3828 100.872 99.7383 100.713C100.094 100.549 100.504 100.467 100.969 100.467C101.434 100.467 101.846 100.558 102.206 100.74C102.566 100.918 102.869 101.173 103.115 101.506C103.361 101.839 103.546 102.237 103.669 102.702C103.797 103.162 103.86 103.675 103.86 104.24ZM102.589 104.384V104.24C102.589 103.871 102.55 103.525 102.473 103.201C102.395 102.873 102.274 102.586 102.11 102.34C101.951 102.089 101.746 101.893 101.495 101.752C101.244 101.606 100.946 101.533 100.6 101.533C100.281 101.533 100.003 101.588 99.7656 101.697C99.5332 101.807 99.335 101.955 99.1709 102.142C99.0068 102.324 98.8724 102.534 98.7676 102.771C98.6673 103.003 98.5921 103.244 98.542 103.495V105.266C98.6331 105.585 98.7607 105.885 98.9248 106.168C99.0889 106.446 99.3076 106.672 99.5811 106.845C99.8545 107.013 100.199 107.098 100.613 107.098C100.955 107.098 101.249 107.027 101.495 106.886C101.746 106.74 101.951 106.542 102.11 106.291C102.274 106.04 102.395 105.753 102.473 105.43C102.55 105.102 102.589 104.753 102.589 104.384ZM105.389 104.384V104.227C105.389 103.693 105.466 103.199 105.621 102.743C105.776 102.283 105.999 101.884 106.291 101.547C106.583 101.205 106.936 100.941 107.351 100.754C107.765 100.562 108.23 100.467 108.745 100.467C109.265 100.467 109.732 100.562 110.146 100.754C110.566 100.941 110.921 101.205 111.213 101.547C111.509 101.884 111.735 102.283 111.89 102.743C112.045 103.199 112.122 103.693 112.122 104.227V104.384C112.122 104.917 112.045 105.411 111.89 105.867C111.735 106.323 111.509 106.722 111.213 107.063C110.921 107.401 110.568 107.665 110.153 107.856C109.743 108.043 109.278 108.137 108.759 108.137C108.239 108.137 107.772 108.043 107.357 107.856C106.943 107.665 106.587 107.401 106.291 107.063C105.999 106.722 105.776 106.323 105.621 105.867C105.466 105.411 105.389 104.917 105.389 104.384ZM106.653 104.227V104.384C106.653 104.753 106.697 105.102 106.783 105.43C106.87 105.753 107 106.04 107.173 106.291C107.351 106.542 107.572 106.74 107.836 106.886C108.1 107.027 108.408 107.098 108.759 107.098C109.105 107.098 109.408 107.027 109.668 106.886C109.932 106.74 110.151 106.542 110.324 106.291C110.497 106.04 110.627 105.753 110.714 105.43C110.805 105.102 110.851 104.753 110.851 104.384V104.227C110.851 103.862 110.805 103.518 110.714 103.194C110.627 102.866 110.495 102.577 110.317 102.326C110.144 102.071 109.925 101.87 109.661 101.725C109.401 101.579 109.096 101.506 108.745 101.506C108.399 101.506 108.093 101.579 107.829 101.725C107.569 101.87 107.351 102.071 107.173 102.326C107 102.577 106.87 102.866 106.783 103.194C106.697 103.518 106.653 103.862 106.653 104.227ZM115.223 101.766V108H113.958V100.604H115.188L115.223 101.766ZM117.533 100.562L117.526 101.738C117.422 101.715 117.321 101.702 117.226 101.697C117.134 101.688 117.03 101.684 116.911 101.684C116.619 101.684 116.362 101.729 116.139 101.82C115.915 101.911 115.726 102.039 115.571 102.203C115.416 102.367 115.293 102.563 115.202 102.791C115.116 103.014 115.059 103.26 115.031 103.529L114.676 103.734C114.676 103.288 114.719 102.868 114.806 102.477C114.897 102.085 115.036 101.738 115.223 101.438C115.41 101.132 115.646 100.895 115.934 100.727C116.225 100.553 116.572 100.467 116.973 100.467C117.064 100.467 117.169 100.478 117.287 100.501C117.406 100.519 117.488 100.54 117.533 100.562ZM122.391 100.604V101.574H118.392V100.604H122.391ZM119.745 98.8057H121.01V106.168C121.01 106.419 121.049 106.608 121.126 106.735C121.203 106.863 121.304 106.947 121.427 106.988C121.55 107.029 121.682 107.05 121.823 107.05C121.928 107.05 122.037 107.041 122.151 107.022C122.27 107 122.359 106.981 122.418 106.968L122.425 108C122.325 108.032 122.192 108.062 122.028 108.089C121.869 108.121 121.675 108.137 121.447 108.137C121.137 108.137 120.853 108.075 120.593 107.952C120.333 107.829 120.126 107.624 119.971 107.337C119.82 107.045 119.745 106.653 119.745 106.161V98.8057ZM125.498 100.604V108H124.227V100.604H125.498ZM124.131 98.6416C124.131 98.4365 124.192 98.2633 124.315 98.1221C124.443 97.9808 124.63 97.9102 124.876 97.9102C125.118 97.9102 125.302 97.9808 125.43 98.1221C125.562 98.2633 125.628 98.4365 125.628 98.6416C125.628 98.8376 125.562 99.0062 125.43 99.1475C125.302 99.2842 125.118 99.3525 124.876 99.3525C124.63 99.3525 124.443 99.2842 124.315 99.1475C124.192 99.0062 124.131 98.8376 124.131 98.6416ZM129.043 102.183V108H127.778V100.604H128.975L129.043 102.183ZM128.742 104.021L128.216 104.001C128.22 103.495 128.296 103.028 128.441 102.6C128.587 102.167 128.792 101.791 129.057 101.472C129.321 101.153 129.635 100.907 130 100.733C130.369 100.556 130.777 100.467 131.224 100.467C131.588 100.467 131.916 100.517 132.208 100.617C132.5 100.713 132.748 100.868 132.953 101.082C133.163 101.296 133.322 101.574 133.432 101.916C133.541 102.253 133.596 102.666 133.596 103.153V108H132.324V103.14C132.324 102.752 132.267 102.442 132.153 102.21C132.039 101.973 131.873 101.802 131.654 101.697C131.436 101.588 131.167 101.533 130.848 101.533C130.533 101.533 130.246 101.599 129.986 101.731C129.731 101.864 129.51 102.046 129.323 102.278C129.141 102.511 128.997 102.777 128.893 103.078C128.792 103.374 128.742 103.689 128.742 104.021ZM140.559 100.604H141.707V107.843C141.707 108.494 141.575 109.05 141.311 109.511C141.046 109.971 140.677 110.32 140.203 110.557C139.734 110.798 139.191 110.919 138.576 110.919C138.321 110.919 138.02 110.878 137.674 110.796C137.332 110.718 136.995 110.584 136.662 110.393C136.334 110.206 136.058 109.953 135.835 109.634L136.498 108.882C136.808 109.256 137.132 109.515 137.469 109.661C137.811 109.807 138.148 109.88 138.48 109.88C138.882 109.88 139.228 109.805 139.52 109.654C139.811 109.504 140.037 109.281 140.196 108.984C140.36 108.693 140.442 108.333 140.442 107.904V102.23L140.559 100.604ZM135.466 104.384V104.24C135.466 103.675 135.532 103.162 135.664 102.702C135.801 102.237 135.994 101.839 136.245 101.506C136.5 101.173 136.808 100.918 137.168 100.74C137.528 100.558 137.934 100.467 138.385 100.467C138.85 100.467 139.255 100.549 139.602 100.713C139.952 100.872 140.249 101.107 140.49 101.417C140.736 101.722 140.93 102.091 141.071 102.524C141.213 102.957 141.311 103.447 141.365 103.994V104.623C141.315 105.165 141.217 105.653 141.071 106.086C140.93 106.519 140.736 106.888 140.49 107.193C140.249 107.499 139.952 107.733 139.602 107.897C139.251 108.057 138.84 108.137 138.371 108.137C137.929 108.137 137.528 108.043 137.168 107.856C136.812 107.67 136.507 107.408 136.252 107.07C135.997 106.733 135.801 106.337 135.664 105.881C135.532 105.421 135.466 104.922 135.466 104.384ZM136.73 104.24V104.384C136.73 104.753 136.767 105.099 136.84 105.423C136.917 105.746 137.034 106.031 137.188 106.277C137.348 106.523 137.551 106.717 137.797 106.858C138.043 106.995 138.337 107.063 138.679 107.063C139.098 107.063 139.444 106.975 139.718 106.797C139.991 106.619 140.208 106.384 140.367 106.093C140.531 105.801 140.659 105.484 140.75 105.143V103.495C140.7 103.244 140.622 103.003 140.518 102.771C140.417 102.534 140.285 102.324 140.121 102.142C139.962 101.955 139.763 101.807 139.526 101.697C139.289 101.588 139.011 101.533 138.692 101.533C138.346 101.533 138.048 101.606 137.797 101.752C137.551 101.893 137.348 102.089 137.188 102.34C137.034 102.586 136.917 102.873 136.84 103.201C136.767 103.525 136.73 103.871 136.73 104.24ZM148.975 97.5V108H147.703V97.5H148.975ZM152.629 100.604V108H151.357V100.604H152.629ZM151.262 98.6416C151.262 98.4365 151.323 98.2633 151.446 98.1221C151.574 97.9808 151.761 97.9102 152.007 97.9102C152.248 97.9102 152.433 97.9808 152.561 98.1221C152.693 98.2633 152.759 98.4365 152.759 98.6416C152.759 98.8376 152.693 99.0062 152.561 99.1475C152.433 99.2842 152.248 99.3525 152.007 99.3525C151.761 99.3525 151.574 99.2842 151.446 99.1475C151.323 99.0062 151.262 98.8376 151.262 98.6416ZM156.174 102.183V108H154.909V100.604H156.105L156.174 102.183ZM155.873 104.021L155.347 104.001C155.351 103.495 155.426 103.028 155.572 102.6C155.718 102.167 155.923 101.791 156.188 101.472C156.452 101.153 156.766 100.907 157.131 100.733C157.5 100.556 157.908 100.467 158.354 100.467C158.719 100.467 159.047 100.517 159.339 100.617C159.631 100.713 159.879 100.868 160.084 101.082C160.294 101.296 160.453 101.574 160.562 101.916C160.672 102.253 160.727 102.666 160.727 103.153V108H159.455V103.14C159.455 102.752 159.398 102.442 159.284 102.21C159.17 101.973 159.004 101.802 158.785 101.697C158.566 101.588 158.298 101.533 157.979 101.533C157.664 101.533 157.377 101.599 157.117 101.731C156.862 101.864 156.641 102.046 156.454 102.278C156.272 102.511 156.128 102.777 156.023 103.078C155.923 103.374 155.873 103.689 155.873 104.021ZM165.967 108.137C165.452 108.137 164.985 108.05 164.565 107.877C164.151 107.699 163.793 107.451 163.492 107.132C163.196 106.813 162.968 106.435 162.809 105.997C162.649 105.56 162.569 105.081 162.569 104.562V104.274C162.569 103.673 162.658 103.137 162.836 102.668C163.014 102.194 163.255 101.793 163.561 101.465C163.866 101.137 164.212 100.888 164.6 100.72C164.987 100.551 165.388 100.467 165.803 100.467C166.331 100.467 166.787 100.558 167.17 100.74C167.557 100.923 167.874 101.178 168.12 101.506C168.366 101.829 168.549 102.212 168.667 102.654C168.785 103.092 168.845 103.57 168.845 104.09V104.657H163.321V103.625H167.58V103.529C167.562 103.201 167.493 102.882 167.375 102.572C167.261 102.262 167.079 102.007 166.828 101.807C166.577 101.606 166.236 101.506 165.803 101.506C165.516 101.506 165.251 101.567 165.01 101.69C164.768 101.809 164.561 101.987 164.388 102.224C164.215 102.461 164.08 102.75 163.984 103.092C163.889 103.434 163.841 103.828 163.841 104.274V104.562C163.841 104.912 163.889 105.243 163.984 105.553C164.085 105.858 164.228 106.127 164.415 106.359C164.606 106.592 164.837 106.774 165.105 106.906C165.379 107.038 165.689 107.104 166.035 107.104C166.482 107.104 166.86 107.013 167.17 106.831C167.48 106.649 167.751 106.405 167.983 106.1L168.749 106.708C168.59 106.95 168.387 107.18 168.141 107.398C167.895 107.617 167.591 107.795 167.231 107.932C166.876 108.068 166.454 108.137 165.967 108.137ZM177.391 100.604V101.574H173.392V100.604H177.391ZM174.745 98.8057H176.01V106.168C176.01 106.419 176.049 106.608 176.126 106.735C176.203 106.863 176.304 106.947 176.427 106.988C176.55 107.029 176.682 107.05 176.823 107.05C176.928 107.05 177.037 107.041 177.151 107.022C177.27 107 177.359 106.981 177.418 106.968L177.425 108C177.325 108.032 177.192 108.062 177.028 108.089C176.869 108.121 176.675 108.137 176.447 108.137C176.137 108.137 175.853 108.075 175.593 107.952C175.333 107.829 175.126 107.624 174.971 107.337C174.82 107.045 174.745 106.653 174.745 106.161V98.8057ZM182.193 108.137C181.678 108.137 181.211 108.05 180.792 107.877C180.377 107.699 180.02 107.451 179.719 107.132C179.423 106.813 179.195 106.435 179.035 105.997C178.876 105.56 178.796 105.081 178.796 104.562V104.274C178.796 103.673 178.885 103.137 179.062 102.668C179.24 102.194 179.482 101.793 179.787 101.465C180.092 101.137 180.439 100.888 180.826 100.72C181.214 100.551 181.615 100.467 182.029 100.467C182.558 100.467 183.014 100.558 183.396 100.74C183.784 100.923 184.101 101.178 184.347 101.506C184.593 101.829 184.775 102.212 184.894 102.654C185.012 103.092 185.071 103.57 185.071 104.09V104.657H179.548V103.625H183.807V103.529C183.788 103.201 183.72 102.882 183.602 102.572C183.488 102.262 183.305 102.007 183.055 101.807C182.804 101.606 182.462 101.506 182.029 101.506C181.742 101.506 181.478 101.567 181.236 101.69C180.995 101.809 180.787 101.987 180.614 102.224C180.441 102.461 180.307 102.75 180.211 103.092C180.115 103.434 180.067 103.828 180.067 104.274V104.562C180.067 104.912 180.115 105.243 180.211 105.553C180.311 105.858 180.455 106.127 180.642 106.359C180.833 106.592 181.063 106.774 181.332 106.906C181.605 107.038 181.915 107.104 182.262 107.104C182.708 107.104 183.087 107.013 183.396 106.831C183.706 106.649 183.978 106.405 184.21 106.1L184.976 106.708C184.816 106.95 184.613 107.18 184.367 107.398C184.121 107.617 183.818 107.795 183.458 107.932C183.103 108.068 182.681 108.137 182.193 108.137ZM187.652 100.604L189.272 103.297L190.913 100.604H192.396L189.977 104.254L192.472 108H191.009L189.3 105.225L187.591 108H186.121L188.609 104.254L186.196 100.604H187.652ZM197.09 100.604V101.574H193.091V100.604H197.09ZM194.444 98.8057H195.709V106.168C195.709 106.419 195.748 106.608 195.825 106.735C195.903 106.863 196.003 106.947 196.126 106.988C196.249 107.029 196.381 107.05 196.522 107.05C196.627 107.05 196.737 107.041 196.851 107.022C196.969 107 197.058 106.981 197.117 106.968L197.124 108C197.024 108.032 196.892 108.062 196.728 108.089C196.568 108.121 196.374 108.137 196.146 108.137C195.837 108.137 195.552 108.075 195.292 107.952C195.032 107.829 194.825 107.624 194.67 107.337C194.52 107.045 194.444 106.653 194.444 106.161V98.8057ZM203.92 97.5V108H202.648V97.5H203.92ZM205.865 104.384V104.227C205.865 103.693 205.943 103.199 206.098 102.743C206.253 102.283 206.476 101.884 206.768 101.547C207.059 101.205 207.412 100.941 207.827 100.754C208.242 100.562 208.707 100.467 209.222 100.467C209.741 100.467 210.208 100.562 210.623 100.754C211.042 100.941 211.398 101.205 211.689 101.547C211.986 101.884 212.211 102.283 212.366 102.743C212.521 103.199 212.599 103.693 212.599 104.227V104.384C212.599 104.917 212.521 105.411 212.366 105.867C212.211 106.323 211.986 106.722 211.689 107.063C211.398 107.401 211.045 107.665 210.63 107.856C210.22 108.043 209.755 108.137 209.235 108.137C208.716 108.137 208.249 108.043 207.834 107.856C207.419 107.665 207.064 107.401 206.768 107.063C206.476 106.722 206.253 106.323 206.098 105.867C205.943 105.411 205.865 104.917 205.865 104.384ZM207.13 104.227V104.384C207.13 104.753 207.173 105.102 207.26 105.43C207.346 105.753 207.476 106.04 207.649 106.291C207.827 106.542 208.048 106.74 208.312 106.886C208.577 107.027 208.884 107.098 209.235 107.098C209.582 107.098 209.885 107.027 210.145 106.886C210.409 106.74 210.628 106.542 210.801 106.291C210.974 106.04 211.104 105.753 211.19 105.43C211.282 105.102 211.327 104.753 211.327 104.384V104.227C211.327 103.862 211.282 103.518 211.19 103.194C211.104 102.866 210.972 102.577 210.794 102.326C210.621 102.071 210.402 101.87 210.138 101.725C209.878 101.579 209.573 101.506 209.222 101.506C208.875 101.506 208.57 101.579 208.306 101.725C208.046 101.87 207.827 102.071 207.649 102.326C207.476 102.577 207.346 102.866 207.26 103.194C207.173 103.518 207.13 103.862 207.13 104.227ZM215.699 101.766V108H214.435V100.604H215.665L215.699 101.766ZM218.01 100.562L218.003 101.738C217.898 101.715 217.798 101.702 217.702 101.697C217.611 101.688 217.506 101.684 217.388 101.684C217.096 101.684 216.839 101.729 216.615 101.82C216.392 101.911 216.203 102.039 216.048 102.203C215.893 102.367 215.77 102.563 215.679 102.791C215.592 103.014 215.535 103.26 215.508 103.529L215.152 103.734C215.152 103.288 215.196 102.868 215.282 102.477C215.373 102.085 215.512 101.738 215.699 101.438C215.886 101.132 216.123 100.895 216.41 100.727C216.702 100.553 217.048 100.467 217.449 100.467C217.54 100.467 217.645 100.478 217.764 100.501C217.882 100.519 217.964 100.54 218.01 100.562ZM222.361 108.137C221.846 108.137 221.379 108.05 220.96 107.877C220.545 107.699 220.188 107.451 219.887 107.132C219.59 106.813 219.363 106.435 219.203 105.997C219.044 105.56 218.964 105.081 218.964 104.562V104.274C218.964 103.673 219.053 103.137 219.23 102.668C219.408 102.194 219.65 101.793 219.955 101.465C220.26 101.137 220.607 100.888 220.994 100.72C221.382 100.551 221.783 100.467 222.197 100.467C222.726 100.467 223.182 100.558 223.564 100.74C223.952 100.923 224.269 101.178 224.515 101.506C224.761 101.829 224.943 102.212 225.062 102.654C225.18 103.092 225.239 103.57 225.239 104.09V104.657H219.716V103.625H223.975V103.529C223.956 103.201 223.888 102.882 223.77 102.572C223.656 102.262 223.473 102.007 223.223 101.807C222.972 101.606 222.63 101.506 222.197 101.506C221.91 101.506 221.646 101.567 221.404 101.69C221.163 101.809 220.955 101.987 220.782 102.224C220.609 102.461 220.475 102.75 220.379 103.092C220.283 103.434 220.235 103.828 220.235 104.274V104.562C220.235 104.912 220.283 105.243 220.379 105.553C220.479 105.858 220.623 106.127 220.81 106.359C221.001 106.592 221.231 106.774 221.5 106.906C221.773 107.038 222.083 107.104 222.43 107.104C222.876 107.104 223.255 107.013 223.564 106.831C223.874 106.649 224.146 106.405 224.378 106.1L225.144 106.708C224.984 106.95 224.781 107.18 224.535 107.398C224.289 107.617 223.986 107.795 223.626 107.932C223.271 108.068 222.849 108.137 222.361 108.137ZM228.224 102.073V108H226.952V100.604H228.155L228.224 102.073ZM227.964 104.021L227.376 104.001C227.381 103.495 227.447 103.028 227.574 102.6C227.702 102.167 227.891 101.791 228.142 101.472C228.392 101.153 228.704 100.907 229.078 100.733C229.452 100.556 229.885 100.467 230.377 100.467C230.723 100.467 231.042 100.517 231.334 100.617C231.626 100.713 231.879 100.866 232.093 101.075C232.307 101.285 232.473 101.554 232.592 101.882C232.71 102.21 232.77 102.606 232.77 103.071V108H231.505V103.133C231.505 102.745 231.439 102.436 231.307 102.203C231.179 101.971 230.997 101.802 230.76 101.697C230.523 101.588 230.245 101.533 229.926 101.533C229.552 101.533 229.24 101.599 228.989 101.731C228.739 101.864 228.538 102.046 228.388 102.278C228.237 102.511 228.128 102.777 228.06 103.078C227.996 103.374 227.964 103.689 227.964 104.021ZM232.756 103.324L231.908 103.584C231.913 103.178 231.979 102.789 232.106 102.415C232.239 102.041 232.428 101.709 232.674 101.417C232.924 101.125 233.232 100.895 233.597 100.727C233.961 100.553 234.378 100.467 234.848 100.467C235.244 100.467 235.595 100.519 235.9 100.624C236.21 100.729 236.47 100.891 236.68 101.109C236.894 101.324 237.056 101.599 237.165 101.937C237.274 102.274 237.329 102.675 237.329 103.14V108H236.058V103.126C236.058 102.711 235.992 102.39 235.859 102.162C235.732 101.93 235.549 101.768 235.312 101.677C235.08 101.581 234.802 101.533 234.479 101.533C234.201 101.533 233.954 101.581 233.74 101.677C233.526 101.772 233.346 101.905 233.2 102.073C233.054 102.237 232.943 102.426 232.865 102.641C232.792 102.855 232.756 103.083 232.756 103.324ZM244.59 100.604V108H243.318V100.604H244.59ZM243.223 98.6416C243.223 98.4365 243.284 98.2633 243.407 98.1221C243.535 97.9808 243.722 97.9102 243.968 97.9102C244.209 97.9102 244.394 97.9808 244.521 98.1221C244.654 98.2633 244.72 98.4365 244.72 98.6416C244.72 98.8376 244.654 99.0062 244.521 99.1475C244.394 99.2842 244.209 99.3525 243.968 99.3525C243.722 99.3525 243.535 99.2842 243.407 99.1475C243.284 99.0062 243.223 98.8376 243.223 98.6416ZM248.135 102.025V110.844H246.863V100.604H248.025L248.135 102.025ZM253.118 104.24V104.384C253.118 104.922 253.054 105.421 252.927 105.881C252.799 106.337 252.612 106.733 252.366 107.07C252.125 107.408 251.826 107.67 251.471 107.856C251.115 108.043 250.707 108.137 250.247 108.137C249.778 108.137 249.363 108.059 249.003 107.904C248.643 107.749 248.338 107.524 248.087 107.228C247.836 106.931 247.636 106.576 247.485 106.161C247.34 105.746 247.239 105.279 247.185 104.76V103.994C247.239 103.447 247.342 102.957 247.492 102.524C247.643 102.091 247.841 101.722 248.087 101.417C248.338 101.107 248.641 100.872 248.996 100.713C249.352 100.549 249.762 100.467 250.227 100.467C250.691 100.467 251.104 100.558 251.464 100.74C251.824 100.918 252.127 101.173 252.373 101.506C252.619 101.839 252.804 102.237 252.927 102.702C253.054 103.162 253.118 103.675 253.118 104.24ZM251.847 104.384V104.24C251.847 103.871 251.808 103.525 251.73 103.201C251.653 102.873 251.532 102.586 251.368 102.34C251.209 102.089 251.004 101.893 250.753 101.752C250.502 101.606 250.204 101.533 249.857 101.533C249.538 101.533 249.26 101.588 249.023 101.697C248.791 101.807 248.593 101.955 248.429 102.142C248.265 102.324 248.13 102.534 248.025 102.771C247.925 103.003 247.85 103.244 247.8 103.495V105.266C247.891 105.585 248.019 105.885 248.183 106.168C248.347 106.446 248.565 106.672 248.839 106.845C249.112 107.013 249.456 107.098 249.871 107.098C250.213 107.098 250.507 107.027 250.753 106.886C251.004 106.74 251.209 106.542 251.368 106.291C251.532 106.04 251.653 105.753 251.73 105.43C251.808 105.102 251.847 104.753 251.847 104.384ZM259.288 106.038C259.288 105.856 259.247 105.687 259.165 105.532C259.088 105.373 258.926 105.229 258.68 105.102C258.438 104.969 258.074 104.855 257.586 104.76C257.176 104.673 256.804 104.571 256.472 104.452C256.144 104.334 255.863 104.19 255.631 104.021C255.403 103.853 255.228 103.655 255.104 103.427C254.981 103.199 254.92 102.932 254.92 102.627C254.92 102.335 254.984 102.06 255.111 101.8C255.243 101.54 255.428 101.31 255.665 101.109C255.907 100.909 256.196 100.752 256.533 100.638C256.87 100.524 257.246 100.467 257.661 100.467C258.254 100.467 258.759 100.572 259.179 100.781C259.598 100.991 259.919 101.271 260.143 101.622C260.366 101.968 260.478 102.354 260.478 102.777H259.213C259.213 102.572 259.151 102.374 259.028 102.183C258.91 101.987 258.734 101.825 258.502 101.697C258.274 101.57 257.994 101.506 257.661 101.506C257.31 101.506 257.025 101.561 256.807 101.67C256.592 101.775 256.435 101.909 256.335 102.073C256.239 102.237 256.191 102.41 256.191 102.593C256.191 102.729 256.214 102.853 256.26 102.962C256.31 103.067 256.396 103.165 256.52 103.256C256.643 103.342 256.816 103.424 257.039 103.502C257.262 103.579 257.547 103.657 257.894 103.734C258.5 103.871 258.999 104.035 259.391 104.227C259.783 104.418 260.074 104.653 260.266 104.931C260.457 105.209 260.553 105.546 260.553 105.942C260.553 106.266 260.484 106.562 260.348 106.831C260.215 107.1 260.022 107.332 259.767 107.528C259.516 107.72 259.215 107.87 258.864 107.979C258.518 108.084 258.128 108.137 257.695 108.137C257.044 108.137 256.492 108.021 256.041 107.788C255.59 107.556 255.248 107.255 255.016 106.886C254.783 106.517 254.667 106.127 254.667 105.717H255.938C255.957 106.063 256.057 106.339 256.239 106.544C256.422 106.744 256.645 106.888 256.909 106.975C257.174 107.057 257.436 107.098 257.695 107.098C258.042 107.098 258.331 107.052 258.563 106.961C258.8 106.87 258.98 106.744 259.104 106.585C259.227 106.425 259.288 106.243 259.288 106.038ZM266.989 106.291V100.604H268.261V108H267.051L266.989 106.291ZM267.229 104.732L267.755 104.719C267.755 105.211 267.702 105.667 267.598 106.086C267.497 106.501 267.333 106.861 267.105 107.166C266.878 107.471 266.579 107.711 266.21 107.884C265.841 108.052 265.392 108.137 264.863 108.137C264.503 108.137 264.173 108.084 263.872 107.979C263.576 107.875 263.321 107.713 263.106 107.494C262.892 107.275 262.726 106.991 262.607 106.64C262.493 106.289 262.437 105.867 262.437 105.375V100.604H263.701V105.389C263.701 105.721 263.738 105.997 263.811 106.216C263.888 106.43 263.991 106.601 264.118 106.729C264.25 106.852 264.396 106.938 264.556 106.988C264.72 107.038 264.888 107.063 265.062 107.063C265.599 107.063 266.025 106.961 266.34 106.756C266.654 106.546 266.88 106.266 267.017 105.915C267.158 105.56 267.229 105.165 267.229 104.732ZM271.696 102.073V108H270.425V100.604H271.628L271.696 102.073ZM271.437 104.021L270.849 104.001C270.853 103.495 270.919 103.028 271.047 102.6C271.174 102.167 271.364 101.791 271.614 101.472C271.865 101.153 272.177 100.907 272.551 100.733C272.924 100.556 273.357 100.467 273.85 100.467C274.196 100.467 274.515 100.517 274.807 100.617C275.098 100.713 275.351 100.866 275.565 101.075C275.78 101.285 275.946 101.554 276.064 101.882C276.183 102.21 276.242 102.606 276.242 103.071V108H274.978V103.133C274.978 102.745 274.911 102.436 274.779 102.203C274.652 101.971 274.469 101.802 274.232 101.697C273.995 101.588 273.717 101.533 273.398 101.533C273.025 101.533 272.713 101.599 272.462 101.731C272.211 101.864 272.011 102.046 271.86 102.278C271.71 102.511 271.601 102.777 271.532 103.078C271.468 103.374 271.437 103.689 271.437 104.021ZM276.229 103.324L275.381 103.584C275.385 103.178 275.451 102.789 275.579 102.415C275.711 102.041 275.9 101.709 276.146 101.417C276.397 101.125 276.705 100.895 277.069 100.727C277.434 100.553 277.851 100.467 278.32 100.467C278.717 100.467 279.068 100.519 279.373 100.624C279.683 100.729 279.943 100.891 280.152 101.109C280.367 101.324 280.528 101.599 280.638 101.937C280.747 102.274 280.802 102.675 280.802 103.14V108H279.53V103.126C279.53 102.711 279.464 102.39 279.332 102.162C279.204 101.93 279.022 101.768 278.785 101.677C278.553 101.581 278.275 101.533 277.951 101.533C277.673 101.533 277.427 101.581 277.213 101.677C276.999 101.772 276.819 101.905 276.673 102.073C276.527 102.237 276.415 102.426 276.338 102.641C276.265 102.855 276.229 103.083 276.229 103.324Z" fill="#49454F"/>
</g>
<defs>
<clipPath id="clip0_52977_33986">
<rect x="8" y="8" width="40" height="40" rx="20" fill="white"/>
</clipPath>
<clipPath id="clip1_52977_33986">
<rect x="280" y="8" width="40" height="40" rx="20" fill="white"/>
</clipPath>
<clipPath id="clip2_52977_33986">
<rect width="328" height="72" fill="white" transform="translate(0 57)"/>
</clipPath>
<clipPath id="clip3_52977_33986">
<rect width="40" height="40" fill="white" transform="translate(16 73)"/>
</clipPath>
<clipPath id="clip4_52977_33986">
<rect x="16" y="73" width="40" height="40" rx="20" fill="white"/>
</clipPath>
</defs>
</svg>
