<svg width="328" height="56" viewBox="0 0 328 56" fill="none" xmlns="http://www.w3.org/2000/svg">
<g clip-path="url(#clip0_52977_33948)">
<rect width="328" height="56" rx="28" fill="#FFFBFE"/>
<rect width="328" height="56" rx="28" fill="#6750A4" fill-opacity="0.11"/>
<g clip-path="url(#clip1_52977_33948)">
<path fill-rule="evenodd" clip-rule="evenodd" d="M19 24V22H37V24H19ZM19 29H37V27H19V29ZM19 34H37V32H19V34Z" fill="#49454F"/>
</g>
<path d="M64.75 26.5156V27.7422H58.5938V26.5156H64.75ZM58.8281 21.625V33H57.3203V21.625H58.8281ZM66.0625 21.625V33H64.5625V21.625H66.0625ZM70.5938 24.5469V33H69.1406V24.5469H70.5938ZM69.0312 22.3047C69.0312 22.0703 69.1016 21.8724 69.2422 21.7109C69.388 21.5495 69.6016 21.4688 69.8828 21.4688C70.1589 21.4688 70.3698 21.5495 70.5156 21.7109C70.6667 21.8724 70.7422 22.0703 70.7422 22.3047C70.7422 22.5286 70.6667 22.7214 70.5156 22.8828C70.3698 23.0391 70.1589 23.1172 69.8828 23.1172C69.6016 23.1172 69.388 23.0391 69.2422 22.8828C69.1016 22.7214 69.0312 22.5286 69.0312 22.3047ZM74.8594 26.3516V33H73.4141V24.5469H74.7812L74.8594 26.3516ZM74.5156 28.4531L73.9141 28.4297C73.9193 27.8516 74.0052 27.3177 74.1719 26.8281C74.3385 26.3333 74.5729 25.9036 74.875 25.5391C75.1771 25.1745 75.5365 24.8932 75.9531 24.6953C76.375 24.4922 76.8411 24.3906 77.3516 24.3906C77.7682 24.3906 78.1432 24.4479 78.4766 24.5625C78.8099 24.6719 79.0938 24.849 79.3281 25.0938C79.5677 25.3385 79.75 25.6562 79.875 26.0469C80 26.4323 80.0625 26.9036 80.0625 27.4609V33H78.6094V27.4453C78.6094 27.0026 78.5443 26.6484 78.4141 26.3828C78.2839 26.112 78.0938 25.9167 77.8438 25.7969C77.5938 25.6719 77.2865 25.6094 76.9219 25.6094C76.5625 25.6094 76.2344 25.6849 75.9375 25.8359C75.6458 25.987 75.3932 26.1953 75.1797 26.4609C74.9714 26.7266 74.8073 27.0312 74.6875 27.375C74.5729 27.7135 74.5156 28.0729 74.5156 28.4531ZM86.2969 24.5469V25.6562H81.7266V24.5469H86.2969ZM83.2734 22.4922H84.7188V30.9062C84.7188 31.1927 84.763 31.4089 84.8516 31.5547C84.9401 31.7005 85.0547 31.7969 85.1953 31.8438C85.3359 31.8906 85.487 31.9141 85.6484 31.9141C85.7682 31.9141 85.8932 31.9036 86.0234 31.8828C86.1589 31.8568 86.2604 31.8359 86.3281 31.8203L86.3359 33C86.2214 33.0365 86.0703 33.0703 85.8828 33.1016C85.7005 33.138 85.4792 33.1562 85.2188 33.1562C84.8646 33.1562 84.5391 33.0859 84.2422 32.9453C83.9453 32.8047 83.7083 32.5703 83.5312 32.2422C83.3594 31.9089 83.2734 31.4609 83.2734 30.8984V22.4922ZM92 33.1562C91.4115 33.1562 90.8776 33.0573 90.3984 32.8594C89.9245 32.6562 89.5156 32.3724 89.1719 32.0078C88.8333 31.6432 88.5729 31.2109 88.3906 30.7109C88.2083 30.2109 88.1172 29.6641 88.1172 29.0703V28.7422C88.1172 28.0547 88.2188 27.4427 88.4219 26.9062C88.625 26.3646 88.901 25.9062 89.25 25.5312C89.599 25.1562 89.9948 24.8724 90.4375 24.6797C90.8802 24.487 91.3385 24.3906 91.8125 24.3906C92.4167 24.3906 92.9375 24.4948 93.375 24.7031C93.8177 24.9115 94.1797 25.2031 94.4609 25.5781C94.7422 25.9479 94.9505 26.3854 95.0859 26.8906C95.2214 27.3906 95.2891 27.9375 95.2891 28.5312V29.1797H88.9766V28H93.8438V27.8906C93.8229 27.5156 93.7448 27.151 93.6094 26.7969C93.4792 26.4427 93.2708 26.151 92.9844 25.9219C92.6979 25.6927 92.3073 25.5781 91.8125 25.5781C91.4844 25.5781 91.1823 25.6484 90.9062 25.7891C90.6302 25.9245 90.3932 26.1276 90.1953 26.3984C89.9974 26.6693 89.8438 27 89.7344 27.3906C89.625 27.7812 89.5703 28.2318 89.5703 28.7422V29.0703C89.5703 29.4714 89.625 29.849 89.7344 30.2031C89.849 30.5521 90.013 30.8594 90.2266 31.125C90.4453 31.3906 90.7083 31.599 91.0156 31.75C91.3281 31.901 91.6823 31.9766 92.0781 31.9766C92.5885 31.9766 93.0208 31.8724 93.375 31.6641C93.7292 31.4557 94.0391 31.1771 94.3047 30.8281L95.1797 31.5234C94.9974 31.7995 94.7656 32.0625 94.4844 32.3125C94.2031 32.5625 93.8568 32.7656 93.4453 32.9219C93.0391 33.0781 92.5573 33.1562 92 33.1562ZM102.805 31.3594V21H104.258V33H102.93L102.805 31.3594ZM97.1172 28.8672V28.7031C97.1172 28.0573 97.1953 27.4714 97.3516 26.9453C97.513 26.4141 97.7396 25.9583 98.0312 25.5781C98.3281 25.1979 98.6797 24.9062 99.0859 24.7031C99.4974 24.4948 99.9557 24.3906 100.461 24.3906C100.992 24.3906 101.456 24.4844 101.852 24.6719C102.253 24.8542 102.591 25.1224 102.867 25.4766C103.148 25.8255 103.37 26.2474 103.531 26.7422C103.693 27.237 103.805 27.7969 103.867 28.4219V29.1406C103.81 29.7604 103.698 30.3177 103.531 30.8125C103.37 31.3073 103.148 31.7292 102.867 32.0781C102.591 32.4271 102.253 32.6953 101.852 32.8828C101.451 33.0651 100.982 33.1562 100.445 33.1562C99.9505 33.1562 99.4974 33.0495 99.0859 32.8359C98.6797 32.6224 98.3281 32.3229 98.0312 31.9375C97.7396 31.5521 97.513 31.099 97.3516 30.5781C97.1953 30.0521 97.1172 29.4818 97.1172 28.8672ZM98.5703 28.7031V28.8672C98.5703 29.2891 98.612 29.6849 98.6953 30.0547C98.7839 30.4245 98.9193 30.75 99.1016 31.0312C99.2839 31.3125 99.5156 31.5339 99.7969 31.6953C100.078 31.8516 100.414 31.9297 100.805 31.9297C101.284 31.9297 101.677 31.8281 101.984 31.625C102.297 31.4219 102.547 31.1536 102.734 30.8203C102.922 30.487 103.068 30.125 103.172 29.7344V27.8516C103.109 27.5651 103.018 27.2891 102.898 27.0234C102.784 26.7526 102.633 26.513 102.445 26.3047C102.263 26.0911 102.036 25.9219 101.766 25.7969C101.5 25.6719 101.185 25.6094 100.82 25.6094C100.424 25.6094 100.083 25.6927 99.7969 25.8594C99.5156 26.0208 99.2839 26.2448 99.1016 26.5312C98.9193 26.8125 98.7839 27.1406 98.6953 27.5156C98.612 27.8854 98.5703 28.2812 98.5703 28.7031ZM116.398 30.7578C116.398 30.5495 116.352 30.3568 116.258 30.1797C116.169 29.9974 115.984 29.8333 115.703 29.6875C115.427 29.5365 115.01 29.4062 114.453 29.2969C113.984 29.1979 113.56 29.0807 113.18 28.9453C112.805 28.8099 112.484 28.6458 112.219 28.4531C111.958 28.2604 111.758 28.0339 111.617 27.7734C111.477 27.513 111.406 27.2083 111.406 26.8594C111.406 26.526 111.479 26.2109 111.625 25.9141C111.776 25.6172 111.987 25.3542 112.258 25.125C112.534 24.8958 112.865 24.7161 113.25 24.5859C113.635 24.4557 114.065 24.3906 114.539 24.3906C115.216 24.3906 115.794 24.5104 116.273 24.75C116.753 24.9896 117.12 25.3099 117.375 25.7109C117.63 26.1068 117.758 26.5469 117.758 27.0312H116.312C116.312 26.7969 116.242 26.5703 116.102 26.3516C115.966 26.1276 115.766 25.9427 115.5 25.7969C115.24 25.651 114.919 25.5781 114.539 25.5781C114.138 25.5781 113.812 25.6406 113.562 25.7656C113.318 25.8854 113.138 26.0391 113.023 26.2266C112.914 26.4141 112.859 26.612 112.859 26.8203C112.859 26.9766 112.885 27.1172 112.938 27.2422C112.995 27.362 113.094 27.474 113.234 27.5781C113.375 27.6771 113.573 27.7708 113.828 27.8594C114.083 27.9479 114.409 28.0365 114.805 28.125C115.497 28.2812 116.068 28.4688 116.516 28.6875C116.964 28.9062 117.297 29.1745 117.516 29.4922C117.734 29.8099 117.844 30.1953 117.844 30.6484C117.844 31.0182 117.766 31.3568 117.609 31.6641C117.458 31.9714 117.237 32.237 116.945 32.4609C116.659 32.6797 116.315 32.8516 115.914 32.9766C115.518 33.0964 115.073 33.1562 114.578 33.1562C113.833 33.1562 113.203 33.0234 112.688 32.7578C112.172 32.4922 111.781 32.1484 111.516 31.7266C111.25 31.3047 111.117 30.8594 111.117 30.3906H112.57C112.591 30.7865 112.706 31.1016 112.914 31.3359C113.122 31.5651 113.378 31.7292 113.68 31.8281C113.982 31.9219 114.281 31.9688 114.578 31.9688C114.974 31.9688 115.305 31.9167 115.57 31.8125C115.841 31.7083 116.047 31.5651 116.188 31.3828C116.328 31.2005 116.398 30.9922 116.398 30.7578ZM123.75 33.1562C123.161 33.1562 122.628 33.0573 122.148 32.8594C121.674 32.6562 121.266 32.3724 120.922 32.0078C120.583 31.6432 120.323 31.2109 120.141 30.7109C119.958 30.2109 119.867 29.6641 119.867 29.0703V28.7422C119.867 28.0547 119.969 27.4427 120.172 26.9062C120.375 26.3646 120.651 25.9062 121 25.5312C121.349 25.1562 121.745 24.8724 122.188 24.6797C122.63 24.487 123.089 24.3906 123.562 24.3906C124.167 24.3906 124.688 24.4948 125.125 24.7031C125.568 24.9115 125.93 25.2031 126.211 25.5781C126.492 25.9479 126.701 26.3854 126.836 26.8906C126.971 27.3906 127.039 27.9375 127.039 28.5312V29.1797H120.727V28H125.594V27.8906C125.573 27.5156 125.495 27.151 125.359 26.7969C125.229 26.4427 125.021 26.151 124.734 25.9219C124.448 25.6927 124.057 25.5781 123.562 25.5781C123.234 25.5781 122.932 25.6484 122.656 25.7891C122.38 25.9245 122.143 26.1276 121.945 26.3984C121.747 26.6693 121.594 27 121.484 27.3906C121.375 27.7812 121.32 28.2318 121.32 28.7422V29.0703C121.32 29.4714 121.375 29.849 121.484 30.2031C121.599 30.5521 121.763 30.8594 121.977 31.125C122.195 31.3906 122.458 31.599 122.766 31.75C123.078 31.901 123.432 31.9766 123.828 31.9766C124.339 31.9766 124.771 31.8724 125.125 31.6641C125.479 31.4557 125.789 31.1771 126.055 30.8281L126.93 31.5234C126.747 31.7995 126.516 32.0625 126.234 32.3125C125.953 32.5625 125.607 32.7656 125.195 32.9219C124.789 33.0781 124.307 33.1562 123.75 33.1562ZM134.211 31.5547V27.2031C134.211 26.8698 134.143 26.5807 134.008 26.3359C133.878 26.0859 133.68 25.8932 133.414 25.7578C133.148 25.6224 132.82 25.5547 132.43 25.5547C132.065 25.5547 131.745 25.6172 131.469 25.7422C131.198 25.8672 130.984 26.0312 130.828 26.2344C130.677 26.4375 130.602 26.6562 130.602 26.8906H129.156C129.156 26.5885 129.234 26.2891 129.391 25.9922C129.547 25.6953 129.771 25.4271 130.062 25.1875C130.359 24.9427 130.714 24.75 131.125 24.6094C131.542 24.4635 132.005 24.3906 132.516 24.3906C133.13 24.3906 133.672 24.4948 134.141 24.7031C134.615 24.9115 134.984 25.2266 135.25 25.6484C135.521 26.0651 135.656 26.5885 135.656 27.2188V31.1562C135.656 31.4375 135.68 31.737 135.727 32.0547C135.779 32.3724 135.854 32.6458 135.953 32.875V33H134.445C134.372 32.8333 134.315 32.612 134.273 32.3359C134.232 32.0547 134.211 31.7943 134.211 31.5547ZM134.461 27.875L134.477 28.8906H133.016C132.604 28.8906 132.237 28.9245 131.914 28.9922C131.591 29.0547 131.32 29.151 131.102 29.2812C130.883 29.4115 130.716 29.5755 130.602 29.7734C130.487 29.9661 130.43 30.1927 130.43 30.4531C130.43 30.7188 130.49 30.9609 130.609 31.1797C130.729 31.3984 130.909 31.5729 131.148 31.7031C131.393 31.8281 131.693 31.8906 132.047 31.8906C132.49 31.8906 132.88 31.7969 133.219 31.6094C133.557 31.4219 133.826 31.1927 134.023 30.9219C134.227 30.651 134.336 30.388 134.352 30.1328L134.969 30.8281C134.932 31.0469 134.833 31.2891 134.672 31.5547C134.51 31.8203 134.294 32.0755 134.023 32.3203C133.758 32.5599 133.44 32.7604 133.07 32.9219C132.706 33.0781 132.294 33.1562 131.836 33.1562C131.263 33.1562 130.76 33.0443 130.328 32.8203C129.901 32.5964 129.568 32.2969 129.328 31.9219C129.094 31.5417 128.977 31.1172 128.977 30.6484C128.977 30.1953 129.065 29.7969 129.242 29.4531C129.419 29.1042 129.674 28.8151 130.008 28.5859C130.341 28.3516 130.742 28.1745 131.211 28.0547C131.68 27.9349 132.203 27.875 132.781 27.875H134.461ZM139.875 25.875V33H138.43V24.5469H139.836L139.875 25.875ZM142.516 24.5L142.508 25.8438C142.388 25.8177 142.273 25.8021 142.164 25.7969C142.06 25.7865 141.94 25.7812 141.805 25.7812C141.471 25.7812 141.177 25.8333 140.922 25.9375C140.667 26.0417 140.451 26.1875 140.273 26.375C140.096 26.5625 139.956 26.7865 139.852 27.0469C139.753 27.3021 139.688 27.5833 139.656 27.8906L139.25 28.125C139.25 27.6146 139.299 27.1354 139.398 26.6875C139.503 26.2396 139.661 25.8438 139.875 25.5C140.089 25.151 140.359 24.8802 140.688 24.6875C141.021 24.4896 141.417 24.3906 141.875 24.3906C141.979 24.3906 142.099 24.4036 142.234 24.4297C142.37 24.4505 142.464 24.474 142.516 24.5ZM147.578 31.9688C147.922 31.9688 148.24 31.8984 148.531 31.7578C148.823 31.6172 149.062 31.4245 149.25 31.1797C149.438 30.9297 149.544 30.6458 149.57 30.3281H150.945C150.919 30.8281 150.75 31.2943 150.438 31.7266C150.13 32.1536 149.727 32.5 149.227 32.7656C148.727 33.026 148.177 33.1562 147.578 33.1562C146.943 33.1562 146.388 33.0443 145.914 32.8203C145.445 32.5964 145.055 32.2891 144.742 31.8984C144.435 31.5078 144.203 31.0599 144.047 30.5547C143.896 30.0443 143.82 29.5052 143.82 28.9375V28.6094C143.82 28.0417 143.896 27.5052 144.047 27C144.203 26.4896 144.435 26.0391 144.742 25.6484C145.055 25.2578 145.445 24.9505 145.914 24.7266C146.388 24.5026 146.943 24.3906 147.578 24.3906C148.24 24.3906 148.818 24.526 149.312 24.7969C149.807 25.0625 150.195 25.4271 150.477 25.8906C150.763 26.349 150.919 26.8698 150.945 27.4531H149.57C149.544 27.1042 149.445 26.7891 149.273 26.5078C149.107 26.2266 148.878 26.0026 148.586 25.8359C148.299 25.6641 147.964 25.5781 147.578 25.5781C147.135 25.5781 146.763 25.6667 146.461 25.8438C146.164 26.0156 145.927 26.25 145.75 26.5469C145.578 26.8385 145.453 27.1641 145.375 27.5234C145.302 27.8776 145.266 28.2396 145.266 28.6094V28.9375C145.266 29.3073 145.302 29.6719 145.375 30.0312C145.448 30.3906 145.57 30.7161 145.742 31.0078C145.919 31.2995 146.156 31.5339 146.453 31.7109C146.755 31.8828 147.13 31.9688 147.578 31.9688ZM154.516 21V33H153.07V21H154.516ZM154.172 28.4531L153.57 28.4297C153.576 27.8516 153.661 27.3177 153.828 26.8281C153.995 26.3333 154.229 25.9036 154.531 25.5391C154.833 25.1745 155.193 24.8932 155.609 24.6953C156.031 24.4922 156.497 24.3906 157.008 24.3906C157.424 24.3906 157.799 24.4479 158.133 24.5625C158.466 24.6719 158.75 24.849 158.984 25.0938C159.224 25.3385 159.406 25.6562 159.531 26.0469C159.656 26.4323 159.719 26.9036 159.719 27.4609V33H158.266V27.4453C158.266 27.0026 158.201 26.6484 158.07 26.3828C157.94 26.112 157.75 25.9167 157.5 25.7969C157.25 25.6719 156.943 25.6094 156.578 25.6094C156.219 25.6094 155.891 25.6849 155.594 25.8359C155.302 25.987 155.049 26.1953 154.836 26.4609C154.628 26.7266 154.464 27.0312 154.344 27.375C154.229 27.7135 154.172 28.0729 154.172 28.4531ZM170.391 24.5469V25.6562H165.82V24.5469H170.391ZM167.367 22.4922H168.812V30.9062C168.812 31.1927 168.857 31.4089 168.945 31.5547C169.034 31.7005 169.148 31.7969 169.289 31.8438C169.43 31.8906 169.581 31.9141 169.742 31.9141C169.862 31.9141 169.987 31.9036 170.117 31.8828C170.253 31.8568 170.354 31.8359 170.422 31.8203L170.43 33C170.315 33.0365 170.164 33.0703 169.977 33.1016C169.794 33.138 169.573 33.1562 169.312 33.1562C168.958 33.1562 168.633 33.0859 168.336 32.9453C168.039 32.8047 167.802 32.5703 167.625 32.2422C167.453 31.9089 167.367 31.4609 167.367 30.8984V22.4922ZM176.094 33.1562C175.505 33.1562 174.971 33.0573 174.492 32.8594C174.018 32.6562 173.609 32.3724 173.266 32.0078C172.927 31.6432 172.667 31.2109 172.484 30.7109C172.302 30.2109 172.211 29.6641 172.211 29.0703V28.7422C172.211 28.0547 172.312 27.4427 172.516 26.9062C172.719 26.3646 172.995 25.9062 173.344 25.5312C173.693 25.1562 174.089 24.8724 174.531 24.6797C174.974 24.487 175.432 24.3906 175.906 24.3906C176.51 24.3906 177.031 24.4948 177.469 24.7031C177.911 24.9115 178.273 25.2031 178.555 25.5781C178.836 25.9479 179.044 26.3854 179.18 26.8906C179.315 27.3906 179.383 27.9375 179.383 28.5312V29.1797H173.07V28H177.938V27.8906C177.917 27.5156 177.839 27.151 177.703 26.7969C177.573 26.4427 177.365 26.151 177.078 25.9219C176.792 25.6927 176.401 25.5781 175.906 25.5781C175.578 25.5781 175.276 25.6484 175 25.7891C174.724 25.9245 174.487 26.1276 174.289 26.3984C174.091 26.6693 173.938 27 173.828 27.3906C173.719 27.7812 173.664 28.2318 173.664 28.7422V29.0703C173.664 29.4714 173.719 29.849 173.828 30.2031C173.943 30.5521 174.107 30.8594 174.32 31.125C174.539 31.3906 174.802 31.599 175.109 31.75C175.422 31.901 175.776 31.9766 176.172 31.9766C176.682 31.9766 177.115 31.8724 177.469 31.6641C177.823 31.4557 178.133 31.1771 178.398 30.8281L179.273 31.5234C179.091 31.7995 178.859 32.0625 178.578 32.3125C178.297 32.5625 177.951 32.7656 177.539 32.9219C177.133 33.0781 176.651 33.1562 176.094 33.1562ZM182.547 24.5469L184.398 27.625L186.273 24.5469H187.969L185.203 28.7188L188.055 33H186.383L184.43 29.8281L182.477 33H180.797L183.641 28.7188L180.883 24.5469H182.547ZM193.547 24.5469V25.6562H188.977V24.5469H193.547ZM190.523 22.4922H191.969V30.9062C191.969 31.1927 192.013 31.4089 192.102 31.5547C192.19 31.7005 192.305 31.7969 192.445 31.8438C192.586 31.8906 192.737 31.9141 192.898 31.9141C193.018 31.9141 193.143 31.9036 193.273 31.8828C193.409 31.8568 193.51 31.8359 193.578 31.8203L193.586 33C193.471 33.0365 193.32 33.0703 193.133 33.1016C192.951 33.138 192.729 33.1562 192.469 33.1562C192.115 33.1562 191.789 33.0859 191.492 32.9453C191.195 32.8047 190.958 32.5703 190.781 32.2422C190.609 31.9089 190.523 31.4609 190.523 30.8984V22.4922Z" fill="#49454F"/>
<g clip-path="url(#clip2_52977_33948)">
<path fill-rule="evenodd" clip-rule="evenodd" d="M302.76 29.27L308.49 35L307 36.49L301.27 30.76C300.2 31.53 298.91 32 297.5 32C293.91 32 291 29.09 291 25.5C291 21.91 293.91 19 297.5 19C301.09 19 304 21.91 304 25.5C304 26.91 303.53 28.2 302.76 29.27ZM297.5 21C295.01 21 293 23.01 293 25.5C293 27.99 295.01 30 297.5 30C299.99 30 302 27.99 302 25.5C302 23.01 299.99 21 297.5 21Z" fill="#49454F"/>
</g>
</g>
<defs>
<clipPath id="clip0_52977_33948">
<rect width="328" height="56" rx="28" fill="white"/>
</clipPath>
<clipPath id="clip1_52977_33948">
<rect x="8" y="8" width="40" height="40" rx="20" fill="white"/>
</clipPath>
<clipPath id="clip2_52977_33948">
<rect x="280" y="8" width="40" height="40" rx="20" fill="white"/>
</clipPath>
</defs>
</svg>
