<svg width="360" height="49" viewBox="0 0 360 49" fill="none" xmlns="http://www.w3.org/2000/svg">
<rect width="360" height="49" fill="#FFFBFE"/>
<g clip-path="url(#clip0_51754_4969)">
<rect width="120" height="48" fill="#FFFBFE"/>
<path d="M53.4379 17.0469V27H51.7357V17.0469H53.4379ZM56.5619 17.0469V18.4141H48.6391V17.0469H56.5619ZM61.0643 25.5166V21.9893C61.0643 21.7249 61.0164 21.4971 60.9207 21.3057C60.825 21.1143 60.6792 20.9661 60.4832 20.8613C60.2918 20.7565 60.0503 20.7041 59.7586 20.7041C59.4897 20.7041 59.2573 20.7497 59.0613 20.8408C58.8654 20.932 58.7127 21.055 58.6033 21.21C58.4939 21.3649 58.4393 21.5404 58.4393 21.7363H56.7986C56.7986 21.4447 56.8693 21.1621 57.0105 20.8887C57.1518 20.6152 57.3569 20.3714 57.6258 20.1572C57.8947 19.943 58.216 19.7744 58.5896 19.6514C58.9633 19.5283 59.3826 19.4668 59.8475 19.4668C60.4035 19.4668 60.8956 19.5602 61.324 19.7471C61.757 19.9339 62.0965 20.2165 62.3426 20.5947C62.5932 20.9684 62.7186 21.4378 62.7186 22.0029V25.291C62.7186 25.6283 62.7413 25.9313 62.7869 26.2002C62.837 26.4645 62.9077 26.6947 62.9988 26.8906V27H61.3104C61.2329 26.8223 61.1714 26.5967 61.1258 26.3232C61.0848 26.0452 61.0643 25.7764 61.0643 25.5166ZM61.3035 22.502L61.3172 23.5205H60.1346C59.8292 23.5205 59.5604 23.5501 59.3279 23.6094C59.0955 23.6641 58.9018 23.7461 58.7469 23.8555C58.5919 23.9648 58.4757 24.097 58.3982 24.252C58.3208 24.4069 58.282 24.5824 58.282 24.7783C58.282 24.9743 58.3276 25.1543 58.4188 25.3184C58.5099 25.4779 58.6421 25.6032 58.8152 25.6943C58.993 25.7855 59.2072 25.8311 59.4578 25.8311C59.7951 25.8311 60.089 25.7627 60.3396 25.626C60.5949 25.4847 60.7954 25.3138 60.9412 25.1133C61.087 24.9082 61.1645 24.7145 61.1736 24.5322L61.7068 25.2637C61.6521 25.4505 61.5587 25.651 61.4266 25.8652C61.2944 26.0794 61.1212 26.2845 60.907 26.4805C60.6974 26.6719 60.4445 26.8291 60.1482 26.9521C59.8566 27.0752 59.5193 27.1367 59.1365 27.1367C58.6535 27.1367 58.2228 27.041 57.8445 26.8496C57.4663 26.6536 57.1701 26.3916 56.9559 26.0635C56.7417 25.7308 56.6346 25.3548 56.6346 24.9355C56.6346 24.5436 56.7075 24.1973 56.8533 23.8965C57.0037 23.5911 57.2225 23.3359 57.5096 23.1309C57.8012 22.9258 58.1567 22.7708 58.576 22.666C58.9952 22.5566 59.4738 22.502 60.0115 22.502H61.3035ZM64.548 16.5H66.1955V25.4209L66.0383 27H64.548V16.5ZM71.0217 23.2334V23.377C71.0217 23.9238 70.9602 24.4274 70.8371 24.8877C70.7186 25.3434 70.5363 25.7399 70.2902 26.0771C70.0487 26.4144 69.7479 26.6764 69.3879 26.8633C69.0324 27.0456 68.62 27.1367 68.1506 27.1367C67.6903 27.1367 67.2893 27.0501 66.9475 26.877C66.6057 26.7038 66.3186 26.4577 66.0861 26.1387C65.8583 25.8197 65.6737 25.4391 65.5324 24.9971C65.3911 24.555 65.2909 24.0674 65.2316 23.5342V23.0762C65.2909 22.5384 65.3911 22.0508 65.5324 21.6133C65.6737 21.1712 65.8583 20.7907 66.0861 20.4717C66.3186 20.1481 66.6034 19.8997 66.9406 19.7266C67.2824 19.5534 67.6812 19.4668 68.1369 19.4668C68.6109 19.4668 69.0279 19.5579 69.3879 19.7402C69.7525 19.9225 70.0555 20.1823 70.2971 20.5195C70.5386 20.8522 70.7186 21.2487 70.8371 21.709C70.9602 22.1693 71.0217 22.6774 71.0217 23.2334ZM69.3742 23.377V23.2334C69.3742 22.9007 69.3469 22.5885 69.2922 22.2969C69.2375 22.0007 69.1464 21.7409 69.0188 21.5176C68.8957 21.2943 68.7271 21.1188 68.5129 20.9912C68.3033 20.859 68.0412 20.793 67.7268 20.793C67.4351 20.793 67.1844 20.8431 66.9748 20.9434C66.7652 21.0436 66.5897 21.1803 66.4484 21.3535C66.3072 21.5267 66.1955 21.7272 66.1135 21.9551C66.036 22.1829 65.9836 22.429 65.9563 22.6934V23.9307C65.9973 24.2725 66.0839 24.5869 66.216 24.874C66.3527 25.1566 66.5441 25.3844 66.7902 25.5576C67.0363 25.7262 67.3531 25.8105 67.7404 25.8105C68.0458 25.8105 68.3033 25.749 68.5129 25.626C68.7225 25.5029 68.8889 25.332 69.0119 25.1133C69.1395 24.89 69.2307 24.6302 69.2854 24.334C69.3446 24.0378 69.3742 23.7188 69.3742 23.377Z" fill="#1C1B1F"/>
<rect y="46" width="120" height="2" fill="#6750A4"/>
</g>
<g clip-path="url(#clip1_51754_4969)">
<rect width="120" height="48" transform="translate(120)" fill="#FFFBFE"/>
<path d="M173.438 17.0469V27H171.736V17.0469H173.438ZM176.562 17.0469V18.4141H168.639V17.0469H176.562ZM181.064 25.5166V21.9893C181.064 21.7249 181.016 21.4971 180.921 21.3057C180.825 21.1143 180.679 20.9661 180.483 20.8613C180.292 20.7565 180.05 20.7041 179.759 20.7041C179.49 20.7041 179.257 20.7497 179.061 20.8408C178.865 20.932 178.713 21.055 178.603 21.21C178.494 21.3649 178.439 21.5404 178.439 21.7363H176.799C176.799 21.4447 176.869 21.1621 177.011 20.8887C177.152 20.6152 177.357 20.3714 177.626 20.1572C177.895 19.943 178.216 19.7744 178.59 19.6514C178.963 19.5283 179.383 19.4668 179.847 19.4668C180.403 19.4668 180.896 19.5602 181.324 19.7471C181.757 19.9339 182.096 20.2165 182.343 20.5947C182.593 20.9684 182.719 21.4378 182.719 22.0029V25.291C182.719 25.6283 182.741 25.9313 182.787 26.2002C182.837 26.4645 182.908 26.6947 182.999 26.8906V27H181.31C181.233 26.8223 181.171 26.5967 181.126 26.3232C181.085 26.0452 181.064 25.7764 181.064 25.5166ZM181.304 22.502L181.317 23.5205H180.135C179.829 23.5205 179.56 23.5501 179.328 23.6094C179.096 23.6641 178.902 23.7461 178.747 23.8555C178.592 23.9648 178.476 24.097 178.398 24.252C178.321 24.4069 178.282 24.5824 178.282 24.7783C178.282 24.9743 178.328 25.1543 178.419 25.3184C178.51 25.4779 178.642 25.6032 178.815 25.6943C178.993 25.7855 179.207 25.8311 179.458 25.8311C179.795 25.8311 180.089 25.7627 180.34 25.626C180.595 25.4847 180.795 25.3138 180.941 25.1133C181.087 24.9082 181.165 24.7145 181.174 24.5322L181.707 25.2637C181.652 25.4505 181.559 25.651 181.427 25.8652C181.294 26.0794 181.121 26.2845 180.907 26.4805C180.697 26.6719 180.444 26.8291 180.148 26.9521C179.857 27.0752 179.519 27.1367 179.137 27.1367C178.653 27.1367 178.223 27.041 177.845 26.8496C177.466 26.6536 177.17 26.3916 176.956 26.0635C176.742 25.7308 176.635 25.3548 176.635 24.9355C176.635 24.5436 176.707 24.1973 176.853 23.8965C177.004 23.5911 177.222 23.3359 177.51 23.1309C177.801 22.9258 178.157 22.7708 178.576 22.666C178.995 22.5566 179.474 22.502 180.012 22.502H181.304ZM184.548 16.5H186.196V25.4209L186.038 27H184.548V16.5ZM191.022 23.2334V23.377C191.022 23.9238 190.96 24.4274 190.837 24.8877C190.719 25.3434 190.536 25.7399 190.29 26.0771C190.049 26.4144 189.748 26.6764 189.388 26.8633C189.032 27.0456 188.62 27.1367 188.151 27.1367C187.69 27.1367 187.289 27.0501 186.947 26.877C186.606 26.7038 186.319 26.4577 186.086 26.1387C185.858 25.8197 185.674 25.4391 185.532 24.9971C185.391 24.555 185.291 24.0674 185.232 23.5342V23.0762C185.291 22.5384 185.391 22.0508 185.532 21.6133C185.674 21.1712 185.858 20.7907 186.086 20.4717C186.319 20.1481 186.603 19.8997 186.941 19.7266C187.282 19.5534 187.681 19.4668 188.137 19.4668C188.611 19.4668 189.028 19.5579 189.388 19.7402C189.752 19.9225 190.056 20.1823 190.297 20.5195C190.539 20.8522 190.719 21.2487 190.837 21.709C190.96 22.1693 191.022 22.6774 191.022 23.2334ZM189.374 23.377V23.2334C189.374 22.9007 189.347 22.5885 189.292 22.2969C189.238 22.0007 189.146 21.7409 189.019 21.5176C188.896 21.2943 188.727 21.1188 188.513 20.9912C188.303 20.859 188.041 20.793 187.727 20.793C187.435 20.793 187.184 20.8431 186.975 20.9434C186.765 21.0436 186.59 21.1803 186.448 21.3535C186.307 21.5267 186.196 21.7272 186.113 21.9551C186.036 22.1829 185.984 22.429 185.956 22.6934V23.9307C185.997 24.2725 186.084 24.5869 186.216 24.874C186.353 25.1566 186.544 25.3844 186.79 25.5576C187.036 25.7262 187.353 25.8105 187.74 25.8105C188.046 25.8105 188.303 25.749 188.513 25.626C188.723 25.5029 188.889 25.332 189.012 25.1133C189.14 24.89 189.231 24.6302 189.285 24.334C189.345 24.0378 189.374 23.7188 189.374 23.377Z" fill="#49454F"/>
</g>
<g clip-path="url(#clip2_51754_4969)">
<rect width="120" height="48" transform="translate(240)" fill="#FFFBFE"/>
<path d="M293.438 17.0469V27H291.736V17.0469H293.438ZM296.562 17.0469V18.4141H288.639V17.0469H296.562ZM301.064 25.5166V21.9893C301.064 21.7249 301.016 21.4971 300.921 21.3057C300.825 21.1143 300.679 20.9661 300.483 20.8613C300.292 20.7565 300.05 20.7041 299.759 20.7041C299.49 20.7041 299.257 20.7497 299.061 20.8408C298.865 20.932 298.713 21.055 298.603 21.21C298.494 21.3649 298.439 21.5404 298.439 21.7363H296.799C296.799 21.4447 296.869 21.1621 297.011 20.8887C297.152 20.6152 297.357 20.3714 297.626 20.1572C297.895 19.943 298.216 19.7744 298.59 19.6514C298.963 19.5283 299.383 19.4668 299.847 19.4668C300.403 19.4668 300.896 19.5602 301.324 19.7471C301.757 19.9339 302.096 20.2165 302.343 20.5947C302.593 20.9684 302.719 21.4378 302.719 22.0029V25.291C302.719 25.6283 302.741 25.9313 302.787 26.2002C302.837 26.4645 302.908 26.6947 302.999 26.8906V27H301.31C301.233 26.8223 301.171 26.5967 301.126 26.3232C301.085 26.0452 301.064 25.7764 301.064 25.5166ZM301.304 22.502L301.317 23.5205H300.135C299.829 23.5205 299.56 23.5501 299.328 23.6094C299.096 23.6641 298.902 23.7461 298.747 23.8555C298.592 23.9648 298.476 24.097 298.398 24.252C298.321 24.4069 298.282 24.5824 298.282 24.7783C298.282 24.9743 298.328 25.1543 298.419 25.3184C298.51 25.4779 298.642 25.6032 298.815 25.6943C298.993 25.7855 299.207 25.8311 299.458 25.8311C299.795 25.8311 300.089 25.7627 300.34 25.626C300.595 25.4847 300.795 25.3138 300.941 25.1133C301.087 24.9082 301.165 24.7145 301.174 24.5322L301.707 25.2637C301.652 25.4505 301.559 25.651 301.427 25.8652C301.294 26.0794 301.121 26.2845 300.907 26.4805C300.697 26.6719 300.444 26.8291 300.148 26.9521C299.857 27.0752 299.519 27.1367 299.137 27.1367C298.653 27.1367 298.223 27.041 297.845 26.8496C297.466 26.6536 297.17 26.3916 296.956 26.0635C296.742 25.7308 296.635 25.3548 296.635 24.9355C296.635 24.5436 296.707 24.1973 296.853 23.8965C297.004 23.5911 297.222 23.3359 297.51 23.1309C297.801 22.9258 298.157 22.7708 298.576 22.666C298.995 22.5566 299.474 22.502 300.012 22.502H301.304ZM304.548 16.5H306.196V25.4209L306.038 27H304.548V16.5ZM311.022 23.2334V23.377C311.022 23.9238 310.96 24.4274 310.837 24.8877C310.719 25.3434 310.536 25.7399 310.29 26.0771C310.049 26.4144 309.748 26.6764 309.388 26.8633C309.032 27.0456 308.62 27.1367 308.151 27.1367C307.69 27.1367 307.289 27.0501 306.947 26.877C306.606 26.7038 306.319 26.4577 306.086 26.1387C305.858 25.8197 305.674 25.4391 305.532 24.9971C305.391 24.555 305.291 24.0674 305.232 23.5342V23.0762C305.291 22.5384 305.391 22.0508 305.532 21.6133C305.674 21.1712 305.858 20.7907 306.086 20.4717C306.319 20.1481 306.603 19.8997 306.941 19.7266C307.282 19.5534 307.681 19.4668 308.137 19.4668C308.611 19.4668 309.028 19.5579 309.388 19.7402C309.752 19.9225 310.056 20.1823 310.297 20.5195C310.539 20.8522 310.719 21.2487 310.837 21.709C310.96 22.1693 311.022 22.6774 311.022 23.2334ZM309.374 23.377V23.2334C309.374 22.9007 309.347 22.5885 309.292 22.2969C309.238 22.0007 309.146 21.7409 309.019 21.5176C308.896 21.2943 308.727 21.1188 308.513 20.9912C308.303 20.859 308.041 20.793 307.727 20.793C307.435 20.793 307.184 20.8431 306.975 20.9434C306.765 21.0436 306.59 21.1803 306.448 21.3535C306.307 21.5267 306.196 21.7272 306.113 21.9551C306.036 22.1829 305.984 22.429 305.956 22.6934V23.9307C305.997 24.2725 306.084 24.5869 306.216 24.874C306.353 25.1566 306.544 25.3844 306.79 25.5576C307.036 25.7262 307.353 25.8105 307.74 25.8105C308.046 25.8105 308.303 25.749 308.513 25.626C308.723 25.5029 308.889 25.332 309.012 25.1133C309.14 24.89 309.231 24.6302 309.285 24.334C309.345 24.0378 309.374 23.7188 309.374 23.377Z" fill="#49454F"/>
</g>
<line x1="-4.37114e-08" y1="48.5" x2="360" y2="48.5" stroke="#E7E0EC"/>
<defs>
<clipPath id="clip0_51754_4969">
<rect width="120" height="48" fill="white"/>
</clipPath>
<clipPath id="clip1_51754_4969">
<rect width="120" height="48" fill="white" transform="translate(120)"/>
</clipPath>
<clipPath id="clip2_51754_4969">
<rect width="120" height="48" fill="white" transform="translate(240)"/>
</clipPath>
</defs>
</svg>
