<svg width="310" height="48" viewBox="0 0 310 48" fill="none" xmlns="http://www.w3.org/2000/svg">
<g clip-path="url(#clip0_51892_7546)">
<path d="M0 24C0 12.9543 8.95431 4 20 4H104V44H20C8.95431 44 0 35.0457 0 24V24Z" fill="#E8DEF8"/>
<path d="M20.2491 27.1274L17.1216 23.9999L16.0566 25.0574L20.2491 29.2499L29.2491 20.2499L28.1916 19.1924L20.2491 27.1274Z" fill="#1D192B"/>
<path d="M47.1795 27.6396V29H41.8953V27.6396H47.1795ZM42.3807 19.0469V29H40.6648V19.0469H42.3807ZM46.4891 23.2031V24.543H41.8953V23.2031H46.4891ZM47.1453 19.0469V20.4141H41.8953V19.0469H47.1453ZM50.1506 23.1826V29H48.5031V21.6035H50.0549L50.1506 23.1826ZM49.8566 25.0283L49.3234 25.0215C49.328 24.4974 49.4009 24.0166 49.5422 23.5791C49.688 23.1416 49.8885 22.7656 50.1438 22.4512C50.4035 22.1367 50.7134 21.8952 51.0734 21.7266C51.4335 21.5534 51.8345 21.4668 52.2766 21.4668C52.632 21.4668 52.9533 21.5169 53.2404 21.6172C53.5321 21.7129 53.7805 21.8701 53.9855 22.0889C54.1952 22.3076 54.3547 22.5924 54.4641 22.9434C54.5734 23.2897 54.6281 23.7158 54.6281 24.2217V29H52.9738V24.2148C52.9738 23.8594 52.9214 23.5791 52.8166 23.374C52.7163 23.1644 52.5682 23.0163 52.3723 22.9297C52.1809 22.8385 51.9416 22.793 51.6545 22.793C51.3719 22.793 51.119 22.8522 50.8957 22.9707C50.6724 23.0892 50.4833 23.251 50.3283 23.4561C50.1779 23.6611 50.0617 23.8981 49.9797 24.167C49.8977 24.4359 49.8566 24.723 49.8566 25.0283ZM60.5797 27.5166V23.9893C60.5797 23.7249 60.5318 23.4971 60.4361 23.3057C60.3404 23.1143 60.1946 22.9661 59.9986 22.8613C59.8072 22.7565 59.5657 22.7041 59.274 22.7041C59.0051 22.7041 58.7727 22.7497 58.5768 22.8408C58.3808 22.932 58.2281 23.055 58.1188 23.21C58.0094 23.3649 57.9547 23.5404 57.9547 23.7363H56.3141C56.3141 23.4447 56.3847 23.1621 56.526 22.8887C56.6673 22.6152 56.8723 22.3714 57.1412 22.1572C57.4101 21.943 57.7314 21.7744 58.1051 21.6514C58.4788 21.5283 58.898 21.4668 59.3629 21.4668C59.9189 21.4668 60.4111 21.5602 60.8395 21.7471C61.2724 21.9339 61.6119 22.2165 61.858 22.5947C62.1087 22.9684 62.234 23.4378 62.234 24.0029V27.291C62.234 27.6283 62.2568 27.9313 62.3023 28.2002C62.3525 28.4645 62.4231 28.6947 62.5143 28.8906V29H60.8258C60.7483 28.8223 60.6868 28.5967 60.6412 28.3232C60.6002 28.0452 60.5797 27.7764 60.5797 27.5166ZM60.8189 24.502L60.8326 25.5205H59.65C59.3447 25.5205 59.0758 25.5501 58.8434 25.6094C58.6109 25.6641 58.4173 25.7461 58.2623 25.8555C58.1074 25.9648 57.9911 26.097 57.9137 26.252C57.8362 26.4069 57.7975 26.5824 57.7975 26.7783C57.7975 26.9743 57.843 27.1543 57.9342 27.3184C58.0253 27.4779 58.1575 27.6032 58.3307 27.6943C58.5084 27.7855 58.7226 27.8311 58.9732 27.8311C59.3105 27.8311 59.6044 27.7627 59.8551 27.626C60.1103 27.4847 60.3108 27.3138 60.4566 27.1133C60.6025 26.9082 60.6799 26.7145 60.6891 26.5322L61.2223 27.2637C61.1676 27.4505 61.0742 27.651 60.942 27.8652C60.8098 28.0794 60.6367 28.2845 60.4225 28.4805C60.2128 28.6719 59.9599 28.8291 59.6637 28.9521C59.372 29.0752 59.0348 29.1367 58.652 29.1367C58.1689 29.1367 57.7382 29.041 57.36 28.8496C56.9817 28.6536 56.6855 28.3916 56.4713 28.0635C56.2571 27.7308 56.15 27.3548 56.15 26.9355C56.15 26.5436 56.2229 26.1973 56.3688 25.8965C56.5191 25.5911 56.7379 25.3359 57.025 25.1309C57.3167 24.9258 57.6721 24.7708 58.0914 24.666C58.5107 24.5566 58.9892 24.502 59.527 24.502H60.8189ZM64.0635 18.5H65.7109V27.4209L65.5537 29H64.0635V18.5ZM70.5371 25.2334V25.377C70.5371 25.9238 70.4756 26.4274 70.3525 26.8877C70.234 27.3434 70.0518 27.7399 69.8057 28.0771C69.5641 28.4144 69.2633 28.6764 68.9033 28.8633C68.5479 29.0456 68.1354 29.1367 67.666 29.1367C67.2057 29.1367 66.8047 29.0501 66.4629 28.877C66.1211 28.7038 65.834 28.4577 65.6016 28.1387C65.3737 27.8197 65.1891 27.4391 65.0479 26.9971C64.9066 26.555 64.8063 26.0674 64.7471 25.5342V25.0762C64.8063 24.5384 64.9066 24.0508 65.0479 23.6133C65.1891 23.1712 65.3737 22.7907 65.6016 22.4717C65.834 22.1481 66.1188 21.8997 66.4561 21.7266C66.7979 21.5534 67.1966 21.4668 67.6523 21.4668C68.1263 21.4668 68.5433 21.5579 68.9033 21.7402C69.2679 21.9225 69.571 22.1823 69.8125 22.5195C70.054 22.8522 70.234 23.2487 70.3525 23.709C70.4756 24.1693 70.5371 24.6774 70.5371 25.2334ZM68.8896 25.377V25.2334C68.8896 24.9007 68.8623 24.5885 68.8076 24.2969C68.7529 24.0007 68.6618 23.7409 68.5342 23.5176C68.4111 23.2943 68.2425 23.1188 68.0283 22.9912C67.8187 22.859 67.5566 22.793 67.2422 22.793C66.9505 22.793 66.6999 22.8431 66.4902 22.9434C66.2806 23.0436 66.1051 23.1803 65.9639 23.3535C65.8226 23.5267 65.7109 23.7272 65.6289 23.9551C65.5514 24.1829 65.499 24.429 65.4717 24.6934V25.9307C65.5127 26.2725 65.5993 26.5869 65.7314 26.874C65.8682 27.1566 66.0596 27.3844 66.3057 27.5576C66.5518 27.7262 66.8685 27.8105 67.2559 27.8105C67.5612 27.8105 67.8187 27.749 68.0283 27.626C68.238 27.5029 68.4043 27.332 68.5273 27.1133C68.6549 26.89 68.7461 26.6302 68.8008 26.334C68.86 26.0378 68.8896 25.7188 68.8896 25.377ZM73.7953 18.5V29H72.141V18.5H73.7953ZM78.9607 29.1367C78.4139 29.1367 77.9194 29.0479 77.4773 28.8701C77.0398 28.6878 76.6661 28.4349 76.3563 28.1113C76.0509 27.7878 75.8162 27.4072 75.6521 26.9697C75.4881 26.5322 75.4061 26.0605 75.4061 25.5547V25.2812C75.4061 24.7025 75.4904 24.1784 75.659 23.709C75.8276 23.2396 76.0623 22.8385 76.3631 22.5059C76.6639 22.1686 77.0193 21.9111 77.4295 21.7334C77.8396 21.5557 78.284 21.4668 78.7625 21.4668C79.2911 21.4668 79.7537 21.5557 80.1502 21.7334C80.5467 21.9111 80.8748 22.1618 81.1346 22.4854C81.3989 22.8044 81.5949 23.1849 81.7225 23.627C81.8546 24.069 81.9207 24.5566 81.9207 25.0898V25.7939H76.2059V24.6113H80.2938V24.4814C80.2846 24.1852 80.2254 23.9072 80.116 23.6475C80.0112 23.3877 79.8494 23.1781 79.6307 23.0186C79.4119 22.859 79.1202 22.7793 78.7557 22.7793C78.4822 22.7793 78.2384 22.8385 78.0242 22.957C77.8146 23.071 77.6391 23.2373 77.4979 23.4561C77.3566 23.6748 77.2472 23.9391 77.1697 24.249C77.0968 24.5544 77.0604 24.8984 77.0604 25.2812V25.5547C77.0604 25.8783 77.1036 26.179 77.1902 26.457C77.2814 26.7305 77.4135 26.9697 77.5867 27.1748C77.7599 27.3799 77.9695 27.5417 78.2156 27.6602C78.4617 27.7741 78.742 27.8311 79.0564 27.8311C79.4529 27.8311 79.8061 27.7513 80.116 27.5918C80.4259 27.4323 80.6948 27.2067 80.9227 26.915L81.7908 27.7559C81.6313 27.9883 81.424 28.2116 81.1688 28.4258C80.9135 28.6354 80.6014 28.8063 80.2322 28.9385C79.8676 29.0706 79.4438 29.1367 78.9607 29.1367ZM87.8176 27.4688V18.5H89.4719V29H87.9748L87.8176 27.4688ZM83.0051 25.3838V25.2402C83.0051 24.6797 83.0712 24.1693 83.2033 23.709C83.3355 23.2441 83.5269 22.8454 83.7775 22.5127C84.0282 22.1755 84.3335 21.918 84.6936 21.7402C85.0536 21.5579 85.4592 21.4668 85.9104 21.4668C86.357 21.4668 86.7489 21.5534 87.0861 21.7266C87.4234 21.8997 87.7105 22.1481 87.9475 22.4717C88.1844 22.7907 88.3736 23.1735 88.5148 23.6201C88.6561 24.0622 88.7564 24.5544 88.8156 25.0967V25.5547C88.7564 26.0833 88.6561 26.5664 88.5148 27.0039C88.3736 27.4414 88.1844 27.8197 87.9475 28.1387C87.7105 28.4577 87.4211 28.7038 87.0793 28.877C86.7421 29.0501 86.3479 29.1367 85.8967 29.1367C85.4501 29.1367 85.0467 29.0433 84.6867 28.8564C84.3312 28.6696 84.0282 28.4076 83.7775 28.0703C83.5269 27.7331 83.3355 27.3366 83.2033 26.8809C83.0712 26.4206 83.0051 25.9215 83.0051 25.3838ZM84.6525 25.2402V25.3838C84.6525 25.721 84.6822 26.0355 84.7414 26.3271C84.8052 26.6188 84.9032 26.8763 85.0354 27.0996C85.1675 27.3184 85.3384 27.4915 85.548 27.6191C85.7622 27.7422 86.0174 27.8037 86.3137 27.8037C86.6874 27.8037 86.995 27.7217 87.2365 27.5576C87.4781 27.3936 87.6672 27.1725 87.8039 26.8945C87.9452 26.612 88.0409 26.2975 88.091 25.9512V24.7139C88.0637 24.445 88.0067 24.1943 87.9201 23.9619C87.8381 23.7295 87.7264 23.5267 87.5852 23.3535C87.4439 23.1758 87.2684 23.0391 87.0588 22.9434C86.8537 22.8431 86.6099 22.793 86.3273 22.793C86.0266 22.793 85.7714 22.8568 85.5617 22.9844C85.3521 23.112 85.1789 23.2874 85.0422 23.5107C84.91 23.734 84.812 23.9938 84.7482 24.29C84.6844 24.5863 84.6525 24.903 84.6525 25.2402Z" fill="#1D192B"/>
</g>
<path d="M20 4.5H103.5V43.5H20C9.23045 43.5 0.5 34.7696 0.5 24C0.5 13.2304 9.23045 4.5 20 4.5Z" stroke="#79747E"/>
<g clip-path="url(#clip1_51892_7546)">
<path d="M137.179 27.6396V29H131.895V27.6396H137.179ZM132.381 19.0469V29H130.665V19.0469H132.381ZM136.489 23.2031V24.543H131.895V23.2031H136.489ZM137.145 19.0469V20.4141H131.895V19.0469H137.145ZM140.151 23.1826V29H138.503V21.6035H140.055L140.151 23.1826ZM139.857 25.0283L139.323 25.0215C139.328 24.4974 139.401 24.0166 139.542 23.5791C139.688 23.1416 139.889 22.7656 140.144 22.4512C140.404 22.1367 140.713 21.8952 141.073 21.7266C141.433 21.5534 141.835 21.4668 142.277 21.4668C142.632 21.4668 142.953 21.5169 143.24 21.6172C143.532 21.7129 143.78 21.8701 143.986 22.0889C144.195 22.3076 144.355 22.5924 144.464 22.9434C144.573 23.2897 144.628 23.7158 144.628 24.2217V29H142.974V24.2148C142.974 23.8594 142.921 23.5791 142.817 23.374C142.716 23.1644 142.568 23.0163 142.372 22.9297C142.181 22.8385 141.942 22.793 141.654 22.793C141.372 22.793 141.119 22.8522 140.896 22.9707C140.672 23.0892 140.483 23.251 140.328 23.4561C140.178 23.6611 140.062 23.8981 139.98 24.167C139.898 24.4359 139.857 24.723 139.857 25.0283ZM150.58 27.5166V23.9893C150.58 23.7249 150.532 23.4971 150.436 23.3057C150.34 23.1143 150.195 22.9661 149.999 22.8613C149.807 22.7565 149.566 22.7041 149.274 22.7041C149.005 22.7041 148.773 22.7497 148.577 22.8408C148.381 22.932 148.228 23.055 148.119 23.21C148.009 23.3649 147.955 23.5404 147.955 23.7363H146.314C146.314 23.4447 146.385 23.1621 146.526 22.8887C146.667 22.6152 146.872 22.3714 147.141 22.1572C147.41 21.943 147.731 21.7744 148.105 21.6514C148.479 21.5283 148.898 21.4668 149.363 21.4668C149.919 21.4668 150.411 21.5602 150.839 21.7471C151.272 21.9339 151.612 22.2165 151.858 22.5947C152.109 22.9684 152.234 23.4378 152.234 24.0029V27.291C152.234 27.6283 152.257 27.9313 152.302 28.2002C152.352 28.4645 152.423 28.6947 152.514 28.8906V29H150.826C150.748 28.8223 150.687 28.5967 150.641 28.3232C150.6 28.0452 150.58 27.7764 150.58 27.5166ZM150.819 24.502L150.833 25.5205H149.65C149.345 25.5205 149.076 25.5501 148.843 25.6094C148.611 25.6641 148.417 25.7461 148.262 25.8555C148.107 25.9648 147.991 26.097 147.914 26.252C147.836 26.4069 147.797 26.5824 147.797 26.7783C147.797 26.9743 147.843 27.1543 147.934 27.3184C148.025 27.4779 148.157 27.6032 148.331 27.6943C148.508 27.7855 148.723 27.8311 148.973 27.8311C149.31 27.8311 149.604 27.7627 149.855 27.626C150.11 27.4847 150.311 27.3138 150.457 27.1133C150.602 26.9082 150.68 26.7145 150.689 26.5322L151.222 27.2637C151.168 27.4505 151.074 27.651 150.942 27.8652C150.81 28.0794 150.637 28.2845 150.422 28.4805C150.213 28.6719 149.96 28.8291 149.664 28.9521C149.372 29.0752 149.035 29.1367 148.652 29.1367C148.169 29.1367 147.738 29.041 147.36 28.8496C146.982 28.6536 146.685 28.3916 146.471 28.0635C146.257 27.7308 146.15 27.3548 146.15 26.9355C146.15 26.5436 146.223 26.1973 146.369 25.8965C146.519 25.5911 146.738 25.3359 147.025 25.1309C147.317 24.9258 147.672 24.7708 148.091 24.666C148.511 24.5566 148.989 24.502 149.527 24.502H150.819ZM154.063 18.5H155.711V27.4209L155.554 29H154.063V18.5ZM160.537 25.2334V25.377C160.537 25.9238 160.476 26.4274 160.353 26.8877C160.234 27.3434 160.052 27.7399 159.806 28.0771C159.564 28.4144 159.263 28.6764 158.903 28.8633C158.548 29.0456 158.135 29.1367 157.666 29.1367C157.206 29.1367 156.805 29.0501 156.463 28.877C156.121 28.7038 155.834 28.4577 155.602 28.1387C155.374 27.8197 155.189 27.4391 155.048 26.9971C154.907 26.555 154.806 26.0674 154.747 25.5342V25.0762C154.806 24.5384 154.907 24.0508 155.048 23.6133C155.189 23.1712 155.374 22.7907 155.602 22.4717C155.834 22.1481 156.119 21.8997 156.456 21.7266C156.798 21.5534 157.197 21.4668 157.652 21.4668C158.126 21.4668 158.543 21.5579 158.903 21.7402C159.268 21.9225 159.571 22.1823 159.812 22.5195C160.054 22.8522 160.234 23.2487 160.353 23.709C160.476 24.1693 160.537 24.6774 160.537 25.2334ZM158.89 25.377V25.2334C158.89 24.9007 158.862 24.5885 158.808 24.2969C158.753 24.0007 158.662 23.7409 158.534 23.5176C158.411 23.2943 158.243 23.1188 158.028 22.9912C157.819 22.859 157.557 22.793 157.242 22.793C156.951 22.793 156.7 22.8431 156.49 22.9434C156.281 23.0436 156.105 23.1803 155.964 23.3535C155.823 23.5267 155.711 23.7272 155.629 23.9551C155.551 24.1829 155.499 24.429 155.472 24.6934V25.9307C155.513 26.2725 155.599 26.5869 155.731 26.874C155.868 27.1566 156.06 27.3844 156.306 27.5576C156.552 27.7262 156.868 27.8105 157.256 27.8105C157.561 27.8105 157.819 27.749 158.028 27.626C158.238 27.5029 158.404 27.332 158.527 27.1133C158.655 26.89 158.746 26.6302 158.801 26.334C158.86 26.0378 158.89 25.7188 158.89 25.377ZM163.795 18.5V29H162.141V18.5H163.795ZM168.961 29.1367C168.414 29.1367 167.919 29.0479 167.477 28.8701C167.04 28.6878 166.666 28.4349 166.356 28.1113C166.051 27.7878 165.816 27.4072 165.652 26.9697C165.488 26.5322 165.406 26.0605 165.406 25.5547V25.2812C165.406 24.7025 165.49 24.1784 165.659 23.709C165.828 23.2396 166.062 22.8385 166.363 22.5059C166.664 22.1686 167.019 21.9111 167.429 21.7334C167.84 21.5557 168.284 21.4668 168.763 21.4668C169.291 21.4668 169.754 21.5557 170.15 21.7334C170.547 21.9111 170.875 22.1618 171.135 22.4854C171.399 22.8044 171.595 23.1849 171.722 23.627C171.855 24.069 171.921 24.5566 171.921 25.0898V25.7939H166.206V24.6113H170.294V24.4814C170.285 24.1852 170.225 23.9072 170.116 23.6475C170.011 23.3877 169.849 23.1781 169.631 23.0186C169.412 22.859 169.12 22.7793 168.756 22.7793C168.482 22.7793 168.238 22.8385 168.024 22.957C167.815 23.071 167.639 23.2373 167.498 23.4561C167.357 23.6748 167.247 23.9391 167.17 24.249C167.097 24.5544 167.06 24.8984 167.06 25.2812V25.5547C167.06 25.8783 167.104 26.179 167.19 26.457C167.281 26.7305 167.414 26.9697 167.587 27.1748C167.76 27.3799 167.97 27.5417 168.216 27.6602C168.462 27.7741 168.742 27.8311 169.056 27.8311C169.453 27.8311 169.806 27.7513 170.116 27.5918C170.426 27.4323 170.695 27.2067 170.923 26.915L171.791 27.7559C171.631 27.9883 171.424 28.2116 171.169 28.4258C170.914 28.6354 170.601 28.8063 170.232 28.9385C169.868 29.0706 169.444 29.1367 168.961 29.1367ZM177.818 27.4688V18.5H179.472V29H177.975L177.818 27.4688ZM173.005 25.3838V25.2402C173.005 24.6797 173.071 24.1693 173.203 23.709C173.335 23.2441 173.527 22.8454 173.778 22.5127C174.028 22.1755 174.334 21.918 174.694 21.7402C175.054 21.5579 175.459 21.4668 175.91 21.4668C176.357 21.4668 176.749 21.5534 177.086 21.7266C177.423 21.8997 177.71 22.1481 177.947 22.4717C178.184 22.7907 178.374 23.1735 178.515 23.6201C178.656 24.0622 178.756 24.5544 178.816 25.0967V25.5547C178.756 26.0833 178.656 26.5664 178.515 27.0039C178.374 27.4414 178.184 27.8197 177.947 28.1387C177.71 28.4577 177.421 28.7038 177.079 28.877C176.742 29.0501 176.348 29.1367 175.897 29.1367C175.45 29.1367 175.047 29.0433 174.687 28.8564C174.331 28.6696 174.028 28.4076 173.778 28.0703C173.527 27.7331 173.335 27.3366 173.203 26.8809C173.071 26.4206 173.005 25.9215 173.005 25.3838ZM174.653 25.2402V25.3838C174.653 25.721 174.682 26.0355 174.741 26.3271C174.805 26.6188 174.903 26.8763 175.035 27.0996C175.168 27.3184 175.338 27.4915 175.548 27.6191C175.762 27.7422 176.017 27.8037 176.314 27.8037C176.687 27.8037 176.995 27.7217 177.237 27.5576C177.478 27.3936 177.667 27.1725 177.804 26.8945C177.945 26.612 178.041 26.2975 178.091 25.9512V24.7139C178.064 24.445 178.007 24.1943 177.92 23.9619C177.838 23.7295 177.726 23.5267 177.585 23.3535C177.444 23.1758 177.268 23.0391 177.059 22.9434C176.854 22.8431 176.61 22.793 176.327 22.793C176.027 22.793 175.771 22.8568 175.562 22.9844C175.352 23.112 175.179 23.2874 175.042 23.5107C174.91 23.734 174.812 23.9938 174.748 24.29C174.684 24.5863 174.653 24.903 174.653 25.2402Z" fill="#1C1B1F"/>
</g>
<rect x="103.5" y="4.5" width="103" height="39" stroke="#79747E"/>
<g clip-path="url(#clip2_51892_7546)">
<path d="M240.179 27.6396V29H234.895V27.6396H240.179ZM235.381 19.0469V29H233.665V19.0469H235.381ZM239.489 23.2031V24.543H234.895V23.2031H239.489ZM240.145 19.0469V20.4141H234.895V19.0469H240.145ZM243.151 23.1826V29H241.503V21.6035H243.055L243.151 23.1826ZM242.857 25.0283L242.323 25.0215C242.328 24.4974 242.401 24.0166 242.542 23.5791C242.688 23.1416 242.889 22.7656 243.144 22.4512C243.404 22.1367 243.713 21.8952 244.073 21.7266C244.433 21.5534 244.835 21.4668 245.277 21.4668C245.632 21.4668 245.953 21.5169 246.24 21.6172C246.532 21.7129 246.78 21.8701 246.986 22.0889C247.195 22.3076 247.355 22.5924 247.464 22.9434C247.573 23.2897 247.628 23.7158 247.628 24.2217V29H245.974V24.2148C245.974 23.8594 245.921 23.5791 245.817 23.374C245.716 23.1644 245.568 23.0163 245.372 22.9297C245.181 22.8385 244.942 22.793 244.654 22.793C244.372 22.793 244.119 22.8522 243.896 22.9707C243.672 23.0892 243.483 23.251 243.328 23.4561C243.178 23.6611 243.062 23.8981 242.98 24.167C242.898 24.4359 242.857 24.723 242.857 25.0283ZM253.58 27.5166V23.9893C253.58 23.7249 253.532 23.4971 253.436 23.3057C253.34 23.1143 253.195 22.9661 252.999 22.8613C252.807 22.7565 252.566 22.7041 252.274 22.7041C252.005 22.7041 251.773 22.7497 251.577 22.8408C251.381 22.932 251.228 23.055 251.119 23.21C251.009 23.3649 250.955 23.5404 250.955 23.7363H249.314C249.314 23.4447 249.385 23.1621 249.526 22.8887C249.667 22.6152 249.872 22.3714 250.141 22.1572C250.41 21.943 250.731 21.7744 251.105 21.6514C251.479 21.5283 251.898 21.4668 252.363 21.4668C252.919 21.4668 253.411 21.5602 253.839 21.7471C254.272 21.9339 254.612 22.2165 254.858 22.5947C255.109 22.9684 255.234 23.4378 255.234 24.0029V27.291C255.234 27.6283 255.257 27.9313 255.302 28.2002C255.352 28.4645 255.423 28.6947 255.514 28.8906V29H253.826C253.748 28.8223 253.687 28.5967 253.641 28.3232C253.6 28.0452 253.58 27.7764 253.58 27.5166ZM253.819 24.502L253.833 25.5205H252.65C252.345 25.5205 252.076 25.5501 251.843 25.6094C251.611 25.6641 251.417 25.7461 251.262 25.8555C251.107 25.9648 250.991 26.097 250.914 26.252C250.836 26.4069 250.797 26.5824 250.797 26.7783C250.797 26.9743 250.843 27.1543 250.934 27.3184C251.025 27.4779 251.157 27.6032 251.331 27.6943C251.508 27.7855 251.723 27.8311 251.973 27.8311C252.31 27.8311 252.604 27.7627 252.855 27.626C253.11 27.4847 253.311 27.3138 253.457 27.1133C253.602 26.9082 253.68 26.7145 253.689 26.5322L254.222 27.2637C254.168 27.4505 254.074 27.651 253.942 27.8652C253.81 28.0794 253.637 28.2845 253.422 28.4805C253.213 28.6719 252.96 28.8291 252.664 28.9521C252.372 29.0752 252.035 29.1367 251.652 29.1367C251.169 29.1367 250.738 29.041 250.36 28.8496C249.982 28.6536 249.685 28.3916 249.471 28.0635C249.257 27.7308 249.15 27.3548 249.15 26.9355C249.15 26.5436 249.223 26.1973 249.369 25.8965C249.519 25.5911 249.738 25.3359 250.025 25.1309C250.317 24.9258 250.672 24.7708 251.091 24.666C251.511 24.5566 251.989 24.502 252.527 24.502H253.819ZM257.063 18.5H258.711V27.4209L258.554 29H257.063V18.5ZM263.537 25.2334V25.377C263.537 25.9238 263.476 26.4274 263.353 26.8877C263.234 27.3434 263.052 27.7399 262.806 28.0771C262.564 28.4144 262.263 28.6764 261.903 28.8633C261.548 29.0456 261.135 29.1367 260.666 29.1367C260.206 29.1367 259.805 29.0501 259.463 28.877C259.121 28.7038 258.834 28.4577 258.602 28.1387C258.374 27.8197 258.189 27.4391 258.048 26.9971C257.907 26.555 257.806 26.0674 257.747 25.5342V25.0762C257.806 24.5384 257.907 24.0508 258.048 23.6133C258.189 23.1712 258.374 22.7907 258.602 22.4717C258.834 22.1481 259.119 21.8997 259.456 21.7266C259.798 21.5534 260.197 21.4668 260.652 21.4668C261.126 21.4668 261.543 21.5579 261.903 21.7402C262.268 21.9225 262.571 22.1823 262.812 22.5195C263.054 22.8522 263.234 23.2487 263.353 23.709C263.476 24.1693 263.537 24.6774 263.537 25.2334ZM261.89 25.377V25.2334C261.89 24.9007 261.862 24.5885 261.808 24.2969C261.753 24.0007 261.662 23.7409 261.534 23.5176C261.411 23.2943 261.243 23.1188 261.028 22.9912C260.819 22.859 260.557 22.793 260.242 22.793C259.951 22.793 259.7 22.8431 259.49 22.9434C259.281 23.0436 259.105 23.1803 258.964 23.3535C258.823 23.5267 258.711 23.7272 258.629 23.9551C258.551 24.1829 258.499 24.429 258.472 24.6934V25.9307C258.513 26.2725 258.599 26.5869 258.731 26.874C258.868 27.1566 259.06 27.3844 259.306 27.5576C259.552 27.7262 259.868 27.8105 260.256 27.8105C260.561 27.8105 260.819 27.749 261.028 27.626C261.238 27.5029 261.404 27.332 261.527 27.1133C261.655 26.89 261.746 26.6302 261.801 26.334C261.86 26.0378 261.89 25.7188 261.89 25.377ZM266.795 18.5V29H265.141V18.5H266.795ZM271.961 29.1367C271.414 29.1367 270.919 29.0479 270.477 28.8701C270.04 28.6878 269.666 28.4349 269.356 28.1113C269.051 27.7878 268.816 27.4072 268.652 26.9697C268.488 26.5322 268.406 26.0605 268.406 25.5547V25.2812C268.406 24.7025 268.49 24.1784 268.659 23.709C268.828 23.2396 269.062 22.8385 269.363 22.5059C269.664 22.1686 270.019 21.9111 270.429 21.7334C270.84 21.5557 271.284 21.4668 271.763 21.4668C272.291 21.4668 272.754 21.5557 273.15 21.7334C273.547 21.9111 273.875 22.1618 274.135 22.4854C274.399 22.8044 274.595 23.1849 274.722 23.627C274.855 24.069 274.921 24.5566 274.921 25.0898V25.7939H269.206V24.6113H273.294V24.4814C273.285 24.1852 273.225 23.9072 273.116 23.6475C273.011 23.3877 272.849 23.1781 272.631 23.0186C272.412 22.859 272.12 22.7793 271.756 22.7793C271.482 22.7793 271.238 22.8385 271.024 22.957C270.815 23.071 270.639 23.2373 270.498 23.4561C270.357 23.6748 270.247 23.9391 270.17 24.249C270.097 24.5544 270.06 24.8984 270.06 25.2812V25.5547C270.06 25.8783 270.104 26.179 270.19 26.457C270.281 26.7305 270.414 26.9697 270.587 27.1748C270.76 27.3799 270.97 27.5417 271.216 27.6602C271.462 27.7741 271.742 27.8311 272.056 27.8311C272.453 27.8311 272.806 27.7513 273.116 27.5918C273.426 27.4323 273.695 27.2067 273.923 26.915L274.791 27.7559C274.631 27.9883 274.424 28.2116 274.169 28.4258C273.914 28.6354 273.601 28.8063 273.232 28.9385C272.868 29.0706 272.444 29.1367 271.961 29.1367ZM280.818 27.4688V18.5H282.472V29H280.975L280.818 27.4688ZM276.005 25.3838V25.2402C276.005 24.6797 276.071 24.1693 276.203 23.709C276.335 23.2441 276.527 22.8454 276.778 22.5127C277.028 22.1755 277.334 21.918 277.694 21.7402C278.054 21.5579 278.459 21.4668 278.91 21.4668C279.357 21.4668 279.749 21.5534 280.086 21.7266C280.423 21.8997 280.71 22.1481 280.947 22.4717C281.184 22.7907 281.374 23.1735 281.515 23.6201C281.656 24.0622 281.756 24.5544 281.816 25.0967V25.5547C281.756 26.0833 281.656 26.5664 281.515 27.0039C281.374 27.4414 281.184 27.8197 280.947 28.1387C280.71 28.4577 280.421 28.7038 280.079 28.877C279.742 29.0501 279.348 29.1367 278.897 29.1367C278.45 29.1367 278.047 29.0433 277.687 28.8564C277.331 28.6696 277.028 28.4076 276.778 28.0703C276.527 27.7331 276.335 27.3366 276.203 26.8809C276.071 26.4206 276.005 25.9215 276.005 25.3838ZM277.653 25.2402V25.3838C277.653 25.721 277.682 26.0355 277.741 26.3271C277.805 26.6188 277.903 26.8763 278.035 27.0996C278.168 27.3184 278.338 27.4915 278.548 27.6191C278.762 27.7422 279.017 27.8037 279.314 27.8037C279.687 27.8037 279.995 27.7217 280.237 27.5576C280.478 27.3936 280.667 27.1725 280.804 26.8945C280.945 26.612 281.041 26.2975 281.091 25.9512V24.7139C281.064 24.445 281.007 24.1943 280.92 23.9619C280.838 23.7295 280.726 23.5267 280.585 23.3535C280.444 23.1758 280.268 23.0391 280.059 22.9434C279.854 22.8431 279.61 22.793 279.327 22.793C279.027 22.793 278.771 22.8568 278.562 22.9844C278.352 23.112 278.179 23.2874 278.042 23.5107C277.91 23.734 277.812 23.9938 277.748 24.29C277.684 24.5863 277.653 24.903 277.653 25.2402Z" fill="#1C1B1F"/>
</g>
<path d="M206.5 4.5H290C300.77 4.5 309.5 13.2304 309.5 24C309.5 34.7696 300.77 43.5 290 43.5H206.5V4.5Z" stroke="#79747E"/>
<defs>
<clipPath id="clip0_51892_7546">
<path d="M0 24C0 12.9543 8.95431 4 20 4H104V44H20C8.95431 44 0 35.0457 0 24V24Z" fill="white"/>
</clipPath>
<clipPath id="clip1_51892_7546">
<rect x="103" y="4" width="104" height="40" fill="white"/>
</clipPath>
<clipPath id="clip2_51892_7546">
<path d="M206 4H290C301.046 4 310 12.9543 310 24V24C310 35.0457 301.046 44 290 44H206V4Z" fill="white"/>
</clipPath>
</defs>
</svg>
