<svg width="412" height="64" viewBox="0 0 412 64" fill="none" xmlns="http://www.w3.org/2000/svg">
<rect width="412" height="64" fill="#FFFBFE"/>
<g clip-path="url(#clip0_50717_9080)">
<path d="M36 31H23.83L29.42 25.41L28 24L20 32L28 40L29.41 38.59L23.83 33H36V31Z" fill="#49454F"/>
</g>
<path d="M63.5947 22.3594V38H61.5537V22.3594H63.5947ZM68.6221 22.3594V24.0566H56.5371V22.3594H68.6221ZM72.8008 26.377V38H70.8027V26.377H72.8008ZM70.6523 23.2939C70.6523 22.9717 70.749 22.6995 70.9424 22.4775C71.1429 22.2555 71.4365 22.1445 71.8232 22.1445C72.2028 22.1445 72.4928 22.2555 72.6934 22.4775C72.901 22.6995 73.0049 22.9717 73.0049 23.2939C73.0049 23.6019 72.901 23.8669 72.6934 24.0889C72.4928 24.3037 72.2028 24.4111 71.8232 24.4111C71.4365 24.4111 71.1429 24.3037 70.9424 24.0889C70.749 23.8669 70.6523 23.6019 70.6523 23.2939ZM80.8574 26.377V27.9023H74.5732V26.377H80.8574ZM76.7002 23.5518H78.6875V35.1211C78.6875 35.515 78.7484 35.8122 78.8701 36.0127C78.9919 36.2132 79.1494 36.3457 79.3428 36.4102C79.5361 36.4746 79.7438 36.5068 79.9658 36.5068C80.1305 36.5068 80.3024 36.4925 80.4814 36.4639C80.6676 36.4281 80.8073 36.3994 80.9004 36.3779L80.9111 38C80.7536 38.0501 80.5459 38.0967 80.2881 38.1396C80.0374 38.1898 79.7331 38.2148 79.375 38.2148C78.888 38.2148 78.4404 38.1182 78.0322 37.9248C77.624 37.7314 77.2982 37.4092 77.0547 36.958C76.8184 36.4997 76.7002 35.8838 76.7002 35.1104V23.5518ZM85.3477 21.5V38H83.3496V21.5H85.3477ZM93.3613 38.2148C92.5521 38.2148 91.818 38.0788 91.1592 37.8066C90.5075 37.5273 89.9453 37.137 89.4727 36.6357C89.0072 36.1344 88.6491 35.54 88.3984 34.8525C88.1478 34.165 88.0225 33.4131 88.0225 32.5967V32.1455C88.0225 31.2002 88.1621 30.3587 88.4414 29.6211C88.7207 28.8763 89.1003 28.2461 89.5801 27.7305C90.0599 27.2148 90.6042 26.8245 91.2129 26.5596C91.8216 26.2946 92.4518 26.1621 93.1035 26.1621C93.9342 26.1621 94.6504 26.3053 95.252 26.5918C95.8607 26.8783 96.3584 27.2793 96.7451 27.7949C97.1318 28.3034 97.4183 28.9049 97.6045 29.5996C97.7907 30.2871 97.8838 31.0391 97.8838 31.8555V32.7471H89.2041V31.125H95.8965V30.9746C95.8678 30.459 95.7604 29.9577 95.5742 29.4707C95.3952 28.9837 95.1087 28.5827 94.7148 28.2676C94.321 27.9525 93.7839 27.7949 93.1035 27.7949C92.6523 27.7949 92.237 27.8916 91.8574 28.085C91.4779 28.2712 91.152 28.5505 90.8799 28.9229C90.6077 29.2952 90.3965 29.75 90.2461 30.2871C90.0957 30.8242 90.0205 31.4437 90.0205 32.1455V32.5967C90.0205 33.1481 90.0957 33.6673 90.2461 34.1543C90.4036 34.6341 90.6292 35.0566 90.9229 35.4219C91.2236 35.7871 91.5853 36.0736 92.0078 36.2812C92.4375 36.4889 92.9245 36.5928 93.4688 36.5928C94.1706 36.5928 94.765 36.4495 95.252 36.1631C95.7389 35.8766 96.165 35.4935 96.5303 35.0137L97.7334 35.9697C97.4827 36.3493 97.1641 36.7109 96.7773 37.0547C96.3906 37.3984 95.9144 37.6777 95.3486 37.8926C94.79 38.1074 94.1276 38.2148 93.3613 38.2148Z" fill="#1C1B1F"/>
<g clip-path="url(#clip1_50717_9080)">
<path d="M291.5 26V36.5C291.5 38.71 289.71 40.5 287.5 40.5C285.29 40.5 283.5 38.71 283.5 36.5V26C283.5 24.62 284.62 23.5 286 23.5C287.38 23.5 288.5 24.62 288.5 26V35.5C288.5 36.05 288.05 36.5 287.5 36.5C286.95 36.5 286.5 36.05 286.5 35.5V26H285V35.5C285 36.88 286.12 38 287.5 38C288.88 38 290 36.88 290 35.5V26C290 23.79 288.21 22 286 22C283.79 22 282 23.79 282 26V36.5C282 39.54 284.46 42 287.5 42C290.54 42 293 39.54 293 36.5V26H291.5Z" fill="#49454F"/>
</g>
<g clip-path="url(#clip2_50717_9080)">
<path fill-rule="evenodd" clip-rule="evenodd" d="M343 24H342V22H340V24H332V22H330V24H329C327.89 24 327 24.9 327 26V40C327 41.1 327.89 42 329 42H343C344.1 42 345 41.1 345 40V26C345 24.9 344.1 24 343 24ZM343 40H329V29H343V40ZM330.5 33C330.5 31.62 331.62 30.5 333 30.5C334.38 30.5 335.5 31.62 335.5 33C335.5 34.38 334.38 35.5 333 35.5C331.62 35.5 330.5 34.38 330.5 33Z" fill="#49454F"/>
</g>
<g clip-path="url(#clip3_50717_9080)">
<path fill-rule="evenodd" clip-rule="evenodd" d="M384 28C385.1 28 386 27.1 386 26C386 24.9 385.1 24 384 24C382.9 24 382 24.9 382 26C382 27.1 382.9 28 384 28ZM384 30C382.9 30 382 30.9 382 32C382 33.1 382.9 34 384 34C385.1 34 386 33.1 386 32C386 30.9 385.1 30 384 30ZM382 38C382 36.9 382.9 36 384 36C385.1 36 386 36.9 386 38C386 39.1 385.1 40 384 40C382.9 40 382 39.1 382 38Z" fill="#49454F"/>
</g>
<defs>
<clipPath id="clip0_50717_9080">
<rect x="8" y="12" width="40" height="40" rx="20" fill="white"/>
</clipPath>
<clipPath id="clip1_50717_9080">
<rect x="268" y="12" width="40" height="40" rx="20" fill="white"/>
</clipPath>
<clipPath id="clip2_50717_9080">
<rect x="316" y="12" width="40" height="40" rx="20" fill="white"/>
</clipPath>
<clipPath id="clip3_50717_9080">
<rect x="364" y="12" width="40" height="40" rx="20" fill="white"/>
</clipPath>
</defs>
</svg>
