<svg width="366" height="70" viewBox="0 0 366 70" fill="none" xmlns="http://www.w3.org/2000/svg">
<g filter="url(#filter0_dd_51744_5050)">
<rect x="11" y="7" width="344" height="48" rx="4" fill="#313033"/>
<path d="M33.46 31.4844C33.46 31.252 33.4235 31.0469 33.3506 30.8691C33.2822 30.6868 33.1592 30.5228 32.9814 30.377C32.8083 30.2311 32.5667 30.0921 32.2568 29.96C31.9515 29.8278 31.5641 29.6934 31.0947 29.5566C30.6025 29.4108 30.1582 29.249 29.7617 29.0713C29.3652 28.889 29.0257 28.6816 28.7432 28.4492C28.4606 28.2168 28.2441 27.9502 28.0938 27.6494C27.9434 27.3486 27.8682 27.0046 27.8682 26.6172C27.8682 26.2298 27.9479 25.8721 28.1074 25.5439C28.2669 25.2158 28.4948 24.931 28.791 24.6895C29.0918 24.4434 29.4495 24.252 29.8643 24.1152C30.279 23.9785 30.7415 23.9102 31.252 23.9102C31.9993 23.9102 32.6328 24.0537 33.1523 24.3408C33.6764 24.6234 34.0752 24.9948 34.3486 25.4551C34.6221 25.9108 34.7588 26.3984 34.7588 26.918H33.4463C33.4463 26.5443 33.3665 26.2139 33.207 25.9268C33.0475 25.6351 32.806 25.4072 32.4824 25.2432C32.1589 25.0745 31.7487 24.9902 31.252 24.9902C30.7826 24.9902 30.3952 25.0609 30.0898 25.2021C29.7845 25.3434 29.5566 25.5348 29.4062 25.7764C29.2604 26.0179 29.1875 26.2936 29.1875 26.6035C29.1875 26.8132 29.2308 27.0046 29.3174 27.1777C29.4085 27.3464 29.5475 27.5036 29.7344 27.6494C29.9258 27.7952 30.1673 27.9297 30.459 28.0527C30.7552 28.1758 31.1084 28.2943 31.5186 28.4082C32.0837 28.5677 32.5713 28.7454 32.9814 28.9414C33.3916 29.1374 33.7288 29.3584 33.9932 29.6045C34.262 29.846 34.4603 30.1217 34.5879 30.4316C34.7201 30.737 34.7861 31.0833 34.7861 31.4707C34.7861 31.8763 34.7041 32.2432 34.54 32.5713C34.376 32.8994 34.1413 33.1797 33.8359 33.4121C33.5306 33.6445 33.1637 33.8245 32.7354 33.9521C32.3115 34.0752 31.8376 34.1367 31.3135 34.1367C30.8532 34.1367 30.3997 34.0729 29.9531 33.9453C29.5111 33.8177 29.1077 33.6263 28.7432 33.3711C28.3831 33.1159 28.0938 32.8014 27.875 32.4277C27.6608 32.0495 27.5537 31.612 27.5537 31.1152H28.8662C28.8662 31.457 28.9323 31.751 29.0645 31.9971C29.1966 32.2386 29.3766 32.4391 29.6045 32.5986C29.8369 32.7581 30.099 32.8766 30.3906 32.9541C30.6868 33.027 30.9945 33.0635 31.3135 33.0635C31.7738 33.0635 32.1634 32.9997 32.4824 32.8721C32.8014 32.7445 33.043 32.5622 33.207 32.3252C33.3757 32.0882 33.46 31.8079 33.46 31.4844ZM37.9004 26.6035V34H36.6289V26.6035H37.9004ZM36.5332 24.6416C36.5332 24.4365 36.5947 24.2633 36.7178 24.1221C36.8454 23.9808 37.0322 23.9102 37.2783 23.9102C37.5199 23.9102 37.7044 23.9808 37.832 24.1221C37.9642 24.2633 38.0303 24.4365 38.0303 24.6416C38.0303 24.8376 37.9642 25.0062 37.832 25.1475C37.7044 25.2842 37.5199 25.3525 37.2783 25.3525C37.0322 25.3525 36.8454 25.2842 36.7178 25.1475C36.5947 25.0062 36.5332 24.8376 36.5332 24.6416ZM41.4453 28.1826V34H40.1807V26.6035H41.377L41.4453 28.1826ZM41.1445 30.0215L40.6182 30.001C40.6227 29.4951 40.6979 29.028 40.8438 28.5996C40.9896 28.1667 41.1947 27.7907 41.459 27.4717C41.7233 27.1527 42.0378 26.9066 42.4023 26.7334C42.7715 26.5557 43.1794 26.4668 43.626 26.4668C43.9906 26.4668 44.3187 26.5169 44.6104 26.6172C44.902 26.7129 45.1504 26.8678 45.3555 27.082C45.5651 27.2962 45.7246 27.5742 45.834 27.916C45.9434 28.2533 45.998 28.6657 45.998 29.1533V34H44.7266V29.1396C44.7266 28.7523 44.6696 28.4424 44.5557 28.21C44.4417 27.973 44.2754 27.8021 44.0566 27.6973C43.8379 27.5879 43.569 27.5332 43.25 27.5332C42.9355 27.5332 42.6484 27.5993 42.3887 27.7314C42.1335 27.8636 41.9124 28.0459 41.7256 28.2783C41.5433 28.5107 41.3997 28.7773 41.2949 29.0781C41.1947 29.3743 41.1445 29.6888 41.1445 30.0215ZM52.9609 26.6035H54.1094V33.8428C54.1094 34.4945 53.9772 35.0505 53.7129 35.5107C53.4486 35.971 53.0794 36.3197 52.6055 36.5566C52.1361 36.7982 51.5938 36.9189 50.9785 36.9189C50.7233 36.9189 50.4225 36.8779 50.0762 36.7959C49.7344 36.7184 49.3971 36.584 49.0645 36.3926C48.7363 36.2057 48.4606 35.9528 48.2373 35.6338L48.9004 34.8818C49.2103 35.2555 49.5339 35.5153 49.8711 35.6611C50.2129 35.807 50.5501 35.8799 50.8828 35.8799C51.2839 35.8799 51.6302 35.8047 51.9219 35.6543C52.2135 35.5039 52.4391 35.2806 52.5986 34.9844C52.7627 34.6927 52.8447 34.3327 52.8447 33.9043V28.2305L52.9609 26.6035ZM47.8682 30.3838V30.2402C47.8682 29.6751 47.9342 29.1624 48.0664 28.7021C48.2031 28.2373 48.3968 27.8385 48.6475 27.5059C48.9027 27.1732 49.2103 26.918 49.5703 26.7402C49.9303 26.5579 50.3359 26.4668 50.7871 26.4668C51.252 26.4668 51.6576 26.5488 52.0039 26.7129C52.3548 26.8724 52.651 27.1071 52.8926 27.417C53.1387 27.7223 53.3324 28.0915 53.4736 28.5244C53.6149 28.9574 53.7129 29.4473 53.7676 29.9941V30.623C53.7174 31.1654 53.6195 31.653 53.4736 32.0859C53.3324 32.5189 53.1387 32.888 52.8926 33.1934C52.651 33.4987 52.3548 33.7334 52.0039 33.8975C51.653 34.057 51.2428 34.1367 50.7734 34.1367C50.3314 34.1367 49.9303 34.0433 49.5703 33.8564C49.2148 33.6696 48.9095 33.4076 48.6543 33.0703C48.3991 32.7331 48.2031 32.3366 48.0664 31.8809C47.9342 31.4206 47.8682 30.9215 47.8682 30.3838ZM49.1328 30.2402V30.3838C49.1328 30.7529 49.1693 31.0993 49.2422 31.4229C49.3197 31.7464 49.4359 32.0312 49.5908 32.2773C49.7503 32.5234 49.9531 32.7171 50.1992 32.8584C50.4453 32.9951 50.7393 33.0635 51.0811 33.0635C51.5003 33.0635 51.8467 32.9746 52.1201 32.7969C52.3936 32.6191 52.61 32.3844 52.7695 32.0928C52.9336 31.8011 53.0612 31.4844 53.1523 31.1426V29.4951C53.1022 29.2445 53.0247 29.0029 52.9199 28.7705C52.8197 28.5335 52.6875 28.3239 52.5234 28.1416C52.3639 27.9548 52.1657 27.8066 51.9287 27.6973C51.6917 27.5879 51.4137 27.5332 51.0947 27.5332C50.7484 27.5332 50.4499 27.6061 50.1992 27.752C49.9531 27.8932 49.7503 28.0892 49.5908 28.3398C49.4359 28.5859 49.3197 28.873 49.2422 29.2012C49.1693 29.5247 49.1328 29.8711 49.1328 30.2402ZM57.6543 23.5V34H56.3828V23.5H57.6543ZM63.0039 34.1367C62.4889 34.1367 62.0218 34.0501 61.6025 33.877C61.1878 33.6992 60.8301 33.4508 60.5293 33.1318C60.2331 32.8128 60.0052 32.4346 59.8457 31.9971C59.6862 31.5596 59.6064 31.0811 59.6064 30.5615V30.2744C59.6064 29.6729 59.6953 29.1374 59.873 28.668C60.0508 28.194 60.2923 27.793 60.5977 27.4648C60.903 27.1367 61.2493 26.8883 61.6367 26.7197C62.0241 26.5511 62.4251 26.4668 62.8398 26.4668C63.3685 26.4668 63.8242 26.5579 64.207 26.7402C64.5944 26.9225 64.9111 27.1777 65.1572 27.5059C65.4033 27.8294 65.5856 28.2122 65.7041 28.6543C65.8226 29.0918 65.8818 29.5703 65.8818 30.0898V30.6572H60.3584V29.625H64.6172V29.5293C64.599 29.2012 64.5306 28.8822 64.4121 28.5723C64.2982 28.2624 64.1159 28.0072 63.8652 27.8066C63.6146 27.6061 63.2728 27.5059 62.8398 27.5059C62.5527 27.5059 62.2884 27.5674 62.0469 27.6904C61.8053 27.8089 61.598 27.9867 61.4248 28.2236C61.2516 28.4606 61.1172 28.75 61.0215 29.0918C60.9258 29.4336 60.8779 29.8278 60.8779 30.2744V30.5615C60.8779 30.9124 60.9258 31.2428 61.0215 31.5527C61.1217 31.8581 61.2653 32.127 61.4521 32.3594C61.6436 32.5918 61.8737 32.7741 62.1426 32.9062C62.416 33.0384 62.7259 33.1045 63.0723 33.1045C63.5189 33.1045 63.8971 33.0133 64.207 32.8311C64.5169 32.6488 64.7881 32.4049 65.0205 32.0996L65.7861 32.708C65.6266 32.9495 65.4238 33.1797 65.1777 33.3984C64.9316 33.6172 64.6286 33.7949 64.2686 33.9316C63.9131 34.0684 63.4915 34.1367 63.0039 34.1367ZM70.2402 29.249V30.2881H66.9043V29.249H70.2402ZM73.1016 23.5V34H71.8301V23.5H73.1016ZM76.7559 26.6035V34H75.4844V26.6035H76.7559ZM75.3887 24.6416C75.3887 24.4365 75.4502 24.2633 75.5732 24.1221C75.7008 23.9808 75.8877 23.9102 76.1338 23.9102C76.3753 23.9102 76.5599 23.9808 76.6875 24.1221C76.8197 24.2633 76.8857 24.4365 76.8857 24.6416C76.8857 24.8376 76.8197 25.0062 76.6875 25.1475C76.5599 25.2842 76.3753 25.3525 76.1338 25.3525C75.8877 25.3525 75.7008 25.2842 75.5732 25.1475C75.4502 25.0062 75.3887 24.8376 75.3887 24.6416ZM80.3008 28.1826V34H79.0361V26.6035H80.2324L80.3008 28.1826ZM80 30.0215L79.4736 30.001C79.4782 29.4951 79.5534 29.028 79.6992 28.5996C79.8451 28.1667 80.0501 27.7907 80.3145 27.4717C80.5788 27.1527 80.8932 26.9066 81.2578 26.7334C81.627 26.5557 82.0348 26.4668 82.4814 26.4668C82.846 26.4668 83.1742 26.5169 83.4658 26.6172C83.7575 26.7129 84.0059 26.8678 84.2109 27.082C84.4206 27.2962 84.5801 27.5742 84.6895 27.916C84.7988 28.2533 84.8535 28.6657 84.8535 29.1533V34H83.582V29.1396C83.582 28.7523 83.5251 28.4424 83.4111 28.21C83.2972 27.973 83.1309 27.8021 82.9121 27.6973C82.6934 27.5879 82.4245 27.5332 82.1055 27.5332C81.791 27.5332 81.5039 27.5993 81.2441 27.7314C80.9889 27.8636 80.7679 28.0459 80.5811 28.2783C80.3988 28.5107 80.2552 28.7773 80.1504 29.0781C80.0501 29.3743 80 29.6888 80 30.0215ZM90.0938 34.1367C89.5788 34.1367 89.1117 34.0501 88.6924 33.877C88.2777 33.6992 87.9199 33.4508 87.6191 33.1318C87.3229 32.8128 87.0951 32.4346 86.9355 31.9971C86.776 31.5596 86.6963 31.0811 86.6963 30.5615V30.2744C86.6963 29.6729 86.7852 29.1374 86.9629 28.668C87.1406 28.194 87.3822 27.793 87.6875 27.4648C87.9928 27.1367 88.3392 26.8883 88.7266 26.7197C89.1139 26.5511 89.515 26.4668 89.9297 26.4668C90.4583 26.4668 90.9141 26.5579 91.2969 26.7402C91.6842 26.9225 92.001 27.1777 92.2471 27.5059C92.4932 27.8294 92.6755 28.2122 92.7939 28.6543C92.9124 29.0918 92.9717 29.5703 92.9717 30.0898V30.6572H87.4482V29.625H91.707V29.5293C91.6888 29.2012 91.6204 28.8822 91.502 28.5723C91.388 28.2624 91.2057 28.0072 90.9551 27.8066C90.7044 27.6061 90.3626 27.5059 89.9297 27.5059C89.6426 27.5059 89.3783 27.5674 89.1367 27.6904C88.8952 27.8089 88.6878 27.9867 88.5146 28.2236C88.3415 28.4606 88.207 28.75 88.1113 29.0918C88.0156 29.4336 87.9678 29.8278 87.9678 30.2744V30.5615C87.9678 30.9124 88.0156 31.2428 88.1113 31.5527C88.2116 31.8581 88.3551 32.127 88.542 32.3594C88.7334 32.5918 88.9635 32.7741 89.2324 32.9062C89.5059 33.0384 89.8158 33.1045 90.1621 33.1045C90.6087 33.1045 90.987 33.0133 91.2969 32.8311C91.6068 32.6488 91.8779 32.4049 92.1104 32.0996L92.876 32.708C92.7165 32.9495 92.5137 33.1797 92.2676 33.3984C92.0215 33.6172 91.7184 33.7949 91.3584 33.9316C91.0029 34.0684 90.5814 34.1367 90.0938 34.1367ZM102.728 32.0381C102.728 31.8558 102.687 31.6872 102.604 31.5322C102.527 31.3727 102.365 31.2292 102.119 31.1016C101.878 30.9694 101.513 30.8555 101.025 30.7598C100.615 30.6732 100.244 30.5706 99.9111 30.4521C99.583 30.3337 99.3027 30.1901 99.0703 30.0215C98.8424 29.8529 98.667 29.6546 98.5439 29.4268C98.4209 29.1989 98.3594 28.9323 98.3594 28.627C98.3594 28.3353 98.4232 28.0596 98.5508 27.7998C98.6829 27.54 98.8675 27.3099 99.1045 27.1094C99.346 26.9089 99.6354 26.7516 99.9727 26.6377C100.31 26.5238 100.686 26.4668 101.101 26.4668C101.693 26.4668 102.199 26.5716 102.618 26.7812C103.037 26.9909 103.359 27.2712 103.582 27.6221C103.805 27.9684 103.917 28.3535 103.917 28.7773H102.652C102.652 28.5723 102.591 28.374 102.468 28.1826C102.349 27.9867 102.174 27.8249 101.941 27.6973C101.714 27.5697 101.433 27.5059 101.101 27.5059C100.75 27.5059 100.465 27.5605 100.246 27.6699C100.032 27.7747 99.8747 27.9092 99.7744 28.0732C99.6787 28.2373 99.6309 28.4105 99.6309 28.5928C99.6309 28.7295 99.6536 28.8525 99.6992 28.9619C99.7493 29.0667 99.8359 29.1647 99.959 29.2559C100.082 29.3424 100.255 29.4245 100.479 29.502C100.702 29.5794 100.987 29.6569 101.333 29.7344C101.939 29.8711 102.438 30.0352 102.83 30.2266C103.222 30.418 103.514 30.6527 103.705 30.9307C103.896 31.2087 103.992 31.5459 103.992 31.9424C103.992 32.266 103.924 32.5622 103.787 32.8311C103.655 33.0999 103.461 33.3324 103.206 33.5283C102.955 33.7197 102.655 33.8701 102.304 33.9795C101.957 34.0843 101.568 34.1367 101.135 34.1367C100.483 34.1367 99.9316 34.0205 99.4805 33.7881C99.0293 33.5557 98.6875 33.2549 98.4551 32.8857C98.2227 32.5166 98.1064 32.127 98.1064 31.7168H99.3779C99.3962 32.0632 99.4964 32.3389 99.6787 32.5439C99.861 32.7445 100.084 32.888 100.349 32.9746C100.613 33.0566 100.875 33.0977 101.135 33.0977C101.481 33.0977 101.771 33.0521 102.003 32.9609C102.24 32.8698 102.42 32.7445 102.543 32.585C102.666 32.4255 102.728 32.2432 102.728 32.0381ZM107.168 28.1826V34H105.903V26.6035H107.1L107.168 28.1826ZM106.867 30.0215L106.341 30.001C106.345 29.4951 106.421 29.028 106.566 28.5996C106.712 28.1667 106.917 27.7907 107.182 27.4717C107.446 27.1527 107.76 26.9066 108.125 26.7334C108.494 26.5557 108.902 26.4668 109.349 26.4668C109.713 26.4668 110.041 26.5169 110.333 26.6172C110.625 26.7129 110.873 26.8678 111.078 27.082C111.288 27.2962 111.447 27.5742 111.557 27.916C111.666 28.2533 111.721 28.6657 111.721 29.1533V34H110.449V29.1396C110.449 28.7523 110.392 28.4424 110.278 28.21C110.164 27.973 109.998 27.8021 109.779 27.6973C109.561 27.5879 109.292 27.5332 108.973 27.5332C108.658 27.5332 108.371 27.5993 108.111 27.7314C107.856 27.8636 107.635 28.0459 107.448 28.2783C107.266 28.5107 107.122 28.7773 107.018 29.0781C106.917 29.3743 106.867 29.6888 106.867 30.0215ZM118.253 32.7354V28.9277C118.253 28.6361 118.194 28.3831 118.075 28.1689C117.961 27.9502 117.788 27.7816 117.556 27.6631C117.323 27.5446 117.036 27.4854 116.694 27.4854C116.375 27.4854 116.095 27.54 115.854 27.6494C115.617 27.7588 115.43 27.9023 115.293 28.0801C115.161 28.2578 115.095 28.4492 115.095 28.6543H113.83C113.83 28.39 113.898 28.1279 114.035 27.8682C114.172 27.6084 114.368 27.3737 114.623 27.1641C114.883 26.9499 115.193 26.7812 115.553 26.6582C115.917 26.5306 116.323 26.4668 116.77 26.4668C117.307 26.4668 117.781 26.5579 118.191 26.7402C118.606 26.9225 118.93 27.1982 119.162 27.5674C119.399 27.932 119.518 28.39 119.518 28.9414V32.3867C119.518 32.6328 119.538 32.8949 119.579 33.1729C119.625 33.4508 119.691 33.6901 119.777 33.8906V34H118.458C118.394 33.8542 118.344 33.6605 118.308 33.4189C118.271 33.1729 118.253 32.945 118.253 32.7354ZM118.472 29.5156L118.485 30.4043H117.207C116.847 30.4043 116.526 30.4339 116.243 30.4932C115.961 30.5479 115.724 30.6322 115.532 30.7461C115.341 30.86 115.195 31.0036 115.095 31.1768C114.994 31.3454 114.944 31.5436 114.944 31.7715C114.944 32.0039 114.997 32.2158 115.102 32.4072C115.206 32.5986 115.364 32.7513 115.573 32.8652C115.787 32.9746 116.049 33.0293 116.359 33.0293C116.747 33.0293 117.089 32.9473 117.385 32.7832C117.681 32.6191 117.916 32.4186 118.089 32.1816C118.267 31.9447 118.362 31.7145 118.376 31.4912L118.916 32.0996C118.884 32.291 118.798 32.5029 118.656 32.7354C118.515 32.9678 118.326 33.1911 118.089 33.4053C117.856 33.6149 117.578 33.7904 117.255 33.9316C116.936 34.0684 116.576 34.1367 116.175 34.1367C115.674 34.1367 115.234 34.0387 114.855 33.8428C114.482 33.6468 114.19 33.3848 113.98 33.0566C113.775 32.724 113.673 32.3525 113.673 31.9424C113.673 31.5459 113.75 31.1973 113.905 30.8965C114.06 30.5911 114.284 30.3382 114.575 30.1377C114.867 29.9326 115.218 29.7777 115.628 29.6729C116.038 29.568 116.496 29.5156 117.002 29.5156H118.472ZM124.717 33.0977C125.018 33.0977 125.296 33.0361 125.551 32.9131C125.806 32.79 126.016 32.6214 126.18 32.4072C126.344 32.1885 126.437 31.9401 126.46 31.6621H127.663C127.64 32.0996 127.492 32.5075 127.219 32.8857C126.95 33.2594 126.597 33.5625 126.159 33.7949C125.722 34.0228 125.241 34.1367 124.717 34.1367C124.161 34.1367 123.675 34.0387 123.261 33.8428C122.851 33.6468 122.509 33.3779 122.235 33.0361C121.966 32.6943 121.764 32.3024 121.627 31.8604C121.495 31.4137 121.429 30.9421 121.429 30.4453V30.1582C121.429 29.6615 121.495 29.1921 121.627 28.75C121.764 28.3034 121.966 27.9092 122.235 27.5674C122.509 27.2256 122.851 26.9567 123.261 26.7607C123.675 26.5648 124.161 26.4668 124.717 26.4668C125.296 26.4668 125.801 26.5853 126.234 26.8223C126.667 27.0547 127.007 27.3737 127.253 27.7793C127.504 28.1803 127.64 28.6361 127.663 29.1465H126.46C126.437 28.8411 126.351 28.5654 126.2 28.3193C126.054 28.0732 125.854 27.8773 125.599 27.7314C125.348 27.5811 125.054 27.5059 124.717 27.5059C124.329 27.5059 124.004 27.5833 123.739 27.7383C123.479 27.8887 123.272 28.0938 123.117 28.3535C122.967 28.6087 122.857 28.8936 122.789 29.208C122.725 29.5179 122.693 29.8346 122.693 30.1582V30.4453C122.693 30.7689 122.725 31.0879 122.789 31.4023C122.853 31.7168 122.96 32.0016 123.11 32.2568C123.265 32.512 123.473 32.7171 123.732 32.8721C123.997 33.0225 124.325 33.0977 124.717 33.0977ZM130.606 23.5V34H129.335V23.5H130.606ZM135.125 26.6035L131.898 30.0557L130.094 31.9287L129.991 30.582L131.283 29.0371L133.58 26.6035H135.125ZM133.97 34L131.331 30.4727L131.987 29.3447L135.46 34H133.97ZM136.674 23.5H137.945V32.5645L137.836 34H136.674V23.5ZM142.942 30.2402V30.3838C142.942 30.9215 142.879 31.4206 142.751 31.8809C142.623 32.3366 142.437 32.7331 142.19 33.0703C141.944 33.4076 141.644 33.6696 141.288 33.8564C140.933 34.0433 140.525 34.1367 140.064 34.1367C139.595 34.1367 139.183 34.057 138.827 33.8975C138.476 33.7334 138.18 33.4987 137.938 33.1934C137.697 32.888 137.503 32.5189 137.357 32.0859C137.216 31.653 137.118 31.1654 137.063 30.623V29.9941C137.118 29.4473 137.216 28.9574 137.357 28.5244C137.503 28.0915 137.697 27.7223 137.938 27.417C138.18 27.1071 138.476 26.8724 138.827 26.7129C139.178 26.5488 139.586 26.4668 140.051 26.4668C140.516 26.4668 140.928 26.5579 141.288 26.7402C141.648 26.918 141.949 27.1732 142.19 27.5059C142.437 27.8385 142.623 28.2373 142.751 28.7021C142.879 29.1624 142.942 29.6751 142.942 30.2402ZM141.671 30.3838V30.2402C141.671 29.8711 141.637 29.5247 141.568 29.2012C141.5 28.873 141.391 28.5859 141.24 28.3398C141.09 28.0892 140.892 27.8932 140.646 27.752C140.399 27.6061 140.096 27.5332 139.736 27.5332C139.417 27.5332 139.139 27.5879 138.902 27.6973C138.67 27.8066 138.472 27.9548 138.308 28.1416C138.144 28.3239 138.009 28.5335 137.904 28.7705C137.804 29.0029 137.729 29.2445 137.679 29.4951V31.1426C137.752 31.4616 137.87 31.7692 138.034 32.0654C138.203 32.3571 138.426 32.5964 138.704 32.7832C138.987 32.9701 139.335 33.0635 139.75 33.0635C140.092 33.0635 140.383 32.9951 140.625 32.8584C140.871 32.7171 141.069 32.5234 141.22 32.2773C141.375 32.0312 141.489 31.7464 141.562 31.4229C141.634 31.0993 141.671 30.7529 141.671 30.3838ZM149.153 32.7354V28.9277C149.153 28.6361 149.094 28.3831 148.976 28.1689C148.862 27.9502 148.688 27.7816 148.456 27.6631C148.224 27.5446 147.937 27.4854 147.595 27.4854C147.276 27.4854 146.995 27.54 146.754 27.6494C146.517 27.7588 146.33 27.9023 146.193 28.0801C146.061 28.2578 145.995 28.4492 145.995 28.6543H144.73C144.73 28.39 144.799 28.1279 144.936 27.8682C145.072 27.6084 145.268 27.3737 145.523 27.1641C145.783 26.9499 146.093 26.7812 146.453 26.6582C146.818 26.5306 147.223 26.4668 147.67 26.4668C148.208 26.4668 148.682 26.5579 149.092 26.7402C149.507 26.9225 149.83 27.1982 150.062 27.5674C150.299 27.932 150.418 28.39 150.418 28.9414V32.3867C150.418 32.6328 150.438 32.8949 150.479 33.1729C150.525 33.4508 150.591 33.6901 150.678 33.8906V34H149.358C149.295 33.8542 149.244 33.6605 149.208 33.4189C149.172 33.1729 149.153 32.945 149.153 32.7354ZM149.372 29.5156L149.386 30.4043H148.107C147.747 30.4043 147.426 30.4339 147.144 30.4932C146.861 30.5479 146.624 30.6322 146.433 30.7461C146.241 30.86 146.095 31.0036 145.995 31.1768C145.895 31.3454 145.845 31.5436 145.845 31.7715C145.845 32.0039 145.897 32.2158 146.002 32.4072C146.107 32.5986 146.264 32.7513 146.474 32.8652C146.688 32.9746 146.95 33.0293 147.26 33.0293C147.647 33.0293 147.989 32.9473 148.285 32.7832C148.581 32.6191 148.816 32.4186 148.989 32.1816C149.167 31.9447 149.263 31.7145 149.276 31.4912L149.816 32.0996C149.785 32.291 149.698 32.5029 149.557 32.7354C149.415 32.9678 149.226 33.1911 148.989 33.4053C148.757 33.6149 148.479 33.7904 148.155 33.9316C147.836 34.0684 147.476 34.1367 147.075 34.1367C146.574 34.1367 146.134 34.0387 145.756 33.8428C145.382 33.6468 145.09 33.3848 144.881 33.0566C144.676 32.724 144.573 32.3525 144.573 31.9424C144.573 31.5459 144.651 31.1973 144.806 30.8965C144.961 30.5911 145.184 30.3382 145.476 30.1377C145.767 29.9326 146.118 29.7777 146.528 29.6729C146.938 29.568 147.396 29.5156 147.902 29.5156H149.372ZM153.922 27.7656V34H152.657V26.6035H153.888L153.922 27.7656ZM156.232 26.5625L156.226 27.7383C156.121 27.7155 156.021 27.7018 155.925 27.6973C155.834 27.6882 155.729 27.6836 155.61 27.6836C155.319 27.6836 155.061 27.7292 154.838 27.8203C154.615 27.9115 154.425 28.0391 154.271 28.2031C154.116 28.3672 153.993 28.5632 153.901 28.791C153.815 29.0143 153.758 29.2604 153.73 29.5293L153.375 29.7344C153.375 29.2878 153.418 28.8685 153.505 28.4766C153.596 28.0846 153.735 27.7383 153.922 27.4375C154.109 27.1322 154.346 26.8952 154.633 26.7266C154.924 26.5534 155.271 26.4668 155.672 26.4668C155.763 26.4668 155.868 26.4782 155.986 26.501C156.105 26.5192 156.187 26.5397 156.232 26.5625ZM163.247 32.6875L165.147 26.6035H165.981L165.817 27.8135L163.883 34H163.069L163.247 32.6875ZM161.969 26.6035L163.589 32.7559L163.705 34H162.851L160.704 26.6035H161.969ZM167.8 32.708L169.345 26.6035H170.603L168.456 34H167.608L167.8 32.708ZM166.166 26.6035L168.025 32.585L168.237 34H167.431L165.441 27.7998L165.277 26.6035H166.166ZM173.525 26.6035V34H172.254V26.6035H173.525ZM172.158 24.6416C172.158 24.4365 172.22 24.2633 172.343 24.1221C172.47 23.9808 172.657 23.9102 172.903 23.9102C173.145 23.9102 173.329 23.9808 173.457 24.1221C173.589 24.2633 173.655 24.4365 173.655 24.6416C173.655 24.8376 173.589 25.0062 173.457 25.1475C173.329 25.2842 173.145 25.3525 172.903 25.3525C172.657 25.3525 172.47 25.2842 172.343 25.1475C172.22 25.0062 172.158 24.8376 172.158 24.6416ZM178.902 26.6035V27.5742H174.903V26.6035H178.902ZM176.257 24.8057H177.521V32.168C177.521 32.4186 177.56 32.6077 177.638 32.7354C177.715 32.863 177.815 32.9473 177.938 32.9883C178.062 33.0293 178.194 33.0498 178.335 33.0498C178.44 33.0498 178.549 33.0407 178.663 33.0225C178.782 32.9997 178.87 32.9814 178.93 32.9678L178.937 34C178.836 34.0319 178.704 34.0615 178.54 34.0889C178.381 34.1208 178.187 34.1367 177.959 34.1367C177.649 34.1367 177.364 34.0752 177.104 33.9521C176.845 33.8291 176.637 33.624 176.482 33.3369C176.332 33.0452 176.257 32.6533 176.257 32.1611V24.8057ZM181.9 23.5V34H180.636V23.5H181.9ZM181.6 30.0215L181.073 30.001C181.078 29.4951 181.153 29.028 181.299 28.5996C181.445 28.1667 181.65 27.7907 181.914 27.4717C182.178 27.1527 182.493 26.9066 182.857 26.7334C183.227 26.5557 183.634 26.4668 184.081 26.4668C184.446 26.4668 184.774 26.5169 185.065 26.6172C185.357 26.7129 185.605 26.8678 185.811 27.082C186.02 27.2962 186.18 27.5742 186.289 27.916C186.398 28.2533 186.453 28.6657 186.453 29.1533V34H185.182V29.1396C185.182 28.7523 185.125 28.4424 185.011 28.21C184.897 27.973 184.73 27.8021 184.512 27.6973C184.293 27.5879 184.024 27.5332 183.705 27.5332C183.391 27.5332 183.104 27.5993 182.844 27.7314C182.589 27.8636 182.368 28.0459 182.181 28.2783C181.998 28.5107 181.855 28.7773 181.75 29.0781C181.65 29.3743 181.6 29.6888 181.6 30.0215ZM196.681 32.7354V28.9277C196.681 28.6361 196.621 28.3831 196.503 28.1689C196.389 27.9502 196.216 27.7816 195.983 27.6631C195.751 27.5446 195.464 27.4854 195.122 27.4854C194.803 27.4854 194.523 27.54 194.281 27.6494C194.044 27.7588 193.857 27.9023 193.721 28.0801C193.589 28.2578 193.522 28.4492 193.522 28.6543H192.258C192.258 28.39 192.326 28.1279 192.463 27.8682C192.6 27.6084 192.796 27.3737 193.051 27.1641C193.311 26.9499 193.62 26.7812 193.98 26.6582C194.345 26.5306 194.751 26.4668 195.197 26.4668C195.735 26.4668 196.209 26.5579 196.619 26.7402C197.034 26.9225 197.357 27.1982 197.59 27.5674C197.827 27.932 197.945 28.39 197.945 28.9414V32.3867C197.945 32.6328 197.966 32.8949 198.007 33.1729C198.052 33.4508 198.118 33.6901 198.205 33.8906V34H196.886C196.822 33.8542 196.772 33.6605 196.735 33.4189C196.699 33.1729 196.681 32.945 196.681 32.7354ZM196.899 29.5156L196.913 30.4043H195.635C195.275 30.4043 194.953 30.4339 194.671 30.4932C194.388 30.5479 194.151 30.6322 193.96 30.7461C193.769 30.86 193.623 31.0036 193.522 31.1768C193.422 31.3454 193.372 31.5436 193.372 31.7715C193.372 32.0039 193.424 32.2158 193.529 32.4072C193.634 32.5986 193.791 32.7513 194.001 32.8652C194.215 32.9746 194.477 33.0293 194.787 33.0293C195.174 33.0293 195.516 32.9473 195.812 32.7832C196.109 32.6191 196.343 32.4186 196.517 32.1816C196.694 31.9447 196.79 31.7145 196.804 31.4912L197.344 32.0996C197.312 32.291 197.225 32.5029 197.084 32.7354C196.943 32.9678 196.754 33.1911 196.517 33.4053C196.284 33.6149 196.006 33.7904 195.683 33.9316C195.364 34.0684 195.004 34.1367 194.603 34.1367C194.101 34.1367 193.661 34.0387 193.283 33.8428C192.91 33.6468 192.618 33.3848 192.408 33.0566C192.203 32.724 192.101 32.3525 192.101 31.9424C192.101 31.5459 192.178 31.1973 192.333 30.8965C192.488 30.5911 192.711 30.3382 193.003 30.1377C193.295 29.9326 193.646 29.7777 194.056 29.6729C194.466 29.568 194.924 29.5156 195.43 29.5156H196.899ZM203.145 33.0977C203.445 33.0977 203.723 33.0361 203.979 32.9131C204.234 32.79 204.443 32.6214 204.607 32.4072C204.771 32.1885 204.865 31.9401 204.888 31.6621H206.091C206.068 32.0996 205.92 32.5075 205.646 32.8857C205.378 33.2594 205.024 33.5625 204.587 33.7949C204.149 34.0228 203.669 34.1367 203.145 34.1367C202.589 34.1367 202.103 34.0387 201.688 33.8428C201.278 33.6468 200.937 33.3779 200.663 33.0361C200.394 32.6943 200.191 32.3024 200.055 31.8604C199.923 31.4137 199.856 30.9421 199.856 30.4453V30.1582C199.856 29.6615 199.923 29.1921 200.055 28.75C200.191 28.3034 200.394 27.9092 200.663 27.5674C200.937 27.2256 201.278 26.9567 201.688 26.7607C202.103 26.5648 202.589 26.4668 203.145 26.4668C203.723 26.4668 204.229 26.5853 204.662 26.8223C205.095 27.0547 205.435 27.3737 205.681 27.7793C205.931 28.1803 206.068 28.6361 206.091 29.1465H204.888C204.865 28.8411 204.778 28.5654 204.628 28.3193C204.482 28.0732 204.282 27.8773 204.026 27.7314C203.776 27.5811 203.482 27.5059 203.145 27.5059C202.757 27.5059 202.431 27.5833 202.167 27.7383C201.907 27.8887 201.7 28.0938 201.545 28.3535C201.395 28.6087 201.285 28.8936 201.217 29.208C201.153 29.5179 201.121 29.8346 201.121 30.1582V30.4453C201.121 30.7689 201.153 31.0879 201.217 31.4023C201.281 31.7168 201.388 32.0016 201.538 32.2568C201.693 32.512 201.9 32.7171 202.16 32.8721C202.424 33.0225 202.753 33.0977 203.145 33.0977ZM210.859 26.6035V27.5742H206.86V26.6035H210.859ZM208.214 24.8057H209.479V32.168C209.479 32.4186 209.517 32.6077 209.595 32.7354C209.672 32.863 209.772 32.9473 209.896 32.9883C210.019 33.0293 210.151 33.0498 210.292 33.0498C210.397 33.0498 210.506 33.0407 210.62 33.0225C210.739 32.9997 210.827 32.9814 210.887 32.9678L210.894 34C210.793 34.0319 210.661 34.0615 210.497 34.0889C210.338 34.1208 210.144 34.1367 209.916 34.1367C209.606 34.1367 209.321 34.0752 209.062 33.9521C208.802 33.8291 208.594 33.624 208.439 33.3369C208.289 33.0452 208.214 32.6533 208.214 32.1611V24.8057ZM213.967 26.6035V34H212.695V26.6035H213.967ZM212.6 24.6416C212.6 24.4365 212.661 24.2633 212.784 24.1221C212.912 23.9808 213.099 23.9102 213.345 23.9102C213.586 23.9102 213.771 23.9808 213.898 24.1221C214.031 24.2633 214.097 24.4365 214.097 24.6416C214.097 24.8376 214.031 25.0062 213.898 25.1475C213.771 25.2842 213.586 25.3525 213.345 25.3525C213.099 25.3525 212.912 25.2842 212.784 25.1475C212.661 25.0062 212.6 24.8376 212.6 24.6416ZM215.912 30.3838V30.2266C215.912 29.6934 215.99 29.1989 216.145 28.7432C216.299 28.2829 216.523 27.8841 216.814 27.5469C217.106 27.2051 217.459 26.9408 217.874 26.7539C218.289 26.5625 218.754 26.4668 219.269 26.4668C219.788 26.4668 220.255 26.5625 220.67 26.7539C221.089 26.9408 221.445 27.2051 221.736 27.5469C222.033 27.8841 222.258 28.2829 222.413 28.7432C222.568 29.1989 222.646 29.6934 222.646 30.2266V30.3838C222.646 30.917 222.568 31.4115 222.413 31.8672C222.258 32.3229 222.033 32.7217 221.736 33.0635C221.445 33.4007 221.091 33.665 220.677 33.8564C220.267 34.0433 219.802 34.1367 219.282 34.1367C218.763 34.1367 218.296 34.0433 217.881 33.8564C217.466 33.665 217.111 33.4007 216.814 33.0635C216.523 32.7217 216.299 32.3229 216.145 31.8672C215.99 31.4115 215.912 30.917 215.912 30.3838ZM217.177 30.2266V30.3838C217.177 30.7529 217.22 31.1016 217.307 31.4297C217.393 31.7533 217.523 32.0404 217.696 32.291C217.874 32.5417 218.095 32.7399 218.359 32.8857C218.624 33.027 218.931 33.0977 219.282 33.0977C219.629 33.0977 219.932 33.027 220.191 32.8857C220.456 32.7399 220.674 32.5417 220.848 32.291C221.021 32.0404 221.151 31.7533 221.237 31.4297C221.328 31.1016 221.374 30.7529 221.374 30.3838V30.2266C221.374 29.862 221.328 29.5179 221.237 29.1943C221.151 28.8662 221.019 28.5768 220.841 28.3262C220.668 28.071 220.449 27.8704 220.185 27.7246C219.925 27.5788 219.619 27.5059 219.269 27.5059C218.922 27.5059 218.617 27.5788 218.353 27.7246C218.093 27.8704 217.874 28.071 217.696 28.3262C217.523 28.5768 217.393 28.8662 217.307 29.1943C217.22 29.5179 217.177 29.862 217.177 30.2266ZM225.746 28.1826V34H224.481V26.6035H225.678L225.746 28.1826ZM225.445 30.0215L224.919 30.001C224.924 29.4951 224.999 29.028 225.145 28.5996C225.29 28.1667 225.495 27.7907 225.76 27.4717C226.024 27.1527 226.339 26.9066 226.703 26.7334C227.072 26.5557 227.48 26.4668 227.927 26.4668C228.291 26.4668 228.619 26.5169 228.911 26.6172C229.203 26.7129 229.451 26.8678 229.656 27.082C229.866 27.2962 230.025 27.5742 230.135 27.916C230.244 28.2533 230.299 28.6657 230.299 29.1533V34H229.027V29.1396C229.027 28.7523 228.97 28.4424 228.856 28.21C228.743 27.973 228.576 27.8021 228.357 27.6973C228.139 27.5879 227.87 27.5332 227.551 27.5332C227.236 27.5332 226.949 27.5993 226.689 27.7314C226.434 27.8636 226.213 28.0459 226.026 28.2783C225.844 28.5107 225.701 28.7773 225.596 29.0781C225.495 29.3743 225.445 29.6888 225.445 30.0215Z" fill="#F4EFF4"/>
<g clip-path="url(#clip0_51744_5050)">
<path d="M298.355 27.373L295.382 36H293.584L297.33 26.0469H298.479L298.355 27.373ZM300.844 36L297.863 27.373L297.733 26.0469H298.889L302.648 36H300.844ZM300.7 32.3086V33.6689H295.286V32.3086H300.7ZM306.72 34.8242C306.989 34.8242 307.231 34.7718 307.445 34.667C307.663 34.5576 307.839 34.4072 307.971 34.2158C308.108 34.0244 308.183 33.8034 308.197 33.5527H309.748C309.739 34.0312 309.598 34.4665 309.325 34.8584C309.051 35.2503 308.689 35.5625 308.238 35.7949C307.787 36.0228 307.288 36.1367 306.741 36.1367C306.176 36.1367 305.683 36.041 305.264 35.8496C304.845 35.6536 304.496 35.3848 304.218 35.043C303.94 34.7012 303.731 34.307 303.589 33.8604C303.453 33.4137 303.384 32.9352 303.384 32.4248V32.1855C303.384 31.6751 303.453 31.1966 303.589 30.75C303.731 30.2988 303.94 29.9023 304.218 29.5605C304.496 29.2188 304.845 28.9521 305.264 28.7607C305.683 28.5648 306.173 28.4668 306.734 28.4668C307.326 28.4668 307.846 28.5853 308.292 28.8223C308.739 29.0547 309.09 29.3805 309.345 29.7998C309.605 30.2145 309.739 30.6976 309.748 31.249H308.197C308.183 30.9756 308.115 30.7295 307.992 30.5107C307.873 30.2874 307.704 30.1097 307.486 29.9775C307.272 29.8454 307.014 29.7793 306.713 29.7793C306.381 29.7793 306.105 29.8477 305.886 29.9844C305.667 30.1165 305.496 30.2988 305.373 30.5312C305.25 30.7591 305.162 31.0166 305.107 31.3037C305.057 31.5863 305.032 31.8802 305.032 32.1855V32.4248C305.032 32.7301 305.057 33.0264 305.107 33.3135C305.157 33.6006 305.244 33.8581 305.367 34.0859C305.494 34.3092 305.667 34.4893 305.886 34.626C306.105 34.7581 306.383 34.8242 306.72 34.8242ZM314.504 28.6035V29.8066H310.334V28.6035H314.504ZM311.537 26.792H313.184V33.9561C313.184 34.1839 313.216 34.3594 313.28 34.4824C313.348 34.6009 313.442 34.6807 313.56 34.7217C313.679 34.7627 313.818 34.7832 313.977 34.7832C314.091 34.7832 314.201 34.7764 314.305 34.7627C314.41 34.749 314.495 34.7354 314.558 34.7217L314.565 35.9795C314.429 36.0205 314.269 36.057 314.087 36.0889C313.909 36.1208 313.704 36.1367 313.471 36.1367C313.093 36.1367 312.758 36.0706 312.467 35.9385C312.175 35.8018 311.947 35.5807 311.783 35.2754C311.619 34.9701 311.537 34.5645 311.537 34.0586V26.792ZM317.639 28.6035V36H315.985V28.6035H317.639ZM315.875 26.6621C315.875 26.4115 315.957 26.2041 316.121 26.04C316.29 25.8714 316.522 25.7871 316.819 25.7871C317.11 25.7871 317.34 25.8714 317.509 26.04C317.678 26.2041 317.762 26.4115 317.762 26.6621C317.762 26.9082 317.678 27.1133 317.509 27.2773C317.34 27.4414 317.11 27.5234 316.819 27.5234C316.522 27.5234 316.29 27.4414 316.121 27.2773C315.957 27.1133 315.875 26.9082 315.875 26.6621ZM319.229 32.3838V32.2266C319.229 31.6934 319.307 31.1989 319.462 30.7432C319.616 30.2829 319.84 29.8841 320.131 29.5469C320.428 29.2051 320.788 28.9408 321.212 28.7539C321.64 28.5625 322.123 28.4668 322.661 28.4668C323.203 28.4668 323.686 28.5625 324.11 28.7539C324.538 28.9408 324.901 29.2051 325.197 29.5469C325.493 29.8841 325.719 30.2829 325.874 30.7432C326.029 31.1989 326.106 31.6934 326.106 32.2266V32.3838C326.106 32.917 326.029 33.4115 325.874 33.8672C325.719 34.3229 325.493 34.7217 325.197 35.0635C324.901 35.4007 324.541 35.665 324.117 35.8564C323.693 36.0433 323.212 36.1367 322.674 36.1367C322.132 36.1367 321.647 36.0433 321.218 35.8564C320.795 35.665 320.435 35.4007 320.138 35.0635C319.842 34.7217 319.616 34.3229 319.462 33.8672C319.307 33.4115 319.229 32.917 319.229 32.3838ZM320.877 32.2266V32.3838C320.877 32.7165 320.911 33.0309 320.979 33.3271C321.047 33.6234 321.155 33.8831 321.3 34.1064C321.446 34.3298 321.633 34.5052 321.861 34.6328C322.089 34.7604 322.36 34.8242 322.674 34.8242C322.98 34.8242 323.244 34.7604 323.467 34.6328C323.695 34.5052 323.882 34.3298 324.028 34.1064C324.174 33.8831 324.281 33.6234 324.349 33.3271C324.422 33.0309 324.459 32.7165 324.459 32.3838V32.2266C324.459 31.8984 324.422 31.5885 324.349 31.2969C324.281 31.0007 324.171 30.7386 324.021 30.5107C323.875 30.2829 323.688 30.1051 323.461 29.9775C323.237 29.8454 322.971 29.7793 322.661 29.7793C322.351 29.7793 322.082 29.8454 321.854 29.9775C321.631 30.1051 321.446 30.2829 321.3 30.5107C321.155 30.7386 321.047 31.0007 320.979 31.2969C320.911 31.5885 320.877 31.8984 320.877 32.2266ZM329.221 30.1826V36H327.573V28.6035H329.125L329.221 30.1826ZM328.927 32.0283L328.394 32.0215C328.398 31.4974 328.471 31.0166 328.612 30.5791C328.758 30.1416 328.959 29.7656 329.214 29.4512C329.474 29.1367 329.784 28.8952 330.144 28.7266C330.504 28.5534 330.905 28.4668 331.347 28.4668C331.702 28.4668 332.023 28.5169 332.311 28.6172C332.602 28.7129 332.851 28.8701 333.056 29.0889C333.265 29.3076 333.425 29.5924 333.534 29.9434C333.644 30.2897 333.698 30.7158 333.698 31.2217V36H332.044V31.2148C332.044 30.8594 331.992 30.5791 331.887 30.374C331.786 30.1644 331.638 30.0163 331.442 29.9297C331.251 29.8385 331.012 29.793 330.725 29.793C330.442 29.793 330.189 29.8522 329.966 29.9707C329.743 30.0892 329.553 30.251 329.398 30.4561C329.248 30.6611 329.132 30.8981 329.05 31.167C328.968 31.4359 328.927 31.723 328.927 32.0283Z" fill="#D0BCFF"/>
</g>
</g>
<defs>
<filter id="filter0_dd_51744_5050" x="0" y="0" width="366" height="70" filterUnits="userSpaceOnUse" color-interpolation-filters="sRGB">
<feFlood flood-opacity="0" result="BackgroundImageFix"/>
<feColorMatrix in="SourceAlpha" type="matrix" values="0 0 0 0 0 0 0 0 0 0 0 0 0 0 0 0 0 0 127 0" result="hardAlpha"/>
<feOffset dy="1"/>
<feGaussianBlur stdDeviation="1.5"/>
<feColorMatrix type="matrix" values="0 0 0 0 0 0 0 0 0 0 0 0 0 0 0 0 0 0 0.3 0"/>
<feBlend mode="normal" in2="BackgroundImageFix" result="effect1_dropShadow_51744_5050"/>
<feColorMatrix in="SourceAlpha" type="matrix" values="0 0 0 0 0 0 0 0 0 0 0 0 0 0 0 0 0 0 127 0" result="hardAlpha"/>
<feMorphology radius="3" operator="dilate" in="SourceAlpha" result="effect2_dropShadow_51744_5050"/>
<feOffset dy="4"/>
<feGaussianBlur stdDeviation="4"/>
<feColorMatrix type="matrix" values="0 0 0 0 0 0 0 0 0 0 0 0 0 0 0 0 0 0 0.15 0"/>
<feBlend mode="normal" in2="effect1_dropShadow_51744_5050" result="effect2_dropShadow_51744_5050"/>
<feBlend mode="normal" in="SourceGraphic" in2="effect2_dropShadow_51744_5050" result="shape"/>
</filter>
<clipPath id="clip0_51744_5050">
<rect x="281" y="11" width="66" height="40" rx="20" fill="white"/>
</clipPath>
</defs>
</svg>
