<svg width="40" height="40" viewBox="0 0 40 40" fill="none" xmlns="http://www.w3.org/2000/svg">
<g clip-path="url(#clip0_51525_5219)">
<path fill-rule="evenodd" clip-rule="evenodd" d="M23.3102 29.0298C23.2102 29.7098 22.5902 30.2498 21.8502 30.2498H18.1502C17.4102 30.2498 16.7902 29.7098 16.7002 28.9798L16.4302 27.0898C16.1602 26.9498 15.9002 26.7998 15.6402 26.6298L13.8402 27.3498C13.1402 27.6098 12.3702 27.3198 12.0302 26.6998L10.2002 23.5298C9.85023 22.8698 10.0002 22.0898 10.5602 21.6498L12.0902 20.4598C12.0802 20.3098 12.0702 20.1598 12.0702 19.9998C12.0702 19.8498 12.0802 19.6898 12.0902 19.5398L10.5702 18.3498C9.98023 17.8998 9.83023 17.0898 10.2002 16.4698L12.0502 13.2798C12.3902 12.6598 13.1602 12.3798 13.8402 12.6498L15.6502 13.3798C15.9102 13.2098 16.1702 13.0598 16.4302 12.9198L16.7002 11.0098C16.7902 10.3098 17.4102 9.75977 18.1402 9.75977H21.8402C22.5802 9.75977 23.2002 10.2998 23.2902 11.0298L23.5602 12.9198C23.8302 13.0598 24.0902 13.2098 24.3502 13.3798L26.1502 12.6598C26.8602 12.3998 27.6302 12.6898 27.9702 13.3098L29.8102 16.4898C30.1702 17.1498 30.0102 17.9298 29.4502 18.3698L27.9302 19.5598C27.9402 19.7098 27.9502 19.8598 27.9502 20.0198C27.9502 20.1798 27.9402 20.3298 27.9302 20.4798L29.4502 21.6698C30.0102 22.1198 30.1702 22.8998 29.8202 23.5298L27.9602 26.7498C27.6202 27.3698 26.8502 27.6498 26.1602 27.3798L24.3602 26.6598C24.1002 26.8298 23.8402 26.9798 23.5802 27.1198L23.3102 29.0298ZM18.6202 28.2498H21.3802L21.7502 25.6998L22.2802 25.4798C22.7202 25.2998 23.1602 25.0398 23.6202 24.6998L24.0702 24.3598L26.4502 25.3198L27.8302 22.9198L25.8002 21.3398L25.8702 20.7798L25.8733 20.7528C25.9023 20.5025 25.9302 20.2604 25.9302 19.9998C25.9302 19.7298 25.9002 19.4698 25.8702 19.2198L25.8002 18.6598L27.8302 17.0798L26.4402 14.6798L24.0502 15.6398L23.6002 15.2898C23.1802 14.9698 22.7302 14.7098 22.2702 14.5198L21.7502 14.2998L21.3802 11.7498H18.6202L18.2502 14.2998L17.7202 14.5098C17.2802 14.6998 16.8402 14.9498 16.3802 15.2998L15.9302 15.6298L13.5502 14.6798L12.1602 17.0698L14.1902 18.6498L14.1202 19.2098C14.0902 19.4698 14.0602 19.7398 14.0602 19.9998C14.0602 20.2598 14.0802 20.5298 14.1202 20.7798L14.1902 21.3398L12.1602 22.9198L13.5402 25.3198L15.9302 24.3598L16.3802 24.7098C16.8102 25.0398 17.2402 25.2898 17.7102 25.4798L18.2402 25.6998L18.6202 28.2498ZM23.5002 19.9998C23.5002 21.9328 21.9332 23.4998 20.0002 23.4998C18.0672 23.4998 16.5002 21.9328 16.5002 19.9998C16.5002 18.0668 18.0672 16.4998 20.0002 16.4998C21.9332 16.4998 23.5002 18.0668 23.5002 19.9998Z" fill="#49454F"/>
</g>
<defs>
<clipPath id="clip0_51525_5219">
<rect width="40" height="40" rx="20" fill="white"/>
</clipPath>
</defs>
</svg>
