<svg width="360" height="585" viewBox="0 0 360 585" fill="none" xmlns="http://www.w3.org/2000/svg">
<rect width="360" height="585" rx="16" fill="#FFFBFE"/>
<rect width="360" height="585" rx="16" fill="#6750A4" fill-opacity="0.05"/>
<path d="M33.1064 35.0469V45H31.4043V35.0469H33.1064ZM36.2305 35.0469V36.4141H28.3076V35.0469H36.2305ZM39.2426 37.6035V45H37.5883V37.6035H39.2426ZM37.4789 35.6621C37.4789 35.4115 37.5609 35.2041 37.725 35.04C37.8936 34.8714 38.126 34.7871 38.4223 34.7871C38.7139 34.7871 38.9441 34.8714 39.1127 35.04C39.2813 35.2041 39.3656 35.4115 39.3656 35.6621C39.3656 35.9082 39.2813 36.1133 39.1127 36.2773C38.9441 36.4414 38.7139 36.5234 38.4223 36.5234C38.126 36.5234 37.8936 36.4414 37.725 36.2773C37.5609 36.1133 37.4789 35.9082 37.4789 35.6621ZM44.5379 37.6035V38.8066H40.368V37.6035H44.5379ZM41.5711 35.792H43.2186V42.9561C43.2186 43.1839 43.2505 43.3594 43.3143 43.4824C43.3826 43.6009 43.476 43.6807 43.5945 43.7217C43.713 43.7627 43.852 43.7832 44.0115 43.7832C44.1255 43.7832 44.2348 43.7764 44.3396 43.7627C44.4445 43.749 44.5288 43.7354 44.5926 43.7217L44.5994 44.9795C44.4627 45.0205 44.3032 45.057 44.1209 45.0889C43.9432 45.1208 43.7381 45.1367 43.5057 45.1367C43.1274 45.1367 42.7924 45.0706 42.5008 44.9385C42.2091 44.8018 41.9812 44.5807 41.8172 44.2754C41.6531 43.9701 41.5711 43.5645 41.5711 43.0586V35.792ZM47.673 34.5V45H46.0187V34.5H47.673ZM52.8385 45.1367C52.2916 45.1367 51.7971 45.0479 51.3551 44.8701C50.9176 44.6878 50.5439 44.4349 50.234 44.1113C49.9286 43.7878 49.6939 43.4072 49.5299 42.9697C49.3658 42.5322 49.2838 42.0605 49.2838 41.5547V41.2812C49.2838 40.7025 49.3681 40.1784 49.5367 39.709C49.7053 39.2396 49.94 38.8385 50.2408 38.5059C50.5416 38.1686 50.8971 37.9111 51.3072 37.7334C51.7174 37.5557 52.1617 37.4668 52.6402 37.4668C53.1689 37.4668 53.6314 37.5557 54.0279 37.7334C54.4244 37.9111 54.7525 38.1618 55.0123 38.4854C55.2766 38.8044 55.4726 39.1849 55.6002 39.627C55.7324 40.069 55.7984 40.5566 55.7984 41.0898V41.7939H50.0836V40.6113H54.1715V40.4814C54.1624 40.1852 54.1031 39.9072 53.9937 39.6475C53.8889 39.3877 53.7271 39.1781 53.5084 39.0186C53.2896 38.859 52.998 38.7793 52.6334 38.7793C52.36 38.7793 52.1161 38.8385 51.902 38.957C51.6923 39.071 51.5169 39.2373 51.3756 39.4561C51.2343 39.6748 51.1249 39.9391 51.0475 40.249C50.9745 40.5544 50.9381 40.8984 50.9381 41.2812V41.5547C50.9381 41.8783 50.9814 42.179 51.068 42.457C51.1591 42.7305 51.2913 42.9697 51.4645 43.1748C51.6376 43.3799 51.8473 43.5417 52.0934 43.6602C52.3395 43.7741 52.6197 43.8311 52.9342 43.8311C53.3307 43.8311 53.6839 43.7513 53.9937 43.5918C54.3036 43.4323 54.5725 43.2067 54.8004 42.915L55.6686 43.7559C55.509 43.9883 55.3017 44.2116 55.0465 44.4258C54.7913 44.6354 54.4791 44.8063 54.11 44.9385C53.7454 45.0706 53.3215 45.1367 52.8385 45.1367Z" fill="#49454F"/>
<path d="M34.248 98.4365C34.248 98.2314 34.2161 98.0492 34.1523 97.8896C34.0931 97.7301 33.986 97.5843 33.8311 97.4521C33.6761 97.32 33.4574 97.1924 33.1748 97.0693C32.8968 96.9417 32.5413 96.8118 32.1084 96.6797C31.6344 96.5339 31.1969 96.3721 30.7959 96.1943C30.3994 96.012 30.0531 95.8024 29.7568 95.5654C29.4606 95.3239 29.2305 95.0482 29.0664 94.7383C28.9023 94.4238 28.8203 94.0615 28.8203 93.6514C28.8203 93.2458 28.9046 92.8766 29.0732 92.5439C29.2464 92.2113 29.4902 91.9242 29.8047 91.6826C30.1237 91.4365 30.4997 91.2474 30.9326 91.1152C31.3656 90.9785 31.8441 90.9102 32.3682 90.9102C33.1064 90.9102 33.7422 91.0469 34.2754 91.3203C34.8132 91.5938 35.2256 91.9606 35.5127 92.4209C35.8044 92.8812 35.9502 93.3893 35.9502 93.9453H34.248C34.248 93.6172 34.1774 93.3278 34.0361 93.0771C33.8994 92.8219 33.6898 92.6214 33.4072 92.4756C33.1292 92.3298 32.776 92.2568 32.3477 92.2568C31.9421 92.2568 31.6048 92.3184 31.3359 92.4414C31.0671 92.5645 30.8665 92.7308 30.7344 92.9404C30.6022 93.1501 30.5361 93.387 30.5361 93.6514C30.5361 93.8382 30.5794 94.0091 30.666 94.1641C30.7526 94.3145 30.8848 94.4557 31.0625 94.5879C31.2402 94.7155 31.4635 94.8363 31.7324 94.9502C32.0013 95.0641 32.318 95.1735 32.6826 95.2783C33.234 95.4424 33.7148 95.6247 34.125 95.8252C34.5352 96.0212 34.877 96.2445 35.1504 96.4951C35.4238 96.7458 35.6289 97.0306 35.7656 97.3496C35.9023 97.6641 35.9707 98.0218 35.9707 98.4229C35.9707 98.8421 35.8864 99.2204 35.7178 99.5576C35.5492 99.8903 35.3076 100.175 34.9932 100.412C34.6833 100.645 34.3096 100.825 33.8721 100.952C33.4391 101.075 32.9561 101.137 32.4229 101.137C31.9443 101.137 31.4727 101.073 31.0078 100.945C30.5475 100.818 30.1283 100.624 29.75 100.364C29.3717 100.1 29.071 99.7718 28.8477 99.3799C28.6243 98.9834 28.5127 98.5208 28.5127 97.9922H30.2285C30.2285 98.3158 30.2832 98.5915 30.3926 98.8193C30.5065 99.0472 30.6637 99.234 30.8643 99.3799C31.0648 99.5212 31.2972 99.626 31.5615 99.6943C31.8304 99.7627 32.1175 99.7969 32.4229 99.7969C32.8239 99.7969 33.1589 99.7399 33.4277 99.626C33.7012 99.512 33.9062 99.3525 34.043 99.1475C34.1797 98.9424 34.248 98.7054 34.248 98.4365ZM40.685 101.137C40.1381 101.137 39.6436 101.048 39.2016 100.87C38.7641 100.688 38.3904 100.435 38.0805 100.111C37.7751 99.7878 37.5404 99.4072 37.3764 98.9697C37.2123 98.5322 37.1303 98.0605 37.1303 97.5547V97.2812C37.1303 96.7025 37.2146 96.1784 37.3832 95.709C37.5518 95.2396 37.7865 94.8385 38.0873 94.5059C38.3881 94.1686 38.7436 93.9111 39.1537 93.7334C39.5639 93.5557 40.0082 93.4668 40.4867 93.4668C41.0154 93.4668 41.4779 93.5557 41.8744 93.7334C42.2709 93.9111 42.599 94.1618 42.8588 94.4854C43.1231 94.8044 43.3191 95.1849 43.4467 95.627C43.5788 96.069 43.6449 96.5566 43.6449 97.0898V97.7939H37.9301V96.6113H42.018V96.4814C42.0089 96.1852 41.9496 95.9072 41.8402 95.6475C41.7354 95.3877 41.5736 95.1781 41.3549 95.0186C41.1361 94.859 40.8445 94.7793 40.4799 94.7793C40.2064 94.7793 39.9626 94.8385 39.7484 94.957C39.5388 95.071 39.3633 95.2373 39.2221 95.4561C39.0808 95.6748 38.9714 95.9391 38.8939 96.249C38.821 96.5544 38.7846 96.8984 38.7846 97.2812V97.5547C38.7846 97.8783 38.8279 98.179 38.9145 98.457C39.0056 98.7305 39.1378 98.9697 39.3109 99.1748C39.4841 99.3799 39.6938 99.5417 39.9398 99.6602C40.1859 99.7741 40.4662 99.8311 40.7807 99.8311C41.1771 99.8311 41.5303 99.7513 41.8402 99.5918C42.1501 99.4323 42.419 99.2067 42.6469 98.915L43.515 99.7559C43.3555 99.9883 43.1482 100.212 42.893 100.426C42.6378 100.635 42.3256 100.806 41.9564 100.938C41.5919 101.071 41.168 101.137 40.685 101.137ZM48.0516 99.8242C48.3204 99.8242 48.562 99.7718 48.7762 99.667C48.9949 99.5576 49.1704 99.4072 49.3025 99.2158C49.4393 99.0244 49.5145 98.8034 49.5281 98.5527H51.0799C51.0708 99.0312 50.9295 99.4665 50.6561 99.8584C50.3826 100.25 50.0203 100.562 49.5691 100.795C49.118 101.023 48.6189 101.137 48.0721 101.137C47.507 101.137 47.0148 101.041 46.5955 100.85C46.1762 100.654 45.8276 100.385 45.5496 100.043C45.2716 99.7012 45.062 99.307 44.9207 98.8604C44.784 98.4137 44.7156 97.9352 44.7156 97.4248V97.1855C44.7156 96.6751 44.784 96.1966 44.9207 95.75C45.062 95.2988 45.2716 94.9023 45.5496 94.5605C45.8276 94.2188 46.1762 93.9521 46.5955 93.7607C47.0148 93.5648 47.5047 93.4668 48.0652 93.4668C48.6577 93.4668 49.1772 93.5853 49.6238 93.8223C50.0704 94.0547 50.4214 94.3805 50.6766 94.7998C50.9363 95.2145 51.0708 95.6976 51.0799 96.249H49.5281C49.5145 95.9756 49.4461 95.7295 49.323 95.5107C49.2046 95.2874 49.0359 95.1097 48.8172 94.9775C48.603 94.8454 48.3455 94.7793 48.0447 94.7793C47.712 94.7793 47.4363 94.8477 47.2176 94.9844C46.9988 95.1165 46.8279 95.2988 46.7049 95.5312C46.5818 95.7591 46.493 96.0166 46.4383 96.3037C46.3882 96.5863 46.3631 96.8802 46.3631 97.1855V97.4248C46.3631 97.7301 46.3882 98.0264 46.4383 98.3135C46.4884 98.6006 46.575 98.8581 46.698 99.0859C46.8257 99.3092 46.9988 99.4893 47.2176 99.626C47.4363 99.7581 47.7143 99.8242 48.0516 99.8242ZM55.8352 93.6035V94.8066H51.6652V93.6035H55.8352ZM52.8684 91.792H54.5158V98.9561C54.5158 99.1839 54.5477 99.3594 54.6115 99.4824C54.6799 99.6009 54.7733 99.6807 54.8918 99.7217C55.0103 99.7627 55.1493 99.7832 55.3088 99.7832C55.4227 99.7832 55.5321 99.7764 55.6369 99.7627C55.7417 99.749 55.826 99.7354 55.8898 99.7217L55.8967 100.979C55.76 101.021 55.6005 101.057 55.4182 101.089C55.2404 101.121 55.0354 101.137 54.8029 101.137C54.4247 101.137 54.0897 101.071 53.798 100.938C53.5064 100.802 53.2785 100.581 53.1145 100.275C52.9504 99.9701 52.8684 99.5645 52.8684 99.0586V91.792ZM58.9703 93.6035V101H57.316V93.6035H58.9703ZM57.2066 91.6621C57.2066 91.4115 57.2887 91.2041 57.4527 91.04C57.6214 90.8714 57.8538 90.7871 58.15 90.7871C58.4417 90.7871 58.6718 90.8714 58.8404 91.04C59.009 91.2041 59.0934 91.4115 59.0934 91.6621C59.0934 91.9082 59.009 92.1133 58.8404 92.2773C58.6718 92.4414 58.4417 92.5234 58.15 92.5234C57.8538 92.5234 57.6214 92.4414 57.4527 92.2773C57.2887 92.1133 57.2066 91.9082 57.2066 91.6621ZM60.5605 97.3838V97.2266C60.5605 96.6934 60.638 96.1989 60.793 95.7432C60.9479 95.2829 61.1712 94.8841 61.4629 94.5469C61.7591 94.2051 62.1191 93.9408 62.543 93.7539C62.9714 93.5625 63.4544 93.4668 63.9922 93.4668C64.5345 93.4668 65.0176 93.5625 65.4414 93.7539C65.8698 93.9408 66.2321 94.2051 66.5283 94.5469C66.8245 94.8841 67.0501 95.2829 67.2051 95.7432C67.36 96.1989 67.4375 96.6934 67.4375 97.2266V97.3838C67.4375 97.917 67.36 98.4115 67.2051 98.8672C67.0501 99.3229 66.8245 99.7217 66.5283 100.063C66.2321 100.401 65.8721 100.665 65.4482 100.856C65.0244 101.043 64.5436 101.137 64.0059 101.137C63.4635 101.137 62.9782 101.043 62.5498 100.856C62.126 100.665 61.766 100.401 61.4697 100.063C61.1735 99.7217 60.9479 99.3229 60.793 98.8672C60.638 98.4115 60.5605 97.917 60.5605 97.3838ZM62.208 97.2266V97.3838C62.208 97.7165 62.2422 98.0309 62.3105 98.3271C62.3789 98.6234 62.486 98.8831 62.6318 99.1064C62.7777 99.3298 62.9645 99.5052 63.1924 99.6328C63.4202 99.7604 63.6914 99.8242 64.0059 99.8242C64.3112 99.8242 64.5755 99.7604 64.7988 99.6328C65.0267 99.5052 65.2135 99.3298 65.3594 99.1064C65.5052 98.8831 65.6123 98.6234 65.6807 98.3271C65.7536 98.0309 65.79 97.7165 65.79 97.3838V97.2266C65.79 96.8984 65.7536 96.5885 65.6807 96.2969C65.6123 96.0007 65.5029 95.7386 65.3525 95.5107C65.2067 95.2829 65.0199 95.1051 64.792 94.9775C64.5687 94.8454 64.3021 94.7793 63.9922 94.7793C63.6823 94.7793 63.4134 94.8454 63.1855 94.9775C62.9622 95.1051 62.7777 95.2829 62.6318 95.5107C62.486 95.7386 62.3789 96.0007 62.3105 96.2969C62.2422 96.5885 62.208 96.8984 62.208 97.2266ZM70.5521 95.1826V101H68.9047V93.6035H70.4564L70.5521 95.1826ZM70.2582 97.0283L69.725 97.0215C69.7296 96.4974 69.8025 96.0166 69.9437 95.5791C70.0896 95.1416 70.2901 94.7656 70.5453 94.4512C70.8051 94.1367 71.115 93.8952 71.475 93.7266C71.835 93.5534 72.2361 93.4668 72.6781 93.4668C73.0336 93.4668 73.3549 93.5169 73.642 93.6172C73.9337 93.7129 74.182 93.8701 74.3871 94.0889C74.5967 94.3076 74.7562 94.5924 74.8656 94.9434C74.975 95.2897 75.0297 95.7158 75.0297 96.2217V101H73.3754V96.2148C73.3754 95.8594 73.323 95.5791 73.2182 95.374C73.1179 95.1644 72.9698 95.0163 72.7738 94.9297C72.5824 94.8385 72.3432 94.793 72.0561 94.793C71.7735 94.793 71.5206 94.8522 71.2973 94.9707C71.074 95.0892 70.8848 95.251 70.7299 95.4561C70.5795 95.6611 70.4633 95.8981 70.3812 96.167C70.2992 96.4359 70.2582 96.723 70.2582 97.0283ZM87.1379 95.2031V96.5635H81.8537V95.2031H87.1379ZM82.2775 91.0469V101H80.5617V91.0469H82.2775ZM88.4572 91.0469V101H86.7482V91.0469H88.4572ZM93.6979 101.137C93.151 101.137 92.6565 101.048 92.2145 100.87C91.777 100.688 91.4033 100.435 91.0934 100.111C90.788 99.7878 90.5533 99.4072 90.3893 98.9697C90.2252 98.5322 90.1432 98.0605 90.1432 97.5547V97.2812C90.1432 96.7025 90.2275 96.1784 90.3961 95.709C90.5647 95.2396 90.7994 94.8385 91.1002 94.5059C91.401 94.1686 91.7564 93.9111 92.1666 93.7334C92.5768 93.5557 93.0211 93.4668 93.4996 93.4668C94.0283 93.4668 94.4908 93.5557 94.8873 93.7334C95.2838 93.9111 95.6119 94.1618 95.8717 94.4854C96.136 94.8044 96.332 95.1849 96.4596 95.627C96.5917 96.069 96.6578 96.5566 96.6578 97.0898V97.7939H90.943V96.6113H95.0309V96.4814C95.0217 96.1852 94.9625 95.9072 94.8531 95.6475C94.7483 95.3877 94.5865 95.1781 94.3678 95.0186C94.149 94.859 93.8574 94.7793 93.4928 94.7793C93.2193 94.7793 92.9755 94.8385 92.7613 94.957C92.5517 95.071 92.3762 95.2373 92.235 95.4561C92.0937 95.6748 91.9843 95.9391 91.9068 96.249C91.8339 96.5544 91.7975 96.8984 91.7975 97.2812V97.5547C91.7975 97.8783 91.8408 98.179 91.9273 98.457C92.0185 98.7305 92.1507 98.9697 92.3238 99.1748C92.497 99.3799 92.7066 99.5417 92.9527 99.6602C93.1988 99.7741 93.4791 99.8311 93.7936 99.8311C94.19 99.8311 94.5432 99.7513 94.8531 99.5918C95.163 99.4323 95.4319 99.2067 95.6598 98.915L96.5279 99.7559C96.3684 99.9883 96.1611 100.212 95.9059 100.426C95.6507 100.635 95.3385 100.806 94.9693 100.938C94.6048 101.071 94.1809 101.137 93.6979 101.137ZM102.213 99.5166V95.9893C102.213 95.7249 102.165 95.4971 102.069 95.3057C101.974 95.1143 101.828 94.9661 101.632 94.8613C101.44 94.7565 101.199 94.7041 100.907 94.7041C100.638 94.7041 100.406 94.7497 100.21 94.8408C100.014 94.932 99.8613 95.055 99.752 95.21C99.6426 95.3649 99.5879 95.5404 99.5879 95.7363H97.9473C97.9473 95.4447 98.0179 95.1621 98.1592 94.8887C98.3005 94.6152 98.5055 94.3714 98.7744 94.1572C99.0433 93.943 99.3646 93.7744 99.7383 93.6514C100.112 93.5283 100.531 93.4668 100.996 93.4668C101.552 93.4668 102.044 93.5602 102.473 93.7471C102.906 93.9339 103.245 94.2165 103.491 94.5947C103.742 94.9684 103.867 95.4378 103.867 96.0029V99.291C103.867 99.6283 103.89 99.9313 103.936 100.2C103.986 100.465 104.056 100.695 104.147 100.891V101H102.459C102.382 100.822 102.32 100.597 102.274 100.323C102.233 100.045 102.213 99.7764 102.213 99.5166ZM102.452 96.502L102.466 97.5205H101.283C100.978 97.5205 100.709 97.5501 100.477 97.6094C100.244 97.6641 100.05 97.7461 99.8955 97.8555C99.7406 97.9648 99.6243 98.097 99.5469 98.252C99.4694 98.4069 99.4307 98.5824 99.4307 98.7783C99.4307 98.9743 99.4762 99.1543 99.5674 99.3184C99.6585 99.4779 99.7907 99.6032 99.9639 99.6943C100.142 99.7855 100.356 99.8311 100.606 99.8311C100.944 99.8311 101.238 99.7627 101.488 99.626C101.743 99.4847 101.944 99.3138 102.09 99.1133C102.236 98.9082 102.313 98.7145 102.322 98.5322L102.855 99.2637C102.801 99.4505 102.707 99.651 102.575 99.8652C102.443 100.079 102.27 100.285 102.056 100.48C101.846 100.672 101.593 100.829 101.297 100.952C101.005 101.075 100.668 101.137 100.285 101.137C99.8021 101.137 99.3714 101.041 98.9932 100.85C98.6149 100.654 98.3187 100.392 98.1045 100.063C97.8903 99.7308 97.7832 99.3548 97.7832 98.9355C97.7832 98.5436 97.8561 98.1973 98.002 97.8965C98.1523 97.5911 98.3711 97.3359 98.6582 97.1309C98.9499 96.9258 99.3053 96.7708 99.7246 96.666C100.144 96.5566 100.622 96.502 101.16 96.502H102.452ZM110.202 99.4688V90.5H111.856V101H110.359L110.202 99.4688ZM105.389 97.3838V97.2402C105.389 96.6797 105.455 96.1693 105.587 95.709C105.719 95.2441 105.911 94.8454 106.162 94.5127C106.412 94.1755 106.718 93.918 107.078 93.7402C107.438 93.5579 107.843 93.4668 108.294 93.4668C108.741 93.4668 109.133 93.5534 109.47 93.7266C109.807 93.8997 110.094 94.1481 110.331 94.4717C110.568 94.7907 110.758 95.1735 110.899 95.6201C111.04 96.0622 111.14 96.5544 111.2 97.0967V97.5547C111.14 98.0833 111.04 98.5664 110.899 99.0039C110.758 99.4414 110.568 99.8197 110.331 100.139C110.094 100.458 109.805 100.704 109.463 100.877C109.126 101.05 108.732 101.137 108.281 101.137C107.834 101.137 107.431 101.043 107.071 100.856C106.715 100.67 106.412 100.408 106.162 100.07C105.911 99.7331 105.719 99.3366 105.587 98.8809C105.455 98.4206 105.389 97.9215 105.389 97.3838ZM107.037 97.2402V97.3838C107.037 97.721 107.066 98.0355 107.125 98.3271C107.189 98.6188 107.287 98.8763 107.419 99.0996C107.551 99.3184 107.722 99.4915 107.932 99.6191C108.146 99.7422 108.401 99.8037 108.698 99.8037C109.071 99.8037 109.379 99.7217 109.621 99.5576C109.862 99.3936 110.051 99.1725 110.188 98.8945C110.329 98.612 110.425 98.2975 110.475 97.9512V96.7139C110.448 96.445 110.391 96.1943 110.304 95.9619C110.222 95.7295 110.11 95.5267 109.969 95.3535C109.828 95.1758 109.652 95.0391 109.443 94.9434C109.238 94.8431 108.994 94.793 108.711 94.793C108.411 94.793 108.155 94.8568 107.946 94.9844C107.736 95.112 107.563 95.2874 107.426 95.5107C107.294 95.734 107.196 95.9938 107.132 96.29C107.068 96.5863 107.037 96.903 107.037 97.2402ZM116.939 101.137C116.392 101.137 115.898 101.048 115.456 100.87C115.018 100.688 114.645 100.435 114.335 100.111C114.029 99.7878 113.795 99.4072 113.631 98.9697C113.467 98.5322 113.385 98.0605 113.385 97.5547V97.2812C113.385 96.7025 113.469 96.1784 113.637 95.709C113.806 95.2396 114.041 94.8385 114.342 94.5059C114.642 94.1686 114.998 93.9111 115.408 93.7334C115.818 93.5557 116.262 93.4668 116.741 93.4668C117.27 93.4668 117.732 93.5557 118.129 93.7334C118.525 93.9111 118.853 94.1618 119.113 94.4854C119.377 94.8044 119.573 95.1849 119.701 95.627C119.833 96.069 119.899 96.5566 119.899 97.0898V97.7939H114.184V96.6113H118.272V96.4814C118.263 96.1852 118.204 95.9072 118.095 95.6475C117.99 95.3877 117.828 95.1781 117.609 95.0186C117.39 94.859 117.099 94.7793 116.734 94.7793C116.461 94.7793 116.217 94.8385 116.003 94.957C115.793 95.071 115.618 95.2373 115.476 95.4561C115.335 95.6748 115.226 95.9391 115.148 96.249C115.075 96.5544 115.039 96.8984 115.039 97.2812V97.5547C115.039 97.8783 115.082 98.179 115.169 98.457C115.26 98.7305 115.392 98.9697 115.565 99.1748C115.738 99.3799 115.948 99.5417 116.194 99.6602C116.44 99.7741 116.721 99.8311 117.035 99.8311C117.431 99.8311 117.785 99.7513 118.095 99.5918C118.404 99.4323 118.673 99.2067 118.901 98.915L119.769 99.7559C119.61 99.9883 119.402 100.212 119.147 100.426C118.892 100.635 118.58 100.806 118.211 100.938C117.846 101.071 117.422 101.137 116.939 101.137ZM122.939 95.0117V101H121.291V93.6035H122.863L122.939 95.0117ZM125.201 93.5557L125.188 95.0869C125.087 95.0687 124.978 95.055 124.86 95.0459C124.746 95.0368 124.632 95.0322 124.518 95.0322C124.235 95.0322 123.987 95.0732 123.773 95.1553C123.558 95.2327 123.378 95.3467 123.233 95.4971C123.091 95.6429 122.982 95.8206 122.904 96.0303C122.827 96.2399 122.781 96.4746 122.768 96.7344L122.392 96.7617C122.392 96.2969 122.437 95.8662 122.529 95.4697C122.62 95.0732 122.756 94.7246 122.939 94.4238C123.126 94.123 123.358 93.8883 123.636 93.7197C123.918 93.5511 124.244 93.4668 124.613 93.4668C124.714 93.4668 124.821 93.4759 124.935 93.4941C125.053 93.5124 125.142 93.5329 125.201 93.5557Z" fill="#49454F"/>
<g clip-path="url(#clip0_51593_5827)">
<rect x="12" y="124" width="336" height="56" rx="28" fill="#E8DEF8"/>
<path fill-rule="evenodd" clip-rule="evenodd" d="M40 158C43.3137 158 46 155.314 46 152C46 148.686 43.3137 146 40 146C36.6863 146 34 148.686 34 152C34 155.314 36.6863 158 40 158Z" fill="#1D192B"/>
<path d="M71.2461 155.64V157H66.249V155.64H71.2461ZM66.7275 147.047V157H65.0117V147.047H66.7275ZM76.6781 155.517V151.989C76.6781 151.725 76.6303 151.497 76.5346 151.306C76.4389 151.114 76.293 150.966 76.0971 150.861C75.9057 150.757 75.6641 150.704 75.3725 150.704C75.1036 150.704 74.8712 150.75 74.6752 150.841C74.4792 150.932 74.3266 151.055 74.2172 151.21C74.1078 151.365 74.0531 151.54 74.0531 151.736H72.4125C72.4125 151.445 72.4831 151.162 72.6244 150.889C72.7657 150.615 72.9708 150.371 73.2396 150.157C73.5085 149.943 73.8298 149.774 74.2035 149.651C74.5772 149.528 74.9965 149.467 75.4613 149.467C76.0173 149.467 76.5095 149.56 76.9379 149.747C77.3708 149.934 77.7104 150.216 77.9564 150.595C78.2071 150.968 78.3324 151.438 78.3324 152.003V155.291C78.3324 155.628 78.3552 155.931 78.4008 156.2C78.4509 156.465 78.5215 156.695 78.6127 156.891V157H76.9242C76.8467 156.822 76.7852 156.597 76.7396 156.323C76.6986 156.045 76.6781 155.776 76.6781 155.517ZM76.9174 152.502L76.9311 153.521H75.7484C75.4431 153.521 75.1742 153.55 74.9418 153.609C74.7094 153.664 74.5157 153.746 74.3607 153.855C74.2058 153.965 74.0896 154.097 74.0121 154.252C73.9346 154.407 73.8959 154.582 73.8959 154.778C73.8959 154.974 73.9415 155.154 74.0326 155.318C74.1238 155.478 74.2559 155.603 74.4291 155.694C74.6068 155.785 74.821 155.831 75.0717 155.831C75.4089 155.831 75.7029 155.763 75.9535 155.626C76.2087 155.485 76.4092 155.314 76.5551 155.113C76.7009 154.908 76.7784 154.715 76.7875 154.532L77.3207 155.264C77.266 155.451 77.1726 155.651 77.0404 155.865C76.9083 156.079 76.7351 156.285 76.5209 156.48C76.3113 156.672 76.0583 156.829 75.7621 156.952C75.4704 157.075 75.1332 157.137 74.7504 157.137C74.2673 157.137 73.8367 157.041 73.4584 156.85C73.0801 156.654 72.7839 156.392 72.5697 156.063C72.3555 155.731 72.2484 155.355 72.2484 154.936C72.2484 154.544 72.3214 154.197 72.4672 153.896C72.6176 153.591 72.8363 153.336 73.1234 153.131C73.4151 152.926 73.7706 152.771 74.1898 152.666C74.6091 152.557 75.0876 152.502 75.6254 152.502H76.9174ZM80.1619 146.5H81.8094V155.421L81.6521 157H80.1619V146.5ZM86.6355 153.233V153.377C86.6355 153.924 86.574 154.427 86.451 154.888C86.3325 155.343 86.1502 155.74 85.9041 156.077C85.6626 156.414 85.3618 156.676 85.0018 156.863C84.6463 157.046 84.2339 157.137 83.7645 157.137C83.3042 157.137 82.9031 157.05 82.5613 156.877C82.2195 156.704 81.9324 156.458 81.7 156.139C81.4721 155.82 81.2876 155.439 81.1463 154.997C81.005 154.555 80.9048 154.067 80.8455 153.534V153.076C80.9048 152.538 81.005 152.051 81.1463 151.613C81.2876 151.171 81.4721 150.791 81.7 150.472C81.9324 150.148 82.2173 149.9 82.5545 149.727C82.8963 149.553 83.2951 149.467 83.7508 149.467C84.2247 149.467 84.6417 149.558 85.0018 149.74C85.3663 149.923 85.6694 150.182 85.9109 150.52C86.1525 150.852 86.3325 151.249 86.451 151.709C86.574 152.169 86.6355 152.677 86.6355 153.233ZM84.9881 153.377V153.233C84.9881 152.901 84.9607 152.589 84.9061 152.297C84.8514 152.001 84.7602 151.741 84.6326 151.518C84.5096 151.294 84.341 151.119 84.1268 150.991C83.9171 150.859 83.6551 150.793 83.3406 150.793C83.049 150.793 82.7983 150.843 82.5887 150.943C82.379 151.044 82.2036 151.18 82.0623 151.354C81.921 151.527 81.8094 151.727 81.7273 151.955C81.6499 152.183 81.5975 152.429 81.5701 152.693V153.931C81.6111 154.272 81.6977 154.587 81.8299 154.874C81.9666 155.157 82.158 155.384 82.4041 155.558C82.6502 155.726 82.9669 155.811 83.3543 155.811C83.6596 155.811 83.9171 155.749 84.1268 155.626C84.3364 155.503 84.5027 155.332 84.6258 155.113C84.7534 154.89 84.8445 154.63 84.8992 154.334C84.9585 154.038 84.9881 153.719 84.9881 153.377ZM91.3908 157.137C90.8439 157.137 90.3495 157.048 89.9074 156.87C89.4699 156.688 89.0962 156.435 88.7863 156.111C88.481 155.788 88.2463 155.407 88.0822 154.97C87.9182 154.532 87.8361 154.061 87.8361 153.555V153.281C87.8361 152.702 87.9204 152.178 88.0891 151.709C88.2577 151.24 88.4924 150.839 88.7932 150.506C89.0939 150.169 89.4494 149.911 89.8596 149.733C90.2697 149.556 90.7141 149.467 91.1926 149.467C91.7212 149.467 92.1838 149.556 92.5803 149.733C92.9768 149.911 93.3049 150.162 93.5646 150.485C93.829 150.804 94.0249 151.185 94.1525 151.627C94.2847 152.069 94.3508 152.557 94.3508 153.09V153.794H88.6359V152.611H92.7238V152.481C92.7147 152.185 92.6555 151.907 92.5461 151.647C92.4413 151.388 92.2795 151.178 92.0607 151.019C91.842 150.859 91.5503 150.779 91.1857 150.779C90.9123 150.779 90.6685 150.839 90.4543 150.957C90.2447 151.071 90.0692 151.237 89.9279 151.456C89.7867 151.675 89.6773 151.939 89.5998 152.249C89.5269 152.554 89.4904 152.898 89.4904 153.281V153.555C89.4904 153.878 89.5337 154.179 89.6203 154.457C89.7115 154.73 89.8436 154.97 90.0168 155.175C90.19 155.38 90.3996 155.542 90.6457 155.66C90.8918 155.774 91.1721 155.831 91.4865 155.831C91.883 155.831 92.2362 155.751 92.5461 155.592C92.856 155.432 93.1249 155.207 93.3527 154.915L94.2209 155.756C94.0614 155.988 93.854 156.212 93.5988 156.426C93.3436 156.635 93.0314 156.806 92.6623 156.938C92.2977 157.071 91.8739 157.137 91.3908 157.137ZM97.4996 146.5V157H95.8453V146.5H97.4996Z" fill="#1D192B"/>
<path d="M297.3 147.013V157H295.652V148.968L293.212 149.795V148.435L297.101 147.013H297.3ZM307.346 151.189V152.816C307.346 153.596 307.268 154.261 307.113 154.812C306.963 155.359 306.744 155.804 306.457 156.146C306.17 156.487 305.826 156.738 305.425 156.897C305.029 157.057 304.584 157.137 304.092 157.137C303.7 157.137 303.335 157.087 302.998 156.986C302.666 156.886 302.365 156.729 302.096 156.515C301.827 156.3 301.597 156.025 301.405 155.688C301.219 155.346 301.073 154.938 300.968 154.464C300.868 153.99 300.818 153.441 300.818 152.816V151.189C300.818 150.406 300.895 149.745 301.05 149.207C301.205 148.665 301.426 148.225 301.713 147.888C302 147.546 302.342 147.298 302.738 147.143C303.14 146.988 303.586 146.91 304.078 146.91C304.475 146.91 304.839 146.96 305.172 147.061C305.509 147.156 305.81 147.309 306.074 147.519C306.343 147.728 306.571 148.002 306.758 148.339C306.949 148.672 307.095 149.075 307.196 149.549C307.296 150.018 307.346 150.565 307.346 151.189ZM305.698 153.049V150.943C305.698 150.547 305.676 150.198 305.63 149.897C305.585 149.592 305.516 149.335 305.425 149.125C305.338 148.911 305.229 148.738 305.097 148.605C304.965 148.469 304.814 148.371 304.646 148.312C304.477 148.248 304.288 148.216 304.078 148.216C303.823 148.216 303.595 148.266 303.395 148.366C303.194 148.462 303.026 148.617 302.889 148.831C302.752 149.045 302.647 149.328 302.574 149.679C302.506 150.025 302.472 150.447 302.472 150.943V153.049C302.472 153.45 302.495 153.803 302.54 154.108C302.586 154.414 302.654 154.676 302.745 154.895C302.836 155.109 302.946 155.286 303.073 155.428C303.206 155.564 303.356 155.665 303.525 155.729C303.698 155.792 303.887 155.824 304.092 155.824C304.352 155.824 304.582 155.774 304.782 155.674C304.983 155.574 305.152 155.414 305.288 155.195C305.425 154.972 305.528 154.683 305.596 154.327C305.664 153.972 305.698 153.546 305.698 153.049ZM315.403 151.189V152.816C315.403 153.596 315.325 154.261 315.171 154.812C315.02 155.359 314.801 155.804 314.514 156.146C314.227 156.487 313.883 156.738 313.482 156.897C313.086 157.057 312.641 157.137 312.149 157.137C311.757 157.137 311.393 157.087 311.055 156.986C310.723 156.886 310.422 156.729 310.153 156.515C309.884 156.3 309.654 156.025 309.463 155.688C309.276 155.346 309.13 154.938 309.025 154.464C308.925 153.99 308.875 153.441 308.875 152.816V151.189C308.875 150.406 308.952 149.745 309.107 149.207C309.262 148.665 309.483 148.225 309.77 147.888C310.057 147.546 310.399 147.298 310.796 147.143C311.197 146.988 311.643 146.91 312.135 146.91C312.532 146.91 312.896 146.96 313.229 147.061C313.566 147.156 313.867 147.309 314.131 147.519C314.4 147.728 314.628 148.002 314.815 148.339C315.006 148.672 315.152 149.075 315.253 149.549C315.353 150.018 315.403 150.565 315.403 151.189ZM313.755 153.049V150.943C313.755 150.547 313.733 150.198 313.687 149.897C313.642 149.592 313.573 149.335 313.482 149.125C313.395 148.911 313.286 148.738 313.154 148.605C313.022 148.469 312.871 148.371 312.703 148.312C312.534 148.248 312.345 148.216 312.135 148.216C311.88 148.216 311.652 148.266 311.452 148.366C311.251 148.462 311.083 148.617 310.946 148.831C310.809 149.045 310.704 149.328 310.631 149.679C310.563 150.025 310.529 150.447 310.529 150.943V153.049C310.529 153.45 310.552 153.803 310.597 154.108C310.643 154.414 310.711 154.676 310.802 154.895C310.893 155.109 311.003 155.286 311.13 155.428C311.263 155.564 311.413 155.665 311.582 155.729C311.755 155.792 311.944 155.824 312.149 155.824C312.409 155.824 312.639 155.774 312.839 155.674C313.04 155.574 313.209 155.414 313.345 155.195C313.482 154.972 313.585 154.683 313.653 154.327C313.721 153.972 313.755 153.546 313.755 153.049ZM323.494 151.545V153.028H316.672V151.545H323.494ZM320.883 148.756V156.002H319.29V148.756H320.883Z" fill="#1D192B"/>
</g>
<g clip-path="url(#clip1_51593_5827)">
<path fill-rule="evenodd" clip-rule="evenodd" d="M40 202L47 214H33L40 202Z" fill="#49454F"/>
<path d="M71.2461 211.64V213H66.249V211.64H71.2461ZM66.7275 203.047V213H65.0117V203.047H66.7275ZM76.6781 211.517V207.989C76.6781 207.725 76.6303 207.497 76.5346 207.306C76.4389 207.114 76.293 206.966 76.0971 206.861C75.9057 206.757 75.6641 206.704 75.3725 206.704C75.1036 206.704 74.8712 206.75 74.6752 206.841C74.4792 206.932 74.3266 207.055 74.2172 207.21C74.1078 207.365 74.0531 207.54 74.0531 207.736H72.4125C72.4125 207.445 72.4831 207.162 72.6244 206.889C72.7657 206.615 72.9708 206.371 73.2396 206.157C73.5085 205.943 73.8298 205.774 74.2035 205.651C74.5772 205.528 74.9965 205.467 75.4613 205.467C76.0173 205.467 76.5095 205.56 76.9379 205.747C77.3708 205.934 77.7104 206.216 77.9564 206.595C78.2071 206.968 78.3324 207.438 78.3324 208.003V211.291C78.3324 211.628 78.3552 211.931 78.4008 212.2C78.4509 212.465 78.5215 212.695 78.6127 212.891V213H76.9242C76.8467 212.822 76.7852 212.597 76.7396 212.323C76.6986 212.045 76.6781 211.776 76.6781 211.517ZM76.9174 208.502L76.9311 209.521H75.7484C75.4431 209.521 75.1742 209.55 74.9418 209.609C74.7094 209.664 74.5157 209.746 74.3607 209.855C74.2058 209.965 74.0896 210.097 74.0121 210.252C73.9346 210.407 73.8959 210.582 73.8959 210.778C73.8959 210.974 73.9415 211.154 74.0326 211.318C74.1238 211.478 74.2559 211.603 74.4291 211.694C74.6068 211.785 74.821 211.831 75.0717 211.831C75.4089 211.831 75.7029 211.763 75.9535 211.626C76.2087 211.485 76.4092 211.314 76.5551 211.113C76.7009 210.908 76.7784 210.715 76.7875 210.532L77.3207 211.264C77.266 211.451 77.1726 211.651 77.0404 211.865C76.9083 212.079 76.7351 212.285 76.5209 212.48C76.3113 212.672 76.0583 212.829 75.7621 212.952C75.4704 213.075 75.1332 213.137 74.7504 213.137C74.2673 213.137 73.8367 213.041 73.4584 212.85C73.0801 212.654 72.7839 212.392 72.5697 212.063C72.3555 211.731 72.2484 211.355 72.2484 210.936C72.2484 210.544 72.3214 210.197 72.4672 209.896C72.6176 209.591 72.8363 209.336 73.1234 209.131C73.4151 208.926 73.7706 208.771 74.1898 208.666C74.6091 208.557 75.0876 208.502 75.6254 208.502H76.9174ZM80.1619 202.5H81.8094V211.421L81.6521 213H80.1619V202.5ZM86.6355 209.233V209.377C86.6355 209.924 86.574 210.427 86.451 210.888C86.3325 211.343 86.1502 211.74 85.9041 212.077C85.6626 212.414 85.3618 212.676 85.0018 212.863C84.6463 213.046 84.2339 213.137 83.7645 213.137C83.3042 213.137 82.9031 213.05 82.5613 212.877C82.2195 212.704 81.9324 212.458 81.7 212.139C81.4721 211.82 81.2876 211.439 81.1463 210.997C81.005 210.555 80.9048 210.067 80.8455 209.534V209.076C80.9048 208.538 81.005 208.051 81.1463 207.613C81.2876 207.171 81.4721 206.791 81.7 206.472C81.9324 206.148 82.2173 205.9 82.5545 205.727C82.8963 205.553 83.2951 205.467 83.7508 205.467C84.2247 205.467 84.6417 205.558 85.0018 205.74C85.3663 205.923 85.6694 206.182 85.9109 206.52C86.1525 206.852 86.3325 207.249 86.451 207.709C86.574 208.169 86.6355 208.677 86.6355 209.233ZM84.9881 209.377V209.233C84.9881 208.901 84.9607 208.589 84.9061 208.297C84.8514 208.001 84.7602 207.741 84.6326 207.518C84.5096 207.294 84.341 207.119 84.1268 206.991C83.9171 206.859 83.6551 206.793 83.3406 206.793C83.049 206.793 82.7983 206.843 82.5887 206.943C82.379 207.044 82.2036 207.18 82.0623 207.354C81.921 207.527 81.8094 207.727 81.7273 207.955C81.6499 208.183 81.5975 208.429 81.5701 208.693V209.931C81.6111 210.272 81.6977 210.587 81.8299 210.874C81.9666 211.157 82.158 211.384 82.4041 211.558C82.6502 211.726 82.9669 211.811 83.3543 211.811C83.6596 211.811 83.9171 211.749 84.1268 211.626C84.3364 211.503 84.5027 211.332 84.6258 211.113C84.7534 210.89 84.8445 210.63 84.8992 210.334C84.9585 210.038 84.9881 209.719 84.9881 209.377ZM91.3908 213.137C90.8439 213.137 90.3495 213.048 89.9074 212.87C89.4699 212.688 89.0962 212.435 88.7863 212.111C88.481 211.788 88.2463 211.407 88.0822 210.97C87.9182 210.532 87.8361 210.061 87.8361 209.555V209.281C87.8361 208.702 87.9204 208.178 88.0891 207.709C88.2577 207.24 88.4924 206.839 88.7932 206.506C89.0939 206.169 89.4494 205.911 89.8596 205.733C90.2697 205.556 90.7141 205.467 91.1926 205.467C91.7212 205.467 92.1838 205.556 92.5803 205.733C92.9768 205.911 93.3049 206.162 93.5646 206.485C93.829 206.804 94.0249 207.185 94.1525 207.627C94.2847 208.069 94.3508 208.557 94.3508 209.09V209.794H88.6359V208.611H92.7238V208.481C92.7147 208.185 92.6555 207.907 92.5461 207.647C92.4413 207.388 92.2795 207.178 92.0607 207.019C91.842 206.859 91.5503 206.779 91.1857 206.779C90.9123 206.779 90.6685 206.839 90.4543 206.957C90.2447 207.071 90.0692 207.237 89.9279 207.456C89.7867 207.675 89.6773 207.939 89.5998 208.249C89.5269 208.554 89.4904 208.898 89.4904 209.281V209.555C89.4904 209.878 89.5337 210.179 89.6203 210.457C89.7115 210.73 89.8436 210.97 90.0168 211.175C90.19 211.38 90.3996 211.542 90.6457 211.66C90.8918 211.774 91.1721 211.831 91.4865 211.831C91.883 211.831 92.2362 211.751 92.5461 211.592C92.856 211.432 93.1249 211.207 93.3527 210.915L94.2209 211.756C94.0614 211.988 93.854 212.212 93.5988 212.426C93.3436 212.635 93.0314 212.806 92.6623 212.938C92.2977 213.071 91.8739 213.137 91.3908 213.137ZM97.4996 202.5V213H95.8453V202.5H97.4996Z" fill="#49454F"/>
<path d="M297.3 203.013V213H295.652V204.968L293.212 205.795V204.435L297.101 203.013H297.3ZM307.346 207.189V208.816C307.346 209.596 307.268 210.261 307.113 210.812C306.963 211.359 306.744 211.804 306.457 212.146C306.17 212.487 305.826 212.738 305.425 212.897C305.029 213.057 304.584 213.137 304.092 213.137C303.7 213.137 303.335 213.087 302.998 212.986C302.666 212.886 302.365 212.729 302.096 212.515C301.827 212.3 301.597 212.025 301.405 211.688C301.219 211.346 301.073 210.938 300.968 210.464C300.868 209.99 300.818 209.441 300.818 208.816V207.189C300.818 206.406 300.895 205.745 301.05 205.207C301.205 204.665 301.426 204.225 301.713 203.888C302 203.546 302.342 203.298 302.738 203.143C303.14 202.988 303.586 202.91 304.078 202.91C304.475 202.91 304.839 202.96 305.172 203.061C305.509 203.156 305.81 203.309 306.074 203.519C306.343 203.728 306.571 204.002 306.758 204.339C306.949 204.672 307.095 205.075 307.196 205.549C307.296 206.018 307.346 206.565 307.346 207.189ZM305.698 209.049V206.943C305.698 206.547 305.676 206.198 305.63 205.897C305.585 205.592 305.516 205.335 305.425 205.125C305.338 204.911 305.229 204.738 305.097 204.605C304.965 204.469 304.814 204.371 304.646 204.312C304.477 204.248 304.288 204.216 304.078 204.216C303.823 204.216 303.595 204.266 303.395 204.366C303.194 204.462 303.026 204.617 302.889 204.831C302.752 205.045 302.647 205.328 302.574 205.679C302.506 206.025 302.472 206.447 302.472 206.943V209.049C302.472 209.45 302.495 209.803 302.54 210.108C302.586 210.414 302.654 210.676 302.745 210.895C302.836 211.109 302.946 211.286 303.073 211.428C303.206 211.564 303.356 211.665 303.525 211.729C303.698 211.792 303.887 211.824 304.092 211.824C304.352 211.824 304.582 211.774 304.782 211.674C304.983 211.574 305.152 211.414 305.288 211.195C305.425 210.972 305.528 210.683 305.596 210.327C305.664 209.972 305.698 209.546 305.698 209.049ZM315.403 207.189V208.816C315.403 209.596 315.325 210.261 315.171 210.812C315.02 211.359 314.801 211.804 314.514 212.146C314.227 212.487 313.883 212.738 313.482 212.897C313.086 213.057 312.641 213.137 312.149 213.137C311.757 213.137 311.393 213.087 311.055 212.986C310.723 212.886 310.422 212.729 310.153 212.515C309.884 212.3 309.654 212.025 309.463 211.688C309.276 211.346 309.13 210.938 309.025 210.464C308.925 209.99 308.875 209.441 308.875 208.816V207.189C308.875 206.406 308.952 205.745 309.107 205.207C309.262 204.665 309.483 204.225 309.77 203.888C310.057 203.546 310.399 203.298 310.796 203.143C311.197 202.988 311.643 202.91 312.135 202.91C312.532 202.91 312.896 202.96 313.229 203.061C313.566 203.156 313.867 203.309 314.131 203.519C314.4 203.728 314.628 204.002 314.815 204.339C315.006 204.672 315.152 205.075 315.253 205.549C315.353 206.018 315.403 206.565 315.403 207.189ZM313.755 209.049V206.943C313.755 206.547 313.733 206.198 313.687 205.897C313.642 205.592 313.573 205.335 313.482 205.125C313.395 204.911 313.286 204.738 313.154 204.605C313.022 204.469 312.871 204.371 312.703 204.312C312.534 204.248 312.345 204.216 312.135 204.216C311.88 204.216 311.652 204.266 311.452 204.366C311.251 204.462 311.083 204.617 310.946 204.831C310.809 205.045 310.704 205.328 310.631 205.679C310.563 206.025 310.529 206.447 310.529 206.943V209.049C310.529 209.45 310.552 209.803 310.597 210.108C310.643 210.414 310.711 210.676 310.802 210.895C310.893 211.109 311.003 211.286 311.13 211.428C311.263 211.564 311.413 211.665 311.582 211.729C311.755 211.792 311.944 211.824 312.149 211.824C312.409 211.824 312.639 211.774 312.839 211.674C313.04 211.574 313.209 211.414 313.345 211.195C313.482 210.972 313.585 210.683 313.653 210.327C313.721 209.972 313.755 209.546 313.755 209.049ZM323.494 207.545V209.028H316.672V207.545H323.494ZM320.883 204.756V212.002H319.29V204.756H320.883Z" fill="#49454F"/>
</g>
<g clip-path="url(#clip2_51593_5827)">
<rect x="34" y="258" width="12" height="12" fill="#49454F"/>
<path d="M71.2461 267.64V269H66.249V267.64H71.2461ZM66.7275 259.047V269H65.0117V259.047H66.7275ZM76.6781 267.517V263.989C76.6781 263.725 76.6303 263.497 76.5346 263.306C76.4389 263.114 76.293 262.966 76.0971 262.861C75.9057 262.757 75.6641 262.704 75.3725 262.704C75.1036 262.704 74.8712 262.75 74.6752 262.841C74.4792 262.932 74.3266 263.055 74.2172 263.21C74.1078 263.365 74.0531 263.54 74.0531 263.736H72.4125C72.4125 263.445 72.4831 263.162 72.6244 262.889C72.7657 262.615 72.9708 262.371 73.2396 262.157C73.5085 261.943 73.8298 261.774 74.2035 261.651C74.5772 261.528 74.9965 261.467 75.4613 261.467C76.0173 261.467 76.5095 261.56 76.9379 261.747C77.3708 261.934 77.7104 262.216 77.9564 262.595C78.2071 262.968 78.3324 263.438 78.3324 264.003V267.291C78.3324 267.628 78.3552 267.931 78.4008 268.2C78.4509 268.465 78.5215 268.695 78.6127 268.891V269H76.9242C76.8467 268.822 76.7852 268.597 76.7396 268.323C76.6986 268.045 76.6781 267.776 76.6781 267.517ZM76.9174 264.502L76.9311 265.521H75.7484C75.4431 265.521 75.1742 265.55 74.9418 265.609C74.7094 265.664 74.5157 265.746 74.3607 265.855C74.2058 265.965 74.0896 266.097 74.0121 266.252C73.9346 266.407 73.8959 266.582 73.8959 266.778C73.8959 266.974 73.9415 267.154 74.0326 267.318C74.1238 267.478 74.2559 267.603 74.4291 267.694C74.6068 267.785 74.821 267.831 75.0717 267.831C75.4089 267.831 75.7029 267.763 75.9535 267.626C76.2087 267.485 76.4092 267.314 76.5551 267.113C76.7009 266.908 76.7784 266.715 76.7875 266.532L77.3207 267.264C77.266 267.451 77.1726 267.651 77.0404 267.865C76.9083 268.079 76.7351 268.285 76.5209 268.48C76.3113 268.672 76.0583 268.829 75.7621 268.952C75.4704 269.075 75.1332 269.137 74.7504 269.137C74.2673 269.137 73.8367 269.041 73.4584 268.85C73.0801 268.654 72.7839 268.392 72.5697 268.063C72.3555 267.731 72.2484 267.355 72.2484 266.936C72.2484 266.544 72.3214 266.197 72.4672 265.896C72.6176 265.591 72.8363 265.336 73.1234 265.131C73.4151 264.926 73.7706 264.771 74.1898 264.666C74.6091 264.557 75.0876 264.502 75.6254 264.502H76.9174ZM80.1619 258.5H81.8094V267.421L81.6521 269H80.1619V258.5ZM86.6355 265.233V265.377C86.6355 265.924 86.574 266.427 86.451 266.888C86.3325 267.343 86.1502 267.74 85.9041 268.077C85.6626 268.414 85.3618 268.676 85.0018 268.863C84.6463 269.046 84.2339 269.137 83.7645 269.137C83.3042 269.137 82.9031 269.05 82.5613 268.877C82.2195 268.704 81.9324 268.458 81.7 268.139C81.4721 267.82 81.2876 267.439 81.1463 266.997C81.005 266.555 80.9048 266.067 80.8455 265.534V265.076C80.9048 264.538 81.005 264.051 81.1463 263.613C81.2876 263.171 81.4721 262.791 81.7 262.472C81.9324 262.148 82.2173 261.9 82.5545 261.727C82.8963 261.553 83.2951 261.467 83.7508 261.467C84.2247 261.467 84.6417 261.558 85.0018 261.74C85.3663 261.923 85.6694 262.182 85.9109 262.52C86.1525 262.852 86.3325 263.249 86.451 263.709C86.574 264.169 86.6355 264.677 86.6355 265.233ZM84.9881 265.377V265.233C84.9881 264.901 84.9607 264.589 84.9061 264.297C84.8514 264.001 84.7602 263.741 84.6326 263.518C84.5096 263.294 84.341 263.119 84.1268 262.991C83.9171 262.859 83.6551 262.793 83.3406 262.793C83.049 262.793 82.7983 262.843 82.5887 262.943C82.379 263.044 82.2036 263.18 82.0623 263.354C81.921 263.527 81.8094 263.727 81.7273 263.955C81.6499 264.183 81.5975 264.429 81.5701 264.693V265.931C81.6111 266.272 81.6977 266.587 81.8299 266.874C81.9666 267.157 82.158 267.384 82.4041 267.558C82.6502 267.726 82.9669 267.811 83.3543 267.811C83.6596 267.811 83.9171 267.749 84.1268 267.626C84.3364 267.503 84.5027 267.332 84.6258 267.113C84.7534 266.89 84.8445 266.63 84.8992 266.334C84.9585 266.038 84.9881 265.719 84.9881 265.377ZM91.3908 269.137C90.8439 269.137 90.3495 269.048 89.9074 268.87C89.4699 268.688 89.0962 268.435 88.7863 268.111C88.481 267.788 88.2463 267.407 88.0822 266.97C87.9182 266.532 87.8361 266.061 87.8361 265.555V265.281C87.8361 264.702 87.9204 264.178 88.0891 263.709C88.2577 263.24 88.4924 262.839 88.7932 262.506C89.0939 262.169 89.4494 261.911 89.8596 261.733C90.2697 261.556 90.7141 261.467 91.1926 261.467C91.7212 261.467 92.1838 261.556 92.5803 261.733C92.9768 261.911 93.3049 262.162 93.5646 262.485C93.829 262.804 94.0249 263.185 94.1525 263.627C94.2847 264.069 94.3508 264.557 94.3508 265.09V265.794H88.6359V264.611H92.7238V264.481C92.7147 264.185 92.6555 263.907 92.5461 263.647C92.4413 263.388 92.2795 263.178 92.0607 263.019C91.842 262.859 91.5503 262.779 91.1857 262.779C90.9123 262.779 90.6685 262.839 90.4543 262.957C90.2447 263.071 90.0692 263.237 89.9279 263.456C89.7867 263.675 89.6773 263.939 89.5998 264.249C89.5269 264.554 89.4904 264.898 89.4904 265.281V265.555C89.4904 265.878 89.5337 266.179 89.6203 266.457C89.7115 266.73 89.8436 266.97 90.0168 267.175C90.19 267.38 90.3996 267.542 90.6457 267.66C90.8918 267.774 91.1721 267.831 91.4865 267.831C91.883 267.831 92.2362 267.751 92.5461 267.592C92.856 267.432 93.1249 267.207 93.3527 266.915L94.2209 267.756C94.0614 267.988 93.854 268.212 93.5988 268.426C93.3436 268.635 93.0314 268.806 92.6623 268.938C92.2977 269.071 91.8739 269.137 91.3908 269.137ZM97.4996 258.5V269H95.8453V258.5H97.4996Z" fill="#49454F"/>
<path d="M297.3 259.013V269H295.652V260.968L293.212 261.795V260.435L297.101 259.013H297.3ZM307.346 263.189V264.816C307.346 265.596 307.268 266.261 307.113 266.812C306.963 267.359 306.744 267.804 306.457 268.146C306.17 268.487 305.826 268.738 305.425 268.897C305.029 269.057 304.584 269.137 304.092 269.137C303.7 269.137 303.335 269.087 302.998 268.986C302.666 268.886 302.365 268.729 302.096 268.515C301.827 268.3 301.597 268.025 301.405 267.688C301.219 267.346 301.073 266.938 300.968 266.464C300.868 265.99 300.818 265.441 300.818 264.816V263.189C300.818 262.406 300.895 261.745 301.05 261.207C301.205 260.665 301.426 260.225 301.713 259.888C302 259.546 302.342 259.298 302.738 259.143C303.14 258.988 303.586 258.91 304.078 258.91C304.475 258.91 304.839 258.96 305.172 259.061C305.509 259.156 305.81 259.309 306.074 259.519C306.343 259.728 306.571 260.002 306.758 260.339C306.949 260.672 307.095 261.075 307.196 261.549C307.296 262.018 307.346 262.565 307.346 263.189ZM305.698 265.049V262.943C305.698 262.547 305.676 262.198 305.63 261.897C305.585 261.592 305.516 261.335 305.425 261.125C305.338 260.911 305.229 260.738 305.097 260.605C304.965 260.469 304.814 260.371 304.646 260.312C304.477 260.248 304.288 260.216 304.078 260.216C303.823 260.216 303.595 260.266 303.395 260.366C303.194 260.462 303.026 260.617 302.889 260.831C302.752 261.045 302.647 261.328 302.574 261.679C302.506 262.025 302.472 262.447 302.472 262.943V265.049C302.472 265.45 302.495 265.803 302.54 266.108C302.586 266.414 302.654 266.676 302.745 266.895C302.836 267.109 302.946 267.286 303.073 267.428C303.206 267.564 303.356 267.665 303.525 267.729C303.698 267.792 303.887 267.824 304.092 267.824C304.352 267.824 304.582 267.774 304.782 267.674C304.983 267.574 305.152 267.414 305.288 267.195C305.425 266.972 305.528 266.683 305.596 266.327C305.664 265.972 305.698 265.546 305.698 265.049ZM315.403 263.189V264.816C315.403 265.596 315.325 266.261 315.171 266.812C315.02 267.359 314.801 267.804 314.514 268.146C314.227 268.487 313.883 268.738 313.482 268.897C313.086 269.057 312.641 269.137 312.149 269.137C311.757 269.137 311.393 269.087 311.055 268.986C310.723 268.886 310.422 268.729 310.153 268.515C309.884 268.3 309.654 268.025 309.463 267.688C309.276 267.346 309.13 266.938 309.025 266.464C308.925 265.99 308.875 265.441 308.875 264.816V263.189C308.875 262.406 308.952 261.745 309.107 261.207C309.262 260.665 309.483 260.225 309.77 259.888C310.057 259.546 310.399 259.298 310.796 259.143C311.197 258.988 311.643 258.91 312.135 258.91C312.532 258.91 312.896 258.96 313.229 259.061C313.566 259.156 313.867 259.309 314.131 259.519C314.4 259.728 314.628 260.002 314.815 260.339C315.006 260.672 315.152 261.075 315.253 261.549C315.353 262.018 315.403 262.565 315.403 263.189ZM313.755 265.049V262.943C313.755 262.547 313.733 262.198 313.687 261.897C313.642 261.592 313.573 261.335 313.482 261.125C313.395 260.911 313.286 260.738 313.154 260.605C313.022 260.469 312.871 260.371 312.703 260.312C312.534 260.248 312.345 260.216 312.135 260.216C311.88 260.216 311.652 260.266 311.452 260.366C311.251 260.462 311.083 260.617 310.946 260.831C310.809 261.045 310.704 261.328 310.631 261.679C310.563 262.025 310.529 262.447 310.529 262.943V265.049C310.529 265.45 310.552 265.803 310.597 266.108C310.643 266.414 310.711 266.676 310.802 266.895C310.893 267.109 311.003 267.286 311.13 267.428C311.263 267.564 311.413 267.665 311.582 267.729C311.755 267.792 311.944 267.824 312.149 267.824C312.409 267.824 312.639 267.774 312.839 267.674C313.04 267.574 313.209 267.414 313.345 267.195C313.482 266.972 313.585 266.683 313.653 266.327C313.721 265.972 313.755 265.546 313.755 265.049ZM323.494 263.545V265.028H316.672V263.545H323.494ZM320.883 260.756V268.002H319.29V260.756H320.883Z" fill="#49454F"/>
</g>
<g clip-path="url(#clip3_51593_5827)">
<path d="M40 313L46.6574 317.837L44.1145 325.663H35.8855L33.3426 317.837L40 313Z" fill="#49454F"/>
<path d="M71.2461 323.64V325H66.249V323.64H71.2461ZM66.7275 315.047V325H65.0117V315.047H66.7275ZM76.6781 323.517V319.989C76.6781 319.725 76.6303 319.497 76.5346 319.306C76.4389 319.114 76.293 318.966 76.0971 318.861C75.9057 318.757 75.6641 318.704 75.3725 318.704C75.1036 318.704 74.8712 318.75 74.6752 318.841C74.4792 318.932 74.3266 319.055 74.2172 319.21C74.1078 319.365 74.0531 319.54 74.0531 319.736H72.4125C72.4125 319.445 72.4831 319.162 72.6244 318.889C72.7657 318.615 72.9708 318.371 73.2396 318.157C73.5085 317.943 73.8298 317.774 74.2035 317.651C74.5772 317.528 74.9965 317.467 75.4613 317.467C76.0173 317.467 76.5095 317.56 76.9379 317.747C77.3708 317.934 77.7104 318.216 77.9564 318.595C78.2071 318.968 78.3324 319.438 78.3324 320.003V323.291C78.3324 323.628 78.3552 323.931 78.4008 324.2C78.4509 324.465 78.5215 324.695 78.6127 324.891V325H76.9242C76.8467 324.822 76.7852 324.597 76.7396 324.323C76.6986 324.045 76.6781 323.776 76.6781 323.517ZM76.9174 320.502L76.9311 321.521H75.7484C75.4431 321.521 75.1742 321.55 74.9418 321.609C74.7094 321.664 74.5157 321.746 74.3607 321.855C74.2058 321.965 74.0896 322.097 74.0121 322.252C73.9346 322.407 73.8959 322.582 73.8959 322.778C73.8959 322.974 73.9415 323.154 74.0326 323.318C74.1238 323.478 74.2559 323.603 74.4291 323.694C74.6068 323.785 74.821 323.831 75.0717 323.831C75.4089 323.831 75.7029 323.763 75.9535 323.626C76.2087 323.485 76.4092 323.314 76.5551 323.113C76.7009 322.908 76.7784 322.715 76.7875 322.532L77.3207 323.264C77.266 323.451 77.1726 323.651 77.0404 323.865C76.9083 324.079 76.7351 324.285 76.5209 324.48C76.3113 324.672 76.0583 324.829 75.7621 324.952C75.4704 325.075 75.1332 325.137 74.7504 325.137C74.2673 325.137 73.8367 325.041 73.4584 324.85C73.0801 324.654 72.7839 324.392 72.5697 324.063C72.3555 323.731 72.2484 323.355 72.2484 322.936C72.2484 322.544 72.3214 322.197 72.4672 321.896C72.6176 321.591 72.8363 321.336 73.1234 321.131C73.4151 320.926 73.7706 320.771 74.1898 320.666C74.6091 320.557 75.0876 320.502 75.6254 320.502H76.9174ZM80.1619 314.5H81.8094V323.421L81.6521 325H80.1619V314.5ZM86.6355 321.233V321.377C86.6355 321.924 86.574 322.427 86.451 322.888C86.3325 323.343 86.1502 323.74 85.9041 324.077C85.6626 324.414 85.3618 324.676 85.0018 324.863C84.6463 325.046 84.2339 325.137 83.7645 325.137C83.3042 325.137 82.9031 325.05 82.5613 324.877C82.2195 324.704 81.9324 324.458 81.7 324.139C81.4721 323.82 81.2876 323.439 81.1463 322.997C81.005 322.555 80.9048 322.067 80.8455 321.534V321.076C80.9048 320.538 81.005 320.051 81.1463 319.613C81.2876 319.171 81.4721 318.791 81.7 318.472C81.9324 318.148 82.2173 317.9 82.5545 317.727C82.8963 317.553 83.2951 317.467 83.7508 317.467C84.2247 317.467 84.6417 317.558 85.0018 317.74C85.3663 317.923 85.6694 318.182 85.9109 318.52C86.1525 318.852 86.3325 319.249 86.451 319.709C86.574 320.169 86.6355 320.677 86.6355 321.233ZM84.9881 321.377V321.233C84.9881 320.901 84.9607 320.589 84.9061 320.297C84.8514 320.001 84.7602 319.741 84.6326 319.518C84.5096 319.294 84.341 319.119 84.1268 318.991C83.9171 318.859 83.6551 318.793 83.3406 318.793C83.049 318.793 82.7983 318.843 82.5887 318.943C82.379 319.044 82.2036 319.18 82.0623 319.354C81.921 319.527 81.8094 319.727 81.7273 319.955C81.6499 320.183 81.5975 320.429 81.5701 320.693V321.931C81.6111 322.272 81.6977 322.587 81.8299 322.874C81.9666 323.157 82.158 323.384 82.4041 323.558C82.6502 323.726 82.9669 323.811 83.3543 323.811C83.6596 323.811 83.9171 323.749 84.1268 323.626C84.3364 323.503 84.5027 323.332 84.6258 323.113C84.7534 322.89 84.8445 322.63 84.8992 322.334C84.9585 322.038 84.9881 321.719 84.9881 321.377ZM91.3908 325.137C90.8439 325.137 90.3495 325.048 89.9074 324.87C89.4699 324.688 89.0962 324.435 88.7863 324.111C88.481 323.788 88.2463 323.407 88.0822 322.97C87.9182 322.532 87.8361 322.061 87.8361 321.555V321.281C87.8361 320.702 87.9204 320.178 88.0891 319.709C88.2577 319.24 88.4924 318.839 88.7932 318.506C89.0939 318.169 89.4494 317.911 89.8596 317.733C90.2697 317.556 90.7141 317.467 91.1926 317.467C91.7212 317.467 92.1838 317.556 92.5803 317.733C92.9768 317.911 93.3049 318.162 93.5646 318.485C93.829 318.804 94.0249 319.185 94.1525 319.627C94.2847 320.069 94.3508 320.557 94.3508 321.09V321.794H88.6359V320.611H92.7238V320.481C92.7147 320.185 92.6555 319.907 92.5461 319.647C92.4413 319.388 92.2795 319.178 92.0607 319.019C91.842 318.859 91.5503 318.779 91.1857 318.779C90.9123 318.779 90.6685 318.839 90.4543 318.957C90.2447 319.071 90.0692 319.237 89.9279 319.456C89.7867 319.675 89.6773 319.939 89.5998 320.249C89.5269 320.554 89.4904 320.898 89.4904 321.281V321.555C89.4904 321.878 89.5337 322.179 89.6203 322.457C89.7115 322.73 89.8436 322.97 90.0168 323.175C90.19 323.38 90.3996 323.542 90.6457 323.66C90.8918 323.774 91.1721 323.831 91.4865 323.831C91.883 323.831 92.2362 323.751 92.5461 323.592C92.856 323.432 93.1249 323.207 93.3527 322.915L94.2209 323.756C94.0614 323.988 93.854 324.212 93.5988 324.426C93.3436 324.635 93.0314 324.806 92.6623 324.938C92.2977 325.071 91.8739 325.137 91.3908 325.137ZM97.4996 314.5V325H95.8453V314.5H97.4996Z" fill="#49454F"/>
<path d="M297.3 315.013V325H295.652V316.968L293.212 317.795V316.435L297.101 315.013H297.3ZM307.346 319.189V320.816C307.346 321.596 307.268 322.261 307.113 322.812C306.963 323.359 306.744 323.804 306.457 324.146C306.17 324.487 305.826 324.738 305.425 324.897C305.029 325.057 304.584 325.137 304.092 325.137C303.7 325.137 303.335 325.087 302.998 324.986C302.666 324.886 302.365 324.729 302.096 324.515C301.827 324.3 301.597 324.025 301.405 323.688C301.219 323.346 301.073 322.938 300.968 322.464C300.868 321.99 300.818 321.441 300.818 320.816V319.189C300.818 318.406 300.895 317.745 301.05 317.207C301.205 316.665 301.426 316.225 301.713 315.888C302 315.546 302.342 315.298 302.738 315.143C303.14 314.988 303.586 314.91 304.078 314.91C304.475 314.91 304.839 314.96 305.172 315.061C305.509 315.156 305.81 315.309 306.074 315.519C306.343 315.728 306.571 316.002 306.758 316.339C306.949 316.672 307.095 317.075 307.196 317.549C307.296 318.018 307.346 318.565 307.346 319.189ZM305.698 321.049V318.943C305.698 318.547 305.676 318.198 305.63 317.897C305.585 317.592 305.516 317.335 305.425 317.125C305.338 316.911 305.229 316.738 305.097 316.605C304.965 316.469 304.814 316.371 304.646 316.312C304.477 316.248 304.288 316.216 304.078 316.216C303.823 316.216 303.595 316.266 303.395 316.366C303.194 316.462 303.026 316.617 302.889 316.831C302.752 317.045 302.647 317.328 302.574 317.679C302.506 318.025 302.472 318.447 302.472 318.943V321.049C302.472 321.45 302.495 321.803 302.54 322.108C302.586 322.414 302.654 322.676 302.745 322.895C302.836 323.109 302.946 323.286 303.073 323.428C303.206 323.564 303.356 323.665 303.525 323.729C303.698 323.792 303.887 323.824 304.092 323.824C304.352 323.824 304.582 323.774 304.782 323.674C304.983 323.574 305.152 323.414 305.288 323.195C305.425 322.972 305.528 322.683 305.596 322.327C305.664 321.972 305.698 321.546 305.698 321.049ZM315.403 319.189V320.816C315.403 321.596 315.325 322.261 315.171 322.812C315.02 323.359 314.801 323.804 314.514 324.146C314.227 324.487 313.883 324.738 313.482 324.897C313.086 325.057 312.641 325.137 312.149 325.137C311.757 325.137 311.393 325.087 311.055 324.986C310.723 324.886 310.422 324.729 310.153 324.515C309.884 324.3 309.654 324.025 309.463 323.688C309.276 323.346 309.13 322.938 309.025 322.464C308.925 321.99 308.875 321.441 308.875 320.816V319.189C308.875 318.406 308.952 317.745 309.107 317.207C309.262 316.665 309.483 316.225 309.77 315.888C310.057 315.546 310.399 315.298 310.796 315.143C311.197 314.988 311.643 314.91 312.135 314.91C312.532 314.91 312.896 314.96 313.229 315.061C313.566 315.156 313.867 315.309 314.131 315.519C314.4 315.728 314.628 316.002 314.815 316.339C315.006 316.672 315.152 317.075 315.253 317.549C315.353 318.018 315.403 318.565 315.403 319.189ZM313.755 321.049V318.943C313.755 318.547 313.733 318.198 313.687 317.897C313.642 317.592 313.573 317.335 313.482 317.125C313.395 316.911 313.286 316.738 313.154 316.605C313.022 316.469 312.871 316.371 312.703 316.312C312.534 316.248 312.345 316.216 312.135 316.216C311.88 316.216 311.652 316.266 311.452 316.366C311.251 316.462 311.083 316.617 310.946 316.831C310.809 317.045 310.704 317.328 310.631 317.679C310.563 318.025 310.529 318.447 310.529 318.943V321.049C310.529 321.45 310.552 321.803 310.597 322.108C310.643 322.414 310.711 322.676 310.802 322.895C310.893 323.109 311.003 323.286 311.13 323.428C311.263 323.564 311.413 323.665 311.582 323.729C311.755 323.792 311.944 323.824 312.149 323.824C312.409 323.824 312.639 323.774 312.839 323.674C313.04 323.574 313.209 323.414 313.345 323.195C313.482 322.972 313.585 322.683 313.653 322.327C313.721 321.972 313.755 321.546 313.755 321.049ZM323.494 319.545V321.028H316.672V319.545H323.494ZM320.883 316.756V324.002H319.29V316.756H320.883Z" fill="#49454F"/>
</g>
<line x1="28" y1="348.5" x2="332" y2="348.5" stroke="#CAC4D0"/>
<path d="M34.248 379.437C34.248 379.231 34.2161 379.049 34.1523 378.89C34.0931 378.73 33.986 378.584 33.8311 378.452C33.6761 378.32 33.4574 378.192 33.1748 378.069C32.8968 377.942 32.5413 377.812 32.1084 377.68C31.6344 377.534 31.1969 377.372 30.7959 377.194C30.3994 377.012 30.0531 376.802 29.7568 376.565C29.4606 376.324 29.2305 376.048 29.0664 375.738C28.9023 375.424 28.8203 375.062 28.8203 374.651C28.8203 374.246 28.9046 373.877 29.0732 373.544C29.2464 373.211 29.4902 372.924 29.8047 372.683C30.1237 372.437 30.4997 372.247 30.9326 372.115C31.3656 371.979 31.8441 371.91 32.3682 371.91C33.1064 371.91 33.7422 372.047 34.2754 372.32C34.8132 372.594 35.2256 372.961 35.5127 373.421C35.8044 373.881 35.9502 374.389 35.9502 374.945H34.248C34.248 374.617 34.1774 374.328 34.0361 374.077C33.8994 373.822 33.6898 373.621 33.4072 373.476C33.1292 373.33 32.776 373.257 32.3477 373.257C31.9421 373.257 31.6048 373.318 31.3359 373.441C31.0671 373.564 30.8665 373.731 30.7344 373.94C30.6022 374.15 30.5361 374.387 30.5361 374.651C30.5361 374.838 30.5794 375.009 30.666 375.164C30.7526 375.314 30.8848 375.456 31.0625 375.588C31.2402 375.715 31.4635 375.836 31.7324 375.95C32.0013 376.064 32.318 376.174 32.6826 376.278C33.234 376.442 33.7148 376.625 34.125 376.825C34.5352 377.021 34.877 377.244 35.1504 377.495C35.4238 377.746 35.6289 378.031 35.7656 378.35C35.9023 378.664 35.9707 379.022 35.9707 379.423C35.9707 379.842 35.8864 380.22 35.7178 380.558C35.5492 380.89 35.3076 381.175 34.9932 381.412C34.6833 381.645 34.3096 381.825 33.8721 381.952C33.4391 382.075 32.9561 382.137 32.4229 382.137C31.9443 382.137 31.4727 382.073 31.0078 381.945C30.5475 381.818 30.1283 381.624 29.75 381.364C29.3717 381.1 29.071 380.772 28.8477 380.38C28.6243 379.983 28.5127 379.521 28.5127 378.992H30.2285C30.2285 379.316 30.2832 379.591 30.3926 379.819C30.5065 380.047 30.6637 380.234 30.8643 380.38C31.0648 380.521 31.2972 380.626 31.5615 380.694C31.8304 380.763 32.1175 380.797 32.4229 380.797C32.8239 380.797 33.1589 380.74 33.4277 380.626C33.7012 380.512 33.9062 380.353 34.043 380.147C34.1797 379.942 34.248 379.705 34.248 379.437ZM40.685 382.137C40.1381 382.137 39.6436 382.048 39.2016 381.87C38.7641 381.688 38.3904 381.435 38.0805 381.111C37.7751 380.788 37.5404 380.407 37.3764 379.97C37.2123 379.532 37.1303 379.061 37.1303 378.555V378.281C37.1303 377.702 37.2146 377.178 37.3832 376.709C37.5518 376.24 37.7865 375.839 38.0873 375.506C38.3881 375.169 38.7436 374.911 39.1537 374.733C39.5639 374.556 40.0082 374.467 40.4867 374.467C41.0154 374.467 41.4779 374.556 41.8744 374.733C42.2709 374.911 42.599 375.162 42.8588 375.485C43.1231 375.804 43.3191 376.185 43.4467 376.627C43.5788 377.069 43.6449 377.557 43.6449 378.09V378.794H37.9301V377.611H42.018V377.481C42.0089 377.185 41.9496 376.907 41.8402 376.647C41.7354 376.388 41.5736 376.178 41.3549 376.019C41.1361 375.859 40.8445 375.779 40.4799 375.779C40.2064 375.779 39.9626 375.839 39.7484 375.957C39.5388 376.071 39.3633 376.237 39.2221 376.456C39.0808 376.675 38.9714 376.939 38.8939 377.249C38.821 377.554 38.7846 377.898 38.7846 378.281V378.555C38.7846 378.878 38.8279 379.179 38.9145 379.457C39.0056 379.73 39.1378 379.97 39.3109 380.175C39.4841 380.38 39.6938 380.542 39.9398 380.66C40.1859 380.774 40.4662 380.831 40.7807 380.831C41.1771 380.831 41.5303 380.751 41.8402 380.592C42.1501 380.432 42.419 380.207 42.6469 379.915L43.515 380.756C43.3555 380.988 43.1482 381.212 42.893 381.426C42.6378 381.635 42.3256 381.806 41.9564 381.938C41.5919 382.071 41.168 382.137 40.685 382.137ZM48.0516 380.824C48.3204 380.824 48.562 380.772 48.7762 380.667C48.9949 380.558 49.1704 380.407 49.3025 380.216C49.4393 380.024 49.5145 379.803 49.5281 379.553H51.0799C51.0708 380.031 50.9295 380.466 50.6561 380.858C50.3826 381.25 50.0203 381.562 49.5691 381.795C49.118 382.023 48.6189 382.137 48.0721 382.137C47.507 382.137 47.0148 382.041 46.5955 381.85C46.1762 381.654 45.8276 381.385 45.5496 381.043C45.2716 380.701 45.062 380.307 44.9207 379.86C44.784 379.414 44.7156 378.935 44.7156 378.425V378.186C44.7156 377.675 44.784 377.197 44.9207 376.75C45.062 376.299 45.2716 375.902 45.5496 375.561C45.8276 375.219 46.1762 374.952 46.5955 374.761C47.0148 374.565 47.5047 374.467 48.0652 374.467C48.6577 374.467 49.1772 374.585 49.6238 374.822C50.0704 375.055 50.4214 375.381 50.6766 375.8C50.9363 376.215 51.0708 376.698 51.0799 377.249H49.5281C49.5145 376.976 49.4461 376.729 49.323 376.511C49.2046 376.287 49.0359 376.11 48.8172 375.978C48.603 375.845 48.3455 375.779 48.0447 375.779C47.712 375.779 47.4363 375.848 47.2176 375.984C46.9988 376.117 46.8279 376.299 46.7049 376.531C46.5818 376.759 46.493 377.017 46.4383 377.304C46.3882 377.586 46.3631 377.88 46.3631 378.186V378.425C46.3631 378.73 46.3882 379.026 46.4383 379.313C46.4884 379.601 46.575 379.858 46.698 380.086C46.8257 380.309 46.9988 380.489 47.2176 380.626C47.4363 380.758 47.7143 380.824 48.0516 380.824ZM55.8352 374.604V375.807H51.6652V374.604H55.8352ZM52.8684 372.792H54.5158V379.956C54.5158 380.184 54.5477 380.359 54.6115 380.482C54.6799 380.601 54.7733 380.681 54.8918 380.722C55.0103 380.763 55.1493 380.783 55.3088 380.783C55.4227 380.783 55.5321 380.776 55.6369 380.763C55.7417 380.749 55.826 380.735 55.8898 380.722L55.8967 381.979C55.76 382.021 55.6005 382.057 55.4182 382.089C55.2404 382.121 55.0354 382.137 54.8029 382.137C54.4247 382.137 54.0897 382.071 53.798 381.938C53.5064 381.802 53.2785 381.581 53.1145 381.275C52.9504 380.97 52.8684 380.564 52.8684 380.059V372.792ZM58.9703 374.604V382H57.316V374.604H58.9703ZM57.2066 372.662C57.2066 372.411 57.2887 372.204 57.4527 372.04C57.6214 371.871 57.8538 371.787 58.15 371.787C58.4417 371.787 58.6718 371.871 58.8404 372.04C59.009 372.204 59.0934 372.411 59.0934 372.662C59.0934 372.908 59.009 373.113 58.8404 373.277C58.6718 373.441 58.4417 373.523 58.15 373.523C57.8538 373.523 57.6214 373.441 57.4527 373.277C57.2887 373.113 57.2066 372.908 57.2066 372.662ZM60.5605 378.384V378.227C60.5605 377.693 60.638 377.199 60.793 376.743C60.9479 376.283 61.1712 375.884 61.4629 375.547C61.7591 375.205 62.1191 374.941 62.543 374.754C62.9714 374.562 63.4544 374.467 63.9922 374.467C64.5345 374.467 65.0176 374.562 65.4414 374.754C65.8698 374.941 66.2321 375.205 66.5283 375.547C66.8245 375.884 67.0501 376.283 67.2051 376.743C67.36 377.199 67.4375 377.693 67.4375 378.227V378.384C67.4375 378.917 67.36 379.411 67.2051 379.867C67.0501 380.323 66.8245 380.722 66.5283 381.063C66.2321 381.401 65.8721 381.665 65.4482 381.856C65.0244 382.043 64.5436 382.137 64.0059 382.137C63.4635 382.137 62.9782 382.043 62.5498 381.856C62.126 381.665 61.766 381.401 61.4697 381.063C61.1735 380.722 60.9479 380.323 60.793 379.867C60.638 379.411 60.5605 378.917 60.5605 378.384ZM62.208 378.227V378.384C62.208 378.716 62.2422 379.031 62.3105 379.327C62.3789 379.623 62.486 379.883 62.6318 380.106C62.7777 380.33 62.9645 380.505 63.1924 380.633C63.4202 380.76 63.6914 380.824 64.0059 380.824C64.3112 380.824 64.5755 380.76 64.7988 380.633C65.0267 380.505 65.2135 380.33 65.3594 380.106C65.5052 379.883 65.6123 379.623 65.6807 379.327C65.7536 379.031 65.79 378.716 65.79 378.384V378.227C65.79 377.898 65.7536 377.589 65.6807 377.297C65.6123 377.001 65.5029 376.739 65.3525 376.511C65.2067 376.283 65.0199 376.105 64.792 375.978C64.5687 375.845 64.3021 375.779 63.9922 375.779C63.6823 375.779 63.4134 375.845 63.1855 375.978C62.9622 376.105 62.7777 376.283 62.6318 376.511C62.486 376.739 62.3789 377.001 62.3105 377.297C62.2422 377.589 62.208 377.898 62.208 378.227ZM70.5521 376.183V382H68.9047V374.604H70.4564L70.5521 376.183ZM70.2582 378.028L69.725 378.021C69.7296 377.497 69.8025 377.017 69.9437 376.579C70.0896 376.142 70.2901 375.766 70.5453 375.451C70.8051 375.137 71.115 374.895 71.475 374.727C71.835 374.553 72.2361 374.467 72.6781 374.467C73.0336 374.467 73.3549 374.517 73.642 374.617C73.9337 374.713 74.182 374.87 74.3871 375.089C74.5967 375.308 74.7562 375.592 74.8656 375.943C74.975 376.29 75.0297 376.716 75.0297 377.222V382H73.3754V377.215C73.3754 376.859 73.323 376.579 73.2182 376.374C73.1179 376.164 72.9698 376.016 72.7738 375.93C72.5824 375.839 72.3432 375.793 72.0561 375.793C71.7735 375.793 71.5206 375.852 71.2973 375.971C71.074 376.089 70.8848 376.251 70.7299 376.456C70.5795 376.661 70.4633 376.898 70.3812 377.167C70.2992 377.436 70.2582 377.723 70.2582 378.028ZM87.1379 376.203V377.563H81.8537V376.203H87.1379ZM82.2775 372.047V382H80.5617V372.047H82.2775ZM88.4572 372.047V382H86.7482V372.047H88.4572ZM93.6979 382.137C93.151 382.137 92.6565 382.048 92.2145 381.87C91.777 381.688 91.4033 381.435 91.0934 381.111C90.788 380.788 90.5533 380.407 90.3893 379.97C90.2252 379.532 90.1432 379.061 90.1432 378.555V378.281C90.1432 377.702 90.2275 377.178 90.3961 376.709C90.5647 376.24 90.7994 375.839 91.1002 375.506C91.401 375.169 91.7564 374.911 92.1666 374.733C92.5768 374.556 93.0211 374.467 93.4996 374.467C94.0283 374.467 94.4908 374.556 94.8873 374.733C95.2838 374.911 95.6119 375.162 95.8717 375.485C96.136 375.804 96.332 376.185 96.4596 376.627C96.5917 377.069 96.6578 377.557 96.6578 378.09V378.794H90.943V377.611H95.0309V377.481C95.0217 377.185 94.9625 376.907 94.8531 376.647C94.7483 376.388 94.5865 376.178 94.3678 376.019C94.149 375.859 93.8574 375.779 93.4928 375.779C93.2193 375.779 92.9755 375.839 92.7613 375.957C92.5517 376.071 92.3762 376.237 92.235 376.456C92.0937 376.675 91.9843 376.939 91.9068 377.249C91.8339 377.554 91.7975 377.898 91.7975 378.281V378.555C91.7975 378.878 91.8408 379.179 91.9273 379.457C92.0185 379.73 92.1507 379.97 92.3238 380.175C92.497 380.38 92.7066 380.542 92.9527 380.66C93.1988 380.774 93.4791 380.831 93.7936 380.831C94.19 380.831 94.5432 380.751 94.8531 380.592C95.163 380.432 95.4319 380.207 95.6598 379.915L96.5279 380.756C96.3684 380.988 96.1611 381.212 95.9059 381.426C95.6507 381.635 95.3385 381.806 94.9693 381.938C94.6048 382.071 94.1809 382.137 93.6979 382.137ZM102.213 380.517V376.989C102.213 376.725 102.165 376.497 102.069 376.306C101.974 376.114 101.828 375.966 101.632 375.861C101.44 375.757 101.199 375.704 100.907 375.704C100.638 375.704 100.406 375.75 100.21 375.841C100.014 375.932 99.8613 376.055 99.752 376.21C99.6426 376.365 99.5879 376.54 99.5879 376.736H97.9473C97.9473 376.445 98.0179 376.162 98.1592 375.889C98.3005 375.615 98.5055 375.371 98.7744 375.157C99.0433 374.943 99.3646 374.774 99.7383 374.651C100.112 374.528 100.531 374.467 100.996 374.467C101.552 374.467 102.044 374.56 102.473 374.747C102.906 374.934 103.245 375.216 103.491 375.595C103.742 375.968 103.867 376.438 103.867 377.003V380.291C103.867 380.628 103.89 380.931 103.936 381.2C103.986 381.465 104.056 381.695 104.147 381.891V382H102.459C102.382 381.822 102.32 381.597 102.274 381.323C102.233 381.045 102.213 380.776 102.213 380.517ZM102.452 377.502L102.466 378.521H101.283C100.978 378.521 100.709 378.55 100.477 378.609C100.244 378.664 100.05 378.746 99.8955 378.855C99.7406 378.965 99.6243 379.097 99.5469 379.252C99.4694 379.407 99.4307 379.582 99.4307 379.778C99.4307 379.974 99.4762 380.154 99.5674 380.318C99.6585 380.478 99.7907 380.603 99.9639 380.694C100.142 380.785 100.356 380.831 100.606 380.831C100.944 380.831 101.238 380.763 101.488 380.626C101.743 380.485 101.944 380.314 102.09 380.113C102.236 379.908 102.313 379.715 102.322 379.532L102.855 380.264C102.801 380.451 102.707 380.651 102.575 380.865C102.443 381.079 102.27 381.285 102.056 381.48C101.846 381.672 101.593 381.829 101.297 381.952C101.005 382.075 100.668 382.137 100.285 382.137C99.8021 382.137 99.3714 382.041 98.9932 381.85C98.6149 381.654 98.3187 381.392 98.1045 381.063C97.8903 380.731 97.7832 380.355 97.7832 379.936C97.7832 379.544 97.8561 379.197 98.002 378.896C98.1523 378.591 98.3711 378.336 98.6582 378.131C98.9499 377.926 99.3053 377.771 99.7246 377.666C100.144 377.557 100.622 377.502 101.16 377.502H102.452ZM110.202 380.469V371.5H111.856V382H110.359L110.202 380.469ZM105.389 378.384V378.24C105.389 377.68 105.455 377.169 105.587 376.709C105.719 376.244 105.911 375.845 106.162 375.513C106.412 375.175 106.718 374.918 107.078 374.74C107.438 374.558 107.843 374.467 108.294 374.467C108.741 374.467 109.133 374.553 109.47 374.727C109.807 374.9 110.094 375.148 110.331 375.472C110.568 375.791 110.758 376.174 110.899 376.62C111.04 377.062 111.14 377.554 111.2 378.097V378.555C111.14 379.083 111.04 379.566 110.899 380.004C110.758 380.441 110.568 380.82 110.331 381.139C110.094 381.458 109.805 381.704 109.463 381.877C109.126 382.05 108.732 382.137 108.281 382.137C107.834 382.137 107.431 382.043 107.071 381.856C106.715 381.67 106.412 381.408 106.162 381.07C105.911 380.733 105.719 380.337 105.587 379.881C105.455 379.421 105.389 378.922 105.389 378.384ZM107.037 378.24V378.384C107.037 378.721 107.066 379.035 107.125 379.327C107.189 379.619 107.287 379.876 107.419 380.1C107.551 380.318 107.722 380.492 107.932 380.619C108.146 380.742 108.401 380.804 108.698 380.804C109.071 380.804 109.379 380.722 109.621 380.558C109.862 380.394 110.051 380.173 110.188 379.895C110.329 379.612 110.425 379.298 110.475 378.951V377.714C110.448 377.445 110.391 377.194 110.304 376.962C110.222 376.729 110.11 376.527 109.969 376.354C109.828 376.176 109.652 376.039 109.443 375.943C109.238 375.843 108.994 375.793 108.711 375.793C108.411 375.793 108.155 375.857 107.946 375.984C107.736 376.112 107.563 376.287 107.426 376.511C107.294 376.734 107.196 376.994 107.132 377.29C107.068 377.586 107.037 377.903 107.037 378.24ZM116.939 382.137C116.392 382.137 115.898 382.048 115.456 381.87C115.018 381.688 114.645 381.435 114.335 381.111C114.029 380.788 113.795 380.407 113.631 379.97C113.467 379.532 113.385 379.061 113.385 378.555V378.281C113.385 377.702 113.469 377.178 113.637 376.709C113.806 376.24 114.041 375.839 114.342 375.506C114.642 375.169 114.998 374.911 115.408 374.733C115.818 374.556 116.262 374.467 116.741 374.467C117.27 374.467 117.732 374.556 118.129 374.733C118.525 374.911 118.853 375.162 119.113 375.485C119.377 375.804 119.573 376.185 119.701 376.627C119.833 377.069 119.899 377.557 119.899 378.09V378.794H114.184V377.611H118.272V377.481C118.263 377.185 118.204 376.907 118.095 376.647C117.99 376.388 117.828 376.178 117.609 376.019C117.39 375.859 117.099 375.779 116.734 375.779C116.461 375.779 116.217 375.839 116.003 375.957C115.793 376.071 115.618 376.237 115.476 376.456C115.335 376.675 115.226 376.939 115.148 377.249C115.075 377.554 115.039 377.898 115.039 378.281V378.555C115.039 378.878 115.082 379.179 115.169 379.457C115.26 379.73 115.392 379.97 115.565 380.175C115.738 380.38 115.948 380.542 116.194 380.66C116.44 380.774 116.721 380.831 117.035 380.831C117.431 380.831 117.785 380.751 118.095 380.592C118.404 380.432 118.673 380.207 118.901 379.915L119.769 380.756C119.61 380.988 119.402 381.212 119.147 381.426C118.892 381.635 118.58 381.806 118.211 381.938C117.846 382.071 117.422 382.137 116.939 382.137ZM122.939 376.012V382H121.291V374.604H122.863L122.939 376.012ZM125.201 374.556L125.188 376.087C125.087 376.069 124.978 376.055 124.86 376.046C124.746 376.037 124.632 376.032 124.518 376.032C124.235 376.032 123.987 376.073 123.773 376.155C123.558 376.233 123.378 376.347 123.233 376.497C123.091 376.643 122.982 376.821 122.904 377.03C122.827 377.24 122.781 377.475 122.768 377.734L122.392 377.762C122.392 377.297 122.437 376.866 122.529 376.47C122.62 376.073 122.756 375.725 122.939 375.424C123.126 375.123 123.358 374.888 123.636 374.72C123.918 374.551 124.244 374.467 124.613 374.467C124.714 374.467 124.821 374.476 124.935 374.494C125.053 374.512 125.142 374.533 125.201 374.556Z" fill="#49454F"/>
<g clip-path="url(#clip4_51593_5827)">
<path fill-rule="evenodd" clip-rule="evenodd" d="M40 439C43.3137 439 46 436.314 46 433C46 429.686 43.3137 427 40 427C36.6863 427 34 429.686 34 433C34 436.314 36.6863 439 40 439Z" fill="#49454F"/>
<path d="M71.2461 436.64V438H66.249V436.64H71.2461ZM66.7275 428.047V438H65.0117V428.047H66.7275ZM76.6781 436.517V432.989C76.6781 432.725 76.6303 432.497 76.5346 432.306C76.4389 432.114 76.293 431.966 76.0971 431.861C75.9057 431.757 75.6641 431.704 75.3725 431.704C75.1036 431.704 74.8712 431.75 74.6752 431.841C74.4792 431.932 74.3266 432.055 74.2172 432.21C74.1078 432.365 74.0531 432.54 74.0531 432.736H72.4125C72.4125 432.445 72.4831 432.162 72.6244 431.889C72.7657 431.615 72.9708 431.371 73.2396 431.157C73.5085 430.943 73.8298 430.774 74.2035 430.651C74.5772 430.528 74.9965 430.467 75.4613 430.467C76.0173 430.467 76.5095 430.56 76.9379 430.747C77.3708 430.934 77.7104 431.216 77.9564 431.595C78.2071 431.968 78.3324 432.438 78.3324 433.003V436.291C78.3324 436.628 78.3552 436.931 78.4008 437.2C78.4509 437.465 78.5215 437.695 78.6127 437.891V438H76.9242C76.8467 437.822 76.7852 437.597 76.7396 437.323C76.6986 437.045 76.6781 436.776 76.6781 436.517ZM76.9174 433.502L76.9311 434.521H75.7484C75.4431 434.521 75.1742 434.55 74.9418 434.609C74.7094 434.664 74.5157 434.746 74.3607 434.855C74.2058 434.965 74.0896 435.097 74.0121 435.252C73.9346 435.407 73.8959 435.582 73.8959 435.778C73.8959 435.974 73.9415 436.154 74.0326 436.318C74.1238 436.478 74.2559 436.603 74.4291 436.694C74.6068 436.785 74.821 436.831 75.0717 436.831C75.4089 436.831 75.7029 436.763 75.9535 436.626C76.2087 436.485 76.4092 436.314 76.5551 436.113C76.7009 435.908 76.7784 435.715 76.7875 435.532L77.3207 436.264C77.266 436.451 77.1726 436.651 77.0404 436.865C76.9083 437.079 76.7351 437.285 76.5209 437.48C76.3113 437.672 76.0583 437.829 75.7621 437.952C75.4704 438.075 75.1332 438.137 74.7504 438.137C74.2673 438.137 73.8367 438.041 73.4584 437.85C73.0801 437.654 72.7839 437.392 72.5697 437.063C72.3555 436.731 72.2484 436.355 72.2484 435.936C72.2484 435.544 72.3214 435.197 72.4672 434.896C72.6176 434.591 72.8363 434.336 73.1234 434.131C73.4151 433.926 73.7706 433.771 74.1898 433.666C74.6091 433.557 75.0876 433.502 75.6254 433.502H76.9174ZM80.1619 427.5H81.8094V436.421L81.6521 438H80.1619V427.5ZM86.6355 434.233V434.377C86.6355 434.924 86.574 435.427 86.451 435.888C86.3325 436.343 86.1502 436.74 85.9041 437.077C85.6626 437.414 85.3618 437.676 85.0018 437.863C84.6463 438.046 84.2339 438.137 83.7645 438.137C83.3042 438.137 82.9031 438.05 82.5613 437.877C82.2195 437.704 81.9324 437.458 81.7 437.139C81.4721 436.82 81.2876 436.439 81.1463 435.997C81.005 435.555 80.9048 435.067 80.8455 434.534V434.076C80.9048 433.538 81.005 433.051 81.1463 432.613C81.2876 432.171 81.4721 431.791 81.7 431.472C81.9324 431.148 82.2173 430.9 82.5545 430.727C82.8963 430.553 83.2951 430.467 83.7508 430.467C84.2247 430.467 84.6417 430.558 85.0018 430.74C85.3663 430.923 85.6694 431.182 85.9109 431.52C86.1525 431.852 86.3325 432.249 86.451 432.709C86.574 433.169 86.6355 433.677 86.6355 434.233ZM84.9881 434.377V434.233C84.9881 433.901 84.9607 433.589 84.9061 433.297C84.8514 433.001 84.7602 432.741 84.6326 432.518C84.5096 432.294 84.341 432.119 84.1268 431.991C83.9171 431.859 83.6551 431.793 83.3406 431.793C83.049 431.793 82.7983 431.843 82.5887 431.943C82.379 432.044 82.2036 432.18 82.0623 432.354C81.921 432.527 81.8094 432.727 81.7273 432.955C81.6499 433.183 81.5975 433.429 81.5701 433.693V434.931C81.6111 435.272 81.6977 435.587 81.8299 435.874C81.9666 436.157 82.158 436.384 82.4041 436.558C82.6502 436.726 82.9669 436.811 83.3543 436.811C83.6596 436.811 83.9171 436.749 84.1268 436.626C84.3364 436.503 84.5027 436.332 84.6258 436.113C84.7534 435.89 84.8445 435.63 84.8992 435.334C84.9585 435.038 84.9881 434.719 84.9881 434.377ZM91.3908 438.137C90.8439 438.137 90.3495 438.048 89.9074 437.87C89.4699 437.688 89.0962 437.435 88.7863 437.111C88.481 436.788 88.2463 436.407 88.0822 435.97C87.9182 435.532 87.8361 435.061 87.8361 434.555V434.281C87.8361 433.702 87.9204 433.178 88.0891 432.709C88.2577 432.24 88.4924 431.839 88.7932 431.506C89.0939 431.169 89.4494 430.911 89.8596 430.733C90.2697 430.556 90.7141 430.467 91.1926 430.467C91.7212 430.467 92.1838 430.556 92.5803 430.733C92.9768 430.911 93.3049 431.162 93.5646 431.485C93.829 431.804 94.0249 432.185 94.1525 432.627C94.2847 433.069 94.3508 433.557 94.3508 434.09V434.794H88.6359V433.611H92.7238V433.481C92.7147 433.185 92.6555 432.907 92.5461 432.647C92.4413 432.388 92.2795 432.178 92.0607 432.019C91.842 431.859 91.5503 431.779 91.1857 431.779C90.9123 431.779 90.6685 431.839 90.4543 431.957C90.2447 432.071 90.0692 432.237 89.9279 432.456C89.7867 432.675 89.6773 432.939 89.5998 433.249C89.5269 433.554 89.4904 433.898 89.4904 434.281V434.555C89.4904 434.878 89.5337 435.179 89.6203 435.457C89.7115 435.73 89.8436 435.97 90.0168 436.175C90.19 436.38 90.3996 436.542 90.6457 436.66C90.8918 436.774 91.1721 436.831 91.4865 436.831C91.883 436.831 92.2362 436.751 92.5461 436.592C92.856 436.432 93.1249 436.207 93.3527 435.915L94.2209 436.756C94.0614 436.988 93.854 437.212 93.5988 437.426C93.3436 437.635 93.0314 437.806 92.6623 437.938C92.2977 438.071 91.8739 438.137 91.3908 438.137ZM97.4996 427.5V438H95.8453V427.5H97.4996Z" fill="#49454F"/>
</g>
<g clip-path="url(#clip5_51593_5827)">
<path fill-rule="evenodd" clip-rule="evenodd" d="M40 483L47 495H33L40 483Z" fill="#49454F"/>
<path d="M71.2461 492.64V494H66.249V492.64H71.2461ZM66.7275 484.047V494H65.0117V484.047H66.7275ZM76.6781 492.517V488.989C76.6781 488.725 76.6303 488.497 76.5346 488.306C76.4389 488.114 76.293 487.966 76.0971 487.861C75.9057 487.757 75.6641 487.704 75.3725 487.704C75.1036 487.704 74.8712 487.75 74.6752 487.841C74.4792 487.932 74.3266 488.055 74.2172 488.21C74.1078 488.365 74.0531 488.54 74.0531 488.736H72.4125C72.4125 488.445 72.4831 488.162 72.6244 487.889C72.7657 487.615 72.9708 487.371 73.2396 487.157C73.5085 486.943 73.8298 486.774 74.2035 486.651C74.5772 486.528 74.9965 486.467 75.4613 486.467C76.0173 486.467 76.5095 486.56 76.9379 486.747C77.3708 486.934 77.7104 487.216 77.9564 487.595C78.2071 487.968 78.3324 488.438 78.3324 489.003V492.291C78.3324 492.628 78.3552 492.931 78.4008 493.2C78.4509 493.465 78.5215 493.695 78.6127 493.891V494H76.9242C76.8467 493.822 76.7852 493.597 76.7396 493.323C76.6986 493.045 76.6781 492.776 76.6781 492.517ZM76.9174 489.502L76.9311 490.521H75.7484C75.4431 490.521 75.1742 490.55 74.9418 490.609C74.7094 490.664 74.5157 490.746 74.3607 490.855C74.2058 490.965 74.0896 491.097 74.0121 491.252C73.9346 491.407 73.8959 491.582 73.8959 491.778C73.8959 491.974 73.9415 492.154 74.0326 492.318C74.1238 492.478 74.2559 492.603 74.4291 492.694C74.6068 492.785 74.821 492.831 75.0717 492.831C75.4089 492.831 75.7029 492.763 75.9535 492.626C76.2087 492.485 76.4092 492.314 76.5551 492.113C76.7009 491.908 76.7784 491.715 76.7875 491.532L77.3207 492.264C77.266 492.451 77.1726 492.651 77.0404 492.865C76.9083 493.079 76.7351 493.285 76.5209 493.48C76.3113 493.672 76.0583 493.829 75.7621 493.952C75.4704 494.075 75.1332 494.137 74.7504 494.137C74.2673 494.137 73.8367 494.041 73.4584 493.85C73.0801 493.654 72.7839 493.392 72.5697 493.063C72.3555 492.731 72.2484 492.355 72.2484 491.936C72.2484 491.544 72.3214 491.197 72.4672 490.896C72.6176 490.591 72.8363 490.336 73.1234 490.131C73.4151 489.926 73.7706 489.771 74.1898 489.666C74.6091 489.557 75.0876 489.502 75.6254 489.502H76.9174ZM80.1619 483.5H81.8094V492.421L81.6521 494H80.1619V483.5ZM86.6355 490.233V490.377C86.6355 490.924 86.574 491.427 86.451 491.888C86.3325 492.343 86.1502 492.74 85.9041 493.077C85.6626 493.414 85.3618 493.676 85.0018 493.863C84.6463 494.046 84.2339 494.137 83.7645 494.137C83.3042 494.137 82.9031 494.05 82.5613 493.877C82.2195 493.704 81.9324 493.458 81.7 493.139C81.4721 492.82 81.2876 492.439 81.1463 491.997C81.005 491.555 80.9048 491.067 80.8455 490.534V490.076C80.9048 489.538 81.005 489.051 81.1463 488.613C81.2876 488.171 81.4721 487.791 81.7 487.472C81.9324 487.148 82.2173 486.9 82.5545 486.727C82.8963 486.553 83.2951 486.467 83.7508 486.467C84.2247 486.467 84.6417 486.558 85.0018 486.74C85.3663 486.923 85.6694 487.182 85.9109 487.52C86.1525 487.852 86.3325 488.249 86.451 488.709C86.574 489.169 86.6355 489.677 86.6355 490.233ZM84.9881 490.377V490.233C84.9881 489.901 84.9607 489.589 84.9061 489.297C84.8514 489.001 84.7602 488.741 84.6326 488.518C84.5096 488.294 84.341 488.119 84.1268 487.991C83.9171 487.859 83.6551 487.793 83.3406 487.793C83.049 487.793 82.7983 487.843 82.5887 487.943C82.379 488.044 82.2036 488.18 82.0623 488.354C81.921 488.527 81.8094 488.727 81.7273 488.955C81.6499 489.183 81.5975 489.429 81.5701 489.693V490.931C81.6111 491.272 81.6977 491.587 81.8299 491.874C81.9666 492.157 82.158 492.384 82.4041 492.558C82.6502 492.726 82.9669 492.811 83.3543 492.811C83.6596 492.811 83.9171 492.749 84.1268 492.626C84.3364 492.503 84.5027 492.332 84.6258 492.113C84.7534 491.89 84.8445 491.63 84.8992 491.334C84.9585 491.038 84.9881 490.719 84.9881 490.377ZM91.3908 494.137C90.8439 494.137 90.3495 494.048 89.9074 493.87C89.4699 493.688 89.0962 493.435 88.7863 493.111C88.481 492.788 88.2463 492.407 88.0822 491.97C87.9182 491.532 87.8361 491.061 87.8361 490.555V490.281C87.8361 489.702 87.9204 489.178 88.0891 488.709C88.2577 488.24 88.4924 487.839 88.7932 487.506C89.0939 487.169 89.4494 486.911 89.8596 486.733C90.2697 486.556 90.7141 486.467 91.1926 486.467C91.7212 486.467 92.1838 486.556 92.5803 486.733C92.9768 486.911 93.3049 487.162 93.5646 487.485C93.829 487.804 94.0249 488.185 94.1525 488.627C94.2847 489.069 94.3508 489.557 94.3508 490.09V490.794H88.6359V489.611H92.7238V489.481C92.7147 489.185 92.6555 488.907 92.5461 488.647C92.4413 488.388 92.2795 488.178 92.0607 488.019C91.842 487.859 91.5503 487.779 91.1857 487.779C90.9123 487.779 90.6685 487.839 90.4543 487.957C90.2447 488.071 90.0692 488.237 89.9279 488.456C89.7867 488.675 89.6773 488.939 89.5998 489.249C89.5269 489.554 89.4904 489.898 89.4904 490.281V490.555C89.4904 490.878 89.5337 491.179 89.6203 491.457C89.7115 491.73 89.8436 491.97 90.0168 492.175C90.19 492.38 90.3996 492.542 90.6457 492.66C90.8918 492.774 91.1721 492.831 91.4865 492.831C91.883 492.831 92.2362 492.751 92.5461 492.592C92.856 492.432 93.1249 492.207 93.3527 491.915L94.2209 492.756C94.0614 492.988 93.854 493.212 93.5988 493.426C93.3436 493.635 93.0314 493.806 92.6623 493.938C92.2977 494.071 91.8739 494.137 91.3908 494.137ZM97.4996 483.5V494H95.8453V483.5H97.4996Z" fill="#49454F"/>
</g>
<g clip-path="url(#clip6_51593_5827)">
<rect x="34" y="539" width="12" height="12" fill="#49454F"/>
<path d="M71.2461 548.64V550H66.249V548.64H71.2461ZM66.7275 540.047V550H65.0117V540.047H66.7275ZM76.6781 548.517V544.989C76.6781 544.725 76.6303 544.497 76.5346 544.306C76.4389 544.114 76.293 543.966 76.0971 543.861C75.9057 543.757 75.6641 543.704 75.3725 543.704C75.1036 543.704 74.8712 543.75 74.6752 543.841C74.4792 543.932 74.3266 544.055 74.2172 544.21C74.1078 544.365 74.0531 544.54 74.0531 544.736H72.4125C72.4125 544.445 72.4831 544.162 72.6244 543.889C72.7657 543.615 72.9708 543.371 73.2396 543.157C73.5085 542.943 73.8298 542.774 74.2035 542.651C74.5772 542.528 74.9965 542.467 75.4613 542.467C76.0173 542.467 76.5095 542.56 76.9379 542.747C77.3708 542.934 77.7104 543.216 77.9564 543.595C78.2071 543.968 78.3324 544.438 78.3324 545.003V548.291C78.3324 548.628 78.3552 548.931 78.4008 549.2C78.4509 549.465 78.5215 549.695 78.6127 549.891V550H76.9242C76.8467 549.822 76.7852 549.597 76.7396 549.323C76.6986 549.045 76.6781 548.776 76.6781 548.517ZM76.9174 545.502L76.9311 546.521H75.7484C75.4431 546.521 75.1742 546.55 74.9418 546.609C74.7094 546.664 74.5157 546.746 74.3607 546.855C74.2058 546.965 74.0896 547.097 74.0121 547.252C73.9346 547.407 73.8959 547.582 73.8959 547.778C73.8959 547.974 73.9415 548.154 74.0326 548.318C74.1238 548.478 74.2559 548.603 74.4291 548.694C74.6068 548.785 74.821 548.831 75.0717 548.831C75.4089 548.831 75.7029 548.763 75.9535 548.626C76.2087 548.485 76.4092 548.314 76.5551 548.113C76.7009 547.908 76.7784 547.715 76.7875 547.532L77.3207 548.264C77.266 548.451 77.1726 548.651 77.0404 548.865C76.9083 549.079 76.7351 549.285 76.5209 549.48C76.3113 549.672 76.0583 549.829 75.7621 549.952C75.4704 550.075 75.1332 550.137 74.7504 550.137C74.2673 550.137 73.8367 550.041 73.4584 549.85C73.0801 549.654 72.7839 549.392 72.5697 549.063C72.3555 548.731 72.2484 548.355 72.2484 547.936C72.2484 547.544 72.3214 547.197 72.4672 546.896C72.6176 546.591 72.8363 546.336 73.1234 546.131C73.4151 545.926 73.7706 545.771 74.1898 545.666C74.6091 545.557 75.0876 545.502 75.6254 545.502H76.9174ZM80.1619 539.5H81.8094V548.421L81.6521 550H80.1619V539.5ZM86.6355 546.233V546.377C86.6355 546.924 86.574 547.427 86.451 547.888C86.3325 548.343 86.1502 548.74 85.9041 549.077C85.6626 549.414 85.3618 549.676 85.0018 549.863C84.6463 550.046 84.2339 550.137 83.7645 550.137C83.3042 550.137 82.9031 550.05 82.5613 549.877C82.2195 549.704 81.9324 549.458 81.7 549.139C81.4721 548.82 81.2876 548.439 81.1463 547.997C81.005 547.555 80.9048 547.067 80.8455 546.534V546.076C80.9048 545.538 81.005 545.051 81.1463 544.613C81.2876 544.171 81.4721 543.791 81.7 543.472C81.9324 543.148 82.2173 542.9 82.5545 542.727C82.8963 542.553 83.2951 542.467 83.7508 542.467C84.2247 542.467 84.6417 542.558 85.0018 542.74C85.3663 542.923 85.6694 543.182 85.9109 543.52C86.1525 543.852 86.3325 544.249 86.451 544.709C86.574 545.169 86.6355 545.677 86.6355 546.233ZM84.9881 546.377V546.233C84.9881 545.901 84.9607 545.589 84.9061 545.297C84.8514 545.001 84.7602 544.741 84.6326 544.518C84.5096 544.294 84.341 544.119 84.1268 543.991C83.9171 543.859 83.6551 543.793 83.3406 543.793C83.049 543.793 82.7983 543.843 82.5887 543.943C82.379 544.044 82.2036 544.18 82.0623 544.354C81.921 544.527 81.8094 544.727 81.7273 544.955C81.6499 545.183 81.5975 545.429 81.5701 545.693V546.931C81.6111 547.272 81.6977 547.587 81.8299 547.874C81.9666 548.157 82.158 548.384 82.4041 548.558C82.6502 548.726 82.9669 548.811 83.3543 548.811C83.6596 548.811 83.9171 548.749 84.1268 548.626C84.3364 548.503 84.5027 548.332 84.6258 548.113C84.7534 547.89 84.8445 547.63 84.8992 547.334C84.9585 547.038 84.9881 546.719 84.9881 546.377ZM91.3908 550.137C90.8439 550.137 90.3495 550.048 89.9074 549.87C89.4699 549.688 89.0962 549.435 88.7863 549.111C88.481 548.788 88.2463 548.407 88.0822 547.97C87.9182 547.532 87.8361 547.061 87.8361 546.555V546.281C87.8361 545.702 87.9204 545.178 88.0891 544.709C88.2577 544.24 88.4924 543.839 88.7932 543.506C89.0939 543.169 89.4494 542.911 89.8596 542.733C90.2697 542.556 90.7141 542.467 91.1926 542.467C91.7212 542.467 92.1838 542.556 92.5803 542.733C92.9768 542.911 93.3049 543.162 93.5646 543.485C93.829 543.804 94.0249 544.185 94.1525 544.627C94.2847 545.069 94.3508 545.557 94.3508 546.09V546.794H88.6359V545.611H92.7238V545.481C92.7147 545.185 92.6555 544.907 92.5461 544.647C92.4413 544.388 92.2795 544.178 92.0607 544.019C91.842 543.859 91.5503 543.779 91.1857 543.779C90.9123 543.779 90.6685 543.839 90.4543 543.957C90.2447 544.071 90.0692 544.237 89.9279 544.456C89.7867 544.675 89.6773 544.939 89.5998 545.249C89.5269 545.554 89.4904 545.898 89.4904 546.281V546.555C89.4904 546.878 89.5337 547.179 89.6203 547.457C89.7115 547.73 89.8436 547.97 90.0168 548.175C90.19 548.38 90.3996 548.542 90.6457 548.66C90.8918 548.774 91.1721 548.831 91.4865 548.831C91.883 548.831 92.2362 548.751 92.5461 548.592C92.856 548.432 93.1249 548.207 93.3527 547.915L94.2209 548.756C94.0614 548.988 93.854 549.212 93.5988 549.426C93.3436 549.635 93.0314 549.806 92.6623 549.938C92.2977 550.071 91.8739 550.137 91.3908 550.137ZM97.4996 539.5V550H95.8453V539.5H97.4996Z" fill="#49454F"/>
</g>
<defs>
<clipPath id="clip0_51593_5827">
<rect x="12" y="124" width="336" height="56" rx="28" fill="white"/>
</clipPath>
<clipPath id="clip1_51593_5827">
<rect x="12" y="180" width="336" height="56" rx="28" fill="white"/>
</clipPath>
<clipPath id="clip2_51593_5827">
<rect x="12" y="236" width="336" height="56" rx="28" fill="white"/>
</clipPath>
<clipPath id="clip3_51593_5827">
<rect x="12" y="292" width="336" height="56" rx="28" fill="white"/>
</clipPath>
<clipPath id="clip4_51593_5827">
<rect x="12" y="405" width="336" height="56" rx="28" fill="white"/>
</clipPath>
<clipPath id="clip5_51593_5827">
<rect x="12" y="461" width="336" height="56" rx="28" fill="white"/>
</clipPath>
<clipPath id="clip6_51593_5827">
<rect x="12" y="517" width="336" height="56" rx="28" fill="white"/>
</clipPath>
</defs>
</svg>
