<svg width="83" height="32" viewBox="0 0 83 32" fill="none" xmlns="http://www.w3.org/2000/svg">
<g clip-path="url(#clip0_50994_7531)">
<path d="M23.6795 19.6396V21H18.3953V19.6396H23.6795ZM18.8807 11.0469V21H17.1648V11.0469H18.8807ZM22.9891 15.2031V16.543H18.3953V15.2031H22.9891ZM23.6453 11.0469V12.4141H18.3953V11.0469H23.6453ZM26.6506 15.1826V21H25.0031V13.6035H26.5549L26.6506 15.1826ZM26.3566 17.0283L25.8234 17.0215C25.828 16.4974 25.9009 16.0166 26.0422 15.5791C26.188 15.1416 26.3885 14.7656 26.6438 14.4512C26.9035 14.1367 27.2134 13.8952 27.5734 13.7266C27.9335 13.5534 28.3345 13.4668 28.7766 13.4668C29.132 13.4668 29.4533 13.5169 29.7404 13.6172C30.0321 13.7129 30.2805 13.8701 30.4855 14.0889C30.6952 14.3076 30.8547 14.5924 30.9641 14.9434C31.0734 15.2897 31.1281 15.7158 31.1281 16.2217V21H29.4738V16.2148C29.4738 15.8594 29.4214 15.5791 29.3166 15.374C29.2163 15.1644 29.0682 15.0163 28.8723 14.9297C28.6809 14.8385 28.4416 14.793 28.1545 14.793C27.8719 14.793 27.619 14.8522 27.3957 14.9707C27.1724 15.0892 26.9833 15.251 26.8283 15.4561C26.6779 15.6611 26.5617 15.8981 26.4797 16.167C26.3977 16.4359 26.3566 16.723 26.3566 17.0283ZM37.0797 19.5166V15.9893C37.0797 15.7249 37.0318 15.4971 36.9361 15.3057C36.8404 15.1143 36.6946 14.9661 36.4986 14.8613C36.3072 14.7565 36.0657 14.7041 35.774 14.7041C35.5051 14.7041 35.2727 14.7497 35.0768 14.8408C34.8808 14.932 34.7281 15.055 34.6188 15.21C34.5094 15.3649 34.4547 15.5404 34.4547 15.7363H32.8141C32.8141 15.4447 32.8847 15.1621 33.026 14.8887C33.1673 14.6152 33.3723 14.3714 33.6412 14.1572C33.9101 13.943 34.2314 13.7744 34.6051 13.6514C34.9788 13.5283 35.398 13.4668 35.8629 13.4668C36.4189 13.4668 36.9111 13.5602 37.3395 13.7471C37.7724 13.9339 38.1119 14.2165 38.358 14.5947C38.6087 14.9684 38.734 15.4378 38.734 16.0029V19.291C38.734 19.6283 38.7568 19.9313 38.8023 20.2002C38.8525 20.4645 38.9231 20.6947 39.0143 20.8906V21H37.3258C37.2483 20.8223 37.1868 20.5967 37.1412 20.3232C37.1002 20.0452 37.0797 19.7764 37.0797 19.5166ZM37.3189 16.502L37.3326 17.5205H36.15C35.8447 17.5205 35.5758 17.5501 35.3434 17.6094C35.1109 17.6641 34.9173 17.7461 34.7623 17.8555C34.6074 17.9648 34.4911 18.097 34.4137 18.252C34.3362 18.4069 34.2975 18.5824 34.2975 18.7783C34.2975 18.9743 34.343 19.1543 34.4342 19.3184C34.5253 19.4779 34.6575 19.6032 34.8307 19.6943C35.0084 19.7855 35.2226 19.8311 35.4732 19.8311C35.8105 19.8311 36.1044 19.7627 36.3551 19.626C36.6103 19.4847 36.8108 19.3138 36.9566 19.1133C37.1025 18.9082 37.1799 18.7145 37.1891 18.5322L37.7223 19.2637C37.6676 19.4505 37.5742 19.651 37.442 19.8652C37.3098 20.0794 37.1367 20.2845 36.9225 20.4805C36.7128 20.6719 36.4599 20.8291 36.1637 20.9521C35.872 21.0752 35.5348 21.1367 35.152 21.1367C34.6689 21.1367 34.2382 21.041 33.86 20.8496C33.4817 20.6536 33.1855 20.3916 32.9713 20.0635C32.7571 19.7308 32.65 19.3548 32.65 18.9355C32.65 18.5436 32.7229 18.1973 32.8688 17.8965C33.0191 17.5911 33.2379 17.3359 33.525 17.1309C33.8167 16.9258 34.1721 16.7708 34.5914 16.666C35.0107 16.5566 35.4892 16.502 36.027 16.502H37.3189ZM40.5635 10.5H42.2109V19.4209L42.0537 21H40.5635V10.5ZM47.0371 17.2334V17.377C47.0371 17.9238 46.9756 18.4274 46.8525 18.8877C46.734 19.3434 46.5518 19.7399 46.3057 20.0771C46.0641 20.4144 45.7633 20.6764 45.4033 20.8633C45.0479 21.0456 44.6354 21.1367 44.166 21.1367C43.7057 21.1367 43.3047 21.0501 42.9629 20.877C42.6211 20.7038 42.334 20.4577 42.1016 20.1387C41.8737 19.8197 41.6891 19.4391 41.5479 18.9971C41.4066 18.555 41.3063 18.0674 41.2471 17.5342V17.0762C41.3063 16.5384 41.4066 16.0508 41.5479 15.6133C41.6891 15.1712 41.8737 14.7907 42.1016 14.4717C42.334 14.1481 42.6188 13.8997 42.9561 13.7266C43.2979 13.5534 43.6966 13.4668 44.1523 13.4668C44.6263 13.4668 45.0433 13.5579 45.4033 13.7402C45.7679 13.9225 46.071 14.1823 46.3125 14.5195C46.554 14.8522 46.734 15.2487 46.8525 15.709C46.9756 16.1693 47.0371 16.6774 47.0371 17.2334ZM45.3896 17.377V17.2334C45.3896 16.9007 45.3623 16.5885 45.3076 16.2969C45.2529 16.0007 45.1618 15.7409 45.0342 15.5176C44.9111 15.2943 44.7425 15.1188 44.5283 14.9912C44.3187 14.859 44.0566 14.793 43.7422 14.793C43.4505 14.793 43.1999 14.8431 42.9902 14.9434C42.7806 15.0436 42.6051 15.1803 42.4639 15.3535C42.3226 15.5267 42.2109 15.7272 42.1289 15.9551C42.0514 16.1829 41.999 16.429 41.9717 16.6934V17.9307C42.0127 18.2725 42.0993 18.5869 42.2314 18.874C42.3682 19.1566 42.5596 19.3844 42.8057 19.5576C43.0518 19.7262 43.3685 19.8105 43.7559 19.8105C44.0612 19.8105 44.3187 19.749 44.5283 19.626C44.738 19.5029 44.9043 19.332 45.0273 19.1133C45.1549 18.89 45.2461 18.6302 45.3008 18.334C45.36 18.0378 45.3896 17.7188 45.3896 17.377ZM50.2953 10.5V21H48.641V10.5H50.2953ZM55.4607 21.1367C54.9139 21.1367 54.4194 21.0479 53.9773 20.8701C53.5398 20.6878 53.1661 20.4349 52.8563 20.1113C52.5509 19.7878 52.3162 19.4072 52.1521 18.9697C51.9881 18.5322 51.9061 18.0605 51.9061 17.5547V17.2812C51.9061 16.7025 51.9904 16.1784 52.159 15.709C52.3276 15.2396 52.5623 14.8385 52.8631 14.5059C53.1639 14.1686 53.5193 13.9111 53.9295 13.7334C54.3396 13.5557 54.784 13.4668 55.2625 13.4668C55.7911 13.4668 56.2537 13.5557 56.6502 13.7334C57.0467 13.9111 57.3748 14.1618 57.6346 14.4854C57.8989 14.8044 58.0949 15.1849 58.2225 15.627C58.3546 16.069 58.4207 16.5566 58.4207 17.0898V17.7939H52.7059V16.6113H56.7938V16.4814C56.7846 16.1852 56.7254 15.9072 56.616 15.6475C56.5112 15.3877 56.3494 15.1781 56.1307 15.0186C55.9119 14.859 55.6202 14.7793 55.2557 14.7793C54.9822 14.7793 54.7384 14.8385 54.5242 14.957C54.3146 15.071 54.1391 15.2373 53.9979 15.4561C53.8566 15.6748 53.7472 15.9391 53.6697 16.249C53.5968 16.5544 53.5604 16.8984 53.5604 17.2812V17.5547C53.5604 17.8783 53.6036 18.179 53.6902 18.457C53.7814 18.7305 53.9135 18.9697 54.0867 19.1748C54.2599 19.3799 54.4695 19.5417 54.7156 19.6602C54.9617 19.7741 55.242 19.8311 55.5564 19.8311C55.9529 19.8311 56.3061 19.7513 56.616 19.5918C56.9259 19.4323 57.1948 19.2067 57.4227 18.915L58.2908 19.7559C58.1313 19.9883 57.924 20.2116 57.6688 20.4258C57.4135 20.6354 57.1014 20.8063 56.7322 20.9385C56.3676 21.0706 55.9438 21.1367 55.4607 21.1367ZM64.3176 19.4688V10.5H65.9719V21H64.4748L64.3176 19.4688ZM59.5051 17.3838V17.2402C59.5051 16.6797 59.5712 16.1693 59.7033 15.709C59.8355 15.2441 60.0269 14.8454 60.2775 14.5127C60.5282 14.1755 60.8335 13.918 61.1936 13.7402C61.5536 13.5579 61.9592 13.4668 62.4104 13.4668C62.857 13.4668 63.2489 13.5534 63.5861 13.7266C63.9234 13.8997 64.2105 14.1481 64.4475 14.4717C64.6844 14.7907 64.8736 15.1735 65.0148 15.6201C65.1561 16.0622 65.2564 16.5544 65.3156 17.0967V17.5547C65.2564 18.0833 65.1561 18.5664 65.0148 19.0039C64.8736 19.4414 64.6844 19.8197 64.4475 20.1387C64.2105 20.4577 63.9211 20.7038 63.5793 20.877C63.2421 21.0501 62.8479 21.1367 62.3967 21.1367C61.9501 21.1367 61.5467 21.0433 61.1867 20.8564C60.8312 20.6696 60.5282 20.4076 60.2775 20.0703C60.0269 19.7331 59.8355 19.3366 59.7033 18.8809C59.5712 18.4206 59.5051 17.9215 59.5051 17.3838ZM61.1525 17.2402V17.3838C61.1525 17.721 61.1822 18.0355 61.2414 18.3271C61.3052 18.6188 61.4032 18.8763 61.5354 19.0996C61.6675 19.3184 61.8384 19.4915 62.048 19.6191C62.2622 19.7422 62.5174 19.8037 62.8137 19.8037C63.1874 19.8037 63.495 19.7217 63.7365 19.5576C63.9781 19.3936 64.1672 19.1725 64.3039 18.8945C64.4452 18.612 64.5409 18.2975 64.591 17.9512V16.7139C64.5637 16.445 64.5067 16.1943 64.4201 15.9619C64.3381 15.7295 64.2264 15.5267 64.0852 15.3535C63.9439 15.1758 63.7684 15.0391 63.5588 14.9434C63.3537 14.8431 63.1099 14.793 62.8273 14.793C62.5266 14.793 62.2714 14.8568 62.0617 14.9844C61.8521 15.112 61.6789 15.2874 61.5422 15.5107C61.41 15.734 61.312 15.9938 61.2482 16.29C61.1844 16.5863 61.1525 16.903 61.1525 17.2402Z" fill="#49454F"/>
</g>
<rect x="0.5" y="0.5" width="82" height="31" rx="7.5" stroke="#79747E"/>
<defs>
<clipPath id="clip0_50994_7531">
<rect width="83" height="32" rx="8" fill="white"/>
</clipPath>
</defs>
</svg>
