<svg width="75" height="40" viewBox="0 0 75 40" fill="none" xmlns="http://www.w3.org/2000/svg">
<g clip-path="url(#clip0_50716_11381)">
<path d="M18.9412 20.5566H14.8533V23.6191H19.6316V25H13.1238V15.0469H19.5838V16.4414H14.8533V19.1895H18.9412V20.5566ZM22.5207 17.6035L22.5686 18.458C23.1154 17.7972 23.8332 17.4668 24.7219 17.4668C26.2622 17.4668 27.0461 18.3486 27.0734 20.1123V25H25.4123V20.208C25.4123 19.7386 25.3098 19.3923 25.1047 19.1689C24.9042 18.9411 24.5738 18.8271 24.1135 18.8271C23.4436 18.8271 22.9445 19.1302 22.6164 19.7363V25H20.9553V17.6035H22.5207ZM33.2916 25C33.2187 24.8587 33.1549 24.6286 33.1002 24.3096C32.5716 24.861 31.9244 25.1367 31.1588 25.1367C30.416 25.1367 29.8098 24.9248 29.3404 24.501C28.871 24.0771 28.6363 23.5531 28.6363 22.9287C28.6363 22.1403 28.928 21.5365 29.5113 21.1172C30.0992 20.6934 30.9378 20.4814 32.027 20.4814H33.0455V19.9961C33.0455 19.6133 32.9384 19.3079 32.7242 19.0801C32.51 18.8477 32.1842 18.7314 31.7467 18.7314C31.3684 18.7314 31.0585 18.8271 30.817 19.0186C30.5755 19.2054 30.4547 19.4447 30.4547 19.7363H28.7936C28.7936 19.3307 28.928 18.9525 29.1969 18.6016C29.4658 18.2461 29.8303 17.9681 30.2906 17.7676C30.7555 17.5671 31.2727 17.4668 31.8424 17.4668C32.7083 17.4668 33.3987 17.6855 33.9137 18.123C34.4286 18.556 34.693 19.1667 34.7066 19.9551V23.291C34.7066 23.9564 34.8001 24.4873 34.9869 24.8838V25H33.2916ZM31.4664 23.8037C31.7945 23.8037 32.1021 23.724 32.3893 23.5645C32.6809 23.4049 32.8997 23.1908 33.0455 22.9219V21.5273H32.15C31.5348 21.5273 31.0722 21.6344 30.7623 21.8486C30.4524 22.0628 30.2975 22.3659 30.2975 22.7578C30.2975 23.0768 30.4023 23.332 30.6119 23.5234C30.8261 23.7103 31.1109 23.8037 31.4664 23.8037ZM43.0371 21.377C43.0371 22.5254 42.7796 23.4391 42.2646 24.1182C41.7542 24.7972 41.0501 25.1367 40.1523 25.1367C39.2865 25.1367 38.612 24.8245 38.1289 24.2002L38.0469 25H36.543V14.5H38.2041V18.3145C38.6826 17.7493 39.3275 17.4668 40.1387 17.4668C41.041 17.4668 41.7497 17.8018 42.2646 18.4717C42.7796 19.1416 43.0371 20.0781 43.0371 21.2812V21.377ZM41.376 21.2334C41.376 20.4313 41.2347 19.8298 40.9521 19.4287C40.6696 19.0277 40.2594 18.8271 39.7217 18.8271C39.0016 18.8271 38.4958 19.1416 38.2041 19.7705V22.8193C38.5003 23.4619 39.0107 23.7832 39.7354 23.7832C40.2549 23.7832 40.6559 23.5895 40.9385 23.2021C41.221 22.8148 41.3669 22.2292 41.376 21.4453V21.2334ZM46.3021 25H44.641V14.5H46.3021V25ZM51.4744 25.1367C50.4217 25.1367 49.5672 24.8063 48.9109 24.1455C48.2592 23.4801 47.9334 22.596 47.9334 21.4932V21.2881C47.9334 20.5498 48.0747 19.8913 48.3572 19.3125C48.6443 18.7292 49.0454 18.2757 49.5604 17.9521C50.0753 17.6286 50.6495 17.4668 51.283 17.4668C52.2902 17.4668 53.0672 17.7881 53.6141 18.4307C54.1655 19.0732 54.4412 19.9824 54.4412 21.1582V21.8281H49.6082C49.6583 22.4388 49.8611 22.9219 50.2166 23.2773C50.5766 23.6328 51.0278 23.8105 51.5701 23.8105C52.3312 23.8105 52.951 23.5029 53.4295 22.8877L54.325 23.7422C54.0288 24.1842 53.6323 24.5283 53.1355 24.7744C52.6434 25.016 52.0896 25.1367 51.4744 25.1367ZM51.2762 18.7998C50.8204 18.7998 50.4513 18.9593 50.1688 19.2783C49.8908 19.5973 49.713 20.0417 49.6355 20.6113H52.8006V20.4883C52.7641 19.9323 52.616 19.513 52.3563 19.2305C52.0965 18.9434 51.7365 18.7998 51.2762 18.7998ZM55.5256 21.2471C55.5256 20.1077 55.7899 19.194 56.3186 18.5059C56.8472 17.8132 57.5559 17.4668 58.4445 17.4668C59.2284 17.4668 59.8618 17.7402 60.3449 18.2871V14.5H62.0061V25H60.5021L60.4201 24.2344C59.9234 24.8359 59.2603 25.1367 58.4309 25.1367C57.565 25.1367 56.8632 24.7881 56.3254 24.0908C55.7922 23.3936 55.5256 22.4456 55.5256 21.2471ZM57.1867 21.3906C57.1867 22.1426 57.3303 22.7305 57.6174 23.1543C57.909 23.5736 58.3215 23.7832 58.8547 23.7832C59.5337 23.7832 60.0305 23.4801 60.3449 22.874V19.7158C60.0396 19.1234 59.5474 18.8271 58.8684 18.8271C58.3306 18.8271 57.9159 19.0413 57.6242 19.4697C57.3326 19.8936 57.1867 20.5339 57.1867 21.3906Z" fill="#6750A4"/>
</g>
<defs>
<clipPath id="clip0_50716_11381">
<rect width="75" height="40" rx="20" fill="white"/>
</clipPath>
</defs>
</svg>
