<svg width="328" height="243" viewBox="0 0 328 243" fill="none" xmlns="http://www.w3.org/2000/svg">
<rect width="328" height="243" rx="28" fill="#FFFBFE"/>
<rect width="328" height="243" rx="28" fill="#6750A4" fill-opacity="0.11"/>
<path d="M30.4512 34.834V36H25.9219V34.834H30.4512ZM26.3379 27.4688V36H24.8672V27.4688H26.3379ZM29.8594 31.0312V32.1797H25.9219V31.0312H29.8594ZM30.4219 27.4688V28.6406H25.9219V27.4688H30.4219ZM33.4121 31.0137V36H32V29.6602H33.3301L33.4121 31.0137ZM33.1602 32.5957L32.7031 32.5898C32.707 32.1406 32.7695 31.7285 32.8906 31.3535C33.0156 30.9785 33.1875 30.6562 33.4062 30.3867C33.6289 30.1172 33.8945 29.9102 34.2031 29.7656C34.5117 29.6172 34.8555 29.543 35.2344 29.543C35.5391 29.543 35.8145 29.5859 36.0605 29.6719C36.3105 29.7539 36.5234 29.8887 36.6992 30.0762C36.8789 30.2637 37.0156 30.5078 37.1094 30.8086C37.2031 31.1055 37.25 31.4707 37.25 31.9043V36H35.832V31.8984C35.832 31.5938 35.7871 31.3535 35.6973 31.1777C35.6113 30.998 35.4844 30.8711 35.3164 30.7969C35.1523 30.7188 34.9473 30.6797 34.7012 30.6797C34.459 30.6797 34.2422 30.7305 34.0508 30.832C33.8594 30.9336 33.6973 31.0723 33.5645 31.248C33.4355 31.4238 33.3359 31.627 33.2656 31.8574C33.1953 32.0879 33.1602 32.334 33.1602 32.5957ZM42.0977 29.6602V30.6914H38.5234V29.6602H42.0977ZM39.5547 28.1074H40.9668V34.248C40.9668 34.4434 40.9941 34.5938 41.0488 34.6992C41.1074 34.8008 41.1875 34.8691 41.2891 34.9043C41.3906 34.9395 41.5098 34.957 41.6465 34.957C41.7441 34.957 41.8379 34.9512 41.9277 34.9395C42.0176 34.9277 42.0898 34.916 42.1445 34.9043L42.1504 35.9824C42.0332 36.0176 41.8965 36.0488 41.7402 36.0762C41.5879 36.1035 41.4121 36.1172 41.2129 36.1172C40.8887 36.1172 40.6016 36.0605 40.3516 35.9473C40.1016 35.8301 39.9062 35.6406 39.7656 35.3789C39.625 35.1172 39.5547 34.7695 39.5547 34.3359V28.1074ZM46.4824 36.1172C46.0137 36.1172 45.5898 36.041 45.2109 35.8887C44.8359 35.7324 44.5156 35.5156 44.25 35.2383C43.9883 34.9609 43.7871 34.6348 43.6465 34.2598C43.5059 33.8848 43.4355 33.4805 43.4355 33.0469V32.8125C43.4355 32.3164 43.5078 31.8672 43.6523 31.4648C43.7969 31.0625 43.998 30.7188 44.2559 30.4336C44.5137 30.1445 44.8184 29.9238 45.1699 29.7715C45.5215 29.6191 45.9023 29.543 46.3125 29.543C46.7656 29.543 47.1621 29.6191 47.502 29.7715C47.8418 29.9238 48.123 30.1387 48.3457 30.416C48.5723 30.6895 48.7402 31.0156 48.8496 31.3945C48.9629 31.7734 49.0195 32.1914 49.0195 32.6484V33.252H44.1211V32.2383H47.625V32.127C47.6172 31.873 47.5664 31.6348 47.4727 31.4121C47.3828 31.1895 47.2441 31.0098 47.0566 30.873C46.8691 30.7363 46.6191 30.668 46.3066 30.668C46.0723 30.668 45.8633 30.7188 45.6797 30.8203C45.5 30.918 45.3496 31.0605 45.2285 31.248C45.1074 31.4355 45.0137 31.6621 44.9473 31.9277C44.8848 32.1895 44.8535 32.4844 44.8535 32.8125V33.0469C44.8535 33.3242 44.8906 33.582 44.9648 33.8203C45.043 34.0547 45.1562 34.2598 45.3047 34.4355C45.4531 34.6113 45.6328 34.75 45.8438 34.8516C46.0547 34.9492 46.2949 34.998 46.5645 34.998C46.9043 34.998 47.207 34.9297 47.4727 34.793C47.7383 34.6562 47.9688 34.4629 48.1641 34.2129L48.9082 34.9336C48.7715 35.1328 48.5938 35.3242 48.375 35.5078C48.1562 35.6875 47.8887 35.834 47.5723 35.9473C47.2598 36.0605 46.8965 36.1172 46.4824 36.1172ZM52.0391 30.8672V36H50.627V29.6602H51.9746L52.0391 30.8672ZM53.9785 29.6191L53.9668 30.9316C53.8809 30.916 53.7871 30.9043 53.6855 30.8965C53.5879 30.8887 53.4902 30.8848 53.3926 30.8848C53.1504 30.8848 52.9375 30.9199 52.7539 30.9902C52.5703 31.0566 52.416 31.1543 52.291 31.2832C52.1699 31.4082 52.0762 31.5605 52.0098 31.7402C51.9434 31.9199 51.9043 32.1211 51.8926 32.3438L51.5703 32.3672C51.5703 31.9688 51.6094 31.5996 51.6875 31.2598C51.7656 30.9199 51.8828 30.6211 52.0391 30.3633C52.1992 30.1055 52.3984 29.9043 52.6367 29.7598C52.8789 29.6152 53.1582 29.543 53.4746 29.543C53.5605 29.543 53.6523 29.5508 53.75 29.5664C53.8516 29.582 53.9277 29.5996 53.9785 29.6191ZM61.7578 29.6602V30.6914H58.1836V29.6602H61.7578ZM59.2148 28.1074H60.627V34.248C60.627 34.4434 60.6543 34.5938 60.709 34.6992C60.7676 34.8008 60.8477 34.8691 60.9492 34.9043C61.0508 34.9395 61.1699 34.957 61.3066 34.957C61.4043 34.957 61.498 34.9512 61.5879 34.9395C61.6777 34.9277 61.75 34.916 61.8047 34.9043L61.8105 35.9824C61.6934 36.0176 61.5566 36.0488 61.4004 36.0762C61.248 36.1035 61.0723 36.1172 60.873 36.1172C60.5488 36.1172 60.2617 36.0605 60.0117 35.9473C59.7617 35.8301 59.5664 35.6406 59.4258 35.3789C59.2852 35.1172 59.2148 34.7695 59.2148 34.3359V28.1074ZM64.8594 29.6602V36H63.4414V29.6602H64.8594ZM63.3477 27.9961C63.3477 27.7812 63.418 27.6035 63.5586 27.4629C63.7031 27.3184 63.9023 27.2461 64.1562 27.2461C64.4062 27.2461 64.6035 27.3184 64.748 27.4629C64.8926 27.6035 64.9648 27.7812 64.9648 27.9961C64.9648 28.207 64.8926 28.3828 64.748 28.5234C64.6035 28.6641 64.4062 28.7344 64.1562 28.7344C63.9023 28.7344 63.7031 28.6641 63.5586 28.5234C63.418 28.3828 63.3477 28.207 63.3477 27.9961ZM68.3184 30.9492V36H66.9062V29.6602H68.2363L68.3184 30.9492ZM68.0898 32.5957L67.6094 32.5898C67.6094 32.1523 67.6641 31.748 67.7734 31.377C67.8828 31.0059 68.043 30.6836 68.2539 30.4102C68.4648 30.1328 68.7266 29.9199 69.0391 29.7715C69.3555 29.6191 69.7207 29.543 70.1348 29.543C70.4238 29.543 70.6875 29.5859 70.9258 29.6719C71.168 29.7539 71.377 29.8848 71.5527 30.0645C71.7324 30.2441 71.8691 30.4746 71.9629 30.7559C72.0605 31.0371 72.1094 31.377 72.1094 31.7754V36H70.6973V31.8984C70.6973 31.5898 70.6504 31.3477 70.5566 31.1719C70.4668 30.9961 70.3359 30.8711 70.1641 30.7969C69.9961 30.7188 69.7949 30.6797 69.5605 30.6797C69.2949 30.6797 69.0684 30.7305 68.8809 30.832C68.6973 30.9336 68.5469 31.0723 68.4297 31.248C68.3125 31.4238 68.2266 31.627 68.1719 31.8574C68.1172 32.0879 68.0898 32.334 68.0898 32.5957ZM72.0215 32.2207L71.3594 32.3672C71.3594 31.9844 71.4121 31.623 71.5176 31.2832C71.627 30.9395 71.7852 30.6387 71.9922 30.3809C72.2031 30.1191 72.4629 29.9141 72.7715 29.7656C73.0801 29.6172 73.4336 29.543 73.832 29.543C74.1562 29.543 74.4453 29.5879 74.6992 29.6777C74.957 29.7637 75.1758 29.9004 75.3555 30.0879C75.5352 30.2754 75.6719 30.5195 75.7656 30.8203C75.8594 31.1172 75.9062 31.4766 75.9062 31.8984V36H74.4883V31.8926C74.4883 31.5723 74.4414 31.3242 74.3477 31.1484C74.2578 30.9727 74.1289 30.8516 73.9609 30.7852C73.793 30.7148 73.5918 30.6797 73.3574 30.6797C73.1387 30.6797 72.9453 30.7207 72.7773 30.8027C72.6133 30.8809 72.4746 30.9922 72.3613 31.1367C72.248 31.2773 72.1621 31.4395 72.1035 31.623C72.0488 31.8066 72.0215 32.0059 72.0215 32.2207ZM80.6543 36.1172C80.1855 36.1172 79.7617 36.041 79.3828 35.8887C79.0078 35.7324 78.6875 35.5156 78.4219 35.2383C78.1602 34.9609 77.959 34.6348 77.8184 34.2598C77.6777 33.8848 77.6074 33.4805 77.6074 33.0469V32.8125C77.6074 32.3164 77.6797 31.8672 77.8242 31.4648C77.9688 31.0625 78.1699 30.7188 78.4277 30.4336C78.6855 30.1445 78.9902 29.9238 79.3418 29.7715C79.6934 29.6191 80.0742 29.543 80.4844 29.543C80.9375 29.543 81.334 29.6191 81.6738 29.7715C82.0137 29.9238 82.2949 30.1387 82.5176 30.416C82.7441 30.6895 82.9121 31.0156 83.0215 31.3945C83.1348 31.7734 83.1914 32.1914 83.1914 32.6484V33.252H78.293V32.2383H81.7969V32.127C81.7891 31.873 81.7383 31.6348 81.6445 31.4121C81.5547 31.1895 81.416 31.0098 81.2285 30.873C81.041 30.7363 80.791 30.668 80.4785 30.668C80.2441 30.668 80.0352 30.7188 79.8516 30.8203C79.6719 30.918 79.5215 31.0605 79.4004 31.248C79.2793 31.4355 79.1855 31.6621 79.1191 31.9277C79.0566 32.1895 79.0254 32.4844 79.0254 32.8125V33.0469C79.0254 33.3242 79.0625 33.582 79.1367 33.8203C79.2148 34.0547 79.3281 34.2598 79.4766 34.4355C79.625 34.6113 79.8047 34.75 80.0156 34.8516C80.2266 34.9492 80.4668 34.998 80.7363 34.998C81.0762 34.998 81.3789 34.9297 81.6445 34.793C81.9102 34.6562 82.1406 34.4629 82.3359 34.2129L83.0801 34.9336C82.9434 35.1328 82.7656 35.3242 82.5469 35.5078C82.3281 35.6875 82.0605 35.834 81.7441 35.9473C81.4316 36.0605 81.0684 36.1172 80.6543 36.1172Z" fill="#49454F"/>
<rect x="25" y="61" width="94" height="70" rx="7" fill="#EADDFF"/>
<path d="M68.8081 107.66V111H47.8682V108.078L58.3491 96.4102C59.6382 94.9746 60.6343 93.7588 61.3374 92.7627C62.0552 91.752 62.5532 90.8511 62.8315 90.0601C63.1245 89.2544 63.271 88.4341 63.271 87.5991C63.271 86.5444 63.0513 85.5923 62.6118 84.7427C62.187 83.8784 61.5571 83.1899 60.7222 82.6772C59.8872 82.1646 58.8765 81.9082 57.6899 81.9082C56.269 81.9082 55.0825 82.1865 54.1304 82.7432C53.1929 83.2852 52.4897 84.0469 52.021 85.0283C51.5522 86.0098 51.3179 87.1377 51.3179 88.4121H47.2529C47.2529 86.6104 47.6484 84.9624 48.4395 83.4683C49.2305 81.9741 50.4023 80.7876 51.9551 79.9087C53.5078 79.0151 55.4194 78.5684 57.6899 78.5684C59.7114 78.5684 61.4399 78.9272 62.8755 79.645C64.311 80.3481 65.4097 81.3442 66.1714 82.6333C66.9478 83.9077 67.3359 85.4019 67.3359 87.1157C67.3359 88.0532 67.1748 89.0054 66.8525 89.9722C66.5449 90.9243 66.1128 91.8765 65.5562 92.8286C65.0142 93.7808 64.377 94.7183 63.6445 95.6411C62.9268 96.564 62.1577 97.4722 61.3374 98.3657L52.7681 107.66H68.8081ZM93.2417 92.4551V97.333C93.2417 99.9551 93.0073 102.167 92.5386 103.969C92.0698 105.771 91.396 107.221 90.5171 108.319C89.6382 109.418 88.5762 110.216 87.3311 110.714C86.1006 111.198 84.709 111.439 83.1562 111.439C81.9258 111.439 80.7905 111.286 79.7505 110.978C78.7104 110.67 77.7729 110.18 76.938 109.506C76.1177 108.817 75.4146 107.924 74.8286 106.825C74.2427 105.727 73.7959 104.394 73.4883 102.826C73.1807 101.259 73.0269 99.4277 73.0269 97.333V92.4551C73.0269 89.833 73.2612 87.6357 73.73 85.8633C74.2134 84.0908 74.8945 82.6699 75.7734 81.6006C76.6523 80.5166 77.707 79.7402 78.9375 79.2715C80.1826 78.8027 81.5742 78.5684 83.1123 78.5684C84.3574 78.5684 85.5 78.7222 86.54 79.0298C87.5947 79.3228 88.5322 79.7988 89.3525 80.458C90.1729 81.1025 90.8687 81.9668 91.4399 83.0508C92.0259 84.1201 92.4727 85.4312 92.7803 86.9839C93.0879 88.5366 93.2417 90.3604 93.2417 92.4551ZM89.1548 97.9922V91.7739C89.1548 90.3384 89.0669 89.0786 88.8911 87.9946C88.73 86.896 88.4883 85.9585 88.166 85.1821C87.8438 84.4058 87.4336 83.7759 86.9355 83.2925C86.4521 82.8091 85.8882 82.4575 85.2437 82.2378C84.6138 82.0034 83.9033 81.8862 83.1123 81.8862C82.1455 81.8862 81.2886 82.0693 80.5415 82.4355C79.7944 82.7871 79.1646 83.3511 78.6519 84.1274C78.1538 84.9038 77.7729 85.9219 77.5093 87.1816C77.2456 88.4414 77.1138 89.9722 77.1138 91.7739V97.9922C77.1138 99.4277 77.1943 100.695 77.3555 101.793C77.5312 102.892 77.7876 103.844 78.1245 104.65C78.4614 105.441 78.8716 106.093 79.355 106.605C79.8384 107.118 80.395 107.499 81.0249 107.748C81.6694 107.982 82.3799 108.1 83.1562 108.1C84.1523 108.1 85.0239 107.909 85.771 107.528C86.5181 107.147 87.1406 106.554 87.6387 105.749C88.1514 104.928 88.5322 103.881 88.7812 102.606C89.0303 101.317 89.1548 99.7793 89.1548 97.9922Z" fill="#21005D"/>
<rect x="97" y="75" width="2" height="42" fill="#6750A4"/>
<rect x="25" y="61" width="94" height="70" rx="7" stroke="#6750A4" stroke-width="2"/>
<path d="M28.1426 142.469V151H27.0293V142.469H28.1426ZM30.8848 142.469V143.395H24.293V142.469H30.8848ZM33.5641 144.66V151H32.4742V144.66H33.5641ZM32.3922 142.979C32.3922 142.803 32.4449 142.654 32.5504 142.533C32.6598 142.412 32.8199 142.352 33.0309 142.352C33.2379 142.352 33.3961 142.412 33.5055 142.533C33.6188 142.654 33.6754 142.803 33.6754 142.979C33.6754 143.146 33.6188 143.291 33.5055 143.412C33.3961 143.529 33.2379 143.588 33.0309 143.588C32.8199 143.588 32.6598 143.529 32.5504 143.412C32.4449 143.291 32.3922 143.146 32.3922 142.979ZM36.7824 145.92V151H35.6926V144.66H36.7238L36.7824 145.92ZM36.5598 147.59L36.0559 147.572C36.0598 147.139 36.1164 146.738 36.2258 146.371C36.3352 146 36.4973 145.678 36.7121 145.404C36.927 145.131 37.1945 144.92 37.5148 144.771C37.8352 144.619 38.2063 144.543 38.6281 144.543C38.925 144.543 39.1984 144.586 39.4484 144.672C39.6984 144.754 39.9152 144.885 40.0988 145.064C40.2824 145.244 40.425 145.475 40.5266 145.756C40.6281 146.037 40.6789 146.377 40.6789 146.775V151H39.5949V146.828C39.5949 146.496 39.5383 146.23 39.425 146.031C39.3156 145.832 39.1594 145.688 38.9563 145.598C38.7531 145.504 38.5148 145.457 38.2414 145.457C37.9211 145.457 37.6535 145.514 37.4387 145.627C37.2238 145.74 37.052 145.896 36.923 146.096C36.7941 146.295 36.7004 146.523 36.6418 146.781C36.5871 147.035 36.5598 147.305 36.5598 147.59ZM40.6672 146.992L39.9406 147.215C39.9445 146.867 40.0012 146.533 40.1105 146.213C40.2238 145.893 40.3859 145.607 40.5969 145.357C40.8117 145.107 41.0754 144.91 41.3879 144.766C41.7004 144.617 42.0578 144.543 42.4602 144.543C42.8 144.543 43.1008 144.588 43.3625 144.678C43.6281 144.768 43.8508 144.906 44.0305 145.094C44.2141 145.277 44.3527 145.514 44.4465 145.803C44.5402 146.092 44.5871 146.436 44.5871 146.834V151H43.4973V146.822C43.4973 146.467 43.4406 146.191 43.3273 145.996C43.218 145.797 43.0617 145.658 42.8586 145.58C42.6594 145.498 42.4211 145.457 42.1438 145.457C41.9055 145.457 41.6945 145.498 41.5109 145.58C41.3273 145.662 41.173 145.775 41.048 145.92C40.923 146.061 40.8273 146.223 40.7609 146.406C40.6984 146.59 40.6672 146.785 40.6672 146.992ZM49.2586 151.117C48.8172 151.117 48.4168 151.043 48.0574 150.895C47.702 150.742 47.3953 150.529 47.1375 150.256C46.8836 149.982 46.6883 149.658 46.5516 149.283C46.4148 148.908 46.3465 148.498 46.3465 148.053V147.807C46.3465 147.291 46.4227 146.832 46.575 146.43C46.7273 146.023 46.9344 145.68 47.1961 145.398C47.4578 145.117 47.7547 144.904 48.0867 144.76C48.4188 144.615 48.7625 144.543 49.118 144.543C49.5711 144.543 49.9617 144.621 50.2898 144.777C50.6219 144.934 50.8934 145.152 51.1043 145.434C51.3152 145.711 51.4715 146.039 51.573 146.418C51.6746 146.793 51.7254 147.203 51.7254 147.648V148.135H46.991V147.25H50.6414V147.168C50.6258 146.887 50.5672 146.613 50.4656 146.348C50.368 146.082 50.2117 145.863 49.9969 145.691C49.782 145.52 49.4891 145.434 49.118 145.434C48.8719 145.434 48.6453 145.486 48.4383 145.592C48.2313 145.693 48.0535 145.846 47.9051 146.049C47.7566 146.252 47.6414 146.5 47.5594 146.793C47.4773 147.086 47.4363 147.424 47.4363 147.807V148.053C47.4363 148.354 47.4773 148.637 47.5594 148.902C47.6453 149.164 47.7684 149.395 47.9285 149.594C48.0926 149.793 48.2898 149.949 48.5203 150.062C48.7547 150.176 49.0203 150.232 49.3172 150.232C49.7 150.232 50.0242 150.154 50.2898 149.998C50.5555 149.842 50.7879 149.633 50.9871 149.371L51.6434 149.893C51.5066 150.1 51.3328 150.297 51.1219 150.484C50.9109 150.672 50.6512 150.824 50.3426 150.941C50.0379 151.059 49.6766 151.117 49.2586 151.117ZM57.9453 142V151H56.8555V142H57.9453ZM63.8238 149.916V146.652C63.8238 146.402 63.773 146.186 63.6715 146.002C63.5738 145.814 63.4254 145.67 63.2262 145.568C63.027 145.467 62.7809 145.416 62.4879 145.416C62.2145 145.416 61.9742 145.463 61.7672 145.557C61.5641 145.65 61.4039 145.773 61.2867 145.926C61.1734 146.078 61.1168 146.242 61.1168 146.418H60.0328C60.0328 146.191 60.0914 145.967 60.2086 145.744C60.3258 145.521 60.4938 145.32 60.7125 145.141C60.9352 144.957 61.2008 144.812 61.5094 144.707C61.8219 144.598 62.1695 144.543 62.5523 144.543C63.0133 144.543 63.4195 144.621 63.7711 144.777C64.1266 144.934 64.4039 145.17 64.6031 145.486C64.8063 145.799 64.9078 146.191 64.9078 146.664V149.617C64.9078 149.828 64.9254 150.053 64.9605 150.291C64.9996 150.529 65.0563 150.734 65.1305 150.906V151H63.9996C63.9449 150.875 63.902 150.709 63.8707 150.502C63.8395 150.291 63.8238 150.096 63.8238 149.916ZM64.0113 147.156L64.023 147.918H62.9273C62.6188 147.918 62.3434 147.943 62.1012 147.994C61.859 148.041 61.6559 148.113 61.4918 148.211C61.3277 148.309 61.2027 148.432 61.1168 148.58C61.0309 148.725 60.9879 148.895 60.9879 149.09C60.9879 149.289 61.0328 149.471 61.1227 149.635C61.2125 149.799 61.3473 149.93 61.527 150.027C61.7105 150.121 61.9352 150.168 62.2008 150.168C62.5328 150.168 62.8258 150.098 63.0797 149.957C63.3336 149.816 63.5348 149.645 63.6832 149.441C63.8355 149.238 63.9176 149.041 63.9293 148.85L64.3922 149.371C64.3648 149.535 64.2906 149.717 64.1695 149.916C64.0484 150.115 63.8863 150.307 63.6832 150.49C63.484 150.67 63.2457 150.82 62.9684 150.941C62.6949 151.059 62.3863 151.117 62.0426 151.117C61.6129 151.117 61.2359 151.033 60.9117 150.865C60.5914 150.697 60.3414 150.473 60.1617 150.191C59.9859 149.906 59.898 149.588 59.898 149.236C59.898 148.896 59.9645 148.598 60.0973 148.34C60.2301 148.078 60.4215 147.861 60.6715 147.689C60.9215 147.514 61.2223 147.381 61.5738 147.291C61.9254 147.201 62.318 147.156 62.7516 147.156H64.0113ZM67.007 142H68.0969V149.77L68.0031 151H67.007V142ZM72.3801 147.777V147.9C72.3801 148.361 72.3254 148.789 72.216 149.184C72.1066 149.574 71.9465 149.914 71.7355 150.203C71.5246 150.492 71.2668 150.717 70.9621 150.877C70.6574 151.037 70.3078 151.117 69.9133 151.117C69.5109 151.117 69.1574 151.049 68.8527 150.912C68.552 150.771 68.298 150.57 68.091 150.309C67.884 150.047 67.718 149.73 67.593 149.359C67.4719 148.988 67.3879 148.57 67.341 148.105V147.566C67.3879 147.098 67.4719 146.678 67.593 146.307C67.718 145.936 67.884 145.619 68.091 145.357C68.298 145.092 68.552 144.891 68.8527 144.754C69.1535 144.613 69.5031 144.543 69.9016 144.543C70.3 144.543 70.6535 144.621 70.9621 144.777C71.2707 144.93 71.5285 145.148 71.7355 145.434C71.9465 145.719 72.1066 146.061 72.216 146.459C72.3254 146.854 72.3801 147.293 72.3801 147.777ZM71.2902 147.9V147.777C71.2902 147.461 71.2609 147.164 71.2023 146.887C71.1437 146.605 71.05 146.359 70.9211 146.148C70.7922 145.934 70.6223 145.766 70.4113 145.645C70.2004 145.52 69.9406 145.457 69.632 145.457C69.3586 145.457 69.1203 145.504 68.9172 145.598C68.718 145.691 68.548 145.818 68.4074 145.979C68.2668 146.135 68.1516 146.314 68.0617 146.518C67.9758 146.717 67.9113 146.924 67.8684 147.139V148.551C67.9309 148.824 68.0324 149.088 68.173 149.342C68.3176 149.592 68.509 149.797 68.7473 149.957C68.9895 150.117 69.2883 150.197 69.6437 150.197C69.9367 150.197 70.1867 150.139 70.3937 150.021C70.6047 149.9 70.7746 149.734 70.9035 149.523C71.0363 149.312 71.134 149.068 71.1965 148.791C71.259 148.514 71.2902 148.217 71.2902 147.9ZM76.782 151.117C76.3406 151.117 75.9402 151.043 75.5809 150.895C75.2254 150.742 74.9188 150.529 74.6609 150.256C74.407 149.982 74.2117 149.658 74.075 149.283C73.9383 148.908 73.8699 148.498 73.8699 148.053V147.807C73.8699 147.291 73.9461 146.832 74.0984 146.43C74.2508 146.023 74.4578 145.68 74.7195 145.398C74.9813 145.117 75.2781 144.904 75.6102 144.76C75.9422 144.615 76.2859 144.543 76.6414 144.543C77.0945 144.543 77.4852 144.621 77.8133 144.777C78.1453 144.934 78.4168 145.152 78.6277 145.434C78.8387 145.711 78.9949 146.039 79.0965 146.418C79.198 146.793 79.2488 147.203 79.2488 147.648V148.135H74.5145V147.25H78.1648V147.168C78.1492 146.887 78.0906 146.613 77.9891 146.348C77.8914 146.082 77.7352 145.863 77.5203 145.691C77.3055 145.52 77.0125 145.434 76.6414 145.434C76.3953 145.434 76.1688 145.486 75.9617 145.592C75.7547 145.693 75.577 145.846 75.4285 146.049C75.2801 146.252 75.1648 146.5 75.0828 146.793C75.0008 147.086 74.9598 147.424 74.9598 147.807V148.053C74.9598 148.354 75.0008 148.637 75.0828 148.902C75.1688 149.164 75.2918 149.395 75.452 149.594C75.616 149.793 75.8133 149.949 76.0438 150.062C76.2781 150.176 76.5438 150.232 76.8406 150.232C77.2234 150.232 77.5477 150.154 77.8133 149.998C78.0789 149.842 78.3113 149.633 78.5105 149.371L79.1668 149.893C79.0301 150.1 78.8563 150.297 78.6453 150.484C78.4344 150.672 78.1746 150.824 77.866 150.941C77.5613 151.059 77.2 151.117 76.782 151.117ZM82.0922 142V151H81.0023V142H82.0922Z" fill="#49454F"/>
<path d="M128.799 112.272C128.799 111.4 129.068 110.667 129.606 110.074C130.163 109.461 130.961 109.155 132 109.155C133.039 109.155 133.828 109.461 134.366 110.074C134.922 110.667 135.201 111.4 135.201 112.272C135.201 113.126 134.922 113.85 134.366 114.443C133.828 115.037 133.039 115.334 132 115.334C130.961 115.334 130.163 115.037 129.606 114.443C129.068 113.85 128.799 113.126 128.799 112.272ZM128.827 87.6968C128.827 86.8247 129.096 86.0918 129.634 85.498C130.191 84.8857 130.989 84.5796 132.028 84.5796C133.067 84.5796 133.855 84.8857 134.394 85.498C134.95 86.0918 135.229 86.8247 135.229 87.6968C135.229 88.5503 134.95 89.2739 134.394 89.8677C133.855 90.4614 133.067 90.7583 132.028 90.7583C130.989 90.7583 130.191 90.4614 129.634 89.8677C129.096 89.2739 128.827 88.5503 128.827 87.6968Z" fill="#1C1B1F"/>
<rect x="144" y="60" width="96" height="72" rx="8" fill="#E7E0EC"/>
<path d="M189.429 92.4551V97.333C189.429 99.9551 189.195 102.167 188.726 103.969C188.257 105.771 187.583 107.221 186.705 108.319C185.826 109.418 184.764 110.216 183.519 110.714C182.288 111.198 180.896 111.439 179.344 111.439C178.113 111.439 176.978 111.286 175.938 110.978C174.898 110.67 173.96 110.18 173.125 109.506C172.305 108.817 171.602 107.924 171.016 106.825C170.43 105.727 169.983 104.394 169.676 102.826C169.368 101.259 169.214 99.4277 169.214 97.333V92.4551C169.214 89.833 169.449 87.6357 169.917 85.8633C170.401 84.0908 171.082 82.6699 171.961 81.6006C172.84 80.5166 173.895 79.7402 175.125 79.2715C176.37 78.8027 177.762 78.5684 179.3 78.5684C180.545 78.5684 181.688 78.7222 182.728 79.0298C183.782 79.3228 184.72 79.7988 185.54 80.458C186.36 81.1025 187.056 81.9668 187.627 83.0508C188.213 84.1201 188.66 85.4312 188.968 86.9839C189.275 88.5366 189.429 90.3604 189.429 92.4551ZM185.342 97.9922V91.7739C185.342 90.3384 185.254 89.0786 185.079 87.9946C184.917 86.896 184.676 85.9585 184.354 85.1821C184.031 84.4058 183.621 83.7759 183.123 83.2925C182.64 82.8091 182.076 82.4575 181.431 82.2378C180.801 82.0034 180.091 81.8862 179.3 81.8862C178.333 81.8862 177.476 82.0693 176.729 82.4355C175.982 82.7871 175.352 83.3511 174.839 84.1274C174.341 84.9038 173.96 85.9219 173.697 87.1816C173.433 88.4414 173.301 89.9722 173.301 91.7739V97.9922C173.301 99.4277 173.382 100.695 173.543 101.793C173.719 102.892 173.975 103.844 174.312 104.65C174.649 105.441 175.059 106.093 175.542 106.605C176.026 107.118 176.583 107.499 177.212 107.748C177.857 107.982 178.567 108.1 179.344 108.1C180.34 108.1 181.211 107.909 181.958 107.528C182.706 107.147 183.328 106.554 183.826 105.749C184.339 104.928 184.72 103.881 184.969 102.606C185.218 101.317 185.342 99.7793 185.342 97.9922ZM214.742 92.4551V97.333C214.742 99.9551 214.507 102.167 214.039 103.969C213.57 105.771 212.896 107.221 212.017 108.319C211.138 109.418 210.076 110.216 208.831 110.714C207.601 111.198 206.209 111.439 204.656 111.439C203.426 111.439 202.291 111.286 201.25 110.978C200.21 110.67 199.273 110.18 198.438 109.506C197.618 108.817 196.915 107.924 196.329 106.825C195.743 105.727 195.296 104.394 194.988 102.826C194.681 101.259 194.527 99.4277 194.527 97.333V92.4551C194.527 89.833 194.761 87.6357 195.23 85.8633C195.713 84.0908 196.395 82.6699 197.273 81.6006C198.152 80.5166 199.207 79.7402 200.438 79.2715C201.683 78.8027 203.074 78.5684 204.612 78.5684C205.857 78.5684 207 78.7222 208.04 79.0298C209.095 79.3228 210.032 79.7988 210.853 80.458C211.673 81.1025 212.369 81.9668 212.94 83.0508C213.526 84.1201 213.973 85.4312 214.28 86.9839C214.588 88.5366 214.742 90.3604 214.742 92.4551ZM210.655 97.9922V91.7739C210.655 90.3384 210.567 89.0786 210.391 87.9946C210.23 86.896 209.988 85.9585 209.666 85.1821C209.344 84.4058 208.934 83.7759 208.436 83.2925C207.952 82.8091 207.388 82.4575 206.744 82.2378C206.114 82.0034 205.403 81.8862 204.612 81.8862C203.646 81.8862 202.789 82.0693 202.042 82.4355C201.294 82.7871 200.665 83.3511 200.152 84.1274C199.654 84.9038 199.273 85.9219 199.009 87.1816C198.746 88.4414 198.614 89.9722 198.614 91.7739V97.9922C198.614 99.4277 198.694 100.695 198.855 101.793C199.031 102.892 199.288 103.844 199.625 104.65C199.961 105.441 200.372 106.093 200.855 106.605C201.338 107.118 201.895 107.499 202.525 107.748C203.169 107.982 203.88 108.1 204.656 108.1C205.652 108.1 206.524 107.909 207.271 107.528C208.018 107.147 208.641 106.554 209.139 105.749C209.651 104.928 210.032 103.881 210.281 102.606C210.53 101.317 210.655 99.7793 210.655 97.9922Z" fill="#1C1B1F"/>
<path d="M148.143 142.469V151H147.029V142.469H148.143ZM150.885 142.469V143.395H144.293V142.469H150.885ZM153.564 144.66V151H152.474V144.66H153.564ZM152.392 142.979C152.392 142.803 152.445 142.654 152.55 142.533C152.66 142.412 152.82 142.352 153.031 142.352C153.238 142.352 153.396 142.412 153.505 142.533C153.619 142.654 153.675 142.803 153.675 142.979C153.675 143.146 153.619 143.291 153.505 143.412C153.396 143.529 153.238 143.588 153.031 143.588C152.82 143.588 152.66 143.529 152.55 143.412C152.445 143.291 152.392 143.146 152.392 142.979ZM156.782 145.92V151H155.693V144.66H156.724L156.782 145.92ZM156.56 147.59L156.056 147.572C156.06 147.139 156.116 146.738 156.226 146.371C156.335 146 156.497 145.678 156.712 145.404C156.927 145.131 157.195 144.92 157.515 144.771C157.835 144.619 158.206 144.543 158.628 144.543C158.925 144.543 159.198 144.586 159.448 144.672C159.698 144.754 159.915 144.885 160.099 145.064C160.282 145.244 160.425 145.475 160.527 145.756C160.628 146.037 160.679 146.377 160.679 146.775V151H159.595V146.828C159.595 146.496 159.538 146.23 159.425 146.031C159.316 145.832 159.159 145.688 158.956 145.598C158.753 145.504 158.515 145.457 158.241 145.457C157.921 145.457 157.654 145.514 157.439 145.627C157.224 145.74 157.052 145.896 156.923 146.096C156.794 146.295 156.7 146.523 156.642 146.781C156.587 147.035 156.56 147.305 156.56 147.59ZM160.667 146.992L159.941 147.215C159.945 146.867 160.001 146.533 160.111 146.213C160.224 145.893 160.386 145.607 160.597 145.357C160.812 145.107 161.075 144.91 161.388 144.766C161.7 144.617 162.058 144.543 162.46 144.543C162.8 144.543 163.101 144.588 163.363 144.678C163.628 144.768 163.851 144.906 164.03 145.094C164.214 145.277 164.353 145.514 164.446 145.803C164.54 146.092 164.587 146.436 164.587 146.834V151H163.497V146.822C163.497 146.467 163.441 146.191 163.327 145.996C163.218 145.797 163.062 145.658 162.859 145.58C162.659 145.498 162.421 145.457 162.144 145.457C161.905 145.457 161.695 145.498 161.511 145.58C161.327 145.662 161.173 145.775 161.048 145.92C160.923 146.061 160.827 146.223 160.761 146.406C160.698 146.59 160.667 146.785 160.667 146.992ZM169.259 151.117C168.817 151.117 168.417 151.043 168.057 150.895C167.702 150.742 167.395 150.529 167.138 150.256C166.884 149.982 166.688 149.658 166.552 149.283C166.415 148.908 166.346 148.498 166.346 148.053V147.807C166.346 147.291 166.423 146.832 166.575 146.43C166.727 146.023 166.934 145.68 167.196 145.398C167.458 145.117 167.755 144.904 168.087 144.76C168.419 144.615 168.763 144.543 169.118 144.543C169.571 144.543 169.962 144.621 170.29 144.777C170.622 144.934 170.893 145.152 171.104 145.434C171.315 145.711 171.471 146.039 171.573 146.418C171.675 146.793 171.725 147.203 171.725 147.648V148.135H166.991V147.25H170.641V147.168C170.626 146.887 170.567 146.613 170.466 146.348C170.368 146.082 170.212 145.863 169.997 145.691C169.782 145.52 169.489 145.434 169.118 145.434C168.872 145.434 168.645 145.486 168.438 145.592C168.231 145.693 168.054 145.846 167.905 146.049C167.757 146.252 167.641 146.5 167.559 146.793C167.477 147.086 167.436 147.424 167.436 147.807V148.053C167.436 148.354 167.477 148.637 167.559 148.902C167.645 149.164 167.768 149.395 167.929 149.594C168.093 149.793 168.29 149.949 168.52 150.062C168.755 150.176 169.02 150.232 169.317 150.232C169.7 150.232 170.024 150.154 170.29 149.998C170.555 149.842 170.788 149.633 170.987 149.371L171.643 149.893C171.507 150.1 171.333 150.297 171.122 150.484C170.911 150.672 170.651 150.824 170.343 150.941C170.038 151.059 169.677 151.117 169.259 151.117ZM177.945 142V151H176.855V142H177.945ZM183.824 149.916V146.652C183.824 146.402 183.773 146.186 183.671 146.002C183.574 145.814 183.425 145.67 183.226 145.568C183.027 145.467 182.781 145.416 182.488 145.416C182.214 145.416 181.974 145.463 181.767 145.557C181.564 145.65 181.404 145.773 181.287 145.926C181.173 146.078 181.117 146.242 181.117 146.418H180.033C180.033 146.191 180.091 145.967 180.209 145.744C180.326 145.521 180.494 145.32 180.713 145.141C180.935 144.957 181.201 144.812 181.509 144.707C181.822 144.598 182.17 144.543 182.552 144.543C183.013 144.543 183.42 144.621 183.771 144.777C184.127 144.934 184.404 145.17 184.603 145.486C184.806 145.799 184.908 146.191 184.908 146.664V149.617C184.908 149.828 184.925 150.053 184.961 150.291C185 150.529 185.056 150.734 185.13 150.906V151H184C183.945 150.875 183.902 150.709 183.871 150.502C183.839 150.291 183.824 150.096 183.824 149.916ZM184.011 147.156L184.023 147.918H182.927C182.619 147.918 182.343 147.943 182.101 147.994C181.859 148.041 181.656 148.113 181.492 148.211C181.328 148.309 181.203 148.432 181.117 148.58C181.031 148.725 180.988 148.895 180.988 149.09C180.988 149.289 181.033 149.471 181.123 149.635C181.213 149.799 181.347 149.93 181.527 150.027C181.711 150.121 181.935 150.168 182.201 150.168C182.533 150.168 182.826 150.098 183.08 149.957C183.334 149.816 183.535 149.645 183.683 149.441C183.836 149.238 183.918 149.041 183.929 148.85L184.392 149.371C184.365 149.535 184.291 149.717 184.17 149.916C184.048 150.115 183.886 150.307 183.683 150.49C183.484 150.67 183.246 150.82 182.968 150.941C182.695 151.059 182.386 151.117 182.043 151.117C181.613 151.117 181.236 151.033 180.912 150.865C180.591 150.697 180.341 150.473 180.162 150.191C179.986 149.906 179.898 149.588 179.898 149.236C179.898 148.896 179.964 148.598 180.097 148.34C180.23 148.078 180.421 147.861 180.671 147.689C180.921 147.514 181.222 147.381 181.574 147.291C181.925 147.201 182.318 147.156 182.752 147.156H184.011ZM187.007 142H188.097V149.77L188.003 151H187.007V142ZM192.38 147.777V147.9C192.38 148.361 192.325 148.789 192.216 149.184C192.107 149.574 191.946 149.914 191.736 150.203C191.525 150.492 191.267 150.717 190.962 150.877C190.657 151.037 190.308 151.117 189.913 151.117C189.511 151.117 189.157 151.049 188.853 150.912C188.552 150.771 188.298 150.57 188.091 150.309C187.884 150.047 187.718 149.73 187.593 149.359C187.472 148.988 187.388 148.57 187.341 148.105V147.566C187.388 147.098 187.472 146.678 187.593 146.307C187.718 145.936 187.884 145.619 188.091 145.357C188.298 145.092 188.552 144.891 188.853 144.754C189.154 144.613 189.503 144.543 189.902 144.543C190.3 144.543 190.654 144.621 190.962 144.777C191.271 144.93 191.529 145.148 191.736 145.434C191.946 145.719 192.107 146.061 192.216 146.459C192.325 146.854 192.38 147.293 192.38 147.777ZM191.29 147.9V147.777C191.29 147.461 191.261 147.164 191.202 146.887C191.144 146.605 191.05 146.359 190.921 146.148C190.792 145.934 190.622 145.766 190.411 145.645C190.2 145.52 189.941 145.457 189.632 145.457C189.359 145.457 189.12 145.504 188.917 145.598C188.718 145.691 188.548 145.818 188.407 145.979C188.267 146.135 188.152 146.314 188.062 146.518C187.976 146.717 187.911 146.924 187.868 147.139V148.551C187.931 148.824 188.032 149.088 188.173 149.342C188.318 149.592 188.509 149.797 188.747 149.957C188.989 150.117 189.288 150.197 189.644 150.197C189.937 150.197 190.187 150.139 190.394 150.021C190.605 149.9 190.775 149.734 190.904 149.523C191.036 149.312 191.134 149.068 191.196 148.791C191.259 148.514 191.29 148.217 191.29 147.9ZM196.782 151.117C196.341 151.117 195.94 151.043 195.581 150.895C195.225 150.742 194.919 150.529 194.661 150.256C194.407 149.982 194.212 149.658 194.075 149.283C193.938 148.908 193.87 148.498 193.87 148.053V147.807C193.87 147.291 193.946 146.832 194.098 146.43C194.251 146.023 194.458 145.68 194.72 145.398C194.981 145.117 195.278 144.904 195.61 144.76C195.942 144.615 196.286 144.543 196.641 144.543C197.095 144.543 197.485 144.621 197.813 144.777C198.145 144.934 198.417 145.152 198.628 145.434C198.839 145.711 198.995 146.039 199.096 146.418C199.198 146.793 199.249 147.203 199.249 147.648V148.135H194.514V147.25H198.165V147.168C198.149 146.887 198.091 146.613 197.989 146.348C197.891 146.082 197.735 145.863 197.52 145.691C197.305 145.52 197.013 145.434 196.641 145.434C196.395 145.434 196.169 145.486 195.962 145.592C195.755 145.693 195.577 145.846 195.429 146.049C195.28 146.252 195.165 146.5 195.083 146.793C195.001 147.086 194.96 147.424 194.96 147.807V148.053C194.96 148.354 195.001 148.637 195.083 148.902C195.169 149.164 195.292 149.395 195.452 149.594C195.616 149.793 195.813 149.949 196.044 150.062C196.278 150.176 196.544 150.232 196.841 150.232C197.223 150.232 197.548 150.154 197.813 149.998C198.079 149.842 198.311 149.633 198.511 149.371L199.167 149.893C199.03 150.1 198.856 150.297 198.645 150.484C198.434 150.672 198.175 150.824 197.866 150.941C197.561 151.059 197.2 151.117 196.782 151.117ZM202.092 142V151H201.002V142H202.092Z" fill="#49454F"/>
<g clip-path="url(#clip0_52949_28054)">
<rect x="252" y="60" width="52" height="72" rx="8" fill="#FFFBFE"/>
<rect x="252" y="60" width="52" height="72" rx="8" fill="#6750A4" fill-opacity="0.11"/>
<path d="M252 60H304V96H252V60Z" fill="#FFD8E4"/>
<path d="M271.206 73.1406L267.808 83H265.753L270.034 71.625H271.347L271.206 73.1406ZM274.05 83L270.644 73.1406L270.495 71.625H271.816L276.113 83H274.05ZM273.886 78.7812V80.3359H267.698V78.7812H273.886ZM278.333 71.625H280.083L283.372 80.3984L286.653 71.625H288.403L284.059 83H282.669L278.333 71.625ZM277.536 71.625H279.2L279.489 79.2188V83H277.536V71.625ZM287.536 71.625H289.208V83H287.247V79.2188L287.536 71.625Z" fill="#31111D"/>
<path d="M304 95.5H252V96.5H304V95.5Z" fill="#79747E"/>
<path d="M271.292 114.758H268.331V113.203H271.292C271.808 113.203 272.224 113.12 272.542 112.953C272.86 112.786 273.092 112.557 273.238 112.266C273.389 111.969 273.464 111.63 273.464 111.25C273.464 110.891 273.389 110.555 273.238 110.242C273.092 109.924 272.86 109.669 272.542 109.477C272.224 109.284 271.808 109.188 271.292 109.188H268.933V119H266.972V107.625H271.292C272.172 107.625 272.92 107.781 273.534 108.094C274.154 108.401 274.626 108.828 274.948 109.375C275.271 109.917 275.433 110.536 275.433 111.234C275.433 111.969 275.271 112.599 274.948 113.125C274.626 113.651 274.154 114.055 273.534 114.336C272.92 114.617 272.172 114.758 271.292 114.758ZM278.137 107.625H279.887L283.177 116.398L286.458 107.625H288.208L283.864 119H282.473L278.137 107.625ZM277.341 107.625H279.005L279.294 115.219V119H277.341V107.625ZM287.341 107.625H289.012V119H287.052V115.219L287.341 107.625Z" fill="#49454F"/>
<path d="M252 96.5H304V95.5H252V96.5Z" fill="#79747E"/>
</g>
<rect x="252.5" y="60.5" width="51" height="71" rx="7.5" stroke="#79747E"/>
<g clip-path="url(#clip1_52949_28054)">
<path fill-rule="evenodd" clip-rule="evenodd" d="M35.99 189C30.47 189 26 193.48 26 199C26 204.52 30.47 209 35.99 209C41.52 209 46 204.52 46 199C46 193.48 41.52 189 35.99 189ZM36 207C31.58 207 28 203.42 28 199C28 194.58 31.58 191 36 191C40.42 191 44 194.58 44 199C44 203.42 40.42 207 36 207ZM35 200.07L40.49 203.36L41.51 201.64L37 198.93V193.42H35V200.07Z" fill="#49454F"/>
</g>
<g clip-path="url(#clip2_52949_28054)">
<path d="M204.203 200.76H205.912C205.857 201.411 205.675 201.993 205.365 202.503C205.055 203.009 204.62 203.408 204.06 203.699C203.499 203.991 202.818 204.137 202.016 204.137C201.4 204.137 200.847 204.027 200.354 203.809C199.862 203.585 199.441 203.271 199.09 202.865C198.739 202.455 198.47 201.961 198.283 201.382C198.101 200.803 198.01 200.156 198.01 199.44V198.613C198.01 197.898 198.103 197.251 198.29 196.672C198.481 196.093 198.755 195.599 199.11 195.188C199.466 194.774 199.892 194.457 200.389 194.238C200.89 194.02 201.453 193.91 202.077 193.91C202.87 193.91 203.54 194.056 204.087 194.348C204.634 194.639 205.058 195.043 205.358 195.558C205.664 196.073 205.851 196.663 205.919 197.328H204.21C204.164 196.9 204.064 196.533 203.909 196.228C203.759 195.922 203.535 195.69 203.239 195.53C202.943 195.366 202.556 195.284 202.077 195.284C201.685 195.284 201.343 195.357 201.052 195.503C200.76 195.649 200.516 195.863 200.32 196.146C200.124 196.428 199.976 196.777 199.876 197.191C199.78 197.602 199.732 198.071 199.732 198.6V199.44C199.732 199.942 199.776 200.397 199.862 200.808C199.953 201.213 200.09 201.562 200.272 201.854C200.459 202.145 200.696 202.371 200.983 202.53C201.271 202.69 201.615 202.77 202.016 202.77C202.503 202.77 202.897 202.692 203.198 202.537C203.504 202.382 203.734 202.157 203.889 201.86C204.048 201.56 204.153 201.193 204.203 200.76ZM211.577 202.517V198.989C211.577 198.725 211.529 198.497 211.433 198.306C211.337 198.114 211.191 197.966 210.996 197.861C210.804 197.757 210.563 197.704 210.271 197.704C210.002 197.704 209.77 197.75 209.574 197.841C209.378 197.932 209.225 198.055 209.116 198.21C209.006 198.365 208.952 198.54 208.952 198.736H207.311C207.311 198.445 207.382 198.162 207.523 197.889C207.664 197.615 207.869 197.371 208.138 197.157C208.407 196.943 208.728 196.774 209.102 196.651C209.476 196.528 209.895 196.467 210.36 196.467C210.916 196.467 211.408 196.56 211.836 196.747C212.269 196.934 212.609 197.216 212.855 197.595C213.106 197.968 213.231 198.438 213.231 199.003V202.291C213.231 202.628 213.254 202.931 213.299 203.2C213.349 203.465 213.42 203.695 213.511 203.891V204H211.823C211.745 203.822 211.684 203.597 211.638 203.323C211.597 203.045 211.577 202.776 211.577 202.517ZM211.816 199.502L211.829 200.521H210.647C210.342 200.521 210.073 200.55 209.84 200.609C209.608 200.664 209.414 200.746 209.259 200.855C209.104 200.965 208.988 201.097 208.911 201.252C208.833 201.407 208.794 201.582 208.794 201.778C208.794 201.974 208.84 202.154 208.931 202.318C209.022 202.478 209.154 202.603 209.328 202.694C209.505 202.785 209.719 202.831 209.97 202.831C210.307 202.831 210.601 202.763 210.852 202.626C211.107 202.485 211.308 202.314 211.454 202.113C211.599 201.908 211.677 201.715 211.686 201.532L212.219 202.264C212.164 202.451 212.071 202.651 211.939 202.865C211.807 203.079 211.634 203.285 211.419 203.48C211.21 203.672 210.957 203.829 210.661 203.952C210.369 204.075 210.032 204.137 209.649 204.137C209.166 204.137 208.735 204.041 208.357 203.85C207.979 203.654 207.682 203.392 207.468 203.063C207.254 202.731 207.147 202.355 207.147 201.936C207.147 201.544 207.22 201.197 207.366 200.896C207.516 200.591 207.735 200.336 208.022 200.131C208.314 199.926 208.669 199.771 209.088 199.666C209.508 199.557 209.986 199.502 210.524 199.502H211.816ZM216.687 198.183V204H215.04V196.604H216.592L216.687 198.183ZM216.393 200.028L215.86 200.021C215.865 199.497 215.938 199.017 216.079 198.579C216.225 198.142 216.425 197.766 216.68 197.451C216.94 197.137 217.25 196.895 217.61 196.727C217.97 196.553 218.371 196.467 218.813 196.467C219.169 196.467 219.49 196.517 219.777 196.617C220.069 196.713 220.317 196.87 220.522 197.089C220.732 197.308 220.891 197.592 221.001 197.943C221.11 198.29 221.165 198.716 221.165 199.222V204H219.511V199.215C219.511 198.859 219.458 198.579 219.353 198.374C219.253 198.164 219.105 198.016 218.909 197.93C218.718 197.839 218.478 197.793 218.191 197.793C217.909 197.793 217.656 197.852 217.432 197.971C217.209 198.089 217.02 198.251 216.865 198.456C216.715 198.661 216.598 198.898 216.516 199.167C216.434 199.436 216.393 199.723 216.393 200.028ZM225.968 202.824C226.237 202.824 226.478 202.772 226.693 202.667C226.911 202.558 227.087 202.407 227.219 202.216C227.356 202.024 227.431 201.803 227.445 201.553H228.996C228.987 202.031 228.846 202.466 228.572 202.858C228.299 203.25 227.937 203.562 227.486 203.795C227.034 204.023 226.535 204.137 225.988 204.137C225.423 204.137 224.931 204.041 224.512 203.85C224.093 203.654 223.744 203.385 223.466 203.043C223.188 202.701 222.978 202.307 222.837 201.86C222.7 201.414 222.632 200.935 222.632 200.425V200.186C222.632 199.675 222.7 199.197 222.837 198.75C222.978 198.299 223.188 197.902 223.466 197.561C223.744 197.219 224.093 196.952 224.512 196.761C224.931 196.565 225.421 196.467 225.982 196.467C226.574 196.467 227.094 196.585 227.54 196.822C227.987 197.055 228.338 197.381 228.593 197.8C228.853 198.215 228.987 198.698 228.996 199.249H227.445C227.431 198.976 227.362 198.729 227.239 198.511C227.121 198.287 226.952 198.11 226.734 197.978C226.519 197.845 226.262 197.779 225.961 197.779C225.628 197.779 225.353 197.848 225.134 197.984C224.915 198.117 224.744 198.299 224.621 198.531C224.498 198.759 224.409 199.017 224.355 199.304C224.305 199.586 224.279 199.88 224.279 200.186V200.425C224.279 200.73 224.305 201.026 224.355 201.313C224.405 201.601 224.491 201.858 224.614 202.086C224.742 202.309 224.915 202.489 225.134 202.626C225.353 202.758 225.631 202.824 225.968 202.824ZM233.622 204.137C233.075 204.137 232.58 204.048 232.138 203.87C231.701 203.688 231.327 203.435 231.017 203.111C230.712 202.788 230.477 202.407 230.313 201.97C230.149 201.532 230.067 201.061 230.067 200.555V200.281C230.067 199.702 230.151 199.178 230.32 198.709C230.489 198.24 230.723 197.839 231.024 197.506C231.325 197.169 231.68 196.911 232.09 196.733C232.501 196.556 232.945 196.467 233.423 196.467C233.952 196.467 234.415 196.556 234.811 196.733C235.208 196.911 235.536 197.162 235.796 197.485C236.06 197.804 236.256 198.185 236.383 198.627C236.516 199.069 236.582 199.557 236.582 200.09V200.794H230.867V199.611H234.955V199.481C234.946 199.185 234.886 198.907 234.777 198.647C234.672 198.388 234.51 198.178 234.292 198.019C234.073 197.859 233.781 197.779 233.417 197.779C233.143 197.779 232.899 197.839 232.685 197.957C232.476 198.071 232.3 198.237 232.159 198.456C232.018 198.675 231.908 198.939 231.831 199.249C231.758 199.554 231.721 199.898 231.721 200.281V200.555C231.721 200.878 231.765 201.179 231.851 201.457C231.942 201.73 232.074 201.97 232.248 202.175C232.421 202.38 232.63 202.542 232.877 202.66C233.123 202.774 233.403 202.831 233.717 202.831C234.114 202.831 234.467 202.751 234.777 202.592C235.087 202.432 235.356 202.207 235.584 201.915L236.452 202.756C236.292 202.988 236.085 203.212 235.83 203.426C235.574 203.635 235.262 203.806 234.893 203.938C234.529 204.071 234.105 204.137 233.622 204.137ZM239.73 193.5V204H238.076V193.5H239.73Z" fill="#6750A4"/>
</g>
<g clip-path="url(#clip3_52949_28054)">
<path d="M282.149 198.75V199.297C282.149 200.049 282.051 200.723 281.855 201.32C281.659 201.917 281.379 202.425 281.014 202.845C280.654 203.264 280.221 203.585 279.716 203.809C279.21 204.027 278.649 204.137 278.034 204.137C277.423 204.137 276.865 204.027 276.359 203.809C275.858 203.585 275.423 203.264 275.054 202.845C274.684 202.425 274.397 201.917 274.192 201.32C273.992 200.723 273.891 200.049 273.891 199.297V198.75C273.891 197.998 273.992 197.326 274.192 196.733C274.393 196.136 274.675 195.628 275.04 195.209C275.409 194.785 275.844 194.464 276.346 194.245C276.851 194.022 277.41 193.91 278.02 193.91C278.636 193.91 279.196 194.022 279.702 194.245C280.208 194.464 280.643 194.785 281.008 195.209C281.372 195.628 281.652 196.136 281.848 196.733C282.049 197.326 282.149 197.998 282.149 198.75ZM280.433 199.297V198.736C280.433 198.18 280.379 197.69 280.269 197.267C280.165 196.838 280.007 196.48 279.798 196.193C279.593 195.902 279.34 195.683 279.039 195.537C278.738 195.387 278.399 195.312 278.02 195.312C277.642 195.312 277.305 195.387 277.009 195.537C276.712 195.683 276.459 195.902 276.25 196.193C276.045 196.48 275.887 196.838 275.778 197.267C275.669 197.69 275.614 198.18 275.614 198.736V199.297C275.614 199.853 275.669 200.345 275.778 200.773C275.887 201.202 276.047 201.564 276.257 201.86C276.471 202.152 276.726 202.373 277.022 202.523C277.318 202.669 277.656 202.742 278.034 202.742C278.417 202.742 278.756 202.669 279.053 202.523C279.349 202.373 279.599 202.152 279.804 201.86C280.01 201.564 280.165 201.202 280.269 200.773C280.379 200.345 280.433 199.853 280.433 199.297ZM285.681 194.047V204H283.965V194.047H285.681ZM291.662 194.047L287.629 198.839L285.332 201.272L285.031 199.57L286.672 197.547L289.571 194.047H291.662ZM289.817 204L286.542 199.283L287.725 198.114L291.854 204H289.817Z" fill="#6750A4"/>
</g>
<defs>
<clipPath id="clip0_52949_28054">
<rect x="252" y="60" width="52" height="72" rx="8" fill="white"/>
</clipPath>
<clipPath id="clip1_52949_28054">
<rect x="16" y="179" width="40" height="40" rx="20" fill="white"/>
</clipPath>
<clipPath id="clip2_52949_28054">
<rect x="185" y="179" width="68" height="40" rx="20" fill="white"/>
</clipPath>
<clipPath id="clip3_52949_28054">
<rect x="261" y="179" width="43" height="40" rx="20" fill="white"/>
</clipPath>
</defs>
</svg>
