<svg width="328" height="520" viewBox="0 0 328 520" fill="none" xmlns="http://www.w3.org/2000/svg">
<rect width="328" height="520" rx="28" fill="#FFFBFE"/>
<rect width="328" height="520" rx="28" fill="#6750A4" fill-opacity="0.11"/>
<path d="M29.3555 33.8027C29.3555 33.627 29.3281 33.4707 29.2734 33.334C29.2227 33.1973 29.1309 33.0723 28.998 32.959C28.8652 32.8457 28.6777 32.7363 28.4355 32.6309C28.1973 32.5215 27.8926 32.4102 27.5215 32.2969C27.1152 32.1719 26.7402 32.0332 26.3965 31.8809C26.0566 31.7246 25.7598 31.5449 25.5059 31.3418C25.252 31.1348 25.0547 30.8984 24.9141 30.6328C24.7734 30.3633 24.7031 30.0527 24.7031 29.7012C24.7031 29.3535 24.7754 29.0371 24.9199 28.752C25.0684 28.4668 25.2773 28.2207 25.5469 28.0137C25.8203 27.8027 26.1426 27.6406 26.5137 27.5273C26.8848 27.4102 27.2949 27.3516 27.7441 27.3516C28.377 27.3516 28.9219 27.4688 29.3789 27.7031C29.8398 27.9375 30.1934 28.252 30.4395 28.6465C30.6895 29.041 30.8145 29.4766 30.8145 29.9531H29.3555C29.3555 29.6719 29.2949 29.4238 29.1738 29.209C29.0566 28.9902 28.877 28.8184 28.6348 28.6934C28.3965 28.5684 28.0938 28.5059 27.7266 28.5059C27.3789 28.5059 27.0898 28.5586 26.8594 28.6641C26.6289 28.7695 26.457 28.9121 26.3438 29.0918C26.2305 29.2715 26.1738 29.4746 26.1738 29.7012C26.1738 29.8613 26.2109 30.0078 26.2852 30.1406C26.3594 30.2695 26.4727 30.3906 26.625 30.5039C26.7773 30.6133 26.9688 30.7168 27.1992 30.8145C27.4297 30.9121 27.7012 31.0059 28.0137 31.0957C28.4863 31.2363 28.8984 31.3926 29.25 31.5645C29.6016 31.7324 29.8945 31.9238 30.1289 32.1387C30.3633 32.3535 30.5391 32.5977 30.6562 32.8711C30.7734 33.1406 30.832 33.4473 30.832 33.791C30.832 34.1504 30.7598 34.4746 30.6152 34.7637C30.4707 35.0488 30.2637 35.293 29.9941 35.4961C29.7285 35.6953 29.4082 35.8496 29.0332 35.959C28.6621 36.0645 28.248 36.1172 27.791 36.1172C27.3809 36.1172 26.9766 36.0625 26.5781 35.9531C26.1836 35.8438 25.8242 35.6777 25.5 35.4551C25.1758 35.2285 24.918 34.9473 24.7266 34.6113C24.5352 34.2715 24.4395 33.875 24.4395 33.4219H25.9102C25.9102 33.6992 25.957 33.9355 26.0508 34.1309C26.1484 34.3262 26.2832 34.4863 26.4551 34.6113C26.627 34.7324 26.8262 34.8223 27.0527 34.8809C27.2832 34.9395 27.5293 34.9688 27.791 34.9688C28.1348 34.9688 28.4219 34.9199 28.6523 34.8223C28.8867 34.7246 29.0625 34.5879 29.1797 34.4121C29.2969 34.2363 29.3555 34.0332 29.3555 33.8027ZM35.2871 36.1172C34.8184 36.1172 34.3945 36.041 34.0156 35.8887C33.6406 35.7324 33.3203 35.5156 33.0547 35.2383C32.793 34.9609 32.5918 34.6348 32.4512 34.2598C32.3105 33.8848 32.2402 33.4805 32.2402 33.0469V32.8125C32.2402 32.3164 32.3125 31.8672 32.457 31.4648C32.6016 31.0625 32.8027 30.7188 33.0605 30.4336C33.3184 30.1445 33.623 29.9238 33.9746 29.7715C34.3262 29.6191 34.707 29.543 35.1172 29.543C35.5703 29.543 35.9668 29.6191 36.3066 29.7715C36.6465 29.9238 36.9277 30.1387 37.1504 30.416C37.377 30.6895 37.5449 31.0156 37.6543 31.3945C37.7676 31.7734 37.8242 32.1914 37.8242 32.6484V33.252H32.9258V32.2383H36.4297V32.127C36.4219 31.873 36.3711 31.6348 36.2773 31.4121C36.1875 31.1895 36.0488 31.0098 35.8613 30.873C35.6738 30.7363 35.4238 30.668 35.1113 30.668C34.877 30.668 34.668 30.7188 34.4844 30.8203C34.3047 30.918 34.1543 31.0605 34.0332 31.248C33.9121 31.4355 33.8184 31.6621 33.752 31.9277C33.6895 32.1895 33.6582 32.4844 33.6582 32.8125V33.0469C33.6582 33.3242 33.6953 33.582 33.7695 33.8203C33.8477 34.0547 33.9609 34.2598 34.1094 34.4355C34.2578 34.6113 34.4375 34.75 34.6484 34.8516C34.8594 34.9492 35.0996 34.998 35.3691 34.998C35.709 34.998 36.0117 34.9297 36.2773 34.793C36.543 34.6562 36.7734 34.4629 36.9688 34.2129L37.7129 34.9336C37.5762 35.1328 37.3984 35.3242 37.1797 35.5078C36.9609 35.6875 36.6934 35.834 36.377 35.9473C36.0645 36.0605 35.7012 36.1172 35.2871 36.1172ZM40.9375 27V36H39.5195V27H40.9375ZM45.7793 36.1172C45.3105 36.1172 44.8867 36.041 44.5078 35.8887C44.1328 35.7324 43.8125 35.5156 43.5469 35.2383C43.2852 34.9609 43.084 34.6348 42.9434 34.2598C42.8027 33.8848 42.7324 33.4805 42.7324 33.0469V32.8125C42.7324 32.3164 42.8047 31.8672 42.9492 31.4648C43.0938 31.0625 43.2949 30.7188 43.5527 30.4336C43.8105 30.1445 44.1152 29.9238 44.4668 29.7715C44.8184 29.6191 45.1992 29.543 45.6094 29.543C46.0625 29.543 46.459 29.6191 46.7988 29.7715C47.1387 29.9238 47.4199 30.1387 47.6426 30.416C47.8691 30.6895 48.0371 31.0156 48.1465 31.3945C48.2598 31.7734 48.3164 32.1914 48.3164 32.6484V33.252H43.418V32.2383H46.9219V32.127C46.9141 31.873 46.8633 31.6348 46.7695 31.4121C46.6797 31.1895 46.541 31.0098 46.3535 30.873C46.166 30.7363 45.916 30.668 45.6035 30.668C45.3691 30.668 45.1602 30.7188 44.9766 30.8203C44.7969 30.918 44.6465 31.0605 44.5254 31.248C44.4043 31.4355 44.3105 31.6621 44.2441 31.9277C44.1816 32.1895 44.1504 32.4844 44.1504 32.8125V33.0469C44.1504 33.3242 44.1875 33.582 44.2617 33.8203C44.3398 34.0547 44.4531 34.2598 44.6016 34.4355C44.75 34.6113 44.9297 34.75 45.1406 34.8516C45.3516 34.9492 45.5918 34.998 45.8613 34.998C46.2012 34.998 46.5039 34.9297 46.7695 34.793C47.0352 34.6562 47.2656 34.4629 47.4609 34.2129L48.2051 34.9336C48.0684 35.1328 47.8906 35.3242 47.6719 35.5078C47.4531 35.6875 47.1855 35.834 46.8691 35.9473C46.5566 36.0605 46.1934 36.1172 45.7793 36.1172ZM52.5078 34.9922C52.7383 34.9922 52.9453 34.9473 53.1289 34.8574C53.3164 34.7637 53.4668 34.6348 53.5801 34.4707C53.6973 34.3066 53.7617 34.1172 53.7734 33.9023H55.1035C55.0957 34.3125 54.9746 34.6855 54.7402 35.0215C54.5059 35.3574 54.1953 35.625 53.8086 35.8242C53.4219 36.0195 52.9941 36.1172 52.5254 36.1172C52.041 36.1172 51.6191 36.0352 51.2598 35.8711C50.9004 35.7031 50.6016 35.4727 50.3633 35.1797C50.125 34.8867 49.9453 34.5488 49.8242 34.166C49.707 33.7832 49.6484 33.373 49.6484 32.9355V32.7305C49.6484 32.293 49.707 31.8828 49.8242 31.5C49.9453 31.1133 50.125 30.7734 50.3633 30.4805C50.6016 30.1875 50.9004 29.959 51.2598 29.7949C51.6191 29.627 52.0391 29.543 52.5195 29.543C53.0273 29.543 53.4727 29.6445 53.8555 29.8477C54.2383 30.0469 54.5391 30.3262 54.7578 30.6855C54.9805 31.041 55.0957 31.4551 55.1035 31.9277H53.7734C53.7617 31.6934 53.7031 31.4824 53.5977 31.2949C53.4961 31.1035 53.3516 30.9512 53.1641 30.8379C52.9805 30.7246 52.7598 30.668 52.502 30.668C52.2168 30.668 51.9805 30.7266 51.793 30.8438C51.6055 30.957 51.459 31.1133 51.3535 31.3125C51.248 31.5078 51.1719 31.7285 51.125 31.9746C51.082 32.2168 51.0605 32.4688 51.0605 32.7305V32.9355C51.0605 33.1973 51.082 33.4512 51.125 33.6973C51.168 33.9434 51.2422 34.1641 51.3477 34.3594C51.457 34.5508 51.6055 34.7051 51.793 34.8223C51.9805 34.9355 52.2188 34.9922 52.5078 34.9922ZM59.5938 29.6602V30.6914H56.0195V29.6602H59.5938ZM57.0508 28.1074H58.4629V34.248C58.4629 34.4434 58.4902 34.5938 58.5449 34.6992C58.6035 34.8008 58.6836 34.8691 58.7852 34.9043C58.8867 34.9395 59.0059 34.957 59.1426 34.957C59.2402 34.957 59.334 34.9512 59.4238 34.9395C59.5137 34.9277 59.5859 34.916 59.6406 34.9043L59.6465 35.9824C59.5293 36.0176 59.3926 36.0488 59.2363 36.0762C59.084 36.1035 58.9082 36.1172 58.709 36.1172C58.3848 36.1172 58.0977 36.0605 57.8477 35.9473C57.5977 35.8301 57.4023 35.6406 57.2617 35.3789C57.1211 35.1172 57.0508 34.7695 57.0508 34.3359V28.1074ZM67.5781 29.6602V30.6914H64.0039V29.6602H67.5781ZM65.0352 28.1074H66.4473V34.248C66.4473 34.4434 66.4746 34.5938 66.5293 34.6992C66.5879 34.8008 66.668 34.8691 66.7695 34.9043C66.8711 34.9395 66.9902 34.957 67.127 34.957C67.2246 34.957 67.3184 34.9512 67.4082 34.9395C67.498 34.9277 67.5703 34.916 67.625 34.9043L67.6309 35.9824C67.5137 36.0176 67.377 36.0488 67.2207 36.0762C67.0684 36.1035 66.8926 36.1172 66.6934 36.1172C66.3691 36.1172 66.082 36.0605 65.832 35.9473C65.582 35.8301 65.3867 35.6406 65.2461 35.3789C65.1055 35.1172 65.0352 34.7695 65.0352 34.3359V28.1074ZM70.6797 29.6602V36H69.2617V29.6602H70.6797ZM69.168 27.9961C69.168 27.7812 69.2383 27.6035 69.3789 27.4629C69.5234 27.3184 69.7227 27.2461 69.9766 27.2461C70.2266 27.2461 70.4238 27.3184 70.5684 27.4629C70.7129 27.6035 70.7852 27.7812 70.7852 27.9961C70.7852 28.207 70.7129 28.3828 70.5684 28.5234C70.4238 28.6641 70.2266 28.7344 69.9766 28.7344C69.7227 28.7344 69.5234 28.6641 69.3789 28.5234C69.2383 28.3828 69.168 28.207 69.168 27.9961ZM74.1387 30.9492V36H72.7266V29.6602H74.0566L74.1387 30.9492ZM73.9102 32.5957L73.4297 32.5898C73.4297 32.1523 73.4844 31.748 73.5938 31.377C73.7031 31.0059 73.8633 30.6836 74.0742 30.4102C74.2852 30.1328 74.5469 29.9199 74.8594 29.7715C75.1758 29.6191 75.541 29.543 75.9551 29.543C76.2441 29.543 76.5078 29.5859 76.7461 29.6719C76.9883 29.7539 77.1973 29.8848 77.373 30.0645C77.5527 30.2441 77.6895 30.4746 77.7832 30.7559C77.8809 31.0371 77.9297 31.377 77.9297 31.7754V36H76.5176V31.8984C76.5176 31.5898 76.4707 31.3477 76.377 31.1719C76.2871 30.9961 76.1562 30.8711 75.9844 30.7969C75.8164 30.7188 75.6152 30.6797 75.3809 30.6797C75.1152 30.6797 74.8887 30.7305 74.7012 30.832C74.5176 30.9336 74.3672 31.0723 74.25 31.248C74.1328 31.4238 74.0469 31.627 73.9922 31.8574C73.9375 32.0879 73.9102 32.334 73.9102 32.5957ZM77.8418 32.2207L77.1797 32.3672C77.1797 31.9844 77.2324 31.623 77.3379 31.2832C77.4473 30.9395 77.6055 30.6387 77.8125 30.3809C78.0234 30.1191 78.2832 29.9141 78.5918 29.7656C78.9004 29.6172 79.2539 29.543 79.6523 29.543C79.9766 29.543 80.2656 29.5879 80.5195 29.6777C80.7773 29.7637 80.9961 29.9004 81.1758 30.0879C81.3555 30.2754 81.4922 30.5195 81.5859 30.8203C81.6797 31.1172 81.7266 31.4766 81.7266 31.8984V36H80.3086V31.8926C80.3086 31.5723 80.2617 31.3242 80.168 31.1484C80.0781 30.9727 79.9492 30.8516 79.7812 30.7852C79.6133 30.7148 79.4121 30.6797 79.1777 30.6797C78.959 30.6797 78.7656 30.7207 78.5977 30.8027C78.4336 30.8809 78.2949 30.9922 78.1816 31.1367C78.0684 31.2773 77.9824 31.4395 77.9238 31.623C77.8691 31.8066 77.8418 32.0059 77.8418 32.2207ZM86.4746 36.1172C86.0059 36.1172 85.582 36.041 85.2031 35.8887C84.8281 35.7324 84.5078 35.5156 84.2422 35.2383C83.9805 34.9609 83.7793 34.6348 83.6387 34.2598C83.498 33.8848 83.4277 33.4805 83.4277 33.0469V32.8125C83.4277 32.3164 83.5 31.8672 83.6445 31.4648C83.7891 31.0625 83.9902 30.7188 84.248 30.4336C84.5059 30.1445 84.8105 29.9238 85.1621 29.7715C85.5137 29.6191 85.8945 29.543 86.3047 29.543C86.7578 29.543 87.1543 29.6191 87.4941 29.7715C87.834 29.9238 88.1152 30.1387 88.3379 30.416C88.5645 30.6895 88.7324 31.0156 88.8418 31.3945C88.9551 31.7734 89.0117 32.1914 89.0117 32.6484V33.252H84.1133V32.2383H87.6172V32.127C87.6094 31.873 87.5586 31.6348 87.4648 31.4121C87.375 31.1895 87.2363 31.0098 87.0488 30.873C86.8613 30.7363 86.6113 30.668 86.2988 30.668C86.0645 30.668 85.8555 30.7188 85.6719 30.8203C85.4922 30.918 85.3418 31.0605 85.2207 31.248C85.0996 31.4355 85.0059 31.6621 84.9395 31.9277C84.877 32.1895 84.8457 32.4844 84.8457 32.8125V33.0469C84.8457 33.3242 84.8828 33.582 84.957 33.8203C85.0352 34.0547 85.1484 34.2598 85.2969 34.4355C85.4453 34.6113 85.625 34.75 85.8359 34.8516C86.0469 34.9492 86.2871 34.998 86.5566 34.998C86.8965 34.998 87.1992 34.9297 87.4648 34.793C87.7305 34.6562 87.9609 34.4629 88.1562 34.2129L88.9004 34.9336C88.7637 35.1328 88.5859 35.3242 88.3672 35.5078C88.1484 35.6875 87.8809 35.834 87.5645 35.9473C87.252 36.0605 86.8887 36.1172 86.4746 36.1172Z" fill="#49454F"/>
<g clip-path="url(#clip0_52949_27917)">
<g clip-path="url(#clip1_52949_27917)">
<rect x="24" y="60" width="96" height="80" rx="8" fill="#EADDFF"/>
<path d="M68.7437 95.5098V101.688C68.7437 105.01 68.4468 107.812 67.853 110.094C67.2593 112.376 66.4058 114.213 65.2925 115.604C64.1792 116.996 62.834 118.007 61.2568 118.638C59.6982 119.25 57.9355 119.557 55.9688 119.557C54.4102 119.557 52.9722 119.362 51.6548 118.972C50.3374 118.583 49.1499 117.961 48.0923 117.107C47.0532 116.235 46.1626 115.104 45.4204 113.712C44.6782 112.32 44.1123 110.632 43.7227 108.646C43.333 106.661 43.1382 104.342 43.1382 101.688V95.5098C43.1382 92.1885 43.4351 89.4053 44.0288 87.1602C44.6411 84.915 45.5039 83.1152 46.6172 81.7607C47.7305 80.3877 49.0664 79.4043 50.625 78.8105C52.2021 78.2168 53.9648 77.9199 55.9131 77.9199C57.4902 77.9199 58.9375 78.1147 60.2549 78.5044C61.5908 78.8755 62.7783 79.4785 63.8174 80.3135C64.8564 81.1299 65.7378 82.2246 66.4614 83.5977C67.2036 84.9521 67.7695 86.6128 68.1592 88.5796C68.5488 90.5464 68.7437 92.8564 68.7437 95.5098ZM63.5669 102.523V94.647C63.5669 92.8286 63.4556 91.2329 63.2329 89.8599C63.0288 88.4683 62.7227 87.2808 62.3145 86.2974C61.9062 85.314 61.3867 84.5161 60.7559 83.9038C60.1436 83.2915 59.4292 82.8462 58.6128 82.5679C57.8149 82.271 56.915 82.1226 55.9131 82.1226C54.6885 82.1226 53.603 82.3545 52.6567 82.8184C51.7104 83.2637 50.9126 83.978 50.2632 84.9614C49.6323 85.9448 49.1499 87.2344 48.8159 88.8301C48.4819 90.4258 48.3149 92.3647 48.3149 94.647V102.523C48.3149 104.342 48.417 105.947 48.6211 107.338C48.8438 108.73 49.1685 109.936 49.5952 110.957C50.022 111.958 50.5415 112.784 51.1538 113.434C51.7661 114.083 52.4712 114.565 53.269 114.881C54.0854 115.178 54.9854 115.326 55.9688 115.326C57.2305 115.326 58.3345 115.085 59.2808 114.603C60.2271 114.12 61.0156 113.369 61.6465 112.348C62.2959 111.309 62.7783 109.982 63.0938 108.368C63.4092 106.735 63.5669 104.787 63.5669 102.523ZM101.558 78.4766V81.3711L84.7749 119H79.3477L96.1025 82.707H74.1709V78.4766H101.558Z" fill="#21005D"/>
</g>
</g>
<path d="M128.799 116.272C128.799 115.4 129.068 114.667 129.606 114.074C130.163 113.461 130.961 113.155 132 113.155C133.039 113.155 133.828 113.461 134.366 114.074C134.922 114.667 135.201 115.4 135.201 116.272C135.201 117.126 134.922 117.85 134.366 118.443C133.828 119.037 133.039 119.334 132 119.334C130.961 119.334 130.163 119.037 129.606 118.443C129.068 117.85 128.799 117.126 128.799 116.272ZM128.827 91.6968C128.827 90.8247 129.096 90.0918 129.634 89.498C130.191 88.8857 130.989 88.5796 132.028 88.5796C133.067 88.5796 133.855 88.8857 134.394 89.498C134.95 90.0918 135.229 90.8247 135.229 91.6968C135.229 92.5503 134.95 93.2739 134.394 93.8677C133.855 94.4614 133.067 94.7583 132.028 94.7583C130.989 94.7583 130.191 94.4614 129.634 93.8677C129.096 93.2739 128.827 92.5503 128.827 91.6968Z" fill="#1C1B1F"/>
<g clip-path="url(#clip2_52949_27917)">
<g clip-path="url(#clip3_52949_27917)">
<rect width="96" height="80" transform="translate(144 60)" fill="#E7E0EC"/>
<path d="M188.744 95.5098V101.688C188.744 105.01 188.447 107.812 187.853 110.094C187.259 112.376 186.406 114.213 185.292 115.604C184.179 116.996 182.834 118.007 181.257 118.638C179.698 119.25 177.936 119.557 175.969 119.557C174.41 119.557 172.972 119.362 171.655 118.972C170.337 118.583 169.15 117.961 168.092 117.107C167.053 116.235 166.163 115.104 165.42 113.712C164.678 112.32 164.112 110.632 163.723 108.646C163.333 106.661 163.138 104.342 163.138 101.688V95.5098C163.138 92.1885 163.435 89.4053 164.029 87.1602C164.641 84.915 165.504 83.1152 166.617 81.7607C167.73 80.3877 169.066 79.4043 170.625 78.8105C172.202 78.2168 173.965 77.9199 175.913 77.9199C177.49 77.9199 178.938 78.1147 180.255 78.5044C181.591 78.8755 182.778 79.4785 183.817 80.3135C184.856 81.1299 185.738 82.2246 186.461 83.5977C187.204 84.9521 187.77 86.6128 188.159 88.5796C188.549 90.5464 188.744 92.8564 188.744 95.5098ZM183.567 102.523V94.647C183.567 92.8286 183.456 91.2329 183.233 89.8599C183.029 88.4683 182.723 87.2808 182.314 86.2974C181.906 85.314 181.387 84.5161 180.756 83.9038C180.144 83.2915 179.429 82.8462 178.613 82.5679C177.815 82.271 176.915 82.1226 175.913 82.1226C174.688 82.1226 173.603 82.3545 172.657 82.8184C171.71 83.2637 170.913 83.978 170.263 84.9614C169.632 85.9448 169.15 87.2344 168.816 88.8301C168.482 90.4258 168.315 92.3647 168.315 94.647V102.523C168.315 104.342 168.417 105.947 168.621 107.338C168.844 108.73 169.168 109.936 169.595 110.957C170.022 111.958 170.542 112.784 171.154 113.434C171.766 114.083 172.471 114.565 173.269 114.881C174.085 115.178 174.985 115.326 175.969 115.326C177.23 115.326 178.334 115.085 179.281 114.603C180.227 114.12 181.016 113.369 181.646 112.348C182.296 111.309 182.778 109.982 183.094 108.368C183.409 106.735 183.567 104.787 183.567 102.523ZM220.806 95.5098V101.688C220.806 105.01 220.509 107.812 219.916 110.094C219.322 112.376 218.468 114.213 217.355 115.604C216.242 116.996 214.896 118.007 213.319 118.638C211.761 119.25 209.998 119.557 208.031 119.557C206.473 119.557 205.035 119.362 203.717 118.972C202.4 118.583 201.212 117.961 200.155 117.107C199.116 116.235 198.225 115.104 197.483 113.712C196.741 112.32 196.175 110.632 195.785 108.646C195.396 106.661 195.201 104.342 195.201 101.688V95.5098C195.201 92.1885 195.498 89.4053 196.091 87.1602C196.704 84.915 197.566 83.1152 198.68 81.7607C199.793 80.3877 201.129 79.4043 202.688 78.8105C204.265 78.2168 206.027 77.9199 207.976 77.9199C209.553 77.9199 211 78.1147 212.317 78.5044C213.653 78.8755 214.841 79.4785 215.88 80.3135C216.919 81.1299 217.8 82.2246 218.524 83.5977C219.266 84.9521 219.832 86.6128 220.222 88.5796C220.611 90.5464 220.806 92.8564 220.806 95.5098ZM215.629 102.523V94.647C215.629 92.8286 215.518 91.2329 215.295 89.8599C215.091 88.4683 214.785 87.2808 214.377 86.2974C213.969 85.314 213.449 84.5161 212.818 83.9038C212.206 83.2915 211.492 82.8462 210.675 82.5679C209.877 82.271 208.978 82.1226 207.976 82.1226C206.751 82.1226 205.666 82.3545 204.719 82.8184C203.773 83.2637 202.975 83.978 202.326 84.9614C201.695 85.9448 201.212 87.2344 200.878 88.8301C200.544 90.4258 200.377 92.3647 200.377 94.647V102.523C200.377 104.342 200.479 105.947 200.684 107.338C200.906 108.73 201.231 109.936 201.658 110.957C202.084 111.958 202.604 112.784 203.216 113.434C203.829 114.083 204.534 114.565 205.332 114.881C206.148 115.178 207.048 115.326 208.031 115.326C209.293 115.326 210.397 115.085 211.343 114.603C212.29 114.12 213.078 113.369 213.709 112.348C214.358 111.309 214.841 109.982 215.156 108.368C215.472 106.735 215.629 104.787 215.629 102.523Z" fill="#1C1B1F"/>
</g>
</g>
<g clip-path="url(#clip4_52949_27917)">
<rect x="252" y="60" width="52" height="80" rx="8" fill="#FFFBFE"/>
<rect x="252" y="60" width="52" height="80" rx="8" fill="#6750A4" fill-opacity="0.11"/>
<path d="M252 60H304V100H252V60Z" fill="#FFD8E4"/>
<path d="M271.206 75.1406L267.808 85H265.753L270.034 73.625H271.347L271.206 75.1406ZM274.05 85L270.644 75.1406L270.495 73.625H271.816L276.113 85H274.05ZM273.886 80.7812V82.3359H267.698V80.7812H273.886ZM278.333 73.625H280.083L283.372 82.3984L286.653 73.625H288.403L284.059 85H282.669L278.333 73.625ZM277.536 73.625H279.2L279.489 81.2188V85H277.536V73.625ZM287.536 73.625H289.208V85H287.247V81.2188L287.536 73.625Z" fill="#31111D"/>
<path d="M304 99.5H252V100.5H304V99.5Z" fill="#79747E"/>
<path d="M271.292 120.758H268.331V119.203H271.292C271.808 119.203 272.224 119.12 272.542 118.953C272.86 118.786 273.092 118.557 273.238 118.266C273.389 117.969 273.464 117.63 273.464 117.25C273.464 116.891 273.389 116.555 273.238 116.242C273.092 115.924 272.86 115.669 272.542 115.477C272.224 115.284 271.808 115.188 271.292 115.188H268.933V125H266.972V113.625H271.292C272.172 113.625 272.92 113.781 273.534 114.094C274.154 114.401 274.626 114.828 274.948 115.375C275.271 115.917 275.433 116.536 275.433 117.234C275.433 117.969 275.271 118.599 274.948 119.125C274.626 119.651 274.154 120.055 273.534 120.336C272.92 120.617 272.172 120.758 271.292 120.758ZM278.137 113.625H279.887L283.177 122.398L286.458 113.625H288.208L283.864 125H282.473L278.137 113.625ZM277.341 113.625H279.005L279.294 121.219V125H277.341V113.625ZM287.341 113.625H289.012V125H287.052V121.219L287.341 113.625Z" fill="#49454F"/>
<path d="M252 100.5H304V99.5H252V100.5Z" fill="#79747E"/>
</g>
<rect x="252.5" y="60.5" width="51" height="79" rx="7.5" stroke="#79747E"/>
<rect x="36" y="176" width="256" height="256" rx="128" fill="#E7E0EC"/>
<circle cx="164" cy="304" r="3.5" transform="rotate(-90 164 304)" fill="#6750A4" stroke="#6750A4"/>
<path d="M160.445 195.562V207H159V197.367L156.086 198.43V197.125L160.219 195.562H160.445ZM172.648 205.812V207H165.203V205.961L168.93 201.812C169.388 201.302 169.742 200.87 169.992 200.516C170.247 200.156 170.424 199.836 170.523 199.555C170.628 199.268 170.68 198.977 170.68 198.68C170.68 198.305 170.602 197.966 170.445 197.664C170.294 197.357 170.07 197.112 169.773 196.93C169.477 196.747 169.117 196.656 168.695 196.656C168.19 196.656 167.768 196.755 167.43 196.953C167.096 197.146 166.846 197.417 166.68 197.766C166.513 198.115 166.43 198.516 166.43 198.969H164.984C164.984 198.328 165.125 197.742 165.406 197.211C165.688 196.68 166.104 196.258 166.656 195.945C167.208 195.628 167.888 195.469 168.695 195.469C169.414 195.469 170.029 195.596 170.539 195.852C171.049 196.102 171.44 196.456 171.711 196.914C171.987 197.367 172.125 197.898 172.125 198.508C172.125 198.841 172.068 199.18 171.953 199.523C171.844 199.862 171.69 200.201 171.492 200.539C171.299 200.878 171.073 201.211 170.812 201.539C170.557 201.867 170.284 202.19 169.992 202.508L166.945 205.812H172.648Z" fill="#1C1B1F"/>
<path d="M110.445 209.562V221H109V211.367L106.086 212.43V211.125L110.219 209.562H110.445ZM119.945 209.562V221H118.5V211.367L115.586 212.43V211.125L119.719 209.562H119.945Z" fill="#1C1B1F"/>
<path d="M72.4453 247.562V259H71V249.367L68.0859 250.43V249.125L72.2188 247.562H72.4453ZM84.3359 252.406V254.141C84.3359 255.073 84.2526 255.859 84.0859 256.5C83.9193 257.141 83.6797 257.656 83.3672 258.047C83.0547 258.438 82.6771 258.721 82.2344 258.898C81.7969 259.07 81.3021 259.156 80.75 259.156C80.3125 259.156 79.9089 259.102 79.5391 258.992C79.1693 258.883 78.8359 258.708 78.5391 258.469C78.2474 258.224 77.9974 257.906 77.7891 257.516C77.5807 257.125 77.4219 256.651 77.3125 256.094C77.2031 255.536 77.1484 254.885 77.1484 254.141V252.406C77.1484 251.474 77.2318 250.693 77.3984 250.062C77.5703 249.432 77.8125 248.927 78.125 248.547C78.4375 248.161 78.8125 247.885 79.25 247.719C79.6927 247.552 80.1875 247.469 80.7344 247.469C81.1771 247.469 81.5833 247.523 81.9531 247.633C82.3281 247.737 82.6615 247.906 82.9531 248.141C83.2448 248.37 83.4922 248.677 83.6953 249.062C83.9036 249.443 84.0625 249.909 84.1719 250.461C84.2812 251.013 84.3359 251.661 84.3359 252.406ZM82.8828 254.375V252.164C82.8828 251.654 82.8516 251.206 82.7891 250.82C82.7318 250.43 82.6458 250.096 82.5312 249.82C82.4167 249.544 82.2708 249.32 82.0938 249.148C81.9219 248.977 81.7214 248.852 81.4922 248.773C81.2682 248.69 81.0156 248.648 80.7344 248.648C80.3906 248.648 80.0859 248.714 79.8203 248.844C79.5547 248.969 79.3307 249.169 79.1484 249.445C78.9714 249.721 78.8359 250.083 78.7422 250.531C78.6484 250.979 78.6016 251.523 78.6016 252.164V254.375C78.6016 254.885 78.6302 255.336 78.6875 255.727C78.75 256.117 78.8411 256.456 78.9609 256.742C79.0807 257.023 79.2266 257.255 79.3984 257.438C79.5703 257.62 79.7682 257.755 79.9922 257.844C80.2214 257.927 80.474 257.969 80.75 257.969C81.1042 257.969 81.4141 257.901 81.6797 257.766C81.9453 257.63 82.1667 257.419 82.3438 257.133C82.526 256.841 82.6615 256.469 82.75 256.016C82.8385 255.557 82.8828 255.01 82.8828 254.375Z" fill="#1C1B1F"/>
<path d="M59.8828 307.789H60.0312C60.8646 307.789 61.5417 307.672 62.0625 307.438C62.5833 307.203 62.9844 306.888 63.2656 306.492C63.5469 306.096 63.7396 305.651 63.8438 305.156C63.9479 304.656 64 304.143 64 303.617V301.875C64 301.359 63.9401 300.901 63.8203 300.5C63.7057 300.099 63.5443 299.763 63.3359 299.492C63.1328 299.221 62.901 299.016 62.6406 298.875C62.3802 298.734 62.1042 298.664 61.8125 298.664C61.4792 298.664 61.1797 298.732 60.9141 298.867C60.6536 298.997 60.4323 299.182 60.25 299.422C60.0729 299.661 59.9375 299.943 59.8438 300.266C59.75 300.589 59.7031 300.94 59.7031 301.32C59.7031 301.659 59.7448 301.987 59.8281 302.305C59.9115 302.622 60.0391 302.909 60.2109 303.164C60.3828 303.419 60.5964 303.622 60.8516 303.773C61.112 303.919 61.4167 303.992 61.7656 303.992C62.0885 303.992 62.3906 303.93 62.6719 303.805C62.9583 303.674 63.2109 303.5 63.4297 303.281C63.6536 303.057 63.8307 302.805 63.9609 302.523C64.0964 302.242 64.1745 301.948 64.1953 301.641H64.8828C64.8828 302.073 64.7969 302.5 64.625 302.922C64.4583 303.339 64.224 303.719 63.9219 304.062C63.6198 304.406 63.2656 304.682 62.8594 304.891C62.4531 305.094 62.0104 305.195 61.5312 305.195C60.9688 305.195 60.4818 305.086 60.0703 304.867C59.6589 304.648 59.3203 304.357 59.0547 303.992C58.7943 303.628 58.599 303.221 58.4688 302.773C58.3438 302.32 58.2812 301.862 58.2812 301.398C58.2812 300.857 58.3568 300.349 58.5078 299.875C58.6589 299.401 58.8828 298.984 59.1797 298.625C59.4766 298.26 59.8438 297.977 60.2812 297.773C60.724 297.57 61.2344 297.469 61.8125 297.469C62.4635 297.469 63.0182 297.599 63.4766 297.859C63.9349 298.12 64.3073 298.469 64.5938 298.906C64.8854 299.344 65.099 299.836 65.2344 300.383C65.3698 300.93 65.4375 301.492 65.4375 302.07V302.594C65.4375 303.182 65.3984 303.781 65.3203 304.391C65.2474 304.995 65.1042 305.573 64.8906 306.125C64.6823 306.677 64.3776 307.172 63.9766 307.609C63.5755 308.042 63.0521 308.385 62.4062 308.641C61.7656 308.891 60.974 309.016 60.0312 309.016H59.8828V307.789Z" fill="#1C1B1F"/>
<path d="M79.6172 355.922C79.6172 356.615 79.4557 357.203 79.1328 357.688C78.8151 358.167 78.3828 358.531 77.8359 358.781C77.2943 359.031 76.6823 359.156 76 359.156C75.3177 359.156 74.7031 359.031 74.1562 358.781C73.6094 358.531 73.1771 358.167 72.8594 357.688C72.5417 357.203 72.3828 356.615 72.3828 355.922C72.3828 355.469 72.4688 355.055 72.6406 354.68C72.8177 354.299 73.0651 353.969 73.3828 353.688C73.7057 353.406 74.0859 353.19 74.5234 353.039C74.9661 352.883 75.4531 352.805 75.9844 352.805C76.6823 352.805 77.3047 352.94 77.8516 353.211C78.3984 353.477 78.8281 353.844 79.1406 354.312C79.4583 354.781 79.6172 355.318 79.6172 355.922ZM78.1641 355.891C78.1641 355.469 78.0729 355.096 77.8906 354.773C77.7083 354.445 77.4531 354.19 77.125 354.008C76.7969 353.826 76.4167 353.734 75.9844 353.734C75.5417 353.734 75.1589 353.826 74.8359 354.008C74.5182 354.19 74.2708 354.445 74.0938 354.773C73.9167 355.096 73.8281 355.469 73.8281 355.891C73.8281 356.328 73.9141 356.703 74.0859 357.016C74.263 357.323 74.513 357.56 74.8359 357.727C75.1641 357.888 75.5521 357.969 76 357.969C76.4479 357.969 76.8333 357.888 77.1562 357.727C77.4792 357.56 77.7266 357.323 77.8984 357.016C78.0755 356.703 78.1641 356.328 78.1641 355.891ZM79.3516 350.586C79.3516 351.138 79.2057 351.635 78.9141 352.078C78.6224 352.521 78.224 352.87 77.7188 353.125C77.2135 353.38 76.6406 353.508 76 353.508C75.349 353.508 74.7682 353.38 74.2578 353.125C73.7526 352.87 73.3568 352.521 73.0703 352.078C72.7839 351.635 72.6406 351.138 72.6406 350.586C72.6406 349.924 72.7839 349.362 73.0703 348.898C73.362 348.435 73.7604 348.081 74.2656 347.836C74.7708 347.591 75.3464 347.469 75.9922 347.469C76.6432 347.469 77.2214 347.591 77.7266 347.836C78.2318 348.081 78.6276 348.435 78.9141 348.898C79.2057 349.362 79.3516 349.924 79.3516 350.586ZM77.9062 350.609C77.9062 350.229 77.8255 349.893 77.6641 349.602C77.5026 349.31 77.2786 349.081 76.9922 348.914C76.7057 348.742 76.3724 348.656 75.9922 348.656C75.612 348.656 75.2786 348.737 74.9922 348.898C74.7109 349.055 74.4896 349.279 74.3281 349.57C74.1719 349.862 74.0938 350.208 74.0938 350.609C74.0938 351 74.1719 351.341 74.3281 351.633C74.4896 351.924 74.7135 352.151 75 352.312C75.2865 352.474 75.6198 352.555 76 352.555C76.3802 352.555 76.7109 352.474 76.9922 352.312C77.2786 352.151 77.5026 351.924 77.6641 351.633C77.8255 351.341 77.9062 351 77.9062 350.609Z" fill="#1C1B1F"/>
<line y1="-1" x2="104" y2="-1" transform="matrix(-0.5 0.866025 0.866025 0.5 164.5 304.5)" stroke="#6750A4" stroke-width="2"/>
<g clip-path="url(#clip5_52949_27917)">
<rect x="90" y="368" width="48" height="48" rx="24" fill="#6750A4"/>
<path d="M117.797 385.625V386.438L113.086 397H111.562L116.266 386.812H110.109V385.625H117.797Z" fill="white"/>
</g>
<path d="M165.992 399.609H166.117V400.836H165.992C165.227 400.836 164.586 400.961 164.07 401.211C163.555 401.456 163.146 401.786 162.844 402.203C162.542 402.615 162.323 403.078 162.188 403.594C162.057 404.109 161.992 404.633 161.992 405.164V406.836C161.992 407.341 162.052 407.789 162.172 408.18C162.292 408.565 162.456 408.891 162.664 409.156C162.872 409.422 163.107 409.622 163.367 409.758C163.633 409.893 163.909 409.961 164.195 409.961C164.529 409.961 164.826 409.898 165.086 409.773C165.346 409.643 165.565 409.464 165.742 409.234C165.924 409 166.062 408.724 166.156 408.406C166.25 408.089 166.297 407.74 166.297 407.359C166.297 407.021 166.255 406.695 166.172 406.383C166.089 406.065 165.961 405.784 165.789 405.539C165.617 405.289 165.401 405.094 165.141 404.953C164.885 404.807 164.581 404.734 164.227 404.734C163.826 404.734 163.451 404.833 163.102 405.031C162.758 405.224 162.474 405.479 162.25 405.797C162.031 406.109 161.906 406.451 161.875 406.82L161.109 406.812C161.182 406.229 161.318 405.732 161.516 405.32C161.719 404.904 161.969 404.565 162.266 404.305C162.568 404.039 162.904 403.846 163.273 403.727C163.648 403.602 164.044 403.539 164.461 403.539C165.029 403.539 165.518 403.646 165.93 403.859C166.341 404.073 166.68 404.359 166.945 404.719C167.211 405.073 167.406 405.474 167.531 405.922C167.661 406.365 167.727 406.82 167.727 407.289C167.727 407.826 167.651 408.328 167.5 408.797C167.349 409.266 167.122 409.677 166.82 410.031C166.523 410.385 166.156 410.661 165.719 410.859C165.281 411.057 164.773 411.156 164.195 411.156C163.581 411.156 163.044 411.031 162.586 410.781C162.128 410.526 161.747 410.188 161.445 409.766C161.143 409.344 160.917 408.875 160.766 408.359C160.615 407.844 160.539 407.32 160.539 406.789V406.109C160.539 405.307 160.62 404.521 160.781 403.75C160.943 402.979 161.221 402.281 161.617 401.656C162.018 401.031 162.573 400.534 163.281 400.164C163.99 399.794 164.893 399.609 165.992 399.609Z" fill="#1C1B1F"/>
<path d="M212.273 391.586L211.117 391.289L211.688 385.625H217.523V386.961H212.914L212.57 390.055C212.779 389.935 213.042 389.823 213.359 389.719C213.682 389.615 214.052 389.562 214.469 389.562C214.995 389.562 215.466 389.654 215.883 389.836C216.299 390.013 216.654 390.268 216.945 390.602C217.242 390.935 217.469 391.336 217.625 391.805C217.781 392.273 217.859 392.797 217.859 393.375C217.859 393.922 217.784 394.424 217.633 394.883C217.487 395.341 217.266 395.742 216.969 396.086C216.672 396.424 216.297 396.688 215.844 396.875C215.396 397.062 214.867 397.156 214.258 397.156C213.799 397.156 213.365 397.094 212.953 396.969C212.547 396.839 212.182 396.643 211.859 396.383C211.542 396.117 211.281 395.789 211.078 395.398C210.88 395.003 210.755 394.539 210.703 394.008H212.078C212.141 394.435 212.266 394.794 212.453 395.086C212.641 395.378 212.885 395.599 213.188 395.75C213.495 395.896 213.852 395.969 214.258 395.969C214.602 395.969 214.906 395.909 215.172 395.789C215.438 395.669 215.661 395.497 215.844 395.273C216.026 395.049 216.164 394.779 216.258 394.461C216.357 394.143 216.406 393.786 216.406 393.391C216.406 393.031 216.357 392.698 216.258 392.391C216.159 392.083 216.01 391.815 215.812 391.586C215.62 391.357 215.383 391.18 215.102 391.055C214.82 390.924 214.497 390.859 214.133 390.859C213.648 390.859 213.281 390.924 213.031 391.055C212.786 391.185 212.534 391.362 212.273 391.586Z" fill="#1C1B1F"/>
<path d="M256.133 355.172V356.359H247.914V355.508L253.008 347.625H254.188L252.922 349.906L249.555 355.172H256.133ZM254.547 347.625V359H253.102V347.625H254.547Z" fill="#1C1B1F"/>
<path d="M264.555 302.602H265.586C266.091 302.602 266.508 302.518 266.836 302.352C267.169 302.18 267.417 301.948 267.578 301.656C267.745 301.359 267.828 301.026 267.828 300.656C267.828 300.219 267.755 299.852 267.609 299.555C267.464 299.258 267.245 299.034 266.953 298.883C266.661 298.732 266.292 298.656 265.844 298.656C265.438 298.656 265.078 298.737 264.766 298.898C264.458 299.055 264.216 299.279 264.039 299.57C263.867 299.862 263.781 300.206 263.781 300.602H262.336C262.336 300.023 262.482 299.497 262.773 299.023C263.065 298.549 263.474 298.172 264 297.891C264.531 297.609 265.146 297.469 265.844 297.469C266.531 297.469 267.133 297.591 267.648 297.836C268.164 298.076 268.565 298.435 268.852 298.914C269.138 299.388 269.281 299.979 269.281 300.688C269.281 300.974 269.214 301.281 269.078 301.609C268.948 301.932 268.742 302.234 268.461 302.516C268.185 302.797 267.826 303.029 267.383 303.211C266.94 303.388 266.409 303.477 265.789 303.477H264.555V302.602ZM264.555 303.789V302.922H265.789C266.513 302.922 267.112 303.008 267.586 303.18C268.06 303.352 268.432 303.581 268.703 303.867C268.979 304.154 269.172 304.469 269.281 304.812C269.396 305.151 269.453 305.49 269.453 305.828C269.453 306.359 269.362 306.831 269.18 307.242C269.003 307.654 268.75 308.003 268.422 308.289C268.099 308.576 267.719 308.792 267.281 308.938C266.844 309.083 266.367 309.156 265.852 309.156C265.357 309.156 264.891 309.086 264.453 308.945C264.021 308.805 263.638 308.602 263.305 308.336C262.971 308.065 262.711 307.734 262.523 307.344C262.336 306.948 262.242 306.497 262.242 305.992H263.688C263.688 306.388 263.773 306.734 263.945 307.031C264.122 307.328 264.372 307.56 264.695 307.727C265.023 307.888 265.409 307.969 265.852 307.969C266.294 307.969 266.674 307.893 266.992 307.742C267.315 307.586 267.562 307.352 267.734 307.039C267.911 306.727 268 306.333 268 305.859C268 305.385 267.901 304.997 267.703 304.695C267.505 304.388 267.224 304.161 266.859 304.016C266.5 303.865 266.076 303.789 265.586 303.789H264.555Z" fill="#1C1B1F"/>
<path d="M255.898 257.812V259H248.453V257.961L252.18 253.812C252.638 253.302 252.992 252.87 253.242 252.516C253.497 252.156 253.674 251.836 253.773 251.555C253.878 251.268 253.93 250.977 253.93 250.68C253.93 250.305 253.852 249.966 253.695 249.664C253.544 249.357 253.32 249.112 253.023 248.93C252.727 248.747 252.367 248.656 251.945 248.656C251.44 248.656 251.018 248.755 250.68 248.953C250.346 249.146 250.096 249.417 249.93 249.766C249.763 250.115 249.68 250.516 249.68 250.969H248.234C248.234 250.328 248.375 249.742 248.656 249.211C248.938 248.68 249.354 248.258 249.906 247.945C250.458 247.628 251.138 247.469 251.945 247.469C252.664 247.469 253.279 247.596 253.789 247.852C254.299 248.102 254.69 248.456 254.961 248.914C255.237 249.367 255.375 249.898 255.375 250.508C255.375 250.841 255.318 251.18 255.203 251.523C255.094 251.862 254.94 252.201 254.742 252.539C254.549 252.878 254.323 253.211 254.062 253.539C253.807 253.867 253.534 254.19 253.242 254.508L250.195 257.812H255.898Z" fill="#1C1B1F"/>
<path d="M215.195 209.562V221H213.75V211.367L210.836 212.43V211.125L214.969 209.562H215.195Z" fill="#1C1B1F"/>
<g clip-path="url(#clip6_52949_27917)">
<path fill-rule="evenodd" clip-rule="evenodd" d="M44 469H28C26.9 469 26.01 469.9 26.01 471L26 481C26 482.1 26.9 483 28 483H44C45.1 483 46 482.1 46 481V471C46 469.9 45.1 469 44 469ZM44 471V481H28V471H44ZM37 472H35V474H37V472ZM35 475H37V477H35V475ZM34 472H32V474H34V472ZM32 475H34V477H32V475ZM31 475H29V477H31V475ZM29 472H31V474H29V472ZM40 478H32V480H40V478ZM38 475H40V477H38V475ZM40 472H38V474H40V472ZM41 475H43V477H41V475ZM43 472H41V474H43V472Z" fill="#49454F"/>
</g>
<g clip-path="url(#clip7_52949_27917)">
<path d="M204.203 477.76H205.912C205.857 478.411 205.675 478.993 205.365 479.503C205.055 480.009 204.62 480.408 204.06 480.699C203.499 480.991 202.818 481.137 202.016 481.137C201.4 481.137 200.847 481.027 200.354 480.809C199.862 480.585 199.441 480.271 199.09 479.865C198.739 479.455 198.47 478.961 198.283 478.382C198.101 477.803 198.01 477.156 198.01 476.44V475.613C198.01 474.898 198.103 474.251 198.29 473.672C198.481 473.093 198.755 472.599 199.11 472.188C199.466 471.774 199.892 471.457 200.389 471.238C200.89 471.02 201.453 470.91 202.077 470.91C202.87 470.91 203.54 471.056 204.087 471.348C204.634 471.639 205.058 472.043 205.358 472.558C205.664 473.073 205.851 473.663 205.919 474.328H204.21C204.164 473.9 204.064 473.533 203.909 473.228C203.759 472.922 203.535 472.69 203.239 472.53C202.943 472.366 202.556 472.284 202.077 472.284C201.685 472.284 201.343 472.357 201.052 472.503C200.76 472.649 200.516 472.863 200.32 473.146C200.124 473.428 199.976 473.777 199.876 474.191C199.78 474.602 199.732 475.071 199.732 475.6V476.44C199.732 476.942 199.776 477.397 199.862 477.808C199.953 478.213 200.09 478.562 200.272 478.854C200.459 479.145 200.696 479.371 200.983 479.53C201.271 479.69 201.615 479.77 202.016 479.77C202.503 479.77 202.897 479.692 203.198 479.537C203.504 479.382 203.734 479.157 203.889 478.86C204.048 478.56 204.153 478.193 204.203 477.76ZM211.577 479.517V475.989C211.577 475.725 211.529 475.497 211.433 475.306C211.337 475.114 211.191 474.966 210.996 474.861C210.804 474.757 210.563 474.704 210.271 474.704C210.002 474.704 209.77 474.75 209.574 474.841C209.378 474.932 209.225 475.055 209.116 475.21C209.006 475.365 208.952 475.54 208.952 475.736H207.311C207.311 475.445 207.382 475.162 207.523 474.889C207.664 474.615 207.869 474.371 208.138 474.157C208.407 473.943 208.728 473.774 209.102 473.651C209.476 473.528 209.895 473.467 210.36 473.467C210.916 473.467 211.408 473.56 211.836 473.747C212.269 473.934 212.609 474.216 212.855 474.595C213.106 474.968 213.231 475.438 213.231 476.003V479.291C213.231 479.628 213.254 479.931 213.299 480.2C213.349 480.465 213.42 480.695 213.511 480.891V481H211.823C211.745 480.822 211.684 480.597 211.638 480.323C211.597 480.045 211.577 479.776 211.577 479.517ZM211.816 476.502L211.829 477.521H210.647C210.342 477.521 210.073 477.55 209.84 477.609C209.608 477.664 209.414 477.746 209.259 477.855C209.104 477.965 208.988 478.097 208.911 478.252C208.833 478.407 208.794 478.582 208.794 478.778C208.794 478.974 208.84 479.154 208.931 479.318C209.022 479.478 209.154 479.603 209.328 479.694C209.505 479.785 209.719 479.831 209.97 479.831C210.307 479.831 210.601 479.763 210.852 479.626C211.107 479.485 211.308 479.314 211.454 479.113C211.599 478.908 211.677 478.715 211.686 478.532L212.219 479.264C212.164 479.451 212.071 479.651 211.939 479.865C211.807 480.079 211.634 480.285 211.419 480.48C211.21 480.672 210.957 480.829 210.661 480.952C210.369 481.075 210.032 481.137 209.649 481.137C209.166 481.137 208.735 481.041 208.357 480.85C207.979 480.654 207.682 480.392 207.468 480.063C207.254 479.731 207.147 479.355 207.147 478.936C207.147 478.544 207.22 478.197 207.366 477.896C207.516 477.591 207.735 477.336 208.022 477.131C208.314 476.926 208.669 476.771 209.088 476.666C209.508 476.557 209.986 476.502 210.524 476.502H211.816ZM216.687 475.183V481H215.04V473.604H216.592L216.687 475.183ZM216.393 477.028L215.86 477.021C215.865 476.497 215.938 476.017 216.079 475.579C216.225 475.142 216.425 474.766 216.68 474.451C216.94 474.137 217.25 473.895 217.61 473.727C217.97 473.553 218.371 473.467 218.813 473.467C219.169 473.467 219.49 473.517 219.777 473.617C220.069 473.713 220.317 473.87 220.522 474.089C220.732 474.308 220.891 474.592 221.001 474.943C221.11 475.29 221.165 475.716 221.165 476.222V481H219.511V476.215C219.511 475.859 219.458 475.579 219.353 475.374C219.253 475.164 219.105 475.016 218.909 474.93C218.718 474.839 218.478 474.793 218.191 474.793C217.909 474.793 217.656 474.852 217.432 474.971C217.209 475.089 217.02 475.251 216.865 475.456C216.715 475.661 216.598 475.898 216.516 476.167C216.434 476.436 216.393 476.723 216.393 477.028ZM225.968 479.824C226.237 479.824 226.478 479.772 226.693 479.667C226.911 479.558 227.087 479.407 227.219 479.216C227.356 479.024 227.431 478.803 227.445 478.553H228.996C228.987 479.031 228.846 479.466 228.572 479.858C228.299 480.25 227.937 480.562 227.486 480.795C227.034 481.023 226.535 481.137 225.988 481.137C225.423 481.137 224.931 481.041 224.512 480.85C224.093 480.654 223.744 480.385 223.466 480.043C223.188 479.701 222.978 479.307 222.837 478.86C222.7 478.414 222.632 477.935 222.632 477.425V477.186C222.632 476.675 222.7 476.197 222.837 475.75C222.978 475.299 223.188 474.902 223.466 474.561C223.744 474.219 224.093 473.952 224.512 473.761C224.931 473.565 225.421 473.467 225.982 473.467C226.574 473.467 227.094 473.585 227.54 473.822C227.987 474.055 228.338 474.381 228.593 474.8C228.853 475.215 228.987 475.698 228.996 476.249H227.445C227.431 475.976 227.362 475.729 227.239 475.511C227.121 475.287 226.952 475.11 226.734 474.978C226.519 474.845 226.262 474.779 225.961 474.779C225.628 474.779 225.353 474.848 225.134 474.984C224.915 475.117 224.744 475.299 224.621 475.531C224.498 475.759 224.409 476.017 224.355 476.304C224.305 476.586 224.279 476.88 224.279 477.186V477.425C224.279 477.73 224.305 478.026 224.355 478.313C224.405 478.601 224.491 478.858 224.614 479.086C224.742 479.309 224.915 479.489 225.134 479.626C225.353 479.758 225.631 479.824 225.968 479.824ZM233.622 481.137C233.075 481.137 232.58 481.048 232.138 480.87C231.701 480.688 231.327 480.435 231.017 480.111C230.712 479.788 230.477 479.407 230.313 478.97C230.149 478.532 230.067 478.061 230.067 477.555V477.281C230.067 476.702 230.151 476.178 230.32 475.709C230.489 475.24 230.723 474.839 231.024 474.506C231.325 474.169 231.68 473.911 232.09 473.733C232.501 473.556 232.945 473.467 233.423 473.467C233.952 473.467 234.415 473.556 234.811 473.733C235.208 473.911 235.536 474.162 235.796 474.485C236.06 474.804 236.256 475.185 236.383 475.627C236.516 476.069 236.582 476.557 236.582 477.09V477.794H230.867V476.611H234.955V476.481C234.946 476.185 234.886 475.907 234.777 475.647C234.672 475.388 234.51 475.178 234.292 475.019C234.073 474.859 233.781 474.779 233.417 474.779C233.143 474.779 232.899 474.839 232.685 474.957C232.476 475.071 232.3 475.237 232.159 475.456C232.018 475.675 231.908 475.939 231.831 476.249C231.758 476.554 231.721 476.898 231.721 477.281V477.555C231.721 477.878 231.765 478.179 231.851 478.457C231.942 478.73 232.074 478.97 232.248 479.175C232.421 479.38 232.63 479.542 232.877 479.66C233.123 479.774 233.403 479.831 233.717 479.831C234.114 479.831 234.467 479.751 234.777 479.592C235.087 479.432 235.356 479.207 235.584 478.915L236.452 479.756C236.292 479.988 236.085 480.212 235.83 480.426C235.574 480.635 235.262 480.806 234.893 480.938C234.529 481.071 234.105 481.137 233.622 481.137ZM239.73 470.5V481H238.076V470.5H239.73Z" fill="#6750A4"/>
</g>
<g clip-path="url(#clip8_52949_27917)">
<path d="M282.149 475.75V476.297C282.149 477.049 282.051 477.723 281.855 478.32C281.659 478.917 281.379 479.425 281.014 479.845C280.654 480.264 280.221 480.585 279.716 480.809C279.21 481.027 278.649 481.137 278.034 481.137C277.423 481.137 276.865 481.027 276.359 480.809C275.858 480.585 275.423 480.264 275.054 479.845C274.684 479.425 274.397 478.917 274.192 478.32C273.992 477.723 273.891 477.049 273.891 476.297V475.75C273.891 474.998 273.992 474.326 274.192 473.733C274.393 473.136 274.675 472.628 275.04 472.209C275.409 471.785 275.844 471.464 276.346 471.245C276.851 471.022 277.41 470.91 278.02 470.91C278.636 470.91 279.196 471.022 279.702 471.245C280.208 471.464 280.643 471.785 281.008 472.209C281.372 472.628 281.652 473.136 281.848 473.733C282.049 474.326 282.149 474.998 282.149 475.75ZM280.433 476.297V475.736C280.433 475.18 280.379 474.69 280.269 474.267C280.165 473.838 280.007 473.48 279.798 473.193C279.593 472.902 279.34 472.683 279.039 472.537C278.738 472.387 278.399 472.312 278.02 472.312C277.642 472.312 277.305 472.387 277.009 472.537C276.712 472.683 276.459 472.902 276.25 473.193C276.045 473.48 275.887 473.838 275.778 474.267C275.669 474.69 275.614 475.18 275.614 475.736V476.297C275.614 476.853 275.669 477.345 275.778 477.773C275.887 478.202 276.047 478.564 276.257 478.86C276.471 479.152 276.726 479.373 277.022 479.523C277.318 479.669 277.656 479.742 278.034 479.742C278.417 479.742 278.756 479.669 279.053 479.523C279.349 479.373 279.599 479.152 279.804 478.86C280.01 478.564 280.165 478.202 280.269 477.773C280.379 477.345 280.433 476.853 280.433 476.297ZM285.681 471.047V481H283.965V471.047H285.681ZM291.662 471.047L287.629 475.839L285.332 478.272L285.031 476.57L286.672 474.547L289.571 471.047H291.662ZM289.817 481L286.542 476.283L287.725 475.114L291.854 481H289.817Z" fill="#6750A4"/>
</g>
<defs>
<clipPath id="clip0_52949_27917">
<rect width="96" height="80" fill="white" transform="translate(24 60)"/>
</clipPath>
<clipPath id="clip1_52949_27917">
<rect x="24" y="60" width="96" height="80" rx="8" fill="white"/>
</clipPath>
<clipPath id="clip2_52949_27917">
<rect x="144" y="60" width="96" height="80" rx="8" fill="white"/>
</clipPath>
<clipPath id="clip3_52949_27917">
<rect width="96" height="80" fill="white" transform="translate(144 60)"/>
</clipPath>
<clipPath id="clip4_52949_27917">
<rect x="252" y="60" width="52" height="80" rx="8" fill="white"/>
</clipPath>
<clipPath id="clip5_52949_27917">
<rect x="90" y="368" width="48" height="48" rx="24" fill="white"/>
</clipPath>
<clipPath id="clip6_52949_27917">
<rect x="16" y="456" width="40" height="40" rx="20" fill="white"/>
</clipPath>
<clipPath id="clip7_52949_27917">
<rect x="185" y="456" width="68" height="40" rx="20" fill="white"/>
</clipPath>
<clipPath id="clip8_52949_27917">
<rect x="261" y="456" width="43" height="40" rx="20" fill="white"/>
</clipPath>
</defs>
</svg>
